<svg width="200" height="140" viewBox="0 0 200 140" fill="none" xmlns="http://www.w3.org/2000/svg">
<path d="M58.8578 63.6897C58.4593 62.6209 57.9164 60.7034 57.8854 58.7406C57.8455 56.4318 58.6011 54.8784 59.2459 53.9986C59.4419 53.724 59.4819 53.7395 59.6637 53.9623C60.5858 55.0804 61.3015 56.9785 61.3311 58.7807C61.3683 60.5931 60.759 62.3591 59.6134 63.7597C59.2201 64.2352 59.0693 64.2715 58.8578 63.6897ZM59.6289 70.4502C60.0467 71.5178 60.5355 73.1075 60.5652 74.7931C60.6051 77.2936 59.7089 79.2758 59.0589 79.991L58.9687 79.9858C58.0466 78.7408 57.1143 77.0189 57.0846 75.117C57.0498 73.0012 57.9706 71.5489 58.8771 70.3142C59.215 69.8529 59.4161 69.8996 59.6289 70.4502ZM62.5304 65.01C62.9624 64.0175 63.8045 62.9241 65.205 61.9731C67.3353 60.5155 69.6076 60.1307 70.625 60.2836L70.7359 60.4546C70.3375 61.8979 69.2491 63.5019 67.6577 64.458C66.0806 65.4103 64.8014 65.8495 62.8619 65.7187C62.3538 65.6837 62.3293 65.4751 62.5304 65.01ZM55.8105 68.9628C55.3115 70.0149 54.7376 70.8713 53.4829 71.7963C51.5279 73.2448 49.1551 73.4819 48.0977 73.4159C47.9365 73.4055 47.9119 73.3601 47.9558 73.2034C48.3555 71.7821 49.5136 70.0758 51.0752 69.1093C52.3648 68.3189 53.1605 68.1026 55.4378 68.249C55.9408 68.2788 56.0916 68.3863 55.8105 68.9615M55.8402 65.6785C54.8575 65.5412 53.0547 64.8739 51.7755 64.0978C49.7509 62.8696 49.1603 62.2827 48.2485 60.5971C48.1286 60.3743 48.1531 60.3082 48.3749 60.2577C49.8102 59.9286 52.0012 60.2525 53.5835 61.184C54.4604 61.6997 55.7448 63.1378 56.218 65.076C56.3341 65.5463 56.3741 65.7536 55.8402 65.6785ZM62.5459 68.284C63.7091 68.3656 65.4165 68.867 66.7499 69.6055C68.9228 70.8195 70.2627 72.6424 70.6302 73.5933L70.5902 73.6944C69.1588 74.0831 67.0439 73.7955 65.3907 72.8795C63.2152 71.6655 62.4144 69.7221 62.208 68.8255C62.1216 68.4563 62.1113 68.2542 62.5446 68.284" fill="white"/>
<path d="M48.9991 65.5308C51.4363 66.9482 54.2631 67.0855 55.9808 66.9987C56.9428 66.9534 56.5353 66.7202 56.0568 66.645C50.1893 65.6889 47.1563 62.7375 45.6642 58.9569C49.6232 58.0111 52.2836 58.5423 54.7776 60.7189C55.0097 60.921 55.2612 60.9716 54.9388 60.5311C54.0013 59.2562 52.6666 58.1018 50.6059 57.4838C48.1841 56.7609 45.7609 56.8826 43.0155 57.4138C44.1374 60.5971 45.2812 63.3749 48.9991 65.5308ZM69.507 68.1635C67.0736 66.7564 64.243 66.6139 62.5304 66.6994C61.5671 66.7461 61.9759 66.9793 62.4531 67.0596C68.318 68.0106 71.351 70.962 72.8418 74.7425C68.8828 75.6883 66.2263 75.1572 63.7336 72.9805C63.5015 72.7784 63.2449 72.7279 63.5673 73.1684C64.5086 74.4433 65.8446 75.6028 67.9002 76.2144C70.3271 76.9399 72.7502 76.8168 75.4957 76.2856C74.3738 73.1023 73.2286 70.3245 69.507 68.1622" fill="white"/>
<path d="M61.1248 66.7863C61.1248 64.6615 62.4286 62.3074 64.7962 60.6878C67.2399 59.0178 70.1569 58.5773 72.856 58.9776C71.6876 62.8943 69.9042 64.9387 66.7757 66.0219C66.4894 66.1229 66.3179 66.3159 66.8569 66.2551C68.6596 66.0717 70.3478 65.2818 71.6476 64.0136C73.5369 62.2166 74.6291 59.9545 75.5112 57.445C72.6251 56.9267 68.937 56.3411 65.285 58.4659C61.4524 60.6982 60.2737 64.1756 60.1473 66.4325H58.3677C58.3432 65.1421 58.182 64.2106 57.7694 62.9253C57.3567 61.6388 56.6965 59.9494 56.6965 58.2482C56.7119 55.4096 57.6985 53.0606 59.2653 51.0771C62.061 54.0531 62.9328 56.6235 62.2983 59.8833C62.2429 60.1916 62.3241 60.4352 62.5446 59.9351C63.1752 58.4763 63.5015 56.7453 63.0037 54.64C62.3976 52.1097 61.0139 50.0445 59.2653 48C57.1852 50.4902 55.2612 52.8637 55.2612 57.2674C55.2612 58.8001 55.6996 60.4805 56.3083 62.0702C56.837 63.4669 57.3864 64.2663 57.3864 66.9132C57.3864 69.0432 56.0775 71.3921 53.7098 73.0116C51.2661 74.6817 48.3491 75.1222 45.6552 74.7218C46.8235 70.8052 48.607 68.7607 51.7291 67.6776C52.0218 67.5766 52.1933 67.3796 51.6543 67.4392C49.8494 67.6277 48.1601 68.4208 46.8584 69.691C44.9756 71.4828 43.8769 73.7462 43 76.2558C45.886 76.7715 49.5742 77.3532 53.2262 75.2284C57.0537 73.0013 58.2375 69.5239 58.3639 67.2669H60.137C60.1667 68.5574 60.3279 69.4889 60.7418 70.7741C61.1545 72.0607 61.8147 73.7501 61.8147 75.4512C61.7992 78.2899 60.8076 80.6337 59.2408 82.6224C56.4501 79.6516 55.5784 77.0708 56.2077 73.8162C56.2683 73.513 56.1819 73.2643 55.9666 73.7644C55.336 75.2232 55.0046 76.9593 55.5075 79.0595C56.1123 81.595 57.4934 83.655 59.2408 85.6995C61.326 83.2093 63.2449 80.8358 63.2449 76.432C63.2449 74.8993 62.8064 73.2189 62.2029 71.6292C61.669 70.2326 61.1248 69.4332 61.1248 66.7863ZM90.5681 62.1104H89.3585C87.8227 62.1104 86.4467 62.3825 85.4499 62.8437V56.0224L82.2659 56.8878C81.6521 57.0498 81.1376 57.7274 81.1376 58.3493V76.4618H85.4499V67.3926C85.4499 64.8985 86.497 64.059 89.3585 64.059H90.5681C93.293 64.0888 94.2898 65.4712 94.2898 69.2609V76.4631H98.6021V69.2609C98.6021 63.7351 95.6606 62.1402 90.5681 62.1091M117.171 76.73H118.249C119.674 76.73 121.291 76.4061 122.126 76.0278V76.4631C122.071 79.1709 121.048 80.7386 117.734 80.7386H114.637L115.039 82.2286C115.12 82.5266 115.443 82.7442 115.715 82.7442H117.734C122.988 82.7442 126.464 81.1195 126.464 76.3258V68.1777C126.464 63.4669 123.18 61.7606 118.249 61.7606H117.171C112.077 61.7606 109.005 63.3853 109.005 68.1777V70.3945C109.005 74.727 111.78 76.73 117.171 76.73ZM113.316 68.179C113.316 65.3896 113.961 63.7092 117.171 63.7092H118.249C121.209 63.7092 122.152 65.4712 122.152 68.179V71.751C122.152 73.8058 120.993 74.7827 118.273 74.7827H117.171C114.661 74.7827 113.316 73.2643 113.316 70.3945V68.179ZM101.645 64.4386V76.4618H105.956V62.1104L102.778 62.9759C102.159 63.1378 101.645 63.8206 101.645 64.4386ZM103.02 60.8394H104.581C105.499 60.8394 106.279 60.0802 106.279 59.1344V58.2379C106.271 57.7882 106.09 57.3591 105.773 57.0411C105.456 56.723 105.029 56.5408 104.582 56.5328H103.02C102.079 56.5328 101.323 57.3231 101.323 58.2391V59.1331C101.323 60.0802 102.077 60.8394 103.02 60.8394ZM138.916 62.1104H137.702C136.167 62.1104 134.796 62.3825 133.794 62.8437V56.0224L130.614 56.8878C129.995 57.0498 129.486 57.7274 129.486 58.3493V76.4618H133.793V67.3926C133.793 64.8985 134.847 64.059 137.702 64.059H138.916C141.637 64.0888 142.634 65.4712 142.634 69.2609V76.4631H146.945V69.2609C146.945 63.7351 144.009 62.1402 138.916 62.1091M149.424 58.0772V60.0802L152.689 59.2148V76.4631H157V56.0172L149.424 58.0772ZM105.317 87.1013V86.3421C105.317 84.8496 104.814 84.0035 101.871 84.0035H101.115C98.4809 84.0035 97.947 84.5658 97.947 86.1154V91.9145H99.8517V86.1141C99.8517 85.0465 100.048 84.7628 101.115 84.7628H101.871C102.965 84.7628 103.444 85.325 103.444 86.3421V87.1013C103.444 88.1443 102.769 88.5641 101.313 88.5641H100.975C100.753 88.5641 100.698 88.7312 100.833 88.9022L103.161 91.9145H105.348L103.192 89.1251C104.339 88.989 105.317 88.3658 105.317 87.1013ZM123.537 85.522H122.867C120.509 85.522 119.784 86.3123 119.784 88.0834V89.4399C119.784 91.211 120.509 92 122.867 92H123.537C125.894 92 126.626 91.2097 126.626 89.4399V88.0834C126.626 86.311 125.894 85.522 123.537 85.522ZM125.054 89.4399C125.054 90.5372 124.747 91.3276 123.537 91.3276H122.867C121.658 91.3276 121.356 90.5372 121.356 89.4399V88.0834C121.356 86.9847 121.658 86.2009 122.868 86.2009H123.538C124.747 86.2009 125.054 86.9847 125.054 88.0834V89.4399ZM108.43 90.593V88.9579H111.487V88.2544H108.431V86.3369H111.487L111.74 86.1698L111.876 85.6088H107.393C107.029 85.6088 106.864 85.8614 106.864 86.1452V90.5373C106.864 91.4636 107.534 91.9145 108.601 91.9145H111.567L111.82 91.7772L111.962 91.211H109.045C108.683 91.211 108.43 90.983 108.43 90.593ZM134.413 86.311H136.433V91.9145H138.029V86.311H139.797L140.05 86.1452L140.185 85.6088H134.413V86.311ZM133.768 88.0575V87.4408C133.768 86.1141 133.209 85.5233 131.053 85.5233H130.489C128.474 85.5233 127.94 85.9417 127.94 87.2684V91.9145H129.512V87.2684C129.512 86.4522 129.623 86.2255 130.489 86.2255H131.053C131.919 86.2255 132.2 86.6206 132.2 87.4408V88.0575C132.2 88.9022 131.668 89.2676 130.685 89.2676H130.352C130.156 89.2676 130.101 89.3842 130.181 89.4645L132.06 91.9132H133.909L132.257 89.7729C133.209 89.6057 133.768 89.0447 133.768 88.0575ZM115.916 86.2268C116.727 86.2268 117.483 86.3926 117.85 86.793L118.637 86.311C118.046 85.75 116.978 85.522 115.916 85.522C114.541 85.522 112.914 85.9417 112.888 87.2127C112.888 88.1689 113.754 88.8478 115.609 89.3842C116.53 89.6316 117.094 90.0268 117.094 90.4764C117.094 90.8715 116.592 91.2965 115.633 91.2965C114.682 91.2965 113.871 91.0685 113.557 90.593L112.747 90.9816C113.25 91.746 114.595 92 115.633 92C117.512 92 118.635 91.3522 118.635 90.2237C118.635 88.9838 117.316 88.4526 115.885 88.0575C114.822 87.7737 114.43 87.3242 114.43 86.9847C114.43 86.6207 114.933 86.2255 115.916 86.2255" fill="white"/>
<path d="M58.8578 63.6897C58.4593 62.6209 57.9164 60.7034 57.8854 58.7406C57.8455 56.4318 58.6011 54.8784 59.2459 53.9986C59.4419 53.724 59.4819 53.7395 59.6637 53.9623C60.5858 55.0804 61.3015 56.9785 61.3311 58.7807C61.3683 60.5931 60.759 62.3591 59.6134 63.7597C59.2201 64.2352 59.0693 64.2715 58.8578 63.6897ZM59.6289 70.4502C60.0467 71.5178 60.5355 73.1075 60.5652 74.7931C60.6051 77.2936 59.7089 79.2758 59.0589 79.991L58.9687 79.9858C58.0466 78.7408 57.1143 77.0189 57.0846 75.117C57.0498 73.0012 57.9706 71.5489 58.8771 70.3142C59.215 69.8529 59.4161 69.8996 59.6289 70.4502ZM62.5304 65.01C62.9624 64.0175 63.8045 62.9241 65.205 61.9731C67.3353 60.5155 69.6076 60.1307 70.625 60.2836L70.7359 60.4546C70.3375 61.8979 69.2491 63.5019 67.6577 64.458C66.0806 65.4103 64.8014 65.8495 62.8619 65.7187C62.3538 65.6837 62.3293 65.4751 62.5304 65.01ZM55.8105 68.9628C55.3115 70.0149 54.7376 70.8713 53.4829 71.7963C51.5279 73.2448 49.1551 73.4819 48.0977 73.4159C47.9365 73.4055 47.9119 73.3601 47.9558 73.2034C48.3555 71.7821 49.5136 70.0758 51.0752 69.1093C52.3648 68.3189 53.1605 68.1026 55.4378 68.249C55.9408 68.2788 56.0916 68.3863 55.8105 68.9615M55.8402 65.6785C54.8575 65.5412 53.0547 64.8739 51.7755 64.0978C49.7509 62.8696 49.1603 62.2827 48.2485 60.5971C48.1286 60.3743 48.1531 60.3082 48.3749 60.2577C49.8102 59.9286 52.0012 60.2525 53.5835 61.184C54.4604 61.6997 55.7448 63.1378 56.218 65.076C56.3341 65.5463 56.3741 65.7536 55.8402 65.6785ZM62.5459 68.284C63.7091 68.3656 65.4165 68.867 66.7499 69.6055C68.9228 70.8195 70.2627 72.6424 70.6302 73.5933L70.5902 73.6944C69.1588 74.0831 67.0439 73.7955 65.3907 72.8795C63.2152 71.6655 62.4144 69.7221 62.208 68.8255C62.1216 68.4563 62.1113 68.2542 62.5446 68.284" fill="white"/>
<path d="M48.9991 65.5308C51.4363 66.9482 54.2631 67.0855 55.9808 66.9987C56.9428 66.9534 56.5353 66.7202 56.0568 66.645C50.1893 65.6889 47.1563 62.7375 45.6642 58.9569C49.6232 58.0111 52.2836 58.5423 54.7776 60.7189C55.0097 60.921 55.2612 60.9716 54.9388 60.5311C54.0013 59.2562 52.6666 58.1018 50.6059 57.4838C48.1841 56.7609 45.7609 56.8826 43.0155 57.4138C44.1374 60.5971 45.2812 63.3749 48.9991 65.5308ZM69.507 68.1635C67.0736 66.7564 64.243 66.6139 62.5304 66.6994C61.5671 66.7461 61.9759 66.9793 62.4531 67.0596C68.318 68.0106 71.351 70.962 72.8418 74.7425C68.8828 75.6883 66.2263 75.1572 63.7336 72.9805C63.5015 72.7784 63.2449 72.7279 63.5673 73.1684C64.5086 74.4433 65.8446 75.6028 67.9002 76.2144C70.3271 76.9399 72.7502 76.8168 75.4957 76.2856C74.3738 73.1023 73.2286 70.3245 69.507 68.1622" fill="white"/>
<path d="M61.1248 66.7863C61.1248 64.6615 62.4286 62.3074 64.7962 60.6878C67.2399 59.0178 70.1569 58.5773 72.856 58.9776C71.6876 62.8943 69.9042 64.9387 66.7757 66.0219C66.4894 66.1229 66.3179 66.3159 66.8569 66.2551C68.6596 66.0717 70.3478 65.2818 71.6476 64.0136C73.5369 62.2166 74.6291 59.9545 75.5112 57.445C72.6251 56.9267 68.937 56.3411 65.285 58.4659C61.4524 60.6982 60.2737 64.1756 60.1473 66.4325H58.3677C58.3432 65.1421 58.182 64.2106 57.7694 62.9253C57.3567 61.6388 56.6965 59.9494 56.6965 58.2482C56.7119 55.4096 57.6985 53.0606 59.2653 51.0771C62.061 54.0531 62.9328 56.6235 62.2983 59.8833C62.2429 60.1916 62.3241 60.4352 62.5446 59.9351C63.1752 58.4763 63.5015 56.7453 63.0037 54.64C62.3976 52.1097 61.0139 50.0445 59.2653 48C57.1852 50.4902 55.2612 52.8637 55.2612 57.2674C55.2612 58.8001 55.6996 60.4805 56.3083 62.0702C56.837 63.4669 57.3864 64.2663 57.3864 66.9132C57.3864 69.0432 56.0775 71.3921 53.7098 73.0116C51.2661 74.6817 48.3491 75.1222 45.6552 74.7218C46.8235 70.8052 48.607 68.7607 51.7291 67.6776C52.0218 67.5766 52.1933 67.3796 51.6543 67.4392C49.8494 67.6277 48.1601 68.4208 46.8584 69.691C44.9756 71.4828 43.8769 73.7462 43 76.2558C45.886 76.7715 49.5742 77.3532 53.2262 75.2284C57.0537 73.0013 58.2375 69.5239 58.3639 67.2669H60.137C60.1667 68.5574 60.3279 69.4889 60.7418 70.7741C61.1545 72.0607 61.8147 73.7501 61.8147 75.4512C61.7992 78.2899 60.8076 80.6337 59.2408 82.6224C56.4501 79.6516 55.5784 77.0708 56.2077 73.8162C56.2683 73.513 56.1819 73.2643 55.9666 73.7644C55.336 75.2232 55.0046 76.9593 55.5075 79.0595C56.1123 81.595 57.4934 83.655 59.2408 85.6995C61.326 83.2093 63.2449 80.8358 63.2449 76.432C63.2449 74.8993 62.8064 73.2189 62.2029 71.6292C61.669 70.2326 61.1248 69.4332 61.1248 66.7863ZM90.5681 62.1104H89.3585C87.8227 62.1104 86.4467 62.3825 85.4499 62.8437V56.0224L82.2659 56.8878C81.6521 57.0498 81.1376 57.7274 81.1376 58.3493V76.4618H85.4499V67.3926C85.4499 64.8985 86.497 64.059 89.3585 64.059H90.5681C93.293 64.0888 94.2898 65.4712 94.2898 69.2609V76.4631H98.6021V69.2609C98.6021 63.7351 95.6606 62.1402 90.5681 62.1091M117.171 76.73H118.249C119.674 76.73 121.291 76.4061 122.126 76.0278V76.4631C122.071 79.1709 121.048 80.7386 117.734 80.7386H114.637L115.039 82.2286C115.12 82.5266 115.443 82.7442 115.715 82.7442H117.734C122.988 82.7442 126.464 81.1195 126.464 76.3258V68.1777C126.464 63.4669 123.18 61.7606 118.249 61.7606H117.171C112.077 61.7606 109.005 63.3853 109.005 68.1777V70.3945C109.005 74.727 111.78 76.73 117.171 76.73ZM113.316 68.179C113.316 65.3896 113.961 63.7092 117.171 63.7092H118.249C121.209 63.7092 122.152 65.4712 122.152 68.179V71.751C122.152 73.8058 120.993 74.7827 118.273 74.7827H117.171C114.661 74.7827 113.316 73.2643 113.316 70.3945V68.179ZM101.645 64.4386V76.4618H105.956V62.1104L102.778 62.9759C102.159 63.1378 101.645 63.8206 101.645 64.4386ZM103.02 60.8394H104.581C105.499 60.8394 106.279 60.0802 106.279 59.1344V58.2379C106.271 57.7882 106.09 57.3591 105.773 57.0411C105.456 56.723 105.029 56.5408 104.582 56.5328H103.02C102.079 56.5328 101.323 57.3231 101.323 58.2391V59.1331C101.323 60.0802 102.077 60.8394 103.02 60.8394ZM138.916 62.1104H137.702C136.167 62.1104 134.796 62.3825 133.794 62.8437V56.0224L130.614 56.8878C129.995 57.0498 129.486 57.7274 129.486 58.3493V76.4618H133.793V67.3926C133.793 64.8985 134.847 64.059 137.702 64.059H138.916C141.637 64.0888 142.634 65.4712 142.634 69.2609V76.4631H146.945V69.2609C146.945 63.7351 144.009 62.1402 138.916 62.1091M149.424 58.0772V60.0802L152.689 59.2148V76.4631H157V56.0172L149.424 58.0772ZM105.317 87.1013V86.3421C105.317 84.8496 104.814 84.0035 101.871 84.0035H101.115C98.4809 84.0035 97.947 84.5658 97.947 86.1154V91.9145H99.8517V86.1141C99.8517 85.0465 100.048 84.7628 101.115 84.7628H101.871C102.965 84.7628 103.444 85.325 103.444 86.3421V87.1013C103.444 88.1443 102.769 88.5641 101.313 88.5641H100.975C100.753 88.5641 100.698 88.7312 100.833 88.9022L103.161 91.9145H105.348L103.192 89.1251C104.339 88.989 105.317 88.3658 105.317 87.1013ZM123.537 85.522H122.867C120.509 85.522 119.784 86.3123 119.784 88.0834V89.4399C119.784 91.211 120.509 92 122.867 92H123.537C125.894 92 126.626 91.2097 126.626 89.4399V88.0834C126.626 86.311 125.894 85.522 123.537 85.522ZM125.054 89.4399C125.054 90.5372 124.747 91.3276 123.537 91.3276H122.867C121.658 91.3276 121.356 90.5372 121.356 89.4399V88.0834C121.356 86.9847 121.658 86.2009 122.868 86.2009H123.538C124.747 86.2009 125.054 86.9847 125.054 88.0834V89.4399ZM108.43 90.593V88.9579H111.487V88.2544H108.431V86.3369H111.487L111.74 86.1698L111.876 85.6088H107.393C107.029 85.6088 106.864 85.8614 106.864 86.1452V90.5373C106.864 91.4636 107.534 91.9145 108.601 91.9145H111.567L111.82 91.7772L111.962 91.211H109.045C108.683 91.211 108.43 90.983 108.43 90.593ZM134.413 86.311H136.433V91.9145H138.029V86.311H139.797L140.05 86.1452L140.185 85.6088H134.413V86.311ZM133.768 88.0575V87.4408C133.768 86.1141 133.209 85.5233 131.053 85.5233H130.489C128.474 85.5233 127.94 85.9417 127.94 87.2684V91.9145H129.512V87.2684C129.512 86.4522 129.623 86.2255 130.489 86.2255H131.053C131.919 86.2255 132.2 86.6206 132.2 87.4408V88.0575C132.2 88.9022 131.668 89.2676 130.685 89.2676H130.352C130.156 89.2676 130.101 89.3842 130.181 89.4645L132.06 91.9132H133.909L132.257 89.7729C133.209 89.6057 133.768 89.0447 133.768 88.0575ZM115.916 86.2268C116.727 86.2268 117.483 86.3926 117.85 86.793L118.637 86.311C118.046 85.75 116.978 85.522 115.916 85.522C114.541 85.522 112.914 85.9417 112.888 87.2127C112.888 88.1689 113.754 88.8478 115.609 89.3842C116.53 89.6316 117.094 90.0268 117.094 90.4764C117.094 90.8715 116.592 91.2965 115.633 91.2965C114.682 91.2965 113.871 91.0685 113.557 90.593L112.747 90.9816C113.25 91.746 114.595 92 115.633 92C117.512 92 118.635 91.3522 118.635 90.2237C118.635 88.9838 117.316 88.4526 115.885 88.0575C114.822 87.7737 114.43 87.3242 114.43 86.9847C114.43 86.6207 114.933 86.2255 115.916 86.2255" fill="white"/>
</svg>
