<svg width="200" height="140" viewBox="0 0 200 140" fill="none" xmlns="http://www.w3.org/2000/svg">
<path d="M91.5443 63.396V62.3953C89.225 62.4128 86.5812 62.4128 84.2619 62.3943V63.397C86.5812 63.3785 89.225 63.378 91.5443 63.396Z" fill="white"/>
<path d="M84.0275 58.5424C84.1192 61.5326 84.1192 64.7184 84.0275 67.709C84.4685 67.6563 85.2396 67.6563 85.6805 67.709C85.5888 64.7188 85.5888 61.533 85.6805 58.5424C85.2396 58.595 84.4685 58.595 84.0275 58.5424Z" fill="white"/>
<path d="M90.315 58.5424C90.4068 61.5326 90.4068 64.7184 90.315 67.709C90.756 67.6563 91.527 67.6563 91.968 67.709C91.8763 64.7188 91.8763 61.533 91.968 58.5424C91.527 58.595 90.756 58.595 90.315 58.5424Z" fill="white"/>
<path d="M81.0246 58.5424C78.6903 58.5519 75.9927 58.5519 73.6589 58.5424C73.6816 58.8117 73.6791 59.3976 73.6589 59.667C75.988 59.5291 78.6955 59.5291 81.0246 59.667C81.0044 59.3971 81.0019 58.8117 81.0246 58.5424Z" fill="white"/>
<path d="M78.1484 59.3156H76.5385C76.6079 62.0775 76.6007 64.9743 76.5172 67.7082C76.9582 67.6555 77.7293 67.6555 78.1702 67.7082C78.0868 64.9743 78.079 62.0775 78.1484 59.3156Z" fill="white"/>
<path d="M95.3848 58.5424C95.4764 61.533 95.4764 64.7184 95.3848 67.709C95.8257 67.6563 97.0097 67.2064 97.0056 67.0514C96.9309 64.3301 96.932 61.6073 97.0087 58.8865C97.0118 58.7716 95.8257 58.595 95.3848 58.5424Z" fill="white"/>
<path d="M100.599 58.5434C98.2803 58.5609 97.7035 58.5609 95.3848 58.5424L96.5076 59.5762C97.8326 59.5652 99.2799 59.5993 100.603 59.678C100.579 59.4052 100.578 58.8168 100.599 58.5434Z" fill="white"/>
<path d="M100.599 67.707C98.2803 67.6893 97.7035 67.6893 95.3848 67.7079L96.5076 66.6741C97.8326 66.6851 99.2799 66.651 100.603 66.5722C100.579 66.8452 100.578 67.4336 100.599 67.707Z" fill="white"/>
<path d="M96.6789 62.4157V63.3788C97.8422 63.3788 99.1272 63.3723 100.289 63.441C100.271 63.1837 100.272 62.6109 100.293 62.3535C99.1314 62.4223 97.8422 62.4157 96.6789 62.4157Z" fill="white"/>
<path d="M137.149 58.5412C136.89 58.5723 136.345 58.5723 136.085 58.5412L136.125 65.1075L129.799 58.3691H129.295C129.219 61.41 129.299 64.668 129.206 67.7083C129.52 67.6828 130.118 67.6828 130.431 67.7083C130.361 65.4405 130.346 63.4892 130.382 61.2209L136.619 67.7871H137.149C137.056 64.7417 137.056 61.5861 137.149 58.5412Z" fill="white"/>
<path d="M115.267 63.396V62.3953C112.948 62.4128 110.304 62.4128 107.985 62.3943V63.397C110.304 63.3785 112.948 63.378 115.267 63.396Z" fill="white"/>
<path d="M107.751 58.5424C107.842 61.5326 107.842 64.7184 107.751 67.709C108.192 67.6563 108.963 67.6563 109.404 67.709C109.312 64.7188 109.312 61.533 109.404 58.5424C108.963 58.595 108.192 58.595 107.751 58.5424Z" fill="white"/>
<path d="M114.038 58.5424C114.13 61.5326 114.13 64.7184 114.038 67.709C114.479 67.6563 115.25 67.6563 115.691 67.709C115.599 64.7188 115.599 61.533 115.691 58.5424C115.25 58.595 114.479 58.595 114.038 58.5424Z" fill="white"/>
<path d="M122.072 60.4855C122.61 61.8795 124.619 66.371 125.159 67.7083C125.601 67.6557 126.412 67.6557 126.853 67.7083L122.718 58.3691H122.348C121.098 61.1888 119.353 64.9329 117.972 67.7083C118.275 67.6837 118.904 67.6837 119.207 67.7083C119.783 66.366 121.743 62.0942 122.308 60.7348" fill="white"/>
<path d="M144.862 58.2736C141.79 58.2736 139.993 60.1582 139.993 63.1248C139.993 66.0914 141.79 67.976 144.862 67.976C147.933 67.976 149.731 66.0914 149.731 63.1248C149.731 60.1582 147.933 58.2736 144.862 58.2736ZM144.862 67.1789C143.052 67.1789 141.61 66.1812 141.61 63.1248C141.61 60.0684 143.052 59.0707 144.862 59.0707C146.671 59.0707 148.114 60.0684 148.114 63.1248C148.114 66.1812 146.671 67.1789 144.862 67.1789Z" fill="white"/>
<path d="M154.081 63.2722L158.156 67.709C158.66 67.6488 159.496 67.6488 160 67.709L154.946 62.3637" fill="white"/>
<path d="M153.629 64.2488C154.518 63.3881 158.377 59.4222 159.234 58.5424C158.906 58.569 158.251 58.569 157.923 58.5424L153.547 62.9612" fill="white"/>
<path d="M152.339 58.5424C152.431 61.5326 152.431 64.7184 152.339 67.709C152.78 67.6563 153.551 67.6563 153.992 67.709C153.9 64.7188 153.9 61.533 153.992 58.5424C153.551 58.595 152.78 58.595 152.339 58.5424Z" fill="white"/>
<path d="M81.466 77.1452V76.1445C79.1467 76.162 76.503 76.162 74.1837 76.1434V77.1462C76.503 77.1276 79.1467 77.1271 81.466 77.1452Z" fill="white"/>
<path d="M73.9493 72.2915C74.041 75.2817 74.041 78.4675 73.9493 81.4582C74.3902 81.4055 75.1613 81.4055 75.6022 81.4582C75.5105 78.468 75.5105 75.2822 75.6022 72.2915C75.1613 72.3442 74.3902 72.3442 73.9493 72.2915Z" fill="white"/>
<path d="M80.2367 72.2915C80.3284 75.2817 80.3284 78.4675 80.2367 81.4582C80.6777 81.4055 81.4487 81.4055 81.8897 81.4582C81.798 78.468 81.798 75.2822 81.8897 72.2915C81.4487 72.3442 80.6777 72.3442 80.2367 72.2915Z" fill="white"/>
<path d="M103.853 72.2915C103.945 75.2817 103.945 78.4675 103.853 81.4582C104.294 81.4055 105.065 81.4055 105.506 81.4582C105.414 78.468 105.414 75.2822 105.506 72.2915C105.065 72.3442 104.294 72.3442 103.853 72.2915Z" fill="white"/>
<path d="M120.89 74.2346C121.427 75.6287 123.437 80.1202 123.977 81.4575C124.418 81.4048 125.229 81.4048 125.67 81.4575L121.536 72.1183H121.166C119.916 74.9379 118.171 78.682 116.79 81.4575C117.092 81.4329 117.722 81.4329 118.025 81.4575C118.601 80.1152 120.561 75.8433 121.126 74.484" fill="white"/>
<path d="M85.3065 72.2915C85.3982 75.2817 85.3982 78.4675 85.3065 81.4582C85.7474 81.4055 86.9315 80.9555 86.9273 80.8005C86.8527 78.0793 86.8537 75.357 86.9304 72.6356C86.9335 72.5208 85.7474 72.3442 85.3065 72.2915Z" fill="white"/>
<path d="M90.5203 72.2925C88.202 72.3101 87.6253 72.3101 85.3065 72.2915L86.4293 73.3254C87.7543 73.3143 89.2015 73.3485 90.5244 73.4272C90.5006 73.1543 90.5001 72.5659 90.5203 72.2925Z" fill="white"/>
<path d="M90.5203 81.4561C88.202 81.4385 87.6253 81.4385 85.3065 81.4571L86.4293 80.4232C87.7543 80.4343 89.2015 80.4002 90.5244 80.3214C90.5006 80.5943 90.5001 81.1827 90.5203 81.4561Z" fill="white"/>
<path d="M86.6006 76.1649V77.128C87.7639 77.128 89.049 77.1215 90.2107 77.1902C90.1926 76.9329 90.1936 76.36 90.2144 76.1027C89.0532 76.1714 87.7639 76.1649 86.6006 76.1649Z" fill="white"/>
<path d="M139.101 72.2915C139.193 75.2817 139.193 78.4675 139.101 81.4582C139.542 81.4055 140.727 80.9555 140.722 80.8005C140.648 78.0793 140.649 75.357 140.725 72.6356C140.729 72.5208 139.542 72.3442 139.101 72.2915Z" fill="white"/>
<path d="M144.316 72.2925C141.997 72.3101 141.421 72.3101 139.101 72.2915L140.224 73.3254C141.549 73.3143 142.997 73.3485 144.32 73.4272C144.295 73.1543 144.295 72.5659 144.316 72.2925Z" fill="white"/>
<path d="M144.316 81.4561C141.997 81.4385 141.421 81.4385 139.101 81.4571L140.224 80.4232C141.549 80.4343 142.997 80.4002 144.32 80.3214C144.295 80.5943 144.295 81.1827 144.316 81.4561Z" fill="white"/>
<path d="M140.396 76.1649V77.128C141.559 77.128 142.844 77.1215 144.006 77.1902C143.988 76.9329 143.989 76.36 144.009 76.1027C142.848 76.1714 141.559 76.1649 140.396 76.1649Z" fill="white"/>
<path d="M95.5835 76.8527L99.2427 81.4581C99.7578 81.3964 100.563 81.3964 101.078 81.4581L97.1991 76.7268L96.684 76.7549" fill="white"/>
<path d="M97.0648 72.2915C96.0139 72.2966 95.1465 72.2981 94.0956 72.2966C94.2718 72.4616 94.1433 72.5995 94.1475 72.7495L95.2351 77.3152C99.3774 77.3152 100.242 75.824 100.242 74.5177C100.242 74.0056 100.131 72.2915 97.0648 72.2915ZM95.4931 76.3582L94.7097 73.1252L94.8849 73.1774C96.4026 73.1653 95.0714 73.1563 96.5891 73.1619C98.4929 73.1619 98.6395 74.2755 98.6395 74.5935C98.6395 75.6007 97.8917 76.6772 95.4931 76.3582Z" fill="white"/>
<path d="M94.0956 72.2958C94.1873 75.286 94.1873 78.4673 94.0956 81.4575C94.5366 81.4048 95.3077 81.4048 95.7486 81.4575C95.6595 78.537 95.6574 75.4355 95.7424 72.506L94.0962 72.2953L94.0956 72.2958Z" fill="white"/>
<path d="M134.661 80.0131C134.068 80.7375 133.209 80.9285 132.246 80.9285C130.436 80.9285 128.994 79.9308 128.994 76.8744C128.994 73.8181 130.436 72.8203 132.246 72.8203C133.658 72.8203 134.46 73.1951 135.085 74.088H135.558C135.634 73.6781 135.74 73.2903 135.876 72.9257C134.895 72.2731 133.74 72.0228 132.246 72.0228C129.174 72.0228 127.378 73.9074 127.378 76.8739C127.378 79.8405 129.174 81.7251 132.246 81.7251C133.83 81.7251 135.326 81.38 135.927 81.0785C135.927 80.0131 135.942 78.1682 135.978 77.0837C135.466 77.1403 134.948 77.1403 134.436 77.0837C134.466 77.976 134.479 79.7096 134.483 80.8874" fill="white"/>
<path d="M115.906 72.2915C113.572 72.3011 110.874 72.3011 108.541 72.2915C108.564 72.5609 108.561 73.1468 108.541 73.4162C110.87 73.2782 113.577 73.2782 115.906 73.4162C115.886 73.1463 115.884 72.5609 115.906 72.2915Z" fill="white"/>
<path d="M113.03 73.0647H111.42C111.49 75.8267 111.482 78.7235 111.399 81.4573C111.84 81.4047 112.611 81.4047 113.052 81.4573C112.968 78.7235 112.961 75.8267 113.03 73.0647Z" fill="white"/>
<path d="M40 55C40.0767 64.9417 40.0767 75.0579 40 85L41.4706 84.3363C41.3991 74.7498 41.3991 65.3109 41.4706 55.7243L40 55Z" fill="white"/>
<path d="M63.2424 55C63.1657 64.9417 63.1657 75.0579 63.2424 85L61.7717 84.3363C61.8433 74.7498 61.8433 65.3109 61.7717 55.7243L63.2418 55.0005L63.2424 55Z" fill="white"/>
<path d="M55.8945 55.1783C55.8194 64.9058 55.8178 74.4797 55.8899 84.2127C55.8915 84.4274 54.4245 84.3356 54.4245 84.3356C54.496 74.7491 54.496 65.3101 54.4245 55.7236L55.8945 55.1783Z" fill="white"/>
<path d="M48.6853 55.1783C48.6097 64.9629 48.6087 74.5956 48.6818 84.3843C48.6828 84.5418 47.2148 84.3356 47.2148 84.3356C47.2863 74.7491 47.2863 65.3101 47.2148 55.7236L48.6853 55.1783Z" fill="white"/>
<path d="M62.698 56.3102C55.2705 56.2711 48.2213 56.2706 40.7938 56.3092L40 55C47.7011 55.0416 55.5413 55.0416 63.2424 55L62.698 56.3102Z" fill="white"/>
<path d="M62.698 83.6893C55.2705 83.7284 48.2213 83.7289 40.7938 83.6903L40 85C47.7011 84.9584 55.5413 84.9584 63.2424 85L62.698 83.6893Z" fill="white"/>
<path d="M62.6942 60.7384C57.6824 60.765 52.8432 60.7735 47.9434 60.7644V62.0205C52.8541 62.012 57.7814 62.0205 62.6569 62.0456C62.8507 62.0466 62.6942 60.7384 62.6942 60.7384Z" fill="white"/>
<path d="M55.1847 72.2407C50.4072 72.2492 45.6809 72.2407 40.7914 72.2151C40.7914 72.2151 40.4873 73.5218 40.7324 73.5208C45.5218 73.4968 50.3616 73.4882 55.1847 73.4962V72.2407Z" fill="white"/>
<path d="M62.6942 77.9509C57.6824 77.9775 52.8432 77.986 47.9434 77.977V79.2331C52.8407 79.2245 57.7555 79.2331 62.618 79.2581C62.8248 79.2592 62.6942 77.9509 62.6942 77.9509Z" fill="white"/>
</svg>
