<svg width="200" height="140" viewBox="0 0 200 140" fill="none" xmlns="http://www.w3.org/2000/svg">
<path d="M78.7726 80.096C78.8833 80.096 79.0494 80.096 79.2154 80.0418C79.3815 80.0418 79.5475 80.0418 79.7136 79.9877C79.8796 79.9877 80.101 79.9877 80.2671 79.9877C80.4332 79.9877 80.6546 79.9877 80.7653 79.9877C81.2081 79.9877 81.6509 80.0418 82.0384 80.1501C82.4258 80.2583 82.7579 80.4207 83.0347 80.6371C83.3114 80.8536 83.5329 81.1242 83.6989 81.4489C83.865 81.7736 83.9203 82.2066 83.9203 82.6937C83.9203 83.1807 83.865 83.6137 83.7543 83.9925C83.6436 84.3714 83.4221 84.6961 83.2007 84.9667C82.924 85.2373 82.5919 85.4538 82.2044 85.6161C81.8169 85.7785 81.3188 85.8326 80.7099 85.8326C80.5438 85.8326 80.3778 85.8326 80.2117 85.8326C80.0457 85.8326 79.8796 85.8326 79.7136 85.8326C79.5475 85.8326 79.3815 85.8326 79.2154 85.7785C79.0494 85.7785 78.9386 85.7243 78.7726 85.7243C78.7726 85.6702 78.7726 80.096 78.7726 80.096ZM79.9903 85.129C80.0457 85.129 80.101 85.129 80.101 85.129C80.1564 85.129 80.2117 85.129 80.2671 85.129C80.3224 85.129 80.3778 85.129 80.4331 85.129C80.4885 85.129 80.5439 85.129 80.5439 85.129C80.876 85.129 81.2081 85.129 81.4295 85.0749C81.6509 85.0208 81.8723 84.9667 82.0384 84.8584C82.1491 84.8043 82.2044 84.6961 82.3151 84.642C82.4258 84.5878 82.4812 84.4255 82.5365 84.2631C82.5919 84.1008 82.6472 83.8843 82.6472 83.6678C82.6472 83.4513 82.7026 83.1266 82.7026 82.7478C82.7026 82.3148 82.6472 81.936 82.5365 81.6654C82.4258 81.3948 82.2598 81.1783 82.0937 81.016C81.9276 80.8536 81.6509 80.7454 81.4295 80.6913C81.1527 80.6371 80.876 80.583 80.5992 80.583C80.5439 80.583 80.4885 80.583 80.4331 80.583C80.3778 80.583 80.3224 80.583 80.2671 80.583C80.2117 80.583 80.1564 80.583 80.101 80.583C80.0457 80.583 79.9903 80.583 79.9903 80.583C79.9903 80.6371 79.9903 85.129 79.9903 85.129Z" fill="white"/>
<path d="M89.5108 85.7243H86.0237V80.0418H89.4001L89.3448 80.6371H87.2414V82.4772H89.2341L89.1787 83.0184L87.2414 83.0725V85.0749L89.6215 85.129L89.5108 85.7243Z" fill="white"/>
<path d="M91.3928 85.7243V80.0418H92.5552V85.0749H94.7693L94.7139 85.6702H91.3928V85.7243Z" fill="white"/>
<path d="M100.47 83.0725L100.637 83.0184C100.803 82.9643 100.913 82.9643 101.079 82.9102C101.19 82.856 101.356 82.8019 101.411 82.6937C101.522 82.5854 101.578 82.4772 101.633 82.3148C101.688 82.1525 101.688 81.936 101.688 81.6654C101.688 81.503 101.688 81.2866 101.633 81.1783C101.578 81.0701 101.522 80.9077 101.411 80.8536C101.301 80.7454 101.245 80.6913 101.079 80.6371C100.913 80.583 100.803 80.583 100.692 80.583C100.581 80.583 100.36 80.583 100.194 80.6371V85.7243H99.0313V80.096C99.1421 80.096 99.3081 80.096 99.4188 80.096C99.5849 80.096 99.6956 80.096 99.8616 80.096C100.028 80.096 100.194 80.096 100.304 80.096C100.415 80.096 100.637 80.096 100.747 80.096C101.079 80.096 101.411 80.1501 101.688 80.2042C101.965 80.2583 102.186 80.3665 102.352 80.5289C102.519 80.6371 102.629 80.8536 102.74 81.016C102.795 81.2325 102.851 81.4489 102.851 81.6654C102.851 81.936 102.795 82.1525 102.74 82.4231C102.629 82.6396 102.519 82.856 102.297 83.0184C102.076 83.1807 101.854 83.3431 101.578 83.4513C101.301 83.5596 100.913 83.6137 100.526 83.6137H100.581L100.47 83.0725Z" fill="white"/>
<path d="M106.006 85.7243H104.843V80.0418H106.006V85.7243Z" fill="white"/>
<path d="M112.925 85.7243L108.829 81.7736C108.829 82.0984 108.829 82.4231 108.829 82.6937C108.829 82.8019 108.829 82.9101 108.829 83.0725C108.829 83.1807 108.829 83.289 108.829 83.3972C108.829 83.5055 108.829 83.5596 108.829 83.6678C108.829 83.7219 108.829 83.7761 108.829 83.8302V85.7243H108.164V79.9877H108.663L112.759 83.9384C112.759 83.6137 112.759 83.3431 112.759 83.0725C112.759 82.9643 112.759 82.856 112.759 82.7478C112.759 82.6396 112.759 82.5313 112.759 82.4231C112.759 82.3148 112.759 82.2066 112.759 82.1525C112.759 82.0442 112.759 81.9901 112.759 81.936V80.0418H113.423V85.7243H112.925Z" fill="white"/>
<path d="M121.283 82.856C121.283 83.289 121.227 83.7219 121.117 84.0467C121.006 84.4255 120.785 84.6961 120.563 84.9667C120.342 85.2373 120.01 85.3996 119.678 85.562C119.29 85.6702 118.903 85.7785 118.404 85.7785C117.906 85.7785 117.463 85.7243 117.131 85.562C116.799 85.3996 116.467 85.2373 116.246 84.9667C116.024 84.6961 115.858 84.4255 115.748 84.0467C115.637 83.6678 115.582 83.289 115.582 82.856C115.582 82.4231 115.637 82.0442 115.748 81.6654C115.858 81.2866 116.024 81.016 116.246 80.7454C116.467 80.4748 116.744 80.3124 117.131 80.1501C117.519 79.9877 117.906 79.9336 118.404 79.9336C118.903 79.9336 119.29 79.9877 119.678 80.1501C120.065 80.2583 120.342 80.4748 120.563 80.7454C120.785 81.016 121.006 81.2866 121.117 81.6654C121.227 82.0442 121.283 82.4231 121.283 82.856ZM120.01 82.856C120.01 82.5313 119.954 82.2066 119.899 81.936C119.844 81.6654 119.733 81.4489 119.622 81.2325C119.512 81.0701 119.29 80.9077 119.124 80.7995C118.958 80.6913 118.681 80.6371 118.349 80.6371C118.072 80.6371 117.851 80.6371 117.63 80.6913C117.408 80.7454 117.242 80.7995 117.131 80.9077C117.021 81.016 116.91 81.2325 116.855 81.5572C116.799 81.8819 116.744 82.3148 116.744 82.856C116.744 83.1807 116.799 83.5055 116.799 83.7761C116.799 84.0467 116.91 84.2631 117.076 84.4796C117.242 84.6961 117.353 84.8584 117.574 84.9126C117.796 85.0208 118.017 85.0749 118.349 85.0749C118.681 85.0749 118.903 85.0208 119.124 84.9667C119.345 84.9126 119.512 84.8584 119.622 84.7502C119.678 84.6961 119.733 84.642 119.788 84.5337C119.844 84.4255 119.899 84.2631 119.899 84.1008C119.899 83.9384 119.954 83.7219 119.954 83.5055C120.01 83.3431 120.01 83.0725 120.01 82.856Z" fill="white"/>
<path d="M114.253 60.3424C113.257 60.9919 112.814 61.2084 110.877 61.2084H105.563V58.0153C105.563 56.067 105.563 55.0929 105.618 54.6599H106.006C108.829 54.6599 111.818 54.7682 112.703 54.8764H112.759L114.53 53.1446L113.976 52.5493L113.866 52.6575C112.925 53.2528 112.482 53.3611 110.711 53.3611H101.633V54.3893L103.072 54.4435C103.238 54.9305 103.293 56.7165 103.293 59.9095V63.0484C103.293 66.4579 103.238 70.138 103.127 70.6792L101.578 70.7333V71.7616H107.611V70.6792L105.729 70.6251C105.618 70.138 105.508 67.2697 105.508 63.5355V62.6696H107.777C108.718 62.6696 112.205 62.7778 112.814 62.8319H112.925L114.862 60.9919L114.308 60.3966L114.253 60.3424Z" fill="white"/>
<path d="M129.309 69.0015C128.146 69.8674 126.929 70.4627 124.825 70.4627C123.386 70.4627 121.67 70.3004 121.061 70.138C121.006 69.5427 120.951 67.9191 120.951 64.9967V64.4555H123.275C124.272 64.4555 125.711 64.5637 126.264 64.6179L126.375 64.5637L128.423 63.0484L128.479 62.9943L127.98 62.3449L127.925 62.399C126.984 62.9402 126.486 63.0484 124.549 63.0484H120.895V60.8836C120.895 58.9353 120.895 57.9612 120.951 57.5283H121.892C124.549 57.5283 125.656 57.6365 126.541 57.7447H126.597L128.368 56.0129L127.814 55.4176L127.759 55.4717C126.873 56.067 126.486 56.1753 124.604 56.1753H116.965V57.2577L118.404 57.3118C118.571 57.7988 118.626 59.5848 118.626 62.7778V65.4297C118.626 69.3804 118.46 70.4086 118.404 70.6251L116.965 70.6792V71.7075H124.659C125.545 71.7075 126.707 71.7616 127.316 71.7616H127.371L127.427 71.7075L129.752 69.5968L129.807 69.5427L129.253 68.9474L129.309 69.0015Z" fill="white"/>
<path d="M144.807 69.0015C143.645 69.8674 142.427 70.4627 140.324 70.4627C138.885 70.4627 137.169 70.3004 136.56 70.138C136.505 69.5427 136.449 67.9191 136.449 64.9967V62.5613C136.449 59.5848 136.505 57.853 136.671 57.3659L138.497 57.3118H138.608V56.2835H132.575V57.2577L134.124 57.3118C134.18 57.5283 134.29 58.4483 134.29 62.0201V65.3755C134.29 69.3262 134.124 70.3545 134.069 70.571L132.63 70.6251V71.6534H140.545C141.431 71.6534 142.593 71.7075 143.202 71.7075H143.257L143.313 71.6534L145.471 69.4345L144.918 68.8392L144.807 69.0015Z" fill="white"/>
<path d="M146.745 57.2577L148.405 57.3118C148.46 57.6365 148.571 58.773 148.571 62.5072V65.9167C148.571 69.4886 148.46 70.4086 148.405 70.6251L146.745 70.6792V71.7075H152.612V70.6792L150.951 70.6251C150.896 70.3004 150.785 69.1639 150.785 65.4297V62.0743C150.785 58.5024 150.896 57.5824 150.951 57.3659L152.612 57.3118V56.2835H146.745V57.2577Z" fill="white"/>
<path d="M167.612 68.2439C166.561 69.4345 164.789 70.2463 163.184 70.2463C159.309 70.2463 157.317 68.1356 157.317 64.0226V63.2649C157.317 60.126 157.815 58.8812 159.365 58.0153C160.029 57.6365 160.859 57.4741 162.077 57.4741C164.346 57.4741 165.62 58.1777 166.062 58.5565L166.616 60.2883H167.723L167.502 56.9871L167.446 56.9329C166.727 56.6082 165.177 56.067 163.073 56.067C160.915 56.067 159.752 56.5 158.701 57.0953C156.099 58.6106 155.103 60.613 155.103 64.5637C155.103 69.2721 157.538 71.8698 161.911 71.8698C164.623 71.8698 166.948 70.7333 168.332 68.9474L168.387 68.8933L167.889 68.2439H167.612Z" fill="white"/>
<path d="M182.502 68.9474L182.446 69.0015C181.284 69.8674 180.066 70.4627 178.018 70.4627C176.635 70.4627 174.863 70.3004 174.254 70.138C174.199 69.5427 174.144 67.9191 174.144 64.9967V64.4555H176.469C177.465 64.4555 178.904 64.5637 179.458 64.6179L179.568 64.5637L181.616 63.0484L181.672 62.9943L181.173 62.3449L181.118 62.399C180.177 62.9402 179.679 63.0484 177.742 63.0484H174.144V60.8836C174.144 58.9353 174.144 57.9612 174.199 57.5283H175.14C177.797 57.5283 178.904 57.6365 179.79 57.7447L181.561 56.0129L181.007 55.4176L180.952 55.4717C180.066 56.067 179.679 56.1753 177.797 56.1753H170.158V57.2577L171.598 57.3118C171.764 57.7988 171.819 59.5848 171.819 62.7778V65.4297C171.819 69.3804 171.653 70.4086 171.598 70.6251L170.158 70.6792V71.7075H177.852C178.738 71.7075 179.9 71.7616 180.509 71.7616H180.565L180.62 71.7075L182.945 69.5968L183 69.5427L182.502 68.9474Z" fill="white"/>
<path d="M28.5132 61.3707C28.0704 60.9378 27.5168 60.5048 26.908 60.2342C26.2991 59.9095 25.6902 59.6389 25.0814 59.3683C24.4725 59.0977 23.8636 58.8812 23.2548 58.6106C22.6459 58.34 22.0924 58.0694 21.6495 57.7988C21.2067 57.4741 20.8193 57.1494 20.4872 56.7706C20.2104 56.3917 20.0443 55.8506 20.0443 55.3094C20.0443 54.5517 20.1551 54.0105 20.3211 53.6858C20.4872 53.307 20.7086 53.0364 20.9853 52.874C21.2067 52.7116 21.5942 52.6034 22.037 52.4952C22.4798 52.3869 22.978 52.3869 23.5869 52.3869C24.3064 52.3869 25.1367 52.4952 26.0223 52.7116C26.8526 52.874 27.6275 53.1446 28.4025 53.3611L28.5132 53.4152L29.122 51.0339H29.0113C28.2918 50.9257 27.5722 50.7634 26.908 50.7092C26.133 50.601 25.3581 50.5469 24.5278 50.5469C23.4762 50.5469 22.5352 50.7092 21.7049 51.0339C20.8746 51.3587 20.0443 51.6293 19.4908 52.1705C18.9373 52.6575 18.4945 53.2528 18.1624 53.9023C17.8856 54.5517 17.7196 55.2011 17.7196 55.7964C17.7196 56.7165 17.8856 57.4741 18.1624 58.1236C18.4391 58.773 18.8266 59.3142 19.2694 59.7471C19.7122 60.1801 20.2658 60.5589 20.8746 60.8836C21.4835 61.2084 22.0924 61.479 22.7012 61.6954C23.3101 61.966 23.919 62.1825 24.5278 62.4531C25.1367 62.7237 25.6902 62.9943 26.133 63.2649C26.6312 63.5896 26.9633 63.9684 27.2401 64.4014C27.5168 64.8343 27.6829 65.3755 27.6829 66.025C27.6829 66.512 27.6275 66.945 27.5722 67.2697C27.5168 67.5944 27.4061 67.9191 27.2954 68.1356C27.1847 68.3521 27.0187 68.5686 26.908 68.6768C26.7419 68.785 26.5759 68.9474 26.4098 69.0015C26.133 69.1639 25.6902 69.3262 25.2474 69.4345C24.7493 69.5427 24.1957 69.5968 23.5315 69.5968C23.0333 69.5968 22.5352 69.5427 22.037 69.3804C21.4281 69.3262 20.93 69.1639 20.4872 69.0015C19.989 68.8392 19.5462 68.6227 19.1034 68.3521C18.7159 68.1897 18.3838 67.9733 18.107 67.8109L17.9963 67.7568L17 70.138L17.0554 70.1921C17.8856 70.6251 18.7159 71.0039 19.6569 71.2204C20.5979 71.491 21.7049 71.6534 22.8673 71.6534C24.0297 71.6534 25.026 71.491 25.9116 71.1122C26.7973 70.7333 27.5722 70.2463 28.1811 69.6509C28.7899 69.0556 29.2881 68.4062 29.5649 67.6485C29.8416 66.8909 30.063 66.1332 30.063 65.3755C30.063 64.4555 29.897 63.6978 29.6202 63.0484C29.3434 62.3449 28.956 61.8037 28.5132 61.3707Z" fill="white"/>
<path d="M49.2147 56.7706C48.4952 56.0129 47.6649 55.4717 46.6132 55.0388C45.5615 54.6599 44.3438 54.4435 42.96 54.4435C41.5762 54.4435 40.3585 54.6599 39.3068 55.0388C38.3104 55.4176 37.4248 56.0129 36.7606 56.7706C36.0964 57.5283 35.5982 58.3942 35.2661 59.4765C34.934 60.5048 34.8233 61.6954 34.8233 63.0484C34.8233 64.4014 34.9893 65.5379 35.2661 66.6203C35.5982 67.7027 36.041 68.6227 36.7052 69.3804C37.3695 70.138 38.1997 70.7333 39.1961 71.1663C40.1924 71.5992 41.4655 71.8157 42.8493 71.8157C44.2331 71.8157 45.4508 71.5992 46.5025 71.2204C47.5542 70.8416 48.4398 70.2463 49.104 69.4886C49.7683 68.7309 50.3218 67.8109 50.6539 66.7285C50.986 65.6461 51.2074 64.4555 51.2074 63.1025C51.2074 61.8037 51.0414 60.613 50.7092 59.5307C50.4325 58.4483 49.9343 57.5283 49.2147 56.7706ZM42.9046 70.2463C41.853 70.2463 40.9673 70.0839 40.3031 69.7051C39.6389 69.3262 39.0854 68.8392 38.6425 68.1897C38.1997 67.5403 37.923 66.7826 37.7569 65.9167C37.5909 65.0508 37.4802 64.0226 37.4802 62.9943C37.4802 62.2907 37.4802 61.6413 37.5355 61.046C37.5909 60.3966 37.6462 59.8554 37.7569 59.3142C37.8676 58.773 37.9783 58.34 38.1444 57.9071C38.3104 57.5283 38.5318 57.2035 38.7533 57.0412C39.1961 56.6623 39.7496 56.3917 40.5245 56.2294C41.2441 56.067 42.0744 55.9588 42.96 55.9588C43.9563 55.9588 44.8419 56.1212 45.5062 56.4459C46.1704 56.7706 46.8346 57.2577 47.2774 57.9071C47.7202 58.5024 48.1077 59.2601 48.3291 60.126C48.5505 60.9919 48.6612 61.966 48.6612 63.0484C48.6612 63.6978 48.6612 64.3473 48.6059 64.9967C48.5505 65.6461 48.4952 66.2414 48.3845 66.7826C48.2738 67.3238 48.1077 67.8109 47.9417 68.2439C47.7756 68.6227 47.5542 68.9474 47.3328 69.1098C46.7793 69.5427 46.1704 69.8674 45.5062 70.0839C44.7866 70.1921 43.901 70.2463 42.9046 70.2463Z" fill="white"/>
<path d="M69.4181 60.9919C69.4181 61.3166 69.4181 61.6413 69.4181 62.0201C69.4181 62.399 69.4181 62.7778 69.4181 63.2108C69.4181 63.6437 69.4181 64.0767 69.4181 64.4555C69.4181 65.3755 69.4735 66.4038 69.4735 67.4321L57.5729 54.6058L57.5175 54.5517H56.3551V71.5451H58.071V65.8626C58.071 65.7544 58.071 65.592 58.071 65.3214C58.071 65.0508 58.071 64.7802 58.071 64.4014C58.071 64.0226 58.071 63.6437 58.071 63.2108C58.071 62.7778 58.071 62.3449 58.071 61.9119C58.071 60.9919 58.0157 59.9636 58.0157 58.7189L69.9717 71.5992H71.1894V54.7141H69.4735L69.4181 60.9919Z" fill="white"/>
<path d="M91.891 59.4765C91.5589 58.4483 91.0053 57.5283 90.3411 56.7706C89.6215 56.0129 88.7359 55.4717 87.7396 55.0388C86.7433 54.6058 85.4702 54.4435 84.0864 54.4435C82.7026 54.4435 81.4848 54.6599 80.4331 55.0388C79.4368 55.4176 78.5512 56.0129 77.887 56.7706C77.2227 57.5283 76.7246 58.3942 76.3925 59.4765C76.0604 60.5048 75.9497 61.6954 75.9497 63.0484C75.9497 64.3473 76.1157 65.5379 76.3925 66.6203C76.7246 67.7027 77.1674 68.6227 77.8316 69.3804C78.4958 70.138 79.3261 70.7333 80.3778 71.1663C81.3741 71.5992 82.6472 71.8157 84.031 71.8157C85.4148 71.8157 86.6325 71.5992 87.6842 71.2204C88.7359 70.8416 89.6215 70.2463 90.2858 69.4886C90.95 68.7309 91.5035 67.8109 91.891 66.7285C92.2231 65.6461 92.4445 64.4555 92.4445 63.1025C92.3891 61.6954 92.2231 60.5048 91.891 59.4765ZM89.7322 63.0484C89.7322 63.6978 89.6769 64.3473 89.6769 64.9967C89.6769 65.6461 89.5662 66.2414 89.4555 66.7826C89.3448 67.3238 89.2341 67.8109 89.0127 68.2439C88.8466 68.6227 88.6806 68.9474 88.4038 69.1098C87.8503 69.5427 87.2414 69.8674 86.5772 70.0839C85.913 70.2463 85.0273 70.3545 84.031 70.3545C82.9793 70.3545 82.1491 70.1921 81.4295 69.8133C80.7653 69.4345 80.2117 68.9474 79.7689 68.298C79.3261 67.6485 79.0494 66.8909 78.8833 66.025C78.7172 65.1591 78.6065 64.1308 78.6065 63.1025C78.6065 62.4531 78.6065 61.7495 78.6619 61.1542C78.7172 60.5048 78.7726 59.9636 78.8833 59.4224C78.994 58.8812 79.1047 58.4483 79.2708 58.0153C79.4368 57.6365 79.6582 57.3118 79.8796 57.1494C80.3224 56.7706 80.876 56.5 81.6509 56.3376C82.3705 56.1753 83.2007 56.067 84.0864 56.067C85.0827 56.067 85.9683 56.2294 86.6326 56.5541C87.2968 56.8788 87.961 57.3659 88.4038 58.0153C88.8466 58.6106 89.2341 59.3683 89.4555 60.2342C89.6215 60.9919 89.7322 61.966 89.7322 63.0484Z" fill="white"/>
</svg>
