<svg width="17" height="17" viewBox="0 0 17 17" fill="none" xmlns="http://www.w3.org/2000/svg">
<g clip-path="url(#clip0_789_31866)">
<path d="M0 0.729987C0 0.32683 0.326217 0 0.728619 0H1.27096C2.19434 0 2.74721 0.621939 3.06336 1.20009C3.27408 1.58547 3.42653 2.03246 3.54577 2.43714C3.57806 2.4346 3.61078 2.43329 3.64387 2.43329H15.7849C16.5914 2.43329 17.1738 3.20651 16.9527 3.98359L15.177 9.95584C14.8498 11.1056 13.8012 11.8985 12.6079 11.8985H6.82937C5.62618 11.8985 4.57145 11.0927 4.25303 9.93024L3.51422 7.49892L2.2915 3.36357L2.28952 3.35633C2.13825 2.80365 1.99629 2.28734 1.78534 1.90157C1.58048 1.52694 1.41718 1.45997 1.27096 1.45997H0.728619C0.326217 1.45997 0 1.13314 0 0.729987ZM4.92822 7.14443L5.6583 9.54383C5.80304 10.0722 6.28246 10.4385 6.82937 10.4385H12.6079C13.1503 10.4385 13.6269 10.0781 13.7758 9.55551L15.463 3.89327H3.96902L4.91484 7.09236C4.91997 7.10969 4.92442 7.12701 4.92822 7.14443ZM8.25768 15.0534C8.25768 16.1285 7.38781 17 6.3147 17C5.24162 17 4.37171 16.1285 4.37171 15.0534C4.37171 13.9782 5.24162 13.1067 6.3147 13.1067C7.38781 13.1067 8.25768 13.9782 8.25768 15.0534ZM6.80045 15.0534C6.80045 14.7846 6.58297 14.5667 6.3147 14.5667C6.04643 14.5667 5.82895 14.7846 5.82895 15.0534C5.82895 15.3221 6.04643 15.54 6.3147 15.54C6.58297 15.54 6.80045 15.3221 6.80045 15.0534ZM15.0581 15.0534C15.0581 16.1285 14.1883 17 13.1151 17C12.042 17 11.1722 16.1285 11.1722 15.0534C11.1722 13.9782 12.042 13.1067 13.1151 13.1067C14.1883 13.1067 15.0581 13.9782 15.0581 15.0534ZM13.6009 15.0534C13.6009 14.7846 13.3834 14.5667 13.1151 14.5667C12.8469 14.5667 12.6294 14.7846 12.6294 15.0534C12.6294 15.3221 12.8469 15.54 13.1151 15.54C13.3834 15.54 13.6009 15.3221 13.6009 15.0534Z" fill="#212121"/>
</g>
<defs>
<clipPath id="clip0_789_31866">
<rect width="17" height="17" fill="white"/>
</clipPath>
</defs>
</svg>
