<svg width="45" height="45" viewBox="0 0 45 45" fill="none" xmlns="http://www.w3.org/2000/svg">
    <circle cx="22.5" cy="22.5" r="22.5" fill="#F4F5F7"/>
    <path d="m17.863 12.939 1.076-.344c1.01-.322 2.087.199 2.52 1.217l.859 2.028c.375.883.167 1.922-.514 2.568l-1.894 1.798c.116 1.076.478 2.135 1.084 3.177a8.68 8.68 0 0 0 2.271 2.595l2.275-.76c.863-.287 1.802.044 2.331.821l1.232 1.81c.615.904.505 2.15-.258 2.916l-.818.821c-.814.817-1.977 1.114-3.052.778-2.539-.792-4.873-3.143-7.003-7.053-2.133-3.916-2.886-7.24-2.258-9.968.264-1.148 1.081-2.063 2.149-2.404z" fill="#E0E1E3"/>
</svg>
