<svg width="45" height="45" viewBox="0 0 45 45" fill="none" xmlns="http://www.w3.org/2000/svg">
    <circle cx="22.5" cy="22.5" r="22.5" fill="#F4F5F7"/>
    <path d="M22.967 21.709v1.395H11.62v-1.395h2.556v-1.49c-.909-.404-1.422-1.019-1.422-1.819 0-1.503 1.764-2.406 4.54-2.406 2.747 0 4.511.902 4.525 2.406-.007.807-.54 1.436-1.463 1.832v1.477h2.611zm-5.687 2.05c2.693 0 4.32.794 4.334 2.23-.014 1.462-1.641 2.255-4.334 2.255-2.735 0-4.362-.793-4.362-2.256 0-1.435 1.627-2.228 4.362-2.228zm0 1.313c-1.723 0-2.598.301-2.584.916-.014.643.861.957 2.584.957 1.681 0 2.57-.314 2.584-.957-.014-.615-.903-.916-2.584-.916zm.013-7.738c-1.763 0-2.734.37-2.72 1.066-.014.684.957 1.026 2.72 1.026 1.737 0 2.721-.342 2.721-1.026 0-.697-.984-1.066-2.72-1.066zm-1.353 4.375h2.68v-1.04c-.41.049-.855.07-1.327.07a9.34 9.34 0 0 1-1.353-.083v1.053zm17.224-.328v1.38h-3.61v2.653h4.854v1.422H23.019v-1.422h4.799v-2.652h-3.459v-6.07h8.709v1.394h-6.959v3.295h7.055z" fill="#C7C8C9"/>
</svg>
