<svg width="45" height="45" viewBox="0 0 45 45" fill="none" xmlns="http://www.w3.org/2000/svg">
    <circle cx="22.5" cy="22.5" r="22.5" fill="#F4F5F7"/>
    <path d="M18.223 16.787c0 1.463 1.49 3.09 4.348 3.445l-.684 1.409c-2.174-.315-3.767-1.32-4.58-2.666-.82 1.346-2.4 2.351-4.553 2.666l-.697-1.409c2.83-.355 4.334-1.982 4.334-3.445v-.601h1.832v.601zm4.744 5.797v1.422h-4.84v4.252h-1.722v-4.252h-4.786v-1.422h11.348zm11.605-5.1v1.45H32.89v1.189h1.682v1.436H32.89v1.777h-1.75V15.83h1.75v1.654h1.682zm-5.4-.916v3.705h-3.965v1.094c2.057-.014 3.452-.096 5.03-.369l.192 1.395c-1.79.328-3.39.396-5.906.396H23.47v-3.828h4.006v-1.025h-4.02v-1.368h5.716zm-.383 6.96c2.584 0 4.224.902 4.224 2.392 0 1.476-1.64 2.324-4.224 2.324-2.639 0-4.266-.848-4.266-2.324 0-1.49 1.627-2.393 4.266-2.393zm0 1.353c-1.655 0-2.557.342-2.543 1.039-.014.67.888 1.025 2.543 1.025 1.64 0 2.502-.355 2.502-1.025 0-.697-.862-1.04-2.502-1.04z" fill="#C7C8C9"/>
</svg>
