<svg width="45" height="45" viewBox="0 0 45 45" fill="none" xmlns="http://www.w3.org/2000/svg">
    <circle cx="22.5" cy="22.5" r="22.5" fill="#F4F5F7"/>
    <path d="M22.038 15.83v8.941h-1.75v-8.94h1.75zm.328 10.815v1.394h-8.668v-4.17h1.763v2.776h6.905zm-7.15-10.022c1.913 0 3.403 1.313 3.403 3.13 0 1.86-1.49 3.16-3.404 3.16s-3.404-1.3-3.404-3.16c0-1.817 1.49-3.13 3.404-3.13zm0 1.518c-.971-.014-1.71.601-1.696 1.613-.014 1.039.725 1.64 1.695 1.64.944 0 1.682-.601 1.682-1.64 0-1.012-.738-1.627-1.682-1.613zm11.795 3.91v2.133a24.37 24.37 0 0 0 2.147-.206l.095 1.272c-2.023.41-4.593.479-6.166.465l-.232-1.422c.684 0 1.552-.007 2.475-.041v-2.201h1.681zm6.823-6.235v12.442h-1.641V22.16h-.984v5.524h-1.627V16.02h1.627v4.704h.984v-4.909h1.64zm-6.782 1.97c-.013 1.312.684 2.583 2.325 3.157l-.875 1.313c-1.115-.404-1.867-1.155-2.297-2.092-.458 1.046-1.258 1.88-2.475 2.338l-.889-1.313c1.737-.628 2.461-1.955 2.461-3.404v-.998h1.75v.998z" fill="#C7C8C9"/>
</svg>
