<svg width="230" height="135" viewBox="0 0 230 135" fill="none" xmlns="http://www.w3.org/2000/svg">
    <rect width="230" height="135" rx="6" fill="#fff"/>
    <path d="M40.222 78.467v-3.023h2.934V73.69h3.2v9.555h-3.2v-4.777h-2.934zm-4 1.466a8.142 8.142 0 0 1-2.489 2.29 7.044 7.044 0 0 1-3.2.933v-3.023a3.933 3.933 0 0 0 2.2-1.022c.652-.578 1.163-1.326 1.534-2.244.37-.934.563-1.97.577-3.111l3.245.2a10.42 10.42 0 0 1-.556 3.4l4.378 3.11-1.778 2.312-3.91-2.845zm2.867 3.556c2.252 0 4.052.296 5.4.889 1.348.592 2.022 1.54 2.022 2.844 0 1.304-.674 2.252-2.022 2.845-1.348.592-3.148.889-5.4.889-2.252 0-4.052-.297-5.4-.89-1.333-.592-2-1.54-2-2.844 0-1.303.667-2.252 2-2.844 1.348-.593 3.148-.89 5.4-.89zm0 4.822c1.185 0 2.14-.089 2.867-.267.74-.177 1.11-.451 1.11-.822 0-.355-.37-.622-1.11-.8-.741-.192-1.697-.289-2.867-.289-1.156 0-2.104.097-2.845.29-.725.177-1.088.444-1.088.8 0 .37.363.644 1.088.821.726.178 1.675.267 2.845.267zM59.775 73.69h3.223v13.244h-3.223v-.466h-4.177v-2.334h4.177V73.69zm-6.8 6.778c-1.51 0-2.726-.297-3.644-.89-.904-.607-1.356-1.473-1.356-2.6 0-1.125.452-1.984 1.356-2.577.918-.593 2.133-.889 3.644-.889 1.511 0 2.719.296 3.623.889.903.593 1.355 1.452 1.355 2.578s-.452 1.992-1.355 2.6c-.904.592-2.111.889-3.623.889zm0-4.49c-.592 0-1.059.09-1.4.267-.326.163-.489.408-.489.734 0 .34.163.592.49.755.34.163.807.245 1.4.245.592 0 1.051-.082 1.377-.245.326-.163.49-.415.49-.755 0-.326-.171-.57-.512-.734-.326-.177-.778-.266-1.356-.266zm-5.8 7.667v-2.6h7.49c1.896 0 3.296-.207 4.2-.622v2.6c-.504.237-1.127.4-1.867.49-.726.088-1.637.132-2.734.132v2.578h-3.2v-2.578h-3.889zm16.045 7.112H48.464v-5.423h3.223v2.6H63.22v2.823zm16.709 0h-3v-7.6h-1.356v7.31h-2.955v-16.71h2.955v6.2h1.356v-6.267h3v17.067zM67.75 73.889c1.318 0 2.311.644 2.978 1.933.666 1.29 1 3.356 1 6.2 0 2.845-.334 4.911-1 6.2-.667 1.29-1.66 1.934-2.978 1.934-1.319 0-2.311-.645-2.978-1.934-.667-1.289-1-3.355-1-6.2 0-2.844.333-4.91 1-6.2.667-1.289 1.66-1.933 2.978-1.933zm0 13.222c.355 0 .607-.4.755-1.2.163-.815.245-2.111.245-3.889 0-1.778-.082-3.066-.245-3.866-.148-.815-.4-1.223-.755-1.223-.356 0-.615.408-.778 1.223-.148.8-.222 2.088-.222 3.866s.074 3.074.222 3.89c.163.8.422 1.2.778 1.2zm16.797-9.889v4.311h11.534v3.111H81.26V74.09h14.644v3.133H84.55zm-4.177 12.934V87h16.422v3.156H80.371zm32.286.6h-3.2V73.689h3.2v17.067zm-5.933-4.067c.8-.178 1.422-.363 1.867-.556v3c-.489.252-1.134.452-1.934.6-.785.148-1.585.223-2.4.223h-6.955V86.91h1.355v-9.778h-1.244V74.09h10.555v3.044h-1.244v9.556zm-3.156.222v-9.778h-1.733v9.778h1.733zm25.243-3.711v7.556h-3.2V73.689h3.2v6.244h1.911V83.2h-1.911zm-9.889-9.311c1.57 0 2.8.674 3.689 2.022.888 1.348 1.333 3.385 1.333 6.111s-.445 4.763-1.333 6.111c-.889 1.349-2.119 2.023-3.689 2.023-1.571 0-2.8-.675-3.689-2.023-.889-1.348-1.334-3.385-1.334-6.11 0-2.727.445-4.764 1.334-6.112.889-1.348 2.118-2.022 3.689-2.022zm0 13.178c1.214 0 1.822-1.682 1.822-5.045s-.608-5.044-1.822-5.044c-1.245 0-1.867 1.681-1.867 5.044 0 3.363.622 5.045 1.867 5.045zm23.775 3.689V73.689h3.2v17.067h-3.2zM135.808 73.8c.993 0 1.882.23 2.667.689a4.656 4.656 0 0 1 1.822 1.955c.444.83.667 1.793.667 2.89 0 1.096-.223 2.066-.667 2.91a4.657 4.657 0 0 1-1.822 1.956c-.785.46-1.674.689-2.667.689-1.007 0-1.904-.23-2.689-.689-.785-.46-1.4-1.111-1.844-1.956-.445-.844-.667-1.814-.667-2.91 0-1.097.222-2.06.667-2.89.444-.844 1.059-1.496 1.844-1.955.785-.46 1.682-.689 2.689-.689zm0 3.022c-.637 0-1.148.237-1.533.711-.371.474-.556 1.074-.556 1.8 0 .756.185 1.37.556 1.845.385.459.896.689 1.533.689.622 0 1.126-.237 1.511-.711.385-.475.578-1.082.578-1.823 0-.726-.193-1.326-.578-1.8-.385-.474-.889-.71-1.511-.71zm5.956 12.422c-.489.237-1.126.415-1.911.534-.771.118-1.578.178-2.423.178h-7.266V86.8h7.4c.8 0 1.577-.052 2.333-.156.756-.118 1.378-.288 1.867-.51v3.11zm24.814.912h-16.422V87h6.6v-2.756h-5.711V74.09h14.644v10.155H160V87h6.578v3.156zm-4.089-9.045v-3.867h-8.222v3.867h8.222zm8.487-4.733v1.866h11.4v2.69h-14.622v-7.245h14.444v2.689h-11.222zm-4.222 8.4V82h16.422v2.778h-16.422zm15.666 3.155v2.823h-14.711v-5.067h3.267v2.244h11.444zm13.37-7.555c-.755 1.17-1.889 2.059-3.4 2.666-1.511.593-3.266.89-5.266.89v-2.978c1.259 0 2.37-.156 3.333-.467.963-.311 1.711-.748 2.244-1.311.548-.578.823-1.245.823-2V76.8h-6.4v-2.911h9.688v2.733c0 .296-.007.519-.022.667h2.534v-3.6h3.2v11.644h-3.2v-4.955h-3.534zm-.711 7.889c-.918.815-2.007 1.43-3.267 1.844a12.16 12.16 0 0 1-3.955.645V87.6c1.57 0 2.948-.333 4.133-1s1.926-1.585 2.222-2.756l3.2.6a7.522 7.522 0 0 1-.511 1.4l6.334 2.112-1.089 3-7.067-2.69zM64.2 49.489h-1.778l-.2-2.889H64.2v-.911h3.156v9.4H64.2v-1.356h-1.978l.2-2.889H64.2V49.49zm-2.311.711c0 .904-.215 1.696-.645 2.378-.43.681-1.037 1.207-1.822 1.578-.785.37-1.689.555-2.71.555-1.023 0-1.927-.185-2.712-.555-.785-.37-1.393-.897-1.822-1.578-.43-.682-.645-1.474-.645-2.378 0-.889.215-1.674.645-2.356.43-.681 1.037-1.207 1.822-1.577.785-.37 1.689-.556 2.711-.556 1.022 0 1.926.185 2.711.556.785.37 1.393.896 1.822 1.577.43.682.645 1.467.645 2.356zm-7.133 0c0 .548.17.978.51 1.289.356.311.838.467 1.445.467.622 0 1.104-.156 1.445-.467.355-.311.533-.74.533-1.289 0-.533-.178-.956-.533-1.267-.341-.326-.823-.489-1.445-.489-.607 0-1.089.163-1.444.49-.341.31-.511.733-.511 1.266zm5.444 5.133c2.207 0 3.978.304 5.311.911 1.333.593 2 1.556 2 2.89 0 1.333-.667 2.303-2 2.91-1.318.608-3.089.912-5.311.912s-4-.304-5.333-.912c-1.334-.607-2-1.577-2-2.91 0-1.334.666-2.297 2-2.89 1.333-.607 3.11-.91 5.333-.91zm0 4.934c1.156 0 2.089-.09 2.8-.267.711-.193 1.067-.481 1.067-.867 0-.385-.356-.666-1.067-.844-.711-.178-1.644-.267-2.8-.267s-2.089.09-2.8.267c-.711.178-1.067.46-1.067.844 0 .386.356.674 1.067.867.711.178 1.644.267 2.8.267zm25.131-8.734H83.42v3.556h-3.2v-9.4h3.2v2.622h1.911v3.222zm-11.4.2a8.184 8.184 0 0 1-2.533 2.311 6.926 6.926 0 0 1-3.223.956v-3.022A4.1 4.1 0 0 0 70.398 51c.651-.563 1.155-1.296 1.51-2.2.371-.904.564-1.918.579-3.044l3.222.2c0 1.155-.163 2.23-.49 3.222l4.4 2.955-1.621 2.423-4.067-2.823zm2.333 3.6c2.223 0 3.993.304 5.311.911 1.334.593 2 1.556 2 2.89 0 1.333-.666 2.303-2 2.91-1.318.608-3.088.912-5.31.912-2.223 0-4-.304-5.334-.912-1.319-.607-1.978-1.577-1.978-2.91 0-1.334.66-2.297 1.978-2.89 1.333-.607 3.111-.91 5.333-.91zm0 4.934c1.156 0 2.082-.09 2.778-.267.711-.193 1.067-.481 1.067-.867 0-.385-.356-.666-1.067-.844-.696-.178-1.622-.267-2.778-.267-1.155 0-2.089.09-2.8.267-.71.178-1.066.46-1.066.844 0 .386.355.674 1.066.867.711.178 1.645.267 2.8.267zm16.731-14.445c1.497 0 2.815.237 3.956.711 1.14.474 2.022 1.141 2.644 2 .623.845.934 1.823.934 2.934 0 1.11-.311 2.096-.934 2.955-.622.845-1.503 1.504-2.644 1.978-1.14.474-2.46.711-3.956.711s-2.815-.237-3.955-.711c-1.141-.474-2.023-1.133-2.645-1.978-.622-.859-.933-1.844-.933-2.955s.311-2.09.933-2.934c.623-.859 1.504-1.526 2.645-2 1.14-.474 2.459-.71 3.955-.71zm0 3.067c-1.23 0-2.23.237-3 .711-.755.474-1.133 1.096-1.133 1.867 0 .77.378 1.392 1.133 1.866.77.474 1.77.711 3 .711s2.222-.237 2.978-.71c.77-.475 1.156-1.097 1.156-1.867s-.386-1.393-1.156-1.867c-.755-.474-1.748-.711-2.978-.711zm-8.222 13.267V59h16.422v3.156H84.773zm33.62 0h-16.422v-3.067h6.6v-1.933h-5.689V50.2h11.444v-1.156H102.86V46.09h14.644v6.933h-11.422V54.2h11.6v2.956h-5.867v1.933h6.578v3.067zm20.592 0h-16.422V59h6.6v-2.6h-5.711V46.089h3.178v2.178h8.311v-2.178h3.155V56.4h-5.689V59h6.578v3.156zm-4.044-8.778v-2.134h-8.311v2.134h8.311zm19.797-3.645v2.8h-14.577v-6.955h3.222v4.155h11.355zm-15.577 6.8v-2.822h16.422v2.822h-16.422zm15.666 3.4v2.823h-14.711v-5.29h3.267v2.467h11.444z" fill="#BABBBF"/>
    <circle cx="169" cy="54" r="10" fill="#B9BBBF"/>
    <path d="M173.532 53.74a.74.74 0 0 1 0 1.262l-6.18 3.806a.74.74 0 0 1-1.129-.63v-7.613a.74.74 0 0 1 1.129-.63l6.18 3.805z" fill="#fff"/>
</svg>
