<svg width="24" height="24" viewBox="0 0 24 24" fill="none" xmlns="http://www.w3.org/2000/svg">
<path d="M12 20.5C10.8303 20.5 9.72845 20.2763 8.69444 19.829C7.66044 19.3815 6.75991 18.7742 5.99286 18.0071C5.22581 17.2401 4.61854 16.3396 4.17103 15.3056C3.72368 14.2715 3.5 13.1697 3.5 12C3.5 10.8267 3.72368 9.72389 4.17103 8.69161C4.61854 7.65949 5.22581 6.75991 5.99286 5.99286C6.75991 5.22582 7.66044 4.61854 8.69444 4.17103C9.72845 3.72368 10.8303 3.5 12 3.5C13.1733 3.5 14.2761 3.72368 15.3084 4.17103C16.3405 4.61854 17.2401 5.22582 18.0071 5.99286C18.7742 6.75991 19.3815 7.65949 19.829 8.69161C20.2763 9.72389 20.5 10.8267 20.5 12C20.5 13.1697 20.2763 14.2715 19.829 15.3056C19.3815 16.3396 18.7742 17.2401 18.0071 18.0071C17.2401 18.7742 16.3405 19.3815 15.3084 19.829C14.2761 20.2763 13.1733 20.5 12 20.5ZM12 19.5629C12.5545 18.8509 13.0117 18.1516 13.3713 17.465C13.7309 16.7786 14.0232 16.0103 14.2485 15.1603H9.75151C10.001 16.0587 10.2994 16.8511 10.6468 17.5377C10.9944 18.2242 11.4455 18.8992 12 19.5629ZM10.7977 19.4212C10.357 18.9018 9.95465 18.2597 9.59072 17.495C9.22695 16.7303 8.95606 15.9521 8.77803 15.1603H5.15632C5.69764 16.3348 6.465 17.2979 7.4584 18.0499C8.45196 18.8018 9.56506 19.2589 10.7977 19.4212ZM13.2023 19.4212C14.4349 19.2589 15.548 18.8018 16.5416 18.0499C17.535 17.2979 18.3024 16.3348 18.8437 15.1603H15.222C14.9835 15.9642 14.6823 16.7485 14.3184 17.5132C13.9546 18.2779 13.5826 18.9139 13.2023 19.4212ZM4.77146 14.2159H8.58182C8.51036 13.8284 8.45983 13.4508 8.43024 13.0833C8.40049 12.7159 8.38561 12.3548 8.38561 12C8.38561 11.6452 8.40049 11.2841 8.43024 10.9167C8.45983 10.5492 8.51036 10.1716 8.58182 9.7841H4.77146C4.66851 10.111 4.58824 10.4673 4.53062 10.853C4.47317 11.2386 4.44444 11.621 4.44444 12C4.44444 12.379 4.47317 12.7614 4.53062 13.147C4.58824 13.5327 4.66851 13.889 4.77146 14.2159ZM9.52626 14.2159H14.4737C14.5452 13.8284 14.5957 13.4569 14.6253 13.1015C14.6551 12.7462 14.6699 12.379 14.6699 12C14.6699 11.621 14.6551 11.2538 14.6253 10.8985C14.5957 10.5431 14.5452 10.1716 14.4737 9.7841H9.52626C9.4548 10.1716 9.40427 10.5431 9.37468 10.8985C9.34493 11.2538 9.33006 11.621 9.33006 12C9.33006 12.379 9.34493 12.7462 9.37468 13.1015C9.40427 13.4569 9.4548 13.8284 9.52626 14.2159ZM15.4182 14.2159H19.2285C19.3315 13.889 19.4118 13.5327 19.4694 13.147C19.5268 12.7614 19.5556 12.379 19.5556 12C19.5556 11.621 19.5268 11.2386 19.4694 10.853C19.4118 10.4673 19.3315 10.111 19.2285 9.7841H15.4182C15.4896 10.1716 15.5402 10.5492 15.5698 10.9167C15.5995 11.2841 15.6144 11.6452 15.6144 12C15.6144 12.3548 15.5995 12.7159 15.5698 13.0833C15.5402 13.4508 15.4896 13.8284 15.4182 14.2159ZM15.222 8.83965H18.8437C18.2902 7.641 17.5319 6.67782 16.5688 5.95013C15.6056 5.22243 14.4834 4.75926 13.2023 4.56061C13.643 5.14066 14.0393 5.80389 14.3911 6.55032C14.7429 7.2969 15.0199 8.06001 15.222 8.83965ZM9.75151 8.83965H14.2485C13.999 7.95345 13.6914 7.15193 13.3258 6.4351C12.9601 5.71826 12.5182 5.05227 12 4.43713C11.4818 5.05227 11.0399 5.71826 10.6742 6.4351C10.3086 7.15193 10.001 7.95345 9.75151 8.83965ZM5.15632 8.83965H8.77803C8.98014 8.06001 9.2571 7.2969 9.6089 6.55032C9.96071 5.80389 10.357 5.14066 10.7977 4.56061C9.50446 4.75926 8.37931 5.22542 7.42228 5.9591C6.46508 6.69293 5.70976 7.65312 5.15632 8.83965Z" fill="#212121" stroke="#212121" stroke-width="0.4"/>
</svg>
