<svg width="156" height="23" viewBox="0 0 156 23" fill="none" xmlns="http://www.w3.org/2000/svg">
    <g clip-path="url(#dzf6e6fa7a)">
        <path d="M99.533 6.977H98.49V2.375h-2.17v17.842h2.17V9.047h1.042v11.17h2.244V2.375h-2.244v4.602zM134.766 20.217h2.353V2.375h-2.353v17.842zM122.106 2.496v.013a1.165 1.165 0 0 0-1.042 1.164c0 .607.456 1.094 1.042 1.159v.013h1.264v7.354h-1.264v.008a1.167 1.167 0 0 0 0 2.322v.01h11.3v-2.34h-1.927V4.84h1.927V2.496h-11.3zm7.033 9.698h-3.425V4.84h3.425v7.354zM153.273 6.977V2.375h-2.357v17.838l2.357.004V9.047H156v-2.07h-2.727zM144.126 2.375c-3.051 0-5.53 2.752-5.53 6.143 0 3.39 2.479 6.138 5.53 6.138 3.052 0 5.535-2.748 5.535-6.138 0-3.39-2.474-6.143-5.535-6.143zm0 9.768c-1.74 0-3.16-1.628-3.16-3.62 0-1.994 1.415-3.626 3.16-3.626 1.746 0 3.165 1.624 3.165 3.625s-1.424 3.62-3.165 3.62zM90.009 2.375c-2.896 0-5.236 2.752-5.236 6.143 0 3.39 2.34 6.138 5.236 6.138 2.895 0 5.231-2.748 5.231-6.138 0-3.39-2.344-6.143-5.231-6.143zm0 9.768c-1.602 0-2.909-1.628-2.909-3.62 0-1.994 1.311-3.626 2.909-3.626 1.597 0 2.909 1.628 2.909 3.625s-1.307 3.62-2.91 3.62zM104.291 15.021v.013a1.165 1.165 0 0 0-1.037 1.164c0 .608.456 1.094 1.037 1.155v.013h15.299V15.02h-15.299zM107.473 11.926h11.2V9.582h-10.961c-.482 0-.821-.339-.821-.82V5.54c0-.477.339-.82.821-.82h10.961V2.37h-11.2a2.927 2.927 0 0 0-2.926 2.935v3.69a2.927 2.927 0 0 0 2.926 2.926M80.51 13.428h-3.26v2.027h3.26v2.349h-8.782c-.478 0-.812-.339-.812-.812v-2.809h-2.34v3.039a2.92 2.92 0 0 0 2.917 2.917h11.361V2.393h-2.34v11.035" fill="#00508E"/>
        <path d="M68.016 5.905c0 2.223 2.44 4.029 5.444 4.029s5.448-1.802 5.448-4.029-2.44-4.024-5.448-4.024c-3.009 0-5.444 1.801-5.444 4.024zm8.421 0c0 1.072-1.332 1.954-2.973 1.954-1.641 0-2.974-.882-2.974-1.954s1.337-1.95 2.974-1.95c1.636 0 2.974.878 2.974 1.95zM72.654 15.755h2.336V12.33h4.128v-2.101H68.382c-.642 0-1.163.464-1.163 1.05 0 .586.52 1.05 1.163 1.05h4.276v3.426h-.004zM59.668 8.934c-1.072-.351-1.832-.65-2.604-1.849-.925-1.432-.856-3.312-.864-4.593h-2.353c-.013 1.285.056 3.16-.868 4.593-.773 1.198-1.533 1.576-2.6 1.923-.483.113-.852.708-.852 1.194 0 .573.508 1.042 1.13 1.042.073 0 .142-.009.212-.022.035-.008.07-.021.104-.026a5.982 5.982 0 0 0 1.637-.655c1.076-.63 1.81-1.507 2.374-2.366a1.81 1.81 0 0 1 .035-.048v.009s.03.03.039.043a6.988 6.988 0 0 0 2.375 2.284c.508.3 1.059.516 1.636.655.04 0 .07.022.109.026.07.013.139.022.213.022.62 0 1.128-.465 1.128-1.042 0-.478-.36-1.077-.846-1.19h-.005z" fill="#00508E"/>
        <path d="M62.925 11.978h2.38V2.375H62.92v2.809h-3.968v2.053h3.968l.004 4.74zM59.13 18.42c-1.501 0-3.75-.807-3.75-2.24 0-1.432 2.244-2.244 3.75-2.244 1.507 0 3.752.808 3.752 2.245 0 1.436-2.25 2.24-3.751 2.24zm-.108 2.375c2.835 0 6.17-1.836 6.17-4.554 0-2.717-3.335-4.553-6.17-4.553-2.834 0-6.169 1.836-6.169 4.553 0 2.718 3.334 4.554 6.17 4.554zM19.462 18.447s-.01.03-.022.039l-1.346.504-.017.004c-.005 0-.013 0-.018-.004C6.62 14.909-1.32 8.184.182 3.735 1.498-.168 9.672-1.054 19.48 1.282c.017 0 .03.022.03.039a.042.042 0 0 1-.03.04c-.443.086-.868.173-1.233.247h-.017C10.584.223 4.34 1.42 3.182 4.898 1.78 9.122 9.75 14.991 19.44 18.412c.013.009.021.022.021.035z" fill="#00508E"/>
        <path d="M17.665 11.43s-.026-.021-.026-.038c0-.01 0-.018.008-.022a20.369 20.369 0 0 1 4.398-5.3.061.061 0 0 1 .026-.01c.022 0 .04.018.04.04 0 .008 0 .013-.005.021-1.277 1.437.208 1.889 5.44 5.04 5.799 3.495 5.36 7.767 1.406 9.542-3.434 1.537-8.492.482-9.768.174-.017 0-.035-.022-.035-.04 0-.02.018-.038.04-.038 3.946-.096 5.456-1.589 5.83-2.974.182-.977-.23-1.719-.638-2.183-1.754-1.646-6.208-3.942-6.725-4.203" fill="#00508E"/>
        <path d="m17.134 11.134-2.379-1.367s-.03-.026-.03-.043c0-.01.008-.026.013-.035C19.048 4.332 25.19 2.49 29.57 1.896h.01c.02 0 .038.018.038.04 0 .017-.013.034-.035.039-5.435 1.345-8.751 4.171-10.688 6.594a18.434 18.434 0 0 0-1.71 2.552.04.04 0 0 1-.035.018c-.008 0-.017 0-.026-.009l.009.004z" fill="#F39800"/>
        <path d="M12.553 8.51s-.022-.023-.022-.036a.04.04 0 0 1 .013-.03C15.91 4.997 20.16 2.935 23.471 1.95c.017-.005.026-.022.026-.04 0-.017-.009-.03-.026-.038L20.749.873s-.035-.022-.035-.039c0-.022.022-.04.044-.04l10.067.565c.022 0 .043.018.043.04 0 .021-.017.038-.043.038-8.626.817-13.666 4.65-16.488 8.049-.013.013-.021.022-.035.022-.008 0-.017 0-.026-.009l-1.727-.99h.004z" fill="#F39800"/>
        <path d="M29.116 4.198h.03c.165.06 1.52.564 2.991 1.22 0 0 .669.32.716.347 7.74 3.976 12.742 9.646 11.548 13.175-1.163 3.443-7.658 4.537-15.893 3.143-.017 0-.04-.017-.04-.043 0-.022.018-.035.04-.04.46-.134.938-.303 1.38-.524h.018c5.665.343 9.954-.977 10.896-3.799 1.072-3.239-3.573-8.279-9.685-11.647 0 0-1.823-.986-3.364-1.446-.013-.004-.026-.022-.026-.039 0-.022.017-.04.039-.043l1.345-.309h.005" fill="#00508E"/>
    </g>
    <defs>
        <clipPath id="dzf6e6fa7a">
            <path fill="#fff" d="M0 0h156v23H0z"/>
        </clipPath>
    </defs>
</svg>
