<svg width="140" height="21" viewBox="0 0 140 21" fill="none" xmlns="http://www.w3.org/2000/svg">
    <g clip-path="url(#r6a8qdmsya)">
        <path d="M89.324 6.262h-.935v-4.13h-1.948v16.013h1.948V8.121h.935v10.024h2.015V2.133h-2.015v4.13zM120.943 18.145h2.112V2.133h-2.112v16.012zM109.583 2.238v.012a1.046 1.046 0 0 0-.935 1.044c0 .546.41.982.935 1.04v.012h1.134v6.6h-1.134v.008a1.048 1.048 0 0 0 0 2.084v.008h10.142v-2.1h-1.73V4.342h1.73V2.238h-10.142zm6.312 8.704h-3.074v-6.6h3.074v6.6zM137.553 6.262v-4.13h-2.115v16.01l2.115.003V8.121H140V6.262h-2.447zM129.344 2.133c-2.739 0-4.963 2.47-4.963 5.513 0 3.042 2.224 5.508 4.963 5.508s4.968-2.466 4.968-5.508c0-3.043-2.221-5.513-4.968-5.513zm0 8.766c-1.562 0-2.836-1.461-2.836-3.25 0-1.788 1.27-3.253 2.836-3.253 1.566 0 2.84 1.457 2.84 3.253s-1.277 3.25-2.84 3.25zM80.777 2.133c-2.599 0-4.699 2.47-4.699 5.513 0 3.042 2.1 5.508 4.699 5.508 2.598 0 4.694-2.466 4.694-5.508 0-3.043-2.104-5.513-4.694-5.513zm0 8.766c-1.438 0-2.61-1.461-2.61-3.25 0-1.788 1.176-3.253 2.61-3.253 1.433 0 2.61 1.461 2.61 3.253 0 1.793-1.173 3.25-2.61 3.25zM93.595 13.48v.012a1.045 1.045 0 0 0-.93 1.044c0 .546.408.982.93 1.037v.011h13.729V13.48H93.595zM96.45 10.704h10.052V8.6h-9.838c-.432 0-.736-.304-.736-.736V4.973c0-.429.304-.736.736-.736h9.838V2.129H96.45a2.626 2.626 0 0 0-2.626 2.634v3.311A2.627 2.627 0 0 0 96.45 10.7M72.253 12.048h-2.926v1.82h2.926v2.107H64.37c-.428 0-.728-.304-.728-.729v-2.52h-2.1v2.727a2.621 2.621 0 0 0 2.618 2.618h10.196V2.145h-2.1v9.903" fill="#00508E"/>
        <path d="M61.04 5.299c0 1.995 2.189 3.615 4.885 3.615 2.696 0 4.889-1.616 4.889-3.615s-2.19-3.612-4.89-3.612c-2.7 0-4.885 1.617-4.885 3.612zm7.557 0c0 .962-1.196 1.753-2.669 1.753-1.472 0-2.668-.79-2.668-1.753 0-.962 1.2-1.75 2.668-1.75 1.47 0 2.67.788 2.67 1.75zM65.202 14.135h2.096v-3.074h3.705V9.176h-9.635c-.576 0-1.044.417-1.044.943s.468.942 1.044.942h3.838v3.074h-.004zM53.548 8.02c-.962-.316-1.644-.585-2.337-1.66-.83-1.285-.768-2.972-.776-4.122h-2.111c-.012 1.153.05 2.837-.78 4.122-.693 1.075-1.375 1.414-2.333 1.726-.433.101-.764.635-.764 1.071 0 .515.456.935 1.013.935.066 0 .129-.007.191-.019.031-.008.062-.02.094-.023a5.369 5.369 0 0 0 1.468-.589c.967-.565 1.625-1.352 2.131-2.123l.032-.043v.008s.027.027.035.039a6.27 6.27 0 0 0 2.13 2.05c.457.268.951.463 1.47.587.035 0 .062.02.097.024.062.011.125.02.19.02.558 0 1.014-.418 1.014-.936 0-.428-.324-.966-.76-1.067h-.004z" fill="#00508E"/>
        <path d="M56.471 10.75h2.135V2.134h-2.139v2.52h-3.56v1.843h3.56l.004 4.255zM53.067 16.527c-1.348 0-3.366-.725-3.366-2.01 0-1.286 2.014-2.014 3.366-2.014 1.352 0 3.366.724 3.366 2.014 0 1.29-2.018 2.01-3.366 2.01zm-.097 2.131c2.544 0 5.536-1.648 5.536-4.087s-2.992-4.087-5.536-4.087c-2.544 0-5.536 1.648-5.536 4.087s2.992 4.087 5.536 4.087zM17.465 16.553s-.007.027-.02.035l-1.207.452s-.011.004-.015.004-.012 0-.016-.004C5.941 13.378-1.184 7.343.164 3.35 1.344-.153 8.68-.947 17.48 1.149c.016 0 .027.02.027.035a.037.037 0 0 1-.027.035c-.397.078-.78.156-1.106.222h-.016C9.499.198 3.896 1.273 2.856 4.394c-1.259 3.79 5.894 9.058 14.59 12.128.012.008.02.02.02.031z" fill="#00508E"/>
        <path d="M15.854 10.257s-.024-.02-.024-.035c0-.008 0-.016.008-.02a18.28 18.28 0 0 1 3.946-4.757c.008-.004.016-.008.024-.008.02 0 .035.016.035.036 0 .007 0 .011-.004.019-1.145 1.29.187 1.695 4.882 4.523 5.204 3.136 4.811 6.97 1.262 8.563-3.082 1.38-7.62.433-8.766.156-.016 0-.031-.02-.031-.035 0-.02.015-.035.035-.035 3.541-.086 4.897-1.426 5.232-2.669.164-.876-.206-1.542-.573-1.96-1.573-1.476-5.57-3.537-6.034-3.77" fill="#00508E"/>
        <path d="m15.377 9.99-2.135-1.227s-.027-.024-.027-.04c0-.007.008-.023.011-.03 3.87-4.808 9.382-6.46 13.313-6.994h.008c.02 0 .035.016.035.035 0 .016-.012.031-.031.035-4.878 1.208-7.855 3.744-9.592 5.918a16.56 16.56 0 0 0-1.535 2.291.035.035 0 0 1-.031.016c-.008 0-.016 0-.024-.008l.008.004z" fill="#F39800"/>
        <path d="M11.266 7.634s-.02-.02-.02-.031c0-.012.004-.02.012-.027 3.02-3.094 6.833-4.944 9.806-5.829.015-.004.023-.02.023-.035 0-.015-.008-.027-.023-.035L18.62.781s-.031-.02-.031-.035c0-.02.02-.035.039-.035l9.034.506c.02 0 .04.016.04.035 0 .02-.016.036-.04.036C19.923 2.02 15.4 5.46 12.867 8.51c-.012.011-.02.02-.031.02-.008 0-.016 0-.024-.009l-1.55-.888h.004z" fill="#F39800"/>
        <path d="M26.13 3.766h.027c.148.054 1.363.506 2.684 1.094 0 0 .6.289.643.312 6.946 3.569 11.434 8.657 10.363 11.824-1.044 3.09-6.872 4.071-14.263 2.82-.015 0-.035-.015-.035-.038 0-.02.016-.031.035-.035.413-.121.842-.273 1.239-.472h.016c5.084.308 8.933-.876 9.778-3.409.963-2.906-3.206-7.43-8.691-10.452 0 0-1.637-.885-3.02-1.298-.011-.004-.023-.02-.023-.035 0-.02.015-.035.035-.039l1.208-.276h.003" fill="#00508E"/>
    </g>
    <defs>
        <clipPath id="r6a8qdmsya">
            <path fill="#fff" d="M0 0h140v21H0z"/>
        </clipPath>
    </defs>
</svg>
