<svg width="24" height="24" viewBox="0 0 24 24" fill="none" xmlns="http://www.w3.org/2000/svg">
    <circle cx="12" cy="12" fill="#F0F3FF" r="12"/>
    <path d="M10.545 17.378H7.893a.244.244 0 0 1-.249-.24V6.86c0-.132.112-.24.249-.24h8.528c.137 0 .248.108.248.24v1.52c0 .17.145.31.323.31a.316.316 0 0 0 .322-.31V6.86c0-.474-.4-.86-.893-.86H7.893C7.4 6 7 6.386 7 6.86v10.279c0 .474.4.86.893.86h2.652a.316.316 0 0 0 .322-.31.316.316 0 0 0-.322-.31z" fill="#3C62FA" stroke="#3C62FA" stroke-width=".288" stroke-miterlimit="10"/>
    <path d="M7.223 16.487V6.94l.287-.49h8.452l.795.265.71 1.273v7.754l-.46.54c-.078.363-.239 1.101-.25 1.158-.012.056-.386.624-.528.699H8.373c-.177-.059-.734-.573-.863-.548-.16.03-.287-.952-.287-1.104z" fill="#335CFF"/>
    <path d="M16.974 15.172a.333.333 0 0 0-.34.326v1.595a.257.257 0 0 1-.262.25h-1.665a.333.333 0 0 0-.34.326c0 .18.152.326.34.326h1.665c.52 0 .942-.405.942-.902v-1.595a.333.333 0 0 0-.34-.326z" fill="#3C62FA" stroke="#3C62FA" stroke-width=".288" stroke-miterlimit="10"/>
    <path d="M9.425 10.941c-.17 0-.308.158-.308.353 0 .195.138.353.308.353h4.601c.17 0 .309-.158.309-.353 0-.195-.138-.353-.309-.353h-4.6zM9.418 13.059c-.166 0-.3.158-.3.353 0 .194.134.352.3.352h2.38c.166 0 .3-.157.3-.352 0-.196-.134-.353-.3-.353h-2.38zM15.08 9.173c0-.195-.143-.353-.32-.353H9.437c-.177 0-.32.158-.32.353 0 .195.143.353.32.353h5.321c.178 0 .321-.158.321-.353z" fill="#F0F3FF" stroke="#F0F3FF" stroke-width=".288" stroke-miterlimit="10"/>
</svg>
