<svg width="14" height="15" viewBox="0 0 14 15" fill="none" xmlns="http://www.w3.org/2000/svg">
    <circle opacity=".9" cx="7" cy="7.148" r="7" fill="#6E8BFF"/>
    <path d="M6.203 8.98c.01-1.24.361-1.62.977-2.001.42-.264.732-.596.732-1.084 0-.547-.42-.899-.957-.899-.488 0-.957.313-.986.967H4.748c.03-1.309 1.016-1.983 2.217-1.983 1.318 0 2.226.733 2.226 1.895 0 .791-.4 1.309-1.035 1.69-.566.341-.8.683-.81 1.415v.088H6.203V8.98zm.606 2.247a.763.763 0 0 1-.762-.762.76.76 0 0 1 .762-.752c.4 0 .752.342.752.752 0 .42-.352.762-.752.762z" fill="#fff"/>
</svg>
