<svg width="14" height="14" viewBox="0 0 14 14" fill="none" xmlns="http://www.w3.org/2000/svg">
<circle cx="7" cy="7" r="7" fill="#EAEBED"/>
<path d="M6.203 8.832c.01-1.24.361-1.621.977-2.002.42-.264.732-.596.732-1.084 0-.547-.42-.898-.957-.898-.488 0-.957.312-.986.966H4.748c.03-1.308 1.016-1.982 2.217-1.982 1.318 0 2.226.732 2.226 1.895 0 .79-.4 1.308-1.035 1.689-.566.342-.8.684-.81 1.416v.088H6.203v-.088zm.606 2.246a.763.763 0 0 1-.762-.762.76.76 0 0 1 .762-.752c.4 0 .752.342.752.752 0 .42-.352.762-.752.762z" fill="#BABBBD"/>
</svg>