<svg width="24" height="24" viewBox="0 0 24 24" fill="none" xmlns="http://www.w3.org/2000/svg">
    <rect width="24" height="24" rx="12" fill="#F0F3FF"/>
    <g clip-path="url(#5i7ys4g55a)">
        <path fill="#F0F3FF" d="M5.906 5.145h12.19v13.714H5.906z"/>
        <path d="M8.144 17.416c-.124-.053-.964.39-1.369.618l-.309.11c-.037-.47-.088-1.43 0-1.5.088-.071-.037-4.283-.11-6.38l.11-4.305.31-.199.507.375c.176.103.556.345.662.486.133.177.42 0 .53 0 .11 0 .42-.177.486-.287.053-.088.419-.42.596-.574h.772c.199 0 .398.199.552.375.124.142.449.265.596.31h.971c.287-.163.892-.526 1.016-.685.124-.159.449.066.596.199.11 0 .402.035.684.176.283.142.722.383.905.486l.64-.177 1.038-.839.243.354v12.075l-.397.265-.574-.508-.95-.375-1.589.883-.596-.155-1.369-.728-1.766.883-.574-.155c-.485-.22-1.488-.675-1.611-.728z" fill="#3C62FA"/>
        <path d="m17.158 6.41-.8.553a1.062 1.062 0 0 1-1.213 0l-1.187-.82a.146.146 0 0 0-.175 0l-1.182.82a1.063 1.063 0 0 1-1.213 0l-1.181-.82a.146.146 0 0 0-.175 0l-1.182.82a1.063 1.063 0 0 1-1.212 0l-.794-.553v11.178l.8-.553a1.03 1.03 0 0 1 .606-.189c.213 0 .419.065.606.189l1.188.82c.05.038.119.038.175 0l1.182-.82a1.04 1.04 0 0 1 1.212 0l1.182.82c.05.038.119.038.175 0l1.181-.82a1.062 1.062 0 0 1 1.213 0l.794.553V6.41zm.938-.305v11.789a.815.815 0 0 1-.413.715.756.756 0 0 1-.8-.039l-1.037-.721a.17.17 0 0 0-.175 0l-1.182.82a1.062 1.062 0 0 1-1.212 0l-1.182-.82a.146.146 0 0 0-.175 0l-1.181.82a1.03 1.03 0 0 1-.607.188c-.213 0-.419-.065-.607-.189l-1.187-.82a.146.146 0 0 0-.176 0l-1.043.722a.756.756 0 0 1-.8.04.814.814 0 0 1-.413-.716V6.11c0-.299.157-.572.413-.715a.757.757 0 0 1 .8.039l1.038.722a.17.17 0 0 0 .175 0l1.182-.82a1.05 1.05 0 0 1 1.212 0l1.182.82c.05.038.119.038.175 0l1.181-.82a1.062 1.062 0 0 1 1.213 0l1.188.82c.05.038.119.038.175 0l1.044-.722a.743.743 0 0 1 .8-.039.814.814 0 0 1 .412.716v-.007z" fill="#3C62FA"/>
        <path d="M12.616 14.902c.621-.033 1.155-.458 1.356-1.088.263-.835-.163-1.75-.96-2.029l-1.438-.504a.616.616 0 0 1-.365-.769.57.57 0 0 1 .547-.417h.627c.34 0 .635.226.742.564a.468.468 0 0 0 .596.311c.245-.086.376-.372.295-.63-.207-.67-.754-1.134-1.4-1.227V8.69c0-.272-.214-.498-.471-.498-.258 0-.47.226-.47.498v.41c-.623.034-1.156.458-1.357 1.088-.263.836.163 1.75.96 2.03l1.438.503c.302.106.465.45.364.77a.57.57 0 0 1-.546.417h-.628a.782.782 0 0 1-.74-.564.468.468 0 0 0-.597-.312c-.245.086-.377.372-.295.63.207.67.753 1.135 1.4 1.227v.425c0 .272.213.497.47.497.258 0 .472-.225.472-.497v-.411z" fill="#F0F3FF"/>
    </g>
    <defs>
        <clipPath id="5i7ys4g55a">
            <path fill="#fff" transform="translate(5.906 5.145)" d="M0 0h12.19v13.714H0z"/>
        </clipPath>
    </defs>
</svg>
