<svg width="24" height="24" viewBox="0 0 24 24" fill="none" xmlns="http://www.w3.org/2000/svg">
    <circle cx="12" cy="12" fill="#fff" r="12"/>
    <path d="M10.397 17.378H7.855a.24.24 0 0 1-.238-.24V6.86a.24.24 0 0 1 .238-.24h8.17a.24.24 0 0 1 .24.24v1.52c0 .17.137.31.308.31a.31.31 0 0 0 .308-.31V6.86a.858.858 0 0 0-.855-.86h-8.17A.858.858 0 0 0 7 6.86v10.279c0 .474.383.86.855.86h2.542a.31.31 0 0 0 .308-.31.31.31 0 0 0-.308-.31zM16.556 15.172a.326.326 0 0 0-.325.326v1.595a.252.252 0 0 1-.252.25h-1.595a.326.326 0 0 0 0 .652h1.595a.903.903 0 0 0 .903-.902v-1.595a.326.326 0 0 0-.326-.326z" fill="#CDCECF" stroke="#CDCECF" stroke-width=".288" stroke-miterlimit="10"/>
    <path d="M9.409 10.941c-.161 0-.292.158-.292.353 0 .195.13.353.292.353h4.357c.161 0 .292-.158.292-.353 0-.195-.13-.353-.292-.353H9.409zM9.402 13.059c-.157 0-.285.158-.285.353 0 .194.128.352.285.352h2.254c.157 0 .284-.157.284-.352 0-.196-.127-.353-.284-.353H9.402zM14.764 9.173c0-.195-.136-.353-.304-.353H9.42c-.167 0-.303.158-.303.353 0 .195.136.353.304.353h5.039c.168 0 .304-.158.304-.353zM18.912 11.11 17.42 9.619a.297.297 0 0 0-.422 0l-4.473 4.473a.298.298 0 0 0-.079.138l-.497 1.989a.299.299 0 0 0 .362.361l1.988-.497c.053-.013.1-.04.138-.078l4.474-4.473a.298.298 0 0 0 0-.422zm-4.837 4.414-1.426.357.357-1.426.597-.597 1.07 1.07-.598.596zm1.019-1.018-1.07-1.07 3.186-3.185 1.07 1.07-3.186 3.185z" fill="#CDCECF" stroke="#CDCECF" stroke-width=".288" stroke-miterlimit="10"/>
</svg>
