<svg width="24" height="24" viewBox="0 0 24 24" fill="none" xmlns="http://www.w3.org/2000/svg">
    <rect width="24" height="24" rx="12" fill="#F0F3FF"/>
    <g clip-path="url(#tdxgme4gta)">
        <path d="M6.83 16.156V7.723l.16-.32.587-.479 2.481-.19h4.563c.342 0 1.192.127 1.575.19l.133.48v1.974h.747l.774.213.16 2.482c.205.045.651.139.8.16.15.022-.061 1.592-.186 2.375h-.454v.427l-.32 1.548-.267.48-1.067.214H9.578l-2.135-.214-.613-.907z" fill="#335CFF"/>
        <path d="M7.566 6.39a1.659 1.659 0 0 0-.573.304c-.279.203-.604.682-.604.886 0 .036-.016.064-.04.064-.027 0-.038 1.477-.038 4.351 0 2.875.011 4.352.039 4.352.023 0 .039.028.039.064 0 .204.325.683.604.886.243.18.333.228.608.308.188.052.82.06 5.191.06 5.422 0 5.077.016 5.32-.216.212-.192.224-.251.243-1.341l.02-1.018.318-.012c.286-.008.325-.02.44-.128l.125-.116v-3.01l-.126-.116c-.11-.1-.153-.111-.4-.111-.153 0-.298-.016-.326-.032-.035-.02-.05-.312-.059-1.046-.011-.99-.015-1.023-.102-1.15a1.867 1.867 0 0 0-.231-.24c-.13-.1-.177-.107-.557-.12-.228-.007-.44-.031-.463-.055-.04-.032-.051-.296-.051-1.062V6.874l-.102-.164a1.052 1.052 0 0 0-.247-.264l-.141-.1-4.356-.007c-3.794-.008-4.378 0-4.531.051zm8.584 1.573c.008.428 0 .839-.012.906l-.023.132h-4.092c-4.489 0-4.285.012-4.583-.24a.924.924 0 0 1-.306-.694c0-.36.15-.61.475-.803l.172-.1 4.179.013 4.178.008.012.778zM7.323 9.656c.058.032.243.084.408.12.266.056.87.064 5.053.064h4.747l-.008.866-.011.87-.53.024c-.565.024-.686.052-.973.22-.6.36-.953 1.114-.828 1.777.102.554.46 1.057.903 1.28.31.153.36.165.918.189l.51.024.011.866.008.87h-4.865c-4.814 0-4.869 0-5.026-.08a1.046 1.046 0 0 1-.451-.475c-.047-.111-.055-.674-.055-3.401 0-2.256.012-3.27.039-3.27.023 0 .09.024.15.056zm11.103 3.689.008.93-.89-.012-.895-.012-.196-.111a.94.94 0 0 1-.354-1.29c.103-.176.224-.276.471-.383.134-.06.283-.068 1-.06l.844.008.012.93z" fill="#335CFF"/>
        <path d="M16.957 12.92c-.102.09-.127.145-.127.27 0 .216.029.267.188.365.253.15.556.02.613-.259a.405.405 0 0 0-.674-.377zM8.035 15.364a.386.386 0 0 0-.046.475.416.416 0 0 0 .152.158c.13.064 3.509.06 3.638 0 .22-.11.266-.52.072-.682-.095-.077-.16-.08-1.9-.08H8.149l-.114.129zM7.007 8.855l-.22.37a.43.43 0 0 0 .22.06v-.43zm12.01.8.428.035c.02-.235-.092-.431-.191-.557a1.653 1.653 0 0 0-.402-.357 2.166 2.166 0 0 0-1.143-.351v.86c.229 0 .482.088.675.213a.81.81 0 0 1 .192.165c.042.053.006.036.012-.042l.429.034zm-1.308-.8v-.43H7.007v.86h10.702v-.43zm-10.702 0 .22-.37c-.302-.18-.614-.493-.698-.836-.069-.28-.018-.73.738-1.302l-.26-.343-.26-.343c-.93.705-1.23 1.473-1.053 2.193.161.659.692 1.132 1.093 1.37l.22-.37z" fill="#F0F3FF"/>
    </g>
    <defs>
        <clipPath id="tdxgme4gta">
            <path fill="#fff" transform="translate(6.31 6.336)" d="M0 0h12.947v11.329H0z"/>
        </clipPath>
    </defs>
</svg>
