<svg width="24" height="24" viewBox="0 0 24 24" fill="none" xmlns="http://www.w3.org/2000/svg">
    <rect width="24" height="24" rx="12" fill="#fff"/>
    <path d="M18.048 9.994h-1.396V8.18a.698.698 0 0 1 1.396 0v1.814zm-2.233 6.558c0 .692-.564 1.256-1.255 1.256H8.978a1.258 1.258 0 0 1-1.256-1.256V8.737c0-.692.564-1.255 1.256-1.255h7.015a1.49 1.49 0 0 0-.178.698v8.372zm1.535-9.907H8.978a2.094 2.094 0 0 0-2.093 2.092v7.815c0 1.155.938 2.093 2.093 2.093h5.582a2.093 2.093 0 0 0 2.092-2.093V10.83h1.814c.23 0 .419-.19.419-.418V8.18c0-.849-.686-1.535-1.535-1.535z" fill="#CDCECF"/>
    <path d="M13.97 14.172a.419.419 0 0 0 .415-.417.418.418 0 0 0-.414-.416h-1.658a.419.419 0 0 0-.415.416c0 .228.188.417.415.417h1.658zM13.97 16.395a.418.418 0 0 0 .415-.417.418.418 0 0 0-.414-.416h-1.658a.419.419 0 0 0-.415.416c0 .227.188.417.415.417h1.658zM13.97 11.95a.418.418 0 0 0 .415-.416.418.418 0 0 0-.414-.417h-1.658a.419.419 0 0 0-.415.416c0 .228.188.417.415.417h1.658zM10.102 11.95a.418.418 0 0 0 .414-.416.418.418 0 0 0-.414-.417h-.553a.419.419 0 0 0-.414.416c0 .228.187.417.414.417h.553zM10.102 16.395a.418.418 0 0 0 .414-.417.418.418 0 0 0-.414-.416h-.553a.419.419 0 0 0-.414.416c0 .227.187.417.414.417h.553zM10.102 14.172a.418.418 0 0 0 .414-.417.418.418 0 0 0-.414-.416h-.553a.419.419 0 0 0-.414.416c0 .228.187.417.414.417h.553zM10.102 9.727a.418.418 0 0 0 .414-.416.418.418 0 0 0-.414-.416h-.553a.419.419 0 0 0-.414.416c0 .227.187.416.414.416h.553zM13.97 9.727a.418.418 0 0 0 .415-.416.418.418 0 0 0-.414-.416h-1.658a.419.419 0 0 0-.415.416c0 .227.188.416.415.416h1.658z" fill="#CDCECF"/>
</svg>
