<svg width="17" height="17" viewBox="0 0 17 17" fill="none" xmlns="http://www.w3.org/2000/svg">
<path d="M1.3728 7.45636C1.3728 8.25574 1.53017 9.0473 1.83591 9.78584C2.14166 10.5244 2.5898 11.1954 3.15474 11.7607C3.71968 12.3259 4.39037 12.7743 5.1285 13.0802C5.86664 13.3861 6.65776 13.5436 7.45671 13.5436C8.25566 13.5436 9.04679 13.3861 9.78493 13.0802C10.5231 12.7743 11.1937 12.3259 11.7587 11.7607C12.3236 11.1954 12.7718 10.5244 13.0775 9.78584C13.3833 9.0473 13.5406 8.25574 13.5406 7.45636C13.5406 6.65697 13.3833 5.86542 13.0775 5.12688C12.7718 4.38835 12.3236 3.7173 11.7587 3.15205C11.1937 2.5868 10.5231 2.13841 9.78493 1.8325C9.04679 1.52659 8.25566 1.36914 7.45671 1.36914C6.65776 1.36914 5.86664 1.52659 5.1285 1.8325C4.39037 2.13841 3.71968 2.5868 3.15474 3.15205C2.5898 3.7173 2.14166 4.38835 1.83591 5.12688C1.53017 5.86542 1.3728 6.65697 1.3728 7.45636Z" stroke="#212121" stroke-width="1.5" stroke-linecap="round" stroke-linejoin="round"/>
<path d="M15.6275 15.6302L11.826 11.8281" stroke="#212121" stroke-width="1.5" stroke-linecap="round"/>
</svg>
