<svg width="38" height="38" viewBox="0 0 38 38" fill="none" xmlns="http://www.w3.org/2000/svg">
    <rect x=".5" y=".5" width="37" height="37" rx="18.5" fill="#F4F5F7" stroke="#C5C5C7"/>
    <path d="M26.67 14.875c-.184-.739-.726-1.319-1.415-1.514C24.006 13 19.004 13 19.004 13s-5.005 0-6.253.358c-.689.198-1.23.778-1.414 1.514-.336 1.34-.336 4.13-.336 4.13s0 2.788.333 4.126c.184.739.726 1.319 1.414 1.514C13.995 25 19 25 19 25s5.005 0 6.253-.358c.688-.198 1.23-.778 1.414-1.514C27 21.79 27 19 27 19s.003-2.788-.33-4.126z" fill="#F70000"/>
    <path d="M17.457 22v-6l4 3-4 3z" fill="#F4F5F7"/>
</svg>
