<svg width="38" height="38" viewBox="0 0 38 38" fill="none" xmlns="http://www.w3.org/2000/svg">
    <rect x=".5" y=".5" width="37" height="37" rx="18.5" fill="#F4F5F7" stroke="#E3E3E6"/>
    <path d="M15.223 19.924h1.52v5.866c0 .116.1.21.223.21h2.575c.124 0 .224-.094.224-.21v-5.839h1.746c.114 0 .21-.08.222-.185l.265-2.16a.201.201 0 0 0-.055-.164.23.23 0 0 0-.167-.07h-2.01v-1.354c0-.408.233-.615.695-.615h1.316c.123 0 .223-.094.223-.21v-1.982c0-.116-.1-.21-.224-.21h-1.812L19.881 13c-.314 0-1.407.058-2.27.803-.958.826-.825 1.815-.793 1.986v1.583h-1.595c-.123 0-.223.094-.223.21v2.132c0 .116.1.21.223.21z" fill="#AAAAAD"/>
</svg>
