<svg width="38" height="38" viewBox="0 0 38 38" fill="none" xmlns="http://www.w3.org/2000/svg">
    <rect x=".5" y=".5" width="37" height="37" rx="18.5" fill="#F4F5F7" stroke="#E3E3E6"/>
    <path d="M18.997 16.665A2.34 2.34 0 0 0 16.662 19a2.34 2.34 0 0 0 2.335 2.335A2.34 2.34 0 0 0 21.332 19a2.34 2.34 0 0 0-2.335-2.335zM26 19c0-.968.008-1.925-.046-2.89-.055-1.121-.31-2.114-1.13-2.934-.82-.82-1.812-1.074-2.933-1.13C20.922 11.993 19.965 12 19 12c-.968 0-1.925-.008-2.89.047-1.121.055-2.114.309-2.934 1.13-.82.82-1.074 1.812-1.13 2.933-.054.968-.046 1.925-.046 2.89 0 .965-.008 1.925.047 2.89.055 1.121.309 2.114 1.13 2.934.82.82 1.812 1.074 2.933 1.13.968.054 1.925.046 2.89.046.968 0 1.925.008 2.89-.047 1.12-.055 2.116-.309 2.933-1.13.82-.82 1.075-1.812 1.13-2.933.057-.965.046-1.922.046-2.89zm-7.002 3.593A3.588 3.588 0 0 1 15.404 19a3.588 3.588 0 0 1 3.593-3.593A3.588 3.588 0 0 1 22.59 19a3.588 3.588 0 0 1-3.593 3.593zm3.74-6.494a.838.838 0 0 1-.839-.84c0-.464.375-.839.84-.839.464 0 .839.375.839.84 0 .464-.375.839-.84.839z" fill="#AAAAAD"/>
</svg>
