<svg width="38" height="38" viewBox="0 0 38 38" fill="none" xmlns="http://www.w3.org/2000/svg">
    <rect x=".5" y=".5" width="37" height="37" rx="18.5" fill="#F4F5F7" stroke="#C5C5C7"/>
    <g clip-path="url(#xr5h9787va)" fill="#00D05D">
        <path d="M24.015 17.93a.686.686 0 0 0-.671.695c0 .382.302.686.671.686.37 0 .672-.313.672-.686 0-.374-.302-.695-.672-.695zM20.011 17.93a.686.686 0 0 0-.671.695c0 .382.302.686.671.686.37 0 .672-.313.672-.686 0-.374-.302-.695-.672-.695zM14.043 17.93a.686.686 0 0 0-.672.695c0 .382.302.686.672.686.37 0 .671-.313.671-.686 0-.374-.302-.695-.671-.695z"/>
        <path d="M24.814 12.098H13.186c-1.486 0-2.686 1.25-2.686 2.789v6.621c0 1.538 1.2 2.79 2.686 2.79h4.005l1.368 2.302s.017.026.042.07a.472.472 0 0 0 .395.243.453.453 0 0 0 .394-.235c.034-.043.05-.07.05-.07l1.37-2.302h4.004c1.485 0 2.686-1.251 2.686-2.79v-6.63c0-1.537-1.2-2.788-2.686-2.788zm-10.536 8.167c-.63 0-.873-.469-.873-.469v.348h-1.05V15.66h1.041v1.712c.42-.426.89-.426.89-.426 1.41 0 1.47 1.642 1.47 1.642 0 1.625-1.47 1.677-1.47 1.677h-.008zm3.282-.112h-1.007v-2.66c0-.912-.47-.894-.47-.894v-1.043c1.52 0 1.477 1.686 1.477 1.686v2.911zm2.452.113c-1.772 0-1.721-1.643-1.721-1.643 0-1.66 1.72-1.66 1.72-1.66 1.822 0 1.764 1.66 1.764 1.66 0 1.634-1.763 1.642-1.763 1.642zm5.641-.157c0 1.703-1.52 1.686-1.52 1.686h-.402v-.956h.252c.738 0 .663-.79.663-.79v-.253c-.328.435-.915.409-.915.409-1.444 0-1.436-1.6-1.436-1.6 0-1.71 1.47-1.65 1.47-1.65.57 0 .872.408.872.408v-.304h1.016V20.11z"/>
    </g>
    <defs>
        <clipPath id="xr5h9787va">
            <path fill="#fff" transform="translate(10.5 12.098)" d="M0 0h17v14.806H0z"/>
        </clipPath>
    </defs>
</svg>
