<svg width="614" height="124" viewBox="0 0 614 124" fill="none" xmlns="http://www.w3.org/2000/svg">
<path d="M77.9963 88.9023H101.549L118 108.536H5.69336L22.1438 88.9023H45.3917" stroke="white" stroke-width="2" stroke-miterlimit="10"/>
<path d="M26.2207 95.5156H28.8786" stroke="white" stroke-width="2" stroke-linecap="square" stroke-linejoin="round"/>
<path d="M39.5195 95.5156H42.1775" stroke="white" stroke-width="2" stroke-linecap="square" stroke-linejoin="round"/>
<path d="M81.2012 95.5156H83.8591" stroke="white" stroke-width="2" stroke-linecap="square" stroke-linejoin="round"/>
<path d="M95.3984 95.5156H98.0564" stroke="white" stroke-width="2" stroke-linecap="square" stroke-linejoin="round"/>
<path d="M19.1621 103.738H21.82" stroke="white" stroke-width="2" stroke-linecap="square" stroke-linejoin="round"/>
<path d="M32.4531 103.738H35.1111" stroke="white" stroke-width="2" stroke-linecap="square" stroke-linejoin="round"/>
<path d="M46.6484 103.738H49.3064" stroke="white" stroke-width="2" stroke-linecap="square" stroke-linejoin="round"/>
<path d="M75.043 103.738H77.7009" stroke="white" stroke-width="2" stroke-linecap="square" stroke-linejoin="round"/>
<path d="M90.1367 103.738H92.7946" stroke="white" stroke-width="2" stroke-linecap="square" stroke-linejoin="round"/>
<path d="M22.2098 60.7661L62.1756 96.4074H60.6908L98.2892 59.5103L101.176 62.1972L62.1756 97.8093L61.4072 98.5103L60.6804 97.819C60.8362 97.6341 21.348 60.9122 22.189 60.7661H22.2098Z" fill="white"/>
<path d="M99.6251 77.4709L98.521 59.3372L101.204 61.8982L82.2067 60.8245L82.1758 60.3419C84.4666 59.938 102.401 56.8255 104.176 56.5103C103.866 58.1158 100.595 75.4122 100.182 77.5103L99.6354 77.4807L99.6251 77.4709Z" fill="white"/>
<path d="M65.2217 44.6939C66.9609 38.0206 71.9562 15 71.9562 15C71.9562 15 53.2814 43.8565 44 58.3196H59.6445L55.6192 79.5345L55.2847 81L56.1627 79.8136L79.9715 46.0896L81 44.6939C80.6655 44.6939 68.951 44.6939 65.2217 44.6939ZM47.5955 56.7668C47.5955 56.7668 58.2348 39.2157 66.5128 27.4306L63.3153 45.3656L63.0895 46.4473H77.6554L56.6895 77.9643L61.2499 57.8136L61.5342 56.7756H47.5955V56.7668Z" fill="white" stroke="white"/>
<path d="M197.262 8.03516V23.8555H193.541V17.5566H189.381V14.5391H193.541V8.03516H197.262ZM188.15 24.4414C193.834 24.4707 197.32 26.3457 197.35 29.5977C197.32 32.8203 193.834 34.7246 188.15 34.7246C182.467 34.7246 178.98 32.8203 178.98 29.5977C178.98 26.3457 182.467 24.4707 188.15 24.4414ZM188.15 27.3125C184.605 27.3125 182.701 28.0449 182.701 29.5977C182.701 31.1211 184.605 31.8828 188.15 31.8828C191.695 31.8828 193.629 31.1211 193.629 29.5977C193.629 28.0449 191.695 27.3125 188.15 27.3125ZM190.172 9.64648V12.6348H184.869C184.957 15.7402 186.832 18.875 190.992 20.252L189.146 23.1816C186.202 22.2295 184.181 20.2959 183.023 17.8789C181.837 20.6035 179.713 22.8008 176.549 23.8848L174.615 20.9258C178.995 19.4609 180.958 15.9746 181.061 12.6348H175.699V9.64648H190.172ZM222.289 8.06445V27.5176H218.569V17.9668H214.204V14.9492H218.569V8.06445H222.289ZM222.934 31.2383V34.2266H204.594V25.8184H208.344V31.2383H222.934ZM209.897 13.2793C209.897 16.3555 211.772 19.666 216.02 21.043L214.174 24.002C211.215 23.0498 209.194 21.1016 208.022 18.6699C206.85 21.3652 204.726 23.5039 201.577 24.5586L199.672 21.5117C204.067 20.1348 206.059 16.6484 206.088 13.25V12.8398H200.727V9.85156H215.2V12.8398H209.897V13.2793ZM247.259 8.03516V34.6953H243.479V8.03516H247.259ZM239.261 10.8184C239.261 18.9043 236.419 25.6133 226.897 30.125L224.934 27.1367C231.819 23.8848 234.851 19.666 235.452 13.748H226.37V10.8184H239.261ZM268.31 24.3535C273.847 24.3535 277.304 26.2578 277.304 29.5098C277.304 32.8203 273.847 34.7246 268.31 34.7246C262.656 34.7246 259.17 32.8203 259.17 29.5098C259.17 26.2578 262.656 24.3535 268.31 24.3535ZM268.31 27.2539C264.795 27.2539 262.89 27.9863 262.92 29.5098C262.89 31.0332 264.795 31.8242 268.31 31.8242C271.767 31.8242 273.613 31.0332 273.613 29.5098C273.613 27.9863 271.767 27.2539 268.31 27.2539ZM277.041 8.03516V14.2168H280.644V17.3516H277.041V23.7676H273.291V8.03516H277.041ZM260.4 9.70508V13.0742H265.849V9.70508H269.599V22.2441H256.679V9.70508H260.4ZM260.4 19.2852H265.849V15.9746H260.4V19.2852ZM291.258 15.3008C291.258 19.6074 293.455 24.207 297.938 26.082L295.916 29.0117C292.767 27.6787 290.599 25.0273 289.412 21.7754C288.196 25.3057 285.984 28.2354 282.85 29.6855L280.711 26.7266C285.135 24.7637 287.42 19.8125 287.42 15.3008V13.6602H281.766V10.6133H296.824V13.6602H291.258V15.3008ZM303.24 8.03516V34.6953H299.461V8.03516H303.24ZM318.746 9.58789V17.9082H310.69V20.75C314.66 20.75 317.003 20.6182 319.713 20.1055L320.065 23.0938C316.959 23.6504 314.147 23.7383 308.991 23.7383H306.998V15.125H314.996V12.5176H306.94V9.58789H318.746ZM328.414 8.06445V24.4707H324.694V20.3691H320.27V17.4102H324.694V14.7148H320.27V11.7559H324.694V8.06445H328.414ZM328.414 25.6719V34.6953H324.694V28.6602H310.045V25.6719H328.414Z" fill="white"/>
<path d="M195.607 69.0977V71.0781H174.838V69.0977H195.607ZM193.195 65.1621V67.1172H177.428V59.2207H193.043V61.2012H179.814V65.1621H193.195ZM185.197 72.8555C190.098 72.8555 193.043 74.3535 193.043 76.9941C193.043 79.6348 190.098 81.1328 185.197 81.1074C180.271 81.1328 177.301 79.6348 177.301 76.9941C177.301 74.3535 180.271 72.8555 185.197 72.8555ZM185.197 74.709C181.719 74.7344 179.738 75.5469 179.738 76.9941C179.738 78.4414 181.719 79.2539 185.197 79.2539C188.625 79.2539 190.631 78.4414 190.631 76.9941C190.631 75.5469 188.625 74.7344 185.197 74.709ZM209.452 60.4648V62.4199H207.294V69.5547C208.373 69.4658 209.427 69.3643 210.443 69.25L210.595 71.0527C205.999 71.7891 200.718 71.8906 196.808 71.8906L196.529 69.9102L199.322 69.8848V62.4199H197.163V60.4648H209.452ZM214.404 58.4336V65.1621H217.704V67.1934H214.404V75.166H211.991V58.4336H214.404ZM215.368 78.7207V80.6758H199.982V73.5664H202.394V78.7207H215.368ZM201.657 69.8086C202.737 69.7959 203.828 69.7578 204.933 69.6816V62.4199H201.657V69.8086ZM244.531 68.9453V70.9004H235.34V73.084C239.516 73.3125 241.992 74.7217 241.992 77.0957C241.992 79.6855 239.047 81.1328 234.146 81.1074C229.195 81.1328 226.25 79.6855 226.25 77.0957C226.25 74.7217 228.725 73.3125 232.953 73.084V70.9004H223.787V68.9453H244.531ZM234.146 74.9121C230.668 74.9121 228.687 75.6992 228.687 77.0957C228.687 78.4668 230.668 79.2793 234.146 79.2539C237.574 79.2793 239.58 78.4668 239.58 77.0957C239.58 75.6992 237.574 74.9121 234.146 74.9121ZM242.678 59.4492V61.3789H235.771C236.114 63.5752 239.313 65.4414 243.465 65.8477L242.601 67.752C238.666 67.2949 235.403 65.6318 234.172 63.207C232.902 65.6318 229.652 67.2949 225.717 67.752L224.879 65.8477C228.967 65.4414 232.179 63.5752 232.521 61.3789H225.691V59.4492H242.678ZM264.343 58.4336V71.3066H261.931V58.4336H264.343ZM264.343 72.5254V80.8789H249.388V72.5254H264.343ZM251.775 74.4551V78.9238H261.982V74.4551H251.775ZM253.755 61.5059C253.73 64.5781 255.939 67.3457 259.392 68.5137L258.198 70.3672C255.558 69.4912 253.577 67.6885 252.536 65.3398C251.521 67.8408 249.502 69.834 246.773 70.7988L245.579 68.8945C249.134 67.7012 251.292 64.6797 251.292 61.5059V59.2969H253.755V61.5059ZM277.528 59.7793C282.301 59.7793 285.932 62.293 285.932 66.127C285.932 69.9609 282.301 72.5 277.528 72.4746C272.754 72.5 269.149 69.9609 269.149 66.127C269.149 62.293 272.754 59.7793 277.528 59.7793ZM277.528 61.7344C274.049 61.709 271.434 63.4863 271.459 66.127C271.434 68.793 274.049 70.4941 277.528 70.4941C281.006 70.4941 283.596 68.793 283.596 66.127C283.596 63.4863 281.006 61.709 277.528 61.7344ZM287.989 76.207V78.2129H267.168V76.207H287.989ZM309.679 76.4102V78.4414H288.859V76.4102H298.025V72.4238H291.398V65.1875H304.754V61.9883H291.347V60.0078H307.14V67.1172H293.785V70.4434H307.674V72.4238H300.412V76.4102H309.679ZM334.145 60.7188V63.1562C334.145 66.1016 334.145 69.3008 333.307 74.1504L330.844 73.9219C331.758 69.377 331.758 66.0254 331.758 63.1562V62.6992H318.352V60.7188H334.145ZM336.862 75.9277V77.9336H316.117V75.9277H336.862ZM347.101 60.7949V69.0215H340.855V73.8203C343.331 73.8076 345.667 73.6934 348.396 73.2617L348.599 75.1914C345.425 75.75 342.912 75.8262 340.068 75.8516H338.519V67.041H344.765V62.7754H338.494V60.7949H347.101ZM357.334 58.4082V81.1582H355.023V69.2246H352.078V79.9902H349.869V58.8652H352.078V67.2695H355.023V58.4082H357.334ZM378.364 58.4336V75.1914H375.952V58.4336H378.364ZM378.923 78.7207V80.6758H363.358V73.6426H365.796V78.7207H378.923ZM372.854 60.4648V62.4199H370.671V69.6055C371.775 69.5293 372.854 69.4277 373.895 69.3008L374.048 71.1035C369.401 71.8145 364.12 71.8906 360.159 71.8906L359.88 69.9102L362.647 69.8848V62.4199H360.489V60.4648H372.854ZM364.958 69.8594C366.075 69.834 367.218 69.7959 368.36 69.7324V62.4199H364.958V69.8594ZM404.632 58.3828V65.1875H407.933V67.2188H404.632V75.1152H402.22V58.3828H404.632ZM405.597 78.7207V80.6758H390.21V73.3633H392.622V78.7207H405.597ZM393.156 59.957C396.583 59.957 399.199 62.293 399.224 65.6191C399.199 68.9199 396.583 71.2812 393.156 71.2812C389.728 71.2812 387.087 68.9199 387.113 65.6191C387.087 62.293 389.728 59.957 393.156 59.957ZM393.156 62.0645C391.074 62.0645 389.449 63.5117 389.474 65.6191C389.449 67.7266 391.074 69.1738 393.156 69.1738C395.263 69.1738 396.863 67.7266 396.863 65.6191C396.863 63.5117 395.263 62.0645 393.156 62.0645ZM426.323 58.4082V63.7656H429.624V65.7715H426.323V71.2559H423.911V58.4082H426.323ZM420.051 59.8301C420.026 65.6699 416.09 69.7578 409.311 71.5859L408.346 69.6562C413.78 68.2217 416.992 65.3652 417.436 61.8105H409.413V59.8301H420.051ZM426.323 72.2207V80.8535H411.749V72.2207H426.323ZM414.161 74.2266V78.9238H423.936V74.2266H414.161ZM448.978 58.4082V81.209H446.566V58.4082H448.978ZM436.816 60.1094C440.193 60.1094 442.682 63.207 442.682 68.082C442.682 72.9824 440.193 76.0801 436.816 76.0801C433.389 76.0801 430.926 72.9824 430.926 68.082C430.926 63.207 433.389 60.1094 436.816 60.1094ZM436.816 62.2676C434.709 62.2676 433.262 64.502 433.262 68.082C433.262 71.6875 434.709 73.9219 436.816 73.9219C438.898 73.9219 440.346 71.6875 440.346 68.082C440.346 64.502 438.898 62.2676 436.816 62.2676ZM465.547 62.4453C465.547 65.3145 467.604 68.1328 471.032 69.3008L469.788 71.1797C467.236 70.291 465.344 68.4756 464.354 66.2285C463.364 68.7295 461.371 70.7354 458.666 71.6875L457.422 69.7832C460.926 68.5898 463.084 65.543 463.084 62.4707V61.8359H458.159V59.8809H470.422V61.8359H465.547V62.4453ZM476.364 73.1602V81.1582H473.952V75.1152H460.952V73.1602H476.364ZM476.364 58.4082V72.0176H473.952V66.1777H469.737V64.1973H473.952V58.4082H476.364ZM499.832 69.5039V71.459H479.088V69.5039H484.064V66.4316C482.312 65.7207 481.322 64.5781 481.322 63.0801C481.322 60.3887 484.445 58.8145 489.447 58.8145C494.424 58.8145 497.572 60.3887 497.572 63.0801C497.572 64.5781 496.569 65.7334 494.804 66.4316V69.5039H499.832ZM489.447 73.0078C494.347 73.0078 497.293 74.4551 497.293 77.0449C497.293 79.6855 494.347 81.1074 489.447 81.1074C484.496 81.1074 481.551 79.6855 481.551 77.0449C481.551 74.4551 484.496 73.0078 489.447 73.0078ZM489.447 74.8613C485.969 74.8613 483.988 75.6484 483.988 77.0449C483.988 78.4668 485.969 79.2793 489.447 79.2539C492.875 79.2793 494.881 78.4668 494.881 77.0449C494.881 75.6484 492.875 74.8613 489.447 74.8613ZM489.447 60.668C485.918 60.668 483.785 61.5566 483.81 63.0801C483.785 64.6035 485.918 65.4668 489.447 65.4668C492.976 65.4668 495.084 64.6035 495.084 63.0801C495.084 61.5566 492.976 60.668 489.447 60.668ZM486.502 69.5039H492.418V67.0664C491.529 67.2188 490.526 67.2949 489.447 67.2949C488.381 67.2949 487.39 67.2188 486.502 67.0918V69.5039ZM514.337 68.0312V70.0117H509.538V74.2266C511.646 74.125 513.766 73.9854 515.759 73.7695L515.937 75.5469C510.935 76.3086 505.526 76.3594 501.21 76.3848L500.905 74.3789C502.822 74.3789 504.942 74.3662 507.126 74.3027V70.0117H502.556V60.5156H514.235V62.4707H504.942V68.0312H514.337ZM519.593 58.4082V81.209H517.181V58.4082H519.593ZM528.639 60.1094C531.724 60.1094 533.984 62.7246 534.352 66.9395H539.049V58.4082H541.436V81.209H539.049V68.8945H534.377C534.111 73.3252 531.8 76.0801 528.639 76.0801C525.237 76.0801 522.85 72.9824 522.875 68.082C522.85 63.207 525.237 60.1094 528.639 60.1094ZM528.639 62.2676C526.582 62.2676 525.16 64.502 525.16 68.082C525.16 71.6875 526.582 73.9219 528.639 73.9219C530.696 73.9219 532.117 71.6875 532.117 68.082C532.117 64.502 530.696 62.2676 528.639 62.2676ZM193.754 94.4336V107.764H191.342V106.672H186.898V105.148H191.342V94.4336H193.754ZM174.787 102.812C179.18 102.838 184.766 102.787 189.666 102.254L189.793 103.803C187.647 104.095 185.426 104.272 183.242 104.387V107.814H180.855V104.488C178.799 104.539 176.844 104.552 175.066 104.539L174.787 102.812ZM193.754 108.525V113.426H180.652V115.178H194.439V116.93H178.291V111.826H191.367V110.201H178.189V108.525H193.754ZM182.176 94.8145C185.553 94.8145 187.838 96.1602 187.863 98.2422C187.838 100.375 185.553 101.645 182.176 101.645C178.723 101.645 176.463 100.375 176.488 98.2422C176.463 96.1602 178.723 94.8145 182.176 94.8145ZM182.176 96.4395C180.068 96.4395 178.748 97.1504 178.748 98.2422C178.748 99.334 180.068 100.02 182.176 100.02C184.232 100.02 185.578 99.334 185.578 98.2422C185.578 97.1504 184.232 96.4395 182.176 96.4395ZM217.298 105.098V107.078H196.529V105.098H217.298ZM214.886 101.162V103.117H199.118V95.2207H214.734V97.2012H201.505V101.162H214.886ZM206.888 108.855C211.788 108.855 214.734 110.354 214.734 112.994C214.734 115.635 211.788 117.133 206.888 117.107C201.962 117.133 198.991 115.635 198.991 112.994C198.991 110.354 201.962 108.855 206.888 108.855ZM206.888 110.709C203.409 110.734 201.429 111.547 201.429 112.994C201.429 114.441 203.409 115.254 206.888 115.254C210.316 115.254 212.322 114.441 212.322 112.994C212.322 111.547 210.316 110.734 206.888 110.709ZM236.094 94.4336V101.746H239.395V103.752H236.094V111.445H233.682V94.4336H236.094ZM231.803 97.0742V99.0293H218.245V97.0742H223.831V94.4082H226.243V97.0742H231.803ZM225.024 100.121C228.299 100.121 230.534 101.822 230.534 104.412C230.534 107.002 228.299 108.678 225.024 108.678C221.723 108.678 219.489 107.002 219.489 104.412C219.489 101.822 221.723 100.121 225.024 100.121ZM225.024 101.975C223.094 101.975 221.799 102.914 221.825 104.412C221.799 105.885 223.094 106.799 225.024 106.799C226.954 106.799 228.249 105.885 228.274 104.412C228.249 102.914 226.954 101.975 225.024 101.975ZM237.059 114.721V116.676H221.672V110.1H224.085V114.721H237.059ZM264.444 94.4082V107.941H262.032V102.178H257.792V100.197H262.032V94.4082H264.444ZM256.827 108.576C261.601 108.576 264.521 110.15 264.521 112.867C264.521 115.584 261.601 117.133 256.827 117.158C252.054 117.133 249.109 115.584 249.134 112.867C249.109 110.15 252.054 108.576 256.827 108.576ZM256.827 110.455C253.501 110.455 251.521 111.318 251.521 112.867C251.521 114.391 253.501 115.279 256.827 115.254C260.153 115.279 262.134 114.391 262.134 112.867C262.134 111.318 260.153 110.455 256.827 110.455ZM253.628 98.4199C253.628 101.314 255.685 104.107 259.112 105.275L257.868 107.18C255.317 106.291 253.438 104.476 252.46 102.229C251.457 104.78 249.464 106.824 246.747 107.814L245.478 105.885C249.007 104.666 251.165 101.594 251.165 98.4453V97.9375H246.239V95.9824H258.503V97.9375H253.628V98.4199ZM286.135 94.4336V111.09H283.723V102.533H279.381V100.578H283.723V94.4336H286.135ZM286.745 114.721V116.676H271.358V109.592H273.77V114.721H286.745ZM275.319 99.0293C275.319 101.873 277.375 104.717 280.803 105.859L279.559 107.789C277.007 106.888 275.116 105.06 274.125 102.812C273.135 105.313 271.142 107.332 268.438 108.297L267.194 106.342C270.698 105.148 272.856 102.152 272.856 99.0293V98.1406H267.93V96.1602H280.194V98.1406H275.319V99.0293ZM307.775 94.4082V117.158H305.338V94.4082H307.775ZM300.996 96.8457C300.996 103.498 298.152 109.287 290.357 113.02L289.088 111.064C295.143 108.183 298.089 104.082 298.558 98.7754H290.179V96.8457H300.996ZM326.655 108.576C331.352 108.576 334.196 110.15 334.196 112.842C334.196 115.559 331.352 117.133 326.655 117.158C321.906 117.133 319.012 115.559 319.012 112.842C319.012 110.15 321.906 108.576 326.655 108.576ZM326.655 110.48C323.354 110.48 321.399 111.318 321.424 112.842C321.399 114.365 323.354 115.229 326.655 115.229C329.93 115.229 331.834 114.365 331.834 112.842C331.834 111.318 329.93 110.48 326.655 110.48ZM333.992 94.4082V99.9688H337.293V102.025H333.992V107.992H331.58V94.4082H333.992ZM319.367 95.8301V99.1055H325.334V95.8301H327.721V106.393H317.006V95.8301H319.367ZM319.367 104.463H325.334V101.01H319.367V104.463ZM346.187 101.111C346.187 104.92 348.675 108.855 352.179 110.354L350.859 112.232C348.18 111.052 346.047 108.551 344.994 105.504C343.94 108.754 341.794 111.521 339.154 112.816L337.757 110.912C341.185 109.312 343.724 105.021 343.75 101.111V98.6992H338.544V96.6934H351.367V98.6992H346.187V101.111ZM356.648 94.4082V117.158H354.236V94.4082H356.648ZM370.341 95.7793V102.406H362.825V105.555C366.786 105.567 368.944 105.479 371.509 104.996L371.737 106.951C368.97 107.434 366.634 107.51 362.089 107.51H360.438V100.578H367.929V97.709H360.413V95.7793H370.341ZM378.466 94.4336V108.424H376.054V104.412H371.788V102.482H376.054V99.6641H371.788V97.7344H376.054V94.4336H378.466ZM378.466 109.566V117.184H376.054V111.521H363.028V109.566H378.466ZM393.859 96.8457V98.2422C393.859 100.146 393.859 103.092 393.199 107.154L390.813 106.977C391.384 103.333 391.447 100.705 391.473 98.8008H382.231V96.8457H393.859ZM388.02 103.346V110.15C390.444 110.074 392.907 109.909 395.18 109.617L395.307 111.42C390.559 112.182 385.277 112.283 381.24 112.258L380.961 110.303C382.383 110.29 383.97 110.277 385.633 110.227V103.346H388.02ZM398.912 94.4082V103.803H402.391V105.859H398.912V117.158H396.475V94.4082H398.912ZM429.268 112.334V114.34H408.448V112.334H417.614V107.662H410.835V95.957H413.247V99.8672H424.419V95.957H426.805V107.662H420.001V112.334H429.268ZM413.247 105.707H424.419V101.822H413.247V105.707ZM450.883 106.393V108.373H430.139V106.393H439.305V104.184C435.039 103.942 432.373 102.292 432.373 99.6133C432.373 96.7949 435.547 95.0684 440.498 95.043C445.424 95.0684 448.623 96.7949 448.623 99.6133C448.623 102.292 445.932 103.942 441.691 104.184V106.393H450.883ZM448.547 114.721V116.676H432.754V110.074H435.191V114.721H448.547ZM440.498 96.998C437.019 96.998 434.836 97.9883 434.861 99.6133C434.836 101.34 437.019 102.279 440.498 102.279C443.976 102.279 446.135 101.34 446.135 99.6133C446.135 97.9883 443.976 96.998 440.498 96.998ZM459.904 97.8105C459.904 101.01 461.96 103.854 465.413 104.971L464.093 106.85C461.592 105.948 459.751 104.196 458.761 101.924C457.771 104.526 455.79 106.545 453.048 107.535L451.753 105.605C455.384 104.361 457.491 101.34 457.517 97.9121V95.6777H459.904V97.8105ZM470.796 94.4082V107.84H468.384V101.01H463.585V99.0293H468.384V94.4082H470.796ZM463.179 108.475C467.952 108.475 470.872 110.049 470.872 112.816C470.872 115.559 467.952 117.133 463.179 117.107C458.405 117.133 455.46 115.559 455.486 112.816C455.46 110.049 458.405 108.475 463.179 108.475ZM463.179 110.354C459.853 110.354 457.872 111.242 457.872 112.816C457.872 114.34 459.853 115.203 463.179 115.203C466.505 115.203 468.486 114.34 468.486 112.816C468.486 111.242 466.505 110.354 463.179 110.354ZM498.613 94.4082V117.158H496.302V94.4082H498.613ZM493.992 94.8906V116.016H491.707V104.438H488.177V102.457H491.707V94.8906H493.992ZM485.943 100.756C485.943 104.641 487.517 108.525 490.717 110.379L489.269 112.156C487.098 110.861 485.6 108.563 484.826 105.809C484.001 108.779 482.452 111.306 480.23 112.689L478.758 110.887C481.982 108.932 483.633 104.793 483.633 100.756V98.9277H479.443V96.9727H489.853V98.9277H485.943V100.756ZM511.036 108.703C515.962 108.703 519.06 110.252 519.085 112.918C519.06 115.559 515.962 117.133 511.036 117.107C506.161 117.133 503.038 115.559 503.038 112.918C503.038 110.252 506.161 108.703 511.036 108.703ZM511.036 110.531C507.583 110.531 505.425 111.42 505.45 112.918C505.425 114.391 507.583 115.254 511.036 115.254C514.515 115.254 516.673 114.391 516.698 112.918C516.673 111.42 514.515 110.531 511.036 110.531ZM518.907 95.5254V97.4297C518.907 99.2578 518.907 101.137 518.272 103.473L515.911 103.219C516.521 100.896 516.521 99.2197 516.521 97.4551H503.216V95.5254H518.907ZM521.497 104.869V106.824H500.804V104.869H509.106V100.604H511.468V104.869H521.497Z" fill="white"/>
</svg>
