<svg width="614" height="124" viewBox="0 0 614 124" fill="none" xmlns="http://www.w3.org/2000/svg">
<g clip-path="url(#clip0_714_6)">
<path d="M1.81445 78.3C40.5345 65.84 83.4845 65.68 122.184 78.28L122.124 78.85C87.4744 71.81 51.8245 70.51 16.9245 76.3C12.5945 76.93 6.31445 78.15 1.97445 78.91L1.82445 78.3H1.81445Z" fill="white"/>
<path d="M1.96445 45C16.7745 47.81 31.8945 50.1 46.9445 50.85C72.1645 52.34 97.3145 49.98 122.124 45.06L122.184 45.63C93.1845 55.13 61.6645 57.27 31.5145 52.65C21.4245 51.12 11.4745 48.72 1.81445 45.61L1.96445 45Z" fill="white"/>
<path d="M11.2148 59.03H14.6748" stroke="white" stroke-width="2" stroke-linecap="square" stroke-linejoin="round"/>
<path d="M30.8457 59.03H34.3057" stroke="white" stroke-width="2" stroke-linecap="square" stroke-linejoin="round"/>
<path d="M50.4746 59.03H53.9346" stroke="white" stroke-width="2" stroke-linecap="square" stroke-linejoin="round"/>
<path d="M70.1055 59.03H73.5655" stroke="white" stroke-width="2" stroke-linecap="square" stroke-linejoin="round"/>
<path d="M89.7344 59.03H93.1944" stroke="white" stroke-width="2" stroke-linecap="square" stroke-linejoin="round"/>
<path d="M109.365 59.03H112.825" stroke="white" stroke-width="2" stroke-linecap="square" stroke-linejoin="round"/>
<path d="M21.0352 64.89H24.4952" stroke="white" stroke-width="2" stroke-linecap="square" stroke-linejoin="round"/>
<path d="M40.666 64.89H44.126" stroke="white" stroke-width="2" stroke-linecap="square" stroke-linejoin="round"/>
<path d="M60.2949 64.89H63.7549" stroke="white" stroke-width="2" stroke-linecap="square" stroke-linejoin="round"/>
<path d="M79.9258 64.89H83.3858" stroke="white" stroke-width="2" stroke-linecap="square" stroke-linejoin="round"/>
<path d="M99.5547 64.89H103.015" stroke="white" stroke-width="2" stroke-linecap="square" stroke-linejoin="round"/>
</g>
<path d="M40.7606 29.1485C40.1992 28.7184 32.6307 22.879 32.2729 22.6086C32.0855 23.0641 28.4921 31.8202 28.2045 32.5168L28.3754 32.5996L32.3561 26.3388L37.063 40.9954L37.3179 40.927L34.0659 25.8806L40.641 29.317L40.7568 29.1496L40.7606 29.1485Z" fill="white"/>
<path d="M83.2394 29.1509C83.8008 28.7207 91.3693 22.8813 91.7271 22.6109C91.9145 23.0664 95.5079 31.8225 95.7955 32.5191L95.6246 32.6019L91.6439 26.3411L86.937 40.9977L86.6821 40.9294L89.9341 25.883L83.359 29.3193L83.2432 29.1519L83.2394 29.1509Z" fill="white"/>
<path d="M76 24.9981C75.072 23.8175 62.5811 7.81907 61.9875 7.07422C61.3437 7.89831 48.9866 23.7462 48 25.0061L48.3093 25.2676L60.0812 14.705L61.7032 47.0742H62.2717L63.8937 14.705L75.6572 25.2755L75.9916 24.9981H76Z" fill="white"/>
<path d="M40.7606 94.8515C40.1992 95.2816 32.6307 101.121 32.2729 101.391C32.0855 100.936 28.4921 92.1798 28.2045 91.4832L28.3754 91.4004L32.3561 97.6612L37.063 83.0046L37.3179 83.073L34.0659 98.1194L40.641 94.683L40.7568 94.8504L40.7606 94.8515Z" fill="white"/>
<path d="M83.2394 94.8491C83.8008 95.2793 91.3693 101.119 91.7271 101.389C91.9145 100.934 95.5079 92.1775 95.7955 91.4809L95.6246 91.3981L91.6439 97.6589L86.937 83.0023L86.6821 83.0706L89.9341 98.117L83.359 94.6807L83.2432 94.8481L83.2394 94.8491Z" fill="white"/>
<path d="M76 99.0019C75.072 100.183 62.5811 116.181 61.9875 116.926C61.3437 116.102 48.9866 100.254 48 98.9939L48.3093 98.7324L60.0812 109.295L61.7032 76.9258H62.2717L63.8937 109.295L75.6572 98.7245L75.9916 99.0019H76Z" fill="white"/>
<path d="M197.467 8.06445V34.6953H193.717V8.06445H197.467ZM174.703 22.1855C179.947 22.1855 186.539 22.2441 192.457 21.5117L192.662 24.207C190.289 24.6025 187.901 24.8516 185.572 24.998V33.875H181.793V25.1445C179.449 25.2324 177.208 25.2324 175.113 25.2324L174.703 22.1855ZM191.725 16.7656V19.7539H184.371V9.82227H191.578V12.8105H188.033V16.7656H191.725ZM183.082 9.82227V12.8105H179.801V16.7656C180.943 16.7363 182.057 16.6045 183.346 16.3262L183.551 19.2559C181.383 19.7246 179.684 19.7539 177.428 19.7539H176.08V9.82227H183.082ZM207.172 9.91016C210.776 9.91016 213.456 12.8838 213.998 17.6738H218.627V8.03516H222.319V34.7539H218.627V20.6621H214.028C213.632 25.7891 210.893 28.9238 207.172 28.9238C203.129 28.9238 200.229 25.2617 200.258 19.4023C200.229 13.6016 203.129 9.91016 207.172 9.91016ZM207.172 13.2793C205.18 13.2793 203.803 15.4473 203.832 19.4023C203.803 23.3867 205.18 25.5254 207.172 25.5254C209.194 25.5254 210.512 23.3867 210.512 19.4023C210.512 15.4473 209.194 13.2793 207.172 13.2793ZM229.68 9.82227V19.7246C232.918 19.6807 236.433 19.4316 240.139 18.6699L240.55 21.7168C236.214 22.5957 232.054 22.8301 228.216 22.8301H225.93V9.82227H229.68ZM245.999 8.06445V15.5352H249.602V18.6699H245.999V27.1953H242.249V8.06445H245.999ZM246.878 31.2383V34.2266H228.714V25.4082H232.493V31.2383H246.878ZM280.205 21.248V24.2656H255.888V21.248H266.142V18.9922H258.994V8.67969H262.685V11.1113H273.379V8.67969H277.099V18.9922H269.892V21.248H280.205ZM277.246 26.082V34.6953H273.525V29.041H258.584V26.082H277.246ZM262.685 16.0625H273.379V13.8652H262.685V16.0625ZM303.504 8.06445V28.1914H299.754V26.082H294.656V23.5332H299.754V8.06445H303.504ZM304.09 31.2383V34.2266H284.227V26.2578H287.947V22.7129C285.56 22.8154 283.289 22.8301 281.268 22.8301L280.828 19.8711C285.721 19.8418 292.312 19.7832 297.938 19.0801L298.143 21.7461C296.033 22.0977 293.851 22.3467 291.697 22.5078V27.5762H287.947V31.2383H304.09ZM289.5 8.97266C293.367 8.94336 296.15 10.9062 296.15 13.748C296.15 16.5898 293.367 18.4355 289.5 18.4355C285.545 18.4355 282.791 16.5898 282.791 13.748C282.791 10.9062 285.516 8.94336 289.5 8.97266ZM289.5 11.6973C287.596 11.6973 286.307 12.4297 286.336 13.748C286.307 15.0371 287.596 15.7402 289.5 15.7402C291.287 15.7402 292.576 15.0371 292.605 13.748C292.576 12.4297 291.287 11.6973 289.5 11.6973ZM318.746 9.58789V17.9082H310.69V20.75C314.66 20.75 317.003 20.6182 319.713 20.1055L320.065 23.0938C316.959 23.6504 314.147 23.7383 308.991 23.7383H306.998V15.125H314.996V12.5176H306.94V9.58789H318.746ZM328.414 8.06445V24.4707H324.694V20.3691H320.27V17.4102H324.694V14.7148H320.27V11.7559H324.694V8.06445H328.414ZM328.414 25.6719V34.6953H324.694V28.6602H310.045V25.6719H328.414Z" fill="white"/>
<path d="M181.947 60.3633C185.324 60.3887 188.879 62.4199 188.879 69.1484C188.879 75.5977 186.111 79.2539 181.693 79.2539C178.316 79.2539 175.93 77.1719 175.498 74.1758H178.266C178.646 75.7246 179.84 76.8164 181.693 76.8164C184.537 76.8164 186.188 74.3281 186.213 70.1387H185.984C184.994 71.6875 183.268 72.627 181.287 72.627C177.986 72.627 175.346 70.1133 175.346 66.584C175.346 63.0801 177.961 60.3379 181.947 60.3633ZM181.947 62.6992C179.713 62.6992 178.062 64.4258 178.062 66.5332C178.062 68.666 179.662 70.3418 181.896 70.3418C184.105 70.3418 185.832 68.5391 185.832 66.5078C185.832 64.5273 184.207 62.6992 181.947 62.6992ZM197.443 79.2539C193.177 79.2539 190.689 75.8262 190.689 69.8086C190.689 63.8418 193.228 60.3633 197.443 60.3633C201.658 60.3633 204.197 63.8418 204.197 69.8086C204.197 75.8262 201.683 79.2539 197.443 79.2539ZM197.443 76.8418C199.931 76.8418 201.404 74.4043 201.404 69.8086C201.404 65.2383 199.906 62.7246 197.443 62.7246C194.98 62.7246 193.482 65.2383 193.482 69.8086C193.482 74.4043 194.954 76.8418 197.443 76.8418ZM212.71 79.2539C208.444 79.2539 205.956 75.8262 205.956 69.8086C205.956 63.8418 208.495 60.3633 212.71 60.3633C216.924 60.3633 219.463 63.8418 219.463 69.8086C219.463 75.8262 216.95 79.2539 212.71 79.2539ZM212.71 76.8418C215.198 76.8418 216.67 74.4043 216.67 69.8086C216.67 65.2383 215.172 62.7246 212.71 62.7246C210.247 62.7246 208.749 65.2383 208.749 69.8086C208.749 74.4043 210.221 76.8418 212.71 76.8418ZM221.832 79V60.6172H233.232V63.0293H224.625V68.5898H232.42V70.9766H224.625V79H221.832ZM235.575 79V60.6172H242.126C246.392 60.6172 248.499 63.1816 248.499 66.584C248.499 69.9609 246.392 72.5508 242.126 72.5508H238.368V79H235.575ZM238.368 70.1641H241.847C244.564 70.1641 245.681 68.6406 245.681 66.584C245.681 64.502 244.564 63.0039 241.847 63.0039H238.368V70.1641ZM257.037 60.0332C260.643 60.0078 263.207 62.2422 263.233 65.4414C263.207 68.6406 260.643 70.875 257.037 70.875C253.457 70.875 250.817 68.6406 250.842 65.4414C250.817 62.2422 253.457 60.0078 257.037 60.0332ZM257.037 62.1152C254.829 62.1152 253.204 63.4355 253.229 65.4414C253.204 67.4473 254.829 68.7676 257.037 68.7676C259.246 68.7676 260.871 67.4473 260.871 65.4414C260.871 63.4355 259.246 62.1152 257.037 62.1152ZM268.438 58.4082V81.209H266.026V58.4082H268.438ZM249.75 74.3027C253.889 74.3027 259.627 74.252 264.604 73.541L264.782 75.293C259.627 76.2832 254.118 76.3086 250.055 76.3086L249.75 74.3027ZM277.923 79V60.6172H280.716V68.5898H289.856V60.6172H292.649V79H289.856V70.9766H280.716V79H277.923ZM307.434 60.6172H310.227V72.7031C310.227 76.5625 307.332 79.3047 302.94 79.3047C298.496 79.3047 295.627 76.5625 295.627 72.7031V60.6172H298.42V72.4746C298.42 74.9629 300.147 76.7656 302.94 76.7656C305.707 76.7656 307.434 74.9629 307.434 72.4746V60.6172ZM328.033 60.6172V79H325.468L316.15 65.5684H315.998V79H313.205V60.6172H315.794L325.113 74.0742H325.291V60.6172H328.033ZM343.427 66.4316C342.741 64.248 341.091 62.9277 338.653 62.9277C335.555 62.9277 333.169 65.3652 333.169 69.8086C333.169 74.252 335.53 76.6895 338.78 76.6895C341.713 76.6895 343.655 74.8359 343.706 71.8906H339.186V69.5801H346.423V71.6621C346.423 76.3086 343.223 79.2539 338.755 79.2539C333.778 79.2539 330.401 75.623 330.401 69.8086C330.401 63.9434 333.88 60.3633 338.628 60.3633C342.614 60.3633 345.661 62.8516 346.296 66.4316H343.427ZM349.857 79H346.887L353.488 60.6172H356.713L363.34 79H360.369L358.693 74.1504H351.533L349.857 79ZM352.346 71.8145H357.881L355.164 63.9688H355.037L352.346 71.8145ZM364.896 79V60.6172H371.447C375.712 60.6172 377.82 63.0039 377.82 66.3809C377.82 68.8564 376.702 70.7354 374.468 71.5605L378.531 79H375.357L371.624 72.0684H371.447H367.689V79H364.896ZM367.689 69.6562H371.167C373.884 69.6562 375.001 68.4629 375.001 66.3809C375.001 64.2988 373.884 63.0039 371.167 63.0039H367.689V69.6562ZM378.055 60.6172H381.229L386.003 68.9453H386.206L391.005 60.6172H394.178L387.501 71.7891V79H384.708V71.7891L378.055 60.6172ZM413.693 66.4316C413.007 64.248 411.357 62.9277 408.919 62.9277C405.821 62.9277 403.435 65.3652 403.435 69.8086C403.435 74.252 405.796 76.6895 409.046 76.6895C411.979 76.6895 413.921 74.8359 413.972 71.8906H409.452V69.5801H416.689V71.6621C416.689 76.3086 413.489 79.2539 409.021 79.2539C404.044 79.2539 400.667 75.623 400.667 69.8086C400.667 63.9434 404.146 60.3633 408.894 60.3633C412.88 60.3633 415.927 62.8516 416.562 66.4316H413.693ZM435.104 69.8086C435.104 75.6738 431.575 79.2539 426.827 79.2539C422.028 79.2539 418.524 75.6738 418.524 69.8086C418.524 63.918 422.028 60.3633 426.827 60.3633C431.575 60.3633 435.104 63.918 435.104 69.8086ZM432.336 69.8086C432.336 65.3398 429.975 62.9277 426.827 62.9277C423.653 62.9277 421.291 65.3398 421.291 69.8086C421.291 74.2773 423.653 76.6895 426.827 76.6895C429.975 76.6895 432.336 74.2773 432.336 69.8086ZM453.443 69.8086C453.443 75.6738 449.914 79.2539 445.166 79.2539C440.367 79.2539 436.863 75.6738 436.863 69.8086C436.863 63.918 440.367 60.3633 445.166 60.3633C449.914 60.3633 453.443 63.918 453.443 69.8086ZM450.676 69.8086C450.676 65.3398 448.314 62.9277 445.166 62.9277C441.992 62.9277 439.631 65.3398 439.631 69.8086C439.631 74.2773 441.992 76.6895 445.166 76.6895C448.314 76.6895 450.676 74.2773 450.676 69.8086ZM465.815 65.4668C465.638 63.7656 464.14 62.7754 462.032 62.7754C459.772 62.7754 458.351 63.918 458.351 65.4922C458.351 67.2441 460.255 67.9043 461.702 68.2598L463.48 68.7422C465.841 69.3008 468.761 70.5957 468.786 73.9219C468.761 77.0195 466.298 79.3047 461.956 79.3047C457.843 79.3047 455.253 77.248 455.075 73.8965H457.868C458.046 75.9023 459.798 76.8672 461.956 76.8672C464.292 76.8672 465.993 75.6738 466.019 73.8711C465.993 72.2715 464.495 71.6113 462.54 71.1035L460.356 70.5195C457.411 69.707 455.558 68.209 455.558 65.6445C455.558 62.4707 458.401 60.3633 462.108 60.3633C465.841 60.3633 468.456 62.4961 468.532 65.4668H465.815ZM471.002 79V60.6172H482.53V63.0293H473.795V68.5898H481.92V70.9766H473.795V76.5879H482.631V79H471.002ZM485.507 71.9922C485.533 67.2188 486.879 63.2324 489.265 59.8301H491.754C490.002 62.3438 488.326 67.4727 488.326 71.9922C488.326 76.5371 490.002 81.6406 491.754 84.1797H489.265C486.879 80.7773 485.533 76.791 485.507 71.9922ZM499.759 60.3633C503.136 60.3887 506.69 62.4199 506.69 69.1484C506.69 75.5977 503.923 79.2539 499.505 79.2539C496.128 79.2539 493.741 77.1719 493.309 74.1758H496.077C496.458 75.7246 497.651 76.8164 499.505 76.8164C502.349 76.8164 503.999 74.3281 504.024 70.1387H503.796C502.806 71.6875 501.079 72.627 499.099 72.627C495.798 72.627 493.157 70.1133 493.157 66.584C493.157 63.0801 495.772 60.3379 499.759 60.3633ZM499.759 62.6992C497.524 62.6992 495.874 64.4258 495.874 66.5332C495.874 68.666 497.474 70.3418 499.708 70.3418C501.917 70.3418 503.643 68.5391 503.643 66.5078C503.643 64.5273 502.018 62.6992 499.759 62.6992ZM515.254 79.2539C510.988 79.2539 508.5 75.8262 508.5 69.8086C508.5 63.8418 511.039 60.3633 515.254 60.3633C519.469 60.3633 522.008 63.8418 522.008 69.8086C522.008 75.8262 519.494 79.2539 515.254 79.2539ZM515.254 76.8418C517.742 76.8418 519.215 74.4043 519.215 69.8086C519.215 65.2383 517.717 62.7246 515.254 62.7246C512.791 62.7246 511.293 65.2383 511.293 69.8086C511.293 74.4043 512.766 76.8418 515.254 76.8418ZM525.925 76.6387C524.935 76.6387 524.097 75.8262 524.122 74.8359C524.097 73.8457 524.935 73.0332 525.925 73.0332C526.89 73.0332 527.728 73.8457 527.728 74.8359C527.728 75.8262 526.89 76.6387 525.925 76.6387ZM525.925 66.6094C524.935 66.6094 524.097 65.7969 524.122 64.8066C524.097 63.8164 524.935 63.0039 525.925 63.0039C526.89 63.0039 527.728 63.8164 527.728 64.8066C527.728 65.7969 526.89 66.6094 525.925 66.6094ZM537.18 60.6172V79H534.362V63.4102H534.26L529.868 66.2793V63.6133L534.438 60.6172H537.18ZM547.471 79.2539C543.205 79.2539 540.717 75.8262 540.717 69.8086C540.717 63.8418 543.256 60.3633 547.471 60.3633C551.686 60.3633 554.225 63.8418 554.225 69.8086C554.225 75.8262 551.711 79.2539 547.471 79.2539ZM547.471 76.8418C549.959 76.8418 551.432 74.4043 551.432 69.8086C551.432 65.2383 549.934 62.7246 547.471 62.7246C545.008 62.7246 543.51 65.2383 543.51 69.8086C543.51 74.4043 544.982 76.8418 547.471 76.8418ZM561.798 71.9922C561.773 76.791 560.427 80.7773 558.04 84.1797H555.552C557.304 81.6406 558.98 76.5371 558.98 71.9922C558.98 67.4727 557.304 62.3438 555.552 59.8301H558.04C560.427 63.2324 561.773 67.2188 561.798 71.9922ZM584.885 76.4102V78.4414H564.065V76.4102H573.231V72.4238H566.604V65.1875H579.96V61.9883H566.553V60.0078H582.346V67.1172H568.991V70.4434H582.879V72.4238H575.618V76.4102H584.885ZM195.582 105.936V107.865H174.838V105.936H184.004V103.244H186.391V105.936H195.582ZM186.391 94.332V96.4902H193.5V98.3945H186.543C186.784 100.578 189.92 102.19 194.465 102.559L193.754 104.361C189.793 104.006 186.606 102.749 185.197 100.654C183.775 102.749 180.589 104.006 176.666 104.361L175.93 102.559C180.487 102.19 183.598 100.578 183.877 98.3945H176.92V96.4902H184.004V94.332H186.391ZM193.043 109.719V116.879H177.326V109.719H193.043ZM179.713 111.648V114.924H190.707V111.648H179.713ZM217.273 105.936V107.865H196.529V105.936H205.695V103.244H208.081V105.936H217.273ZM208.081 94.332V96.4902H215.191V98.3945H208.234C208.475 100.578 211.611 102.19 216.156 102.559L215.445 104.361C211.484 104.006 208.297 102.749 206.888 100.654C205.466 102.749 202.28 104.006 198.357 104.361L197.62 102.559C202.178 102.19 205.288 100.578 205.568 98.3945H198.611V96.4902H205.695V94.332H208.081ZM214.734 109.719V116.879H199.017V109.719H214.734ZM201.404 111.648V114.924H212.398V111.648H201.404ZM235.942 94.4082V103.625H239.598V105.631H235.942V117.158H233.555V94.4082H235.942ZM231.575 97.9629V99.9434H218.092V97.9629H223.704V94.7129H226.116V97.9629H231.575ZM224.922 101.619C228.172 101.619 230.559 103.803 230.585 106.9C230.559 110.023 228.172 112.182 224.922 112.207C221.647 112.182 219.26 110.023 219.26 106.9C219.26 103.803 221.647 101.619 224.922 101.619ZM224.922 103.6C222.993 103.6 221.545 104.945 221.571 106.9C221.545 108.881 222.993 110.201 224.922 110.176C226.852 110.201 228.274 108.881 228.274 106.9C228.274 104.945 226.852 103.6 224.922 103.6ZM259.461 94.4082V117.158H257.176V94.4082H259.461ZM254.662 94.9922V116.041H252.377V105.479H247.933C246.575 108.119 244.417 110.43 241.205 112.309L239.834 110.582C244.658 107.713 246.981 103.892 247.4 99.207H240.9V97.2266H249.787C249.774 99.4482 249.47 101.568 248.771 103.549H252.377V94.9922H254.662ZM285.272 95.8301V97.8359C285.272 99.9941 285.272 102.33 284.637 105.58H287.912V107.561H278.696V117.184H276.258V107.561H267.168V105.58H282.2C282.885 102.343 282.885 99.9561 282.885 97.8359V97.8105H269.707V95.8301H285.272ZM296.933 97.8105C296.933 101.01 298.99 103.854 302.443 104.971L301.123 106.85C298.622 105.948 296.781 104.196 295.791 101.924C294.8 104.526 292.82 106.545 290.078 107.535L288.783 105.605C292.414 104.361 294.521 101.34 294.547 97.9121V95.6777H296.933V97.8105ZM307.826 94.4082V107.84H305.414V101.01H300.615V99.0293H305.414V94.4082H307.826ZM300.209 108.475C304.982 108.475 307.902 110.049 307.902 112.816C307.902 115.559 304.982 117.133 300.209 117.107C295.435 117.133 292.49 115.559 292.515 112.816C292.49 110.049 295.435 108.475 300.209 108.475ZM300.209 110.354C296.882 110.354 294.902 111.242 294.902 112.816C294.902 114.34 296.882 115.203 300.209 115.203C303.535 115.203 305.515 114.34 305.515 112.816C305.515 111.242 303.535 110.354 300.209 110.354ZM324.108 104.031V106.012H319.31V110.227C321.417 110.125 323.537 109.985 325.53 109.77L325.708 111.547C320.706 112.309 315.298 112.359 310.981 112.385L310.677 110.379C312.594 110.379 314.714 110.366 316.897 110.303V106.012H312.327V96.5156H324.007V98.4707H314.714V104.031H324.108ZM329.364 94.4082V117.209H326.952V94.4082H329.364ZM338.41 96.1094C341.495 96.1094 343.755 98.7246 344.123 102.939H348.821V94.4082H351.207V117.209H348.821V104.895H344.149C343.882 109.325 341.572 112.08 338.41 112.08C335.008 112.08 332.621 108.982 332.647 104.082C332.621 99.207 335.008 96.1094 338.41 96.1094ZM338.41 98.2676C336.354 98.2676 334.932 100.502 334.932 104.082C334.932 107.688 336.354 109.922 338.41 109.922C340.467 109.922 341.889 107.688 341.889 104.082C341.889 100.502 340.467 98.2676 338.41 98.2676ZM378.415 94.4336V111.674H376.003V109.49H371.432V107.789H376.003V94.4336H378.415ZM378.973 114.721V116.676H362.546V109.998H364.932V114.721H378.973ZM359.397 104.818C363.612 104.793 369.274 104.742 374.124 104.133L374.276 105.859C372.334 106.177 370.29 106.393 368.284 106.52V110.963H365.872V106.646C363.663 106.748 361.543 106.761 359.702 106.748L359.397 104.818ZM366.837 95.2969C370.163 95.2969 372.473 96.8965 372.473 99.3086C372.473 101.721 370.163 103.27 366.837 103.27C363.46 103.27 361.175 101.721 361.175 99.3086C361.175 96.8965 363.46 95.2969 366.837 95.2969ZM366.837 97.0996C364.805 97.0742 363.434 97.9375 363.46 99.3086C363.434 100.654 364.805 101.492 366.837 101.492C368.792 101.492 370.163 100.654 370.188 99.3086C370.163 97.9375 368.792 97.0742 366.837 97.0996ZM394.012 96.7949V98.7246H381.215V96.7949H386.547V94.2051H388.934V96.7949H394.012ZM387.715 99.7656C390.787 99.7656 392.945 101.467 392.971 104.006C392.945 106.545 390.787 108.221 387.715 108.221C384.617 108.221 382.484 106.545 382.484 104.006C382.484 101.467 384.617 99.7656 387.715 99.7656ZM387.715 101.594C385.912 101.594 384.744 102.533 384.744 104.006C384.744 105.479 385.912 106.393 387.715 106.393C389.492 106.393 390.711 105.479 390.736 104.006C390.711 102.533 389.492 101.594 387.715 101.594ZM400.156 94.4082V109.059H397.744V106.139H394.063V104.184H397.744V101.67H394.088V99.7148H397.744V94.4082H400.156ZM392.59 109.287C397.363 109.287 400.283 110.709 400.283 113.197C400.283 115.66 397.363 117.133 392.59 117.107C387.791 117.133 384.871 115.66 384.871 113.197C384.871 110.709 387.791 109.287 392.59 109.287ZM392.59 111.141C389.315 111.141 387.385 111.852 387.385 113.197C387.385 114.518 389.315 115.279 392.59 115.254C395.789 115.279 397.719 114.518 397.719 113.197C397.719 111.852 395.789 111.141 392.59 111.141ZM429.192 106.012V107.967H408.448V106.012H417.614V103.549H411.165V94.9414H413.551V97.4043H424.089V94.9414H426.501V103.549H420.001V106.012H429.192ZM426.653 109.998V117.158H424.215V111.928H410.758V109.998H426.653ZM413.551 101.619H424.089V99.207H413.551V101.619ZM449.055 94.4336V111.674H446.643V109.49H442.072V107.789H446.643V94.4336H449.055ZM449.613 114.721V116.676H433.185V109.998H435.572V114.721H449.613ZM430.037 104.818C434.252 104.793 439.914 104.742 444.764 104.133L444.916 105.859C442.974 106.177 440.93 106.393 438.924 106.52V110.963H436.512V106.646C434.303 106.748 432.183 106.761 430.342 106.748L430.037 104.818ZM437.476 95.2969C440.803 95.2969 443.113 96.8965 443.113 99.3086C443.113 101.721 440.803 103.27 437.476 103.27C434.1 103.27 431.814 101.721 431.814 99.3086C431.814 96.8965 434.1 95.2969 437.476 95.2969ZM437.476 97.0996C435.445 97.0742 434.074 97.9375 434.1 99.3086C434.074 100.654 435.445 101.492 437.476 101.492C439.432 101.492 440.803 100.654 440.828 99.3086C440.803 97.9375 439.432 97.0742 437.476 97.0996ZM476.313 94.4082V117.158H473.875V94.4082H476.313ZM469.534 96.8457C469.534 103.498 466.69 109.287 458.895 113.02L457.625 111.064C463.681 108.183 466.626 104.082 467.096 98.7754H458.717V96.8457H469.534ZM497.47 100.553V102.508H481.855V94.8145H484.242V100.553H497.47ZM499.857 104.92V106.9H479.088V104.92H499.857ZM489.447 108.754C494.347 108.754 497.293 110.252 497.293 112.893C497.293 115.559 494.347 117.057 489.447 117.057C484.521 117.057 481.551 115.559 481.551 112.893C481.551 110.252 484.521 108.754 489.447 108.754ZM489.447 110.633C485.969 110.658 483.988 111.42 483.988 112.893C483.988 114.34 485.969 115.203 489.447 115.203C492.875 115.203 494.881 114.34 494.881 112.893C494.881 111.42 492.875 110.658 489.447 110.633ZM519.618 94.4082V117.209H517.206V94.4082H519.618ZM507.456 96.1094C510.833 96.1094 513.321 99.207 513.321 104.082C513.321 108.982 510.833 112.08 507.456 112.08C504.028 112.08 501.565 108.982 501.565 104.082C501.565 99.207 504.028 96.1094 507.456 96.1094ZM507.456 98.2676C505.349 98.2676 503.901 100.502 503.901 104.082C503.901 107.688 505.349 109.922 507.456 109.922C509.538 109.922 510.985 107.688 510.985 104.082C510.985 100.502 509.538 98.2676 507.456 98.2676ZM548.832 107.332V109.338H539.539V117.158H537.177V109.338H528.011V107.332H548.832ZM538.371 95.2715C543.17 95.2715 546.47 97.2266 546.47 100.324C546.47 103.396 543.17 105.326 538.371 105.326C533.546 105.326 530.271 103.396 530.271 100.324C530.271 97.2266 533.546 95.2715 538.371 95.2715ZM538.371 97.2012C534.994 97.2266 532.734 98.3945 532.759 100.324C532.734 102.229 534.994 103.396 538.371 103.396C541.748 103.396 544.007 102.229 544.007 100.324C544.007 98.3945 541.748 97.2266 538.371 97.2012ZM561.382 96.4141C561.356 99.4355 565.063 102.279 569.532 102.863L568.593 104.844C564.873 104.247 561.598 102.317 560.138 99.6387C558.64 102.33 555.377 104.247 551.682 104.844L550.718 102.863C555.186 102.279 558.843 99.4609 558.868 96.4141V95.1699H561.382V96.4141ZM570.472 107.078V109.059H561.229V117.158H558.868V109.059H549.727V107.078H570.472Z" fill="white"/>
<defs>
<clipPath id="clip0_714_6">
<rect width="120.37" height="33.92" fill="white" transform="translate(1.81445 45)"/>
</clipPath>
</defs>
</svg>
