<svg width="614" height="124" viewBox="0 0 614 124" fill="none" xmlns="http://www.w3.org/2000/svg">
<g clip-path="url(#clip0_714_9)">
<path d="M57.9757 106.296C58.3505 106.442 60.004 106.695 61.4812 106.647C61.7568 106.647 62.0103 106.627 62.1867 106.627C65.4828 106.666 68.867 106.296 72.2292 105.546C80.8497 103.609 88.6103 99.208 95.3899 92.4216C97.319 90.4841 99.182 88.3518 100.946 86.0248C103.051 83.2596 104.661 80.9131 106.028 78.6445L107.02 76.9991L99.8434 78.9561L105.653 75.8404L105.752 75.6749C105.829 75.5386 107.648 72.3937 109.136 67.1944C110.503 62.4041 111.826 54.8972 110.36 46.3486L110.117 44.9466L105.532 48.8022L109.919 44.1384L109.842 43.7976C107.714 34.6648 102.71 26.1746 94.9489 18.5704L92.3253 16L93.2623 19.3591C97.1316 33.1751 95.5221 42.7851 93.4938 48.4127C91.3111 54.4591 88.1804 57.3314 88.1143 57.3898L87.8056 57.6624L88.7206 61.9854L86.3505 56.679L85.8214 59.1131C84.4544 65.4516 78.4906 69.8719 74.3127 73.0947C71.5127 75.2562 67.015 77.8948 65.2072 78.6542L66.8497 74.6915L65.3505 75.042C54.7458 77.5151 47.6796 81.692 43.6229 84.7688C40.1725 87.3781 38.2544 89.637 37.5379 90.5522C30.8906 90.2504 24.7284 88.6439 20.6828 87.3295C18.0702 86.4824 15.0938 87.3781 13.6277 89.4617L12.9883 90.3672L14.1127 90.7372C23.4828 93.8042 31.4198 94.6902 36.4245 94.8947C41.6056 95.1089 44.7694 94.6708 45.1993 94.6026C47.3269 94.4274 49.278 94.2132 51.1741 93.9405C53.6544 93.59 55.9584 93.1713 58.2072 92.6748C59.3095 92.4314 60.5111 92.1393 61.9883 91.7498H61.9993C62.1647 91.7011 62.341 91.6525 62.5174 91.6038C62.9804 91.4772 63.4544 91.3409 63.9284 91.2046C64.0387 91.1754 64.1489 91.1364 64.2702 91.1072C64.4796 91.0488 64.7001 90.9806 64.9095 90.9125L65.8686 90.6106C66.1773 90.5133 66.4749 90.4159 66.7615 90.3088L66.8607 90.2699C66.971 90.2309 67.0922 90.192 67.2024 90.153C67.4119 90.0849 67.6324 90.007 67.8418 89.9291H67.8528C68.0513 89.8512 68.2497 89.7733 68.4591 89.7052C68.9001 89.5396 69.3631 89.3741 69.815 89.1989C71.182 88.6828 72.5048 88.0889 73.7284 87.5339L75.1725 86.8329L76.6056 86.0929L77.256 85.7327L76.6276 86.1027L75.2166 86.8913L73.7946 87.641C72.6481 88.2155 71.2922 88.8678 69.9363 89.4423H69.9143C69.4733 89.6467 69.0213 89.8317 68.5804 90.007C68.382 90.0849 68.1725 90.1725 67.9741 90.2504C67.7647 90.3283 67.5662 90.4062 67.3568 90.4841C67.2355 90.5328 67.1253 90.5717 67.004 90.6204L66.8938 90.6593C66.5961 90.7664 66.3206 90.8735 66.0339 90.9806L65.0528 91.3311C64.8434 91.3993 64.645 91.4675 64.4355 91.5453C64.3143 91.5843 64.204 91.6232 64.0828 91.6622C63.6198 91.818 63.1347 91.9738 62.6717 92.1198C62.4954 92.1685 62.33 92.2269 62.1647 92.2756C60.6985 92.7137 59.4969 93.0545 58.3946 93.3271C56.1458 93.9113 53.8308 94.3981 51.3395 94.846C49.4213 95.1868 47.4371 95.4691 45.2765 95.7223C43.7111 95.8976 42.1237 96.0339 40.5584 96.141C39.8639 96.1799 39.1914 96.2189 38.541 96.2383L35.8954 96.3357L37.9678 97.7864C42.1568 100.707 50.0607 105.829 56.0024 107.348L58.5489 108L53.9521 103.025L57.9426 106.286L57.9757 106.296ZM107.836 43.8074L101.739 52.4339L108.64 48.0233C109.687 55.6762 108.497 62.3554 107.251 66.7173C106.006 71.0987 104.484 74.0197 104.099 74.7207L94.8607 81.1176L103.272 79.5013C102.169 81.2149 100.88 83.0259 99.3253 85.0609C91.6308 95.1576 82.3599 101.486 71.7552 103.862C68.5584 104.582 65.3505 104.923 62.2198 104.894C61.9883 104.894 61.7237 104.894 61.415 104.914C60.7867 104.933 59.3095 104.982 58.9127 104.767C58.8245 104.719 58.2623 104.407 54.1284 102.129L50.3584 100.045L53.8639 104.777C49.5095 103.064 44.5379 99.9869 41.2969 97.8351C42.719 97.7378 44.1521 97.6112 45.5741 97.4457C47.7788 97.1925 49.8072 96.9004 51.7694 96.5499C54.3158 96.102 56.6749 95.5957 58.9788 95.0018C60.1143 94.7194 61.3489 94.3689 62.8481 93.9211H62.8591C63.0245 93.8626 63.2009 93.8139 63.3662 93.7555C63.8402 93.6095 64.3363 93.4537 64.8213 93.2882C64.9316 93.2492 65.0528 93.2103 65.1631 93.1713C65.3836 93.1032 65.593 93.0253 65.8245 92.9474L66.8056 92.5969C67.1143 92.4898 67.4229 92.3729 67.7206 92.2561L67.8308 92.2172C67.941 92.1685 68.0623 92.1295 68.1725 92.0906C68.393 92.0127 68.6135 91.9251 68.8229 91.8374H68.8339C69.0324 91.7498 69.2308 91.6719 69.4292 91.5843C69.8812 91.3993 70.3552 91.2143 70.8182 91.0001C72.2292 90.4062 73.6182 89.7344 74.7867 89.1502L76.2528 88.381L77.708 87.5631L79.1521 86.7063C79.2623 86.6382 79.3615 86.57 79.4717 86.5019C79.5269 86.4726 79.571 86.4337 79.6371 86.4045L80.5631 85.8106C80.7725 85.6742 80.971 85.5379 81.1694 85.4016C81.2686 85.3335 81.3788 85.2556 81.4891 85.1874C81.5552 85.1387 81.6324 85.0901 81.6985 85.0414C81.93 84.8856 82.1725 84.7201 82.404 84.5448L83.2749 83.9119C83.4843 83.7659 83.6828 83.6101 83.8702 83.4641C83.9694 83.3862 84.0576 83.3083 84.1568 83.2401H84.1678C84.267 83.1525 84.3662 83.0746 84.4544 82.9967C84.6418 82.8507 84.8402 82.6949 85.0276 82.5391L85.8544 81.8478C85.8544 81.8478 85.9426 81.7699 85.9867 81.731C86.0859 81.6531 86.1851 81.5655 86.2733 81.4876L87.3536 80.5042L88.1804 79.7155H88.1914C88.2796 79.6182 88.3678 79.5305 88.456 79.4429C88.6324 79.2677 88.8198 79.0924 89.0072 78.8977C90.9473 76.9017 90.6828 77.1646 92.171 75.7041C94.0009 73.9126 95.4781 71.5953 96.4812 69.2878C96.878 68.3823 97.2418 67.4573 97.5836 66.5031C99.2371 61.6836 100.086 56.1143 99.5347 49.7661C99.2702 66.6979 90.4292 74.2144 82.7458 80.0563L82.5804 80.1829C82.415 80.3094 82.2497 80.4263 82.0733 80.5626C82.0402 80.5821 82.0072 80.6113 81.9741 80.6308C81.8418 80.7281 81.7206 80.8158 81.5883 80.9131C81.5442 80.9423 81.5001 80.9813 81.456 81.0105C81.2796 81.137 81.1143 81.2636 80.9489 81.3707L80.8607 81.4291C77.0576 84.0775 74.2245 85.3335 74.2245 85.3335L72.8135 86.0053C71.6229 86.5505 70.3332 87.1153 69.0213 87.6118H68.9993C68.5804 87.7871 68.1284 87.9526 67.7095 88.1084C67.5001 88.1863 67.3017 88.2544 67.1032 88.3323C66.9048 88.4005 66.6954 88.4686 66.4969 88.5368C66.3757 88.5757 66.2654 88.6147 66.1552 88.6536L66.056 88.6926C65.7694 88.7899 65.4938 88.8873 65.2182 88.9749L64.2591 89.2767C64.0607 89.3352 63.8623 89.4033 63.6528 89.4617C63.5316 89.5007 63.4213 89.5299 63.3001 89.5688C62.8481 89.7052 62.3851 89.8317 61.9442 89.9583C61.7678 90.007 61.6025 90.0557 61.4261 90.1043C59.982 90.4841 58.8135 90.7664 57.7442 91.0001C55.5505 91.4869 53.3017 91.8959 50.8765 92.2366C49.0135 92.4995 47.0843 92.7137 44.9899 92.889H44.9017C44.9017 92.889 41.7158 93.3953 36.4465 93.1713C31.8277 92.9766 24.6402 92.1782 16.13 89.5494C17.1883 88.7802 18.6654 88.5368 20.0103 88.9652C24.2985 90.3575 30.9127 92.0711 38.0229 92.3145L38.6072 92.334L38.9048 91.8959C38.9048 91.8959 40.7568 89.2183 44.9788 86.0345C48.6828 83.2499 54.9883 79.5013 64.3584 77.0964L63.708 80.1245L65.3615 79.55C65.5599 79.4818 70.2891 77.8169 75.4261 74.5357C78.4576 72.5982 81.004 70.4951 82.9772 68.2849C84.8733 66.1721 86.2513 63.9619 87.0891 61.6836L90.3962 67.2626L89.8009 58.3342C90.6938 57.4287 93.3395 54.4591 95.3017 49.0846C96.6686 45.3458 97.4292 41.198 97.5615 36.7582C97.6938 32.2502 96.404 26.3596 94.0009 18.8723C99.9867 25.4541 105.973 36.1642 107.824 43.8269L107.836 43.8074Z" fill="white"/>
<path d="M72.1204 37.0211C71.1173 49.7759 64.4259 62.2093 52.8511 70.0667C49.081 72.6955 44.7708 74.7986 40.4385 76.3175L40.207 76.1033C52.5094 69.9012 62.4637 60.5736 67.6007 48.8704C69.3535 45.0439 70.6322 41.0422 71.7456 36.9626L72.1094 37.0211H72.1204Z" fill="white"/>
<path d="M57.9541 39.7766C59.4864 51.7914 52.5195 64.5851 40.2392 70.2226L39.9746 70.0376C47.614 64.3223 53.3793 57.0394 55.7935 48.4323C56.6423 45.6185 57.1163 42.7267 57.5793 39.7668H57.9541V39.7766Z" fill="white"/>
</g>
<path d="M199.166 23.416V26.3457H188.736V34.6953H185.045V26.3457H174.762V23.416H199.166ZM181.324 9.06055V12.1367H192.516V9.06055H196.266V20.8379H177.633V9.06055H181.324ZM181.324 17.8496H192.516V15.0664H181.324V17.8496ZM221.557 20.3691V23.3574H202.69V10.2617H221.352V13.2793H206.381V20.3691H221.557ZM224.223 28.3672V31.4434H199.819V28.3672H224.223ZM247.317 8.03516V34.7539H243.596V20.6914H239.29V17.6445H243.596V8.03516H247.317ZM237.796 10.2617V20.252H229.505V25.4668C233.181 25.4375 236.302 25.3057 239.729 24.7051L240.022 27.752C236.067 28.3965 232.434 28.543 227.981 28.543H225.784V17.293H234.163V13.2793H225.725V10.2617H237.796ZM274.249 21.0137V24.002H264.142V28.6309H260.363V24.002H249.845V21.0137H274.249ZM271.554 31.209V34.2266H252.745V26.2578H256.525V31.209H271.554ZM262.032 8.5332C267.804 8.5625 271.642 10.7012 271.671 14.0703C271.642 17.4688 267.804 19.5781 262.032 19.5781C256.232 19.5781 252.364 17.4688 252.364 14.0703C252.364 10.7012 256.232 8.5625 262.032 8.5332ZM262.032 11.4922C258.575 11.4922 256.378 12.3711 256.407 14.0703C256.378 15.7109 258.575 16.5898 262.032 16.5898C265.46 16.5898 267.657 15.7109 267.657 14.0703C267.657 12.3711 265.46 11.4922 262.032 11.4922ZM290.73 13.7773C290.73 16.5312 292.664 19.4023 297 20.5449L295.271 23.5039C292.254 22.6836 290.13 20.9404 288.943 18.7285C287.757 21.1602 285.618 23.0498 282.498 23.9434L280.711 21.0137C285.047 19.8418 287.01 16.7656 287.01 13.7773H281.648V10.8184H287.01V7.94727H290.789V10.8184H296.121V13.7773H290.73ZM302.068 8.03516V14.5977H305.672V17.7324H302.068V24.3828H298.318V8.03516H302.068ZM302.068 25.4668V34.7246H298.318V28.4551H284.109V25.4668H302.068ZM321.09 9.82227V12.8105H315.788C315.817 15.916 317.677 18.9189 321.94 20.1641L320.153 23.0938C317.208 22.2002 315.172 20.4131 314 18.1133C312.814 20.8086 310.646 22.9473 307.438 24.002L305.534 21.043C309.957 19.6514 311.95 16.1943 312.008 12.8105H306.559V9.82227H321.09ZM327.096 8.03516V14.2168H330.7V17.2637H327.096V23.8555H323.346V8.03516H327.096ZM318.366 24.3828C323.903 24.3535 327.36 26.2578 327.36 29.5098C327.36 32.7617 323.903 34.6953 318.366 34.6953C312.711 34.6953 309.225 32.7617 309.225 29.5098C309.225 26.2578 312.711 24.3535 318.366 24.3828ZM318.366 27.2832C314.85 27.2832 312.946 28.0156 312.975 29.5098C312.946 31.0332 314.85 31.7949 318.366 31.7949C321.823 31.7949 323.668 31.0332 323.668 29.5098C323.668 28.0156 321.823 27.2832 318.366 27.2832ZM352.124 8.03516V13.8652H355.727V16.9414H352.124V22.9473H348.374V8.03516H352.124ZM344.653 9.58789C344.624 16.6484 340.171 21.4238 332.173 23.5332L330.679 20.5742C336.655 19.0947 339.951 16.1357 340.581 12.5762H331.997V9.58789H344.653ZM352.124 23.9434V34.373H334.692V23.9434H352.124ZM338.413 26.9609V31.4434H348.432V26.9609H338.413Z" fill="white"/>
<path d="M182.607 60.6172V79H179.789V63.4102H179.688L175.295 66.2793V63.6133L179.865 60.6172H182.607ZM192.898 79.2539C188.632 79.2539 186.144 75.8262 186.144 69.8086C186.144 63.8418 188.683 60.3633 192.898 60.3633C197.113 60.3633 199.652 63.8418 199.652 69.8086C199.652 75.8262 197.138 79.2539 192.898 79.2539ZM192.898 76.8418C195.386 76.8418 196.859 74.4043 196.859 69.8086C196.859 65.2383 195.361 62.7246 192.898 62.7246C190.435 62.7246 188.937 65.2383 188.937 69.8086C188.937 74.4043 190.409 76.8418 192.898 76.8418ZM220.53 58.4082V81.1582H218.194V58.4082H220.53ZM215.833 58.8906V80.0156H213.547V68.9707H208.876V66.9648H213.547V58.8906H215.833ZM210.424 61.125V63.1055H204.153V73.7949C207.136 73.7695 209.142 73.6426 211.491 73.1348L211.694 75.166C209.079 75.6992 206.844 75.8008 203.29 75.8008H201.792V61.125H210.424ZM241.56 58.4082V81.1582H239.148V58.4082H241.56ZM226.453 60.6172V73.2871C229.766 73.2617 233.258 72.9951 236.914 72.2461L237.244 74.2773C233.207 75.0898 229.551 75.3691 225.971 75.3691H224.066V60.6172H226.453ZM250.454 60.1094C253.857 60.1094 256.269 63.207 256.294 68.082C256.269 72.9824 253.857 76.0801 250.454 76.0801C247.052 76.0801 244.614 72.9824 244.64 68.082C244.614 63.207 247.052 60.1094 250.454 60.1094ZM250.454 62.2676C248.372 62.2676 246.95 64.502 246.95 68.082C246.95 71.6875 248.372 73.9219 250.454 73.9219C252.562 73.9219 253.984 71.6875 253.984 68.082C253.984 64.502 252.562 62.2676 250.454 62.2676ZM262.083 58.4082V67.3203H265.739V69.3516H262.083V81.1582H259.671V58.4082H262.083ZM273.465 60.0332C277.071 60.0078 279.635 62.2422 279.661 65.4414C279.635 68.6406 277.071 70.875 273.465 70.875C269.885 70.875 267.245 68.6406 267.27 65.4414C267.245 62.2422 269.885 60.0078 273.465 60.0332ZM273.465 62.1152C271.256 62.1152 269.631 63.4355 269.657 65.4414C269.631 67.4473 271.256 68.7676 273.465 68.7676C275.674 68.7676 277.299 67.4473 277.299 65.4414C277.299 63.4355 275.674 62.1152 273.465 62.1152ZM284.866 58.4082V81.209H282.454V58.4082H284.866ZM266.178 74.3027C270.317 74.3027 276.055 74.252 281.032 73.541L281.209 75.293C276.055 76.2832 270.545 76.3086 266.483 76.3086L266.178 74.3027ZM314.13 76.3848V78.3652H293.31V76.3848H302.501V71.4336H304.888V76.3848H314.13ZM312.2 61.8613V63.8164H304.913C305.015 67.0029 308.392 69.6436 313.063 70.3418L312.149 72.2207C308.353 71.624 305.18 69.8213 303.694 67.168C302.209 69.8213 299.048 71.624 295.239 72.2207L294.325 70.3418C298.997 69.6436 302.349 67.0029 302.476 63.8164H295.188V61.8613H302.501V58.8145H304.888V61.8613H312.2ZM333.967 58.4336V71.8906H331.555V69.123H325.817V67.1426H331.555V64.375H326.045C324.585 68.0312 321.17 70.6084 316.244 72.0176L315.28 70.1387C320.662 68.5898 323.811 65.708 324.242 62.0391H316.447V60.0586H326.858C326.858 60.8965 326.769 61.709 326.629 62.4707H331.555V58.4336H333.967ZM326.477 72.1445C331.072 72.1445 334.094 73.8203 334.119 76.5879C334.094 79.3555 331.072 81.0566 326.477 81.0566C321.805 81.0566 318.809 79.3555 318.809 76.5879C318.809 73.8203 321.805 72.1445 326.477 72.1445ZM326.477 74.0488C323.227 74.0488 321.196 74.9629 321.196 76.5879C321.196 78.1875 323.227 79.127 326.477 79.127C329.676 79.127 331.682 78.1875 331.707 76.5879C331.682 74.9629 329.676 74.0488 326.477 74.0488ZM357.892 61.8105V63.8164H354.566V66.6094H357.892V68.6152H354.566V72.1699H352.154V58.4336H354.566V61.8105H357.892ZM347.964 59.8047V66.1777H340.042V68.9453C343.991 68.9326 346.784 68.793 350.097 68.2344L350.351 70.1895C346.822 70.8242 343.826 70.9512 339.459 70.9258H337.63V64.3242H345.603V61.7598H337.605V59.8047H347.964ZM347.203 72.7285C351.875 72.7285 354.769 74.3027 354.769 76.9434C354.769 79.584 351.875 81.1074 347.203 81.1074C342.455 81.1074 339.56 79.584 339.56 76.9434C339.56 74.3027 342.455 72.7285 347.203 72.7285ZM347.203 74.6328C343.876 74.6328 341.921 75.4707 341.921 76.9434C341.921 78.416 343.876 79.2793 347.203 79.2539C350.503 79.2793 352.408 78.416 352.408 76.9434C352.408 75.4707 350.503 74.6328 347.203 74.6328ZM381.824 58.3828V65.1875H385.125V67.2188H381.824V75.1152H379.412V58.3828H381.824ZM382.789 78.7207V80.6758H367.402V73.3633H369.815V78.7207H382.789ZM370.348 59.957C373.775 59.957 376.391 62.293 376.416 65.6191C376.391 68.9199 373.775 71.2812 370.348 71.2812C366.92 71.2812 364.279 68.9199 364.305 65.6191C364.279 62.293 366.92 59.957 370.348 59.957ZM370.348 62.0645C368.266 62.0645 366.641 63.5117 366.666 65.6191C366.641 67.7266 368.266 69.1738 370.348 69.1738C372.455 69.1738 374.055 67.7266 374.055 65.6191C374.055 63.5117 372.455 62.0645 370.348 62.0645ZM403.515 58.4082V63.7656H406.816V65.7715H403.515V71.2559H401.103V58.4082H403.515ZM397.244 59.8301C397.218 65.6699 393.283 69.7578 386.503 71.5859L385.538 69.6562C390.972 68.2217 394.184 65.3652 394.628 61.8105H386.605V59.8301H397.244ZM403.515 72.2207V80.8535H388.941V72.2207H403.515ZM391.353 74.2266V78.9238H401.128V74.2266H391.353ZM417.69 59.7793C422.464 59.7793 426.094 62.293 426.094 66.127C426.094 69.9609 422.464 72.5 417.69 72.4746C412.917 72.5 409.311 69.9609 409.311 66.127C409.311 62.293 412.917 59.7793 417.69 59.7793ZM417.69 61.7344C414.212 61.709 411.596 63.4863 411.622 66.127C411.596 68.793 414.212 70.4941 417.69 70.4941C421.169 70.4941 423.758 68.793 423.758 66.127C423.758 63.4863 421.169 61.709 417.69 61.7344ZM428.151 76.207V78.2129H407.331V76.207H428.151ZM449.842 76.4102V78.4414H429.021V76.4102H438.187V72.4238H431.56V65.1875H444.916V61.9883H431.51V60.0078H447.303V67.1172H433.947V70.4434H447.836V72.4238H440.574V76.4102H449.842ZM195.658 112.385V114.441H174.838V112.385H183.979V107.535H176.666V105.631H180.068V98.4707H176.615V96.5156H193.754V98.4707H190.275V105.631H193.678V107.535H186.365V112.385H195.658ZM182.455 105.631H187.914V98.4707H182.455V105.631ZM214.708 95.7539V97.5566C214.708 99.4863 214.708 101.746 214.15 104.742H217.349V106.723H196.529V104.742H211.712C212.309 101.784 212.322 99.626 212.322 97.709H199.144V95.7539H214.708ZM215.394 114.695V116.676H199.245V109.084H201.632V114.695H215.394ZM235.942 94.4082V103.625H239.598V105.631H235.942V117.158H233.555V94.4082H235.942ZM231.575 97.9629V99.9434H218.092V97.9629H223.704V94.7129H226.116V97.9629H231.575ZM224.922 101.619C228.172 101.619 230.559 103.803 230.585 106.9C230.559 110.023 228.172 112.182 224.922 112.207C221.647 112.182 219.26 110.023 219.26 106.9C219.26 103.803 221.647 101.619 224.922 101.619ZM224.922 103.6C222.993 103.6 221.545 104.945 221.571 106.9C221.545 108.881 222.993 110.201 224.922 110.176C226.852 110.201 228.274 108.881 228.274 106.9C228.274 104.945 226.852 103.6 224.922 103.6ZM258.318 96.5918V98.8262C258.318 101.645 258.318 104.793 257.455 109.439L255.017 109.186C255.906 104.793 255.906 101.568 255.906 98.8262V98.5469H242.094V96.5918H258.318ZM260.654 112.08V114.086H239.91V112.08H247.806V104.057H250.193V112.08H260.654ZM287.963 107.789V109.693H278.67V117.158H276.309V109.693H267.143V107.789H287.963ZM272.12 95.3223V98.293H282.936V95.3223H285.348V105.199H269.733V95.3223H272.12ZM272.12 103.27H282.936V100.223H272.12V103.27ZM307.293 105.199V107.18H291.449V96.4395H307.09V98.4199H293.836V105.199H307.293ZM309.679 112.156V114.162H288.859V112.156H309.679ZM329.491 94.4082V117.209H327.104V104.971H322.94V102.965H327.104V94.4082H329.491ZM321.595 96.4648V104.59H313.8V109.77C317.431 109.757 320.224 109.63 323.397 109.059L323.601 111.039C320.198 111.648 317.202 111.775 313.19 111.801H311.388V102.635H319.259V98.4199H311.337V96.4648H321.595ZM353.035 105.809V107.764H344.022V112.182H341.584V107.764H332.215V105.809H353.035ZM350.725 114.695V116.676H334.83V109.998H337.242V114.695H350.725ZM342.6 94.9414C347.5 94.9414 350.674 96.7188 350.674 99.5625C350.674 102.406 347.5 104.158 342.6 104.158C337.725 104.158 334.5 102.406 334.5 99.5625C334.5 96.7188 337.725 94.9414 342.6 94.9414ZM342.6 96.8711C339.274 96.8711 337.065 97.8867 337.09 99.5625C337.065 101.213 339.274 102.203 342.6 102.203C345.951 102.203 348.135 101.213 348.135 99.5625C348.135 97.8867 345.951 96.8711 342.6 96.8711ZM367.471 99.334C367.471 102 369.528 104.539 373.007 105.529L371.864 107.459C369.249 106.672 367.319 105.009 366.304 102.889C365.301 105.225 363.32 107.015 360.667 107.865L359.473 105.986C362.952 104.945 365.085 102.254 365.085 99.334V99.0039H360.134V97.0742H365.085V94.332H367.497V97.0742H372.423V99.0039H367.471V99.334ZM377.374 94.4082V100.324H380.675V102.381H377.374V108.322H374.962V94.4082H377.374ZM377.374 109.414V117.184H374.962V111.369H362.343V109.414H377.374ZM389.137 98.5977C389.137 101.492 391.143 104.133 394.596 105.225L393.453 107.104C390.863 106.278 388.972 104.564 387.969 102.406C386.979 104.895 384.985 106.862 382.256 107.814L381.012 105.885C384.566 104.717 386.699 101.771 386.725 98.623V97.9883H381.723V96.0332H394.037V97.9883H389.137V98.5977ZM399.065 94.4082V100.045H402.365V102.025H399.065V108.068H396.652V94.4082H399.065ZM391.727 108.627C396.424 108.627 399.268 110.176 399.268 112.842C399.268 115.533 396.424 117.133 391.727 117.107C386.979 117.133 384.084 115.533 384.084 112.842C384.084 110.176 386.979 108.627 391.727 108.627ZM391.727 110.531C388.426 110.531 386.471 111.369 386.496 112.842C386.471 114.365 388.426 115.203 391.727 115.203C395.002 115.203 396.906 114.365 396.906 112.842C396.906 111.369 395.002 110.531 391.727 110.531ZM420.755 94.4082V99.7656H424.056V101.771H420.755V107.256H418.343V94.4082H420.755ZM414.484 95.8301C414.458 101.67 410.523 105.758 403.744 107.586L402.779 105.656C408.212 104.222 411.424 101.365 411.869 97.8105H403.845V95.8301H414.484ZM420.755 108.221V116.854H406.181V108.221H420.755ZM408.593 110.227V114.924H418.369V110.227H408.593ZM449.664 94.4082V117.158H447.353V94.4082H449.664ZM445.043 94.8906V116.016H442.758V104.438H439.228V102.457H442.758V94.8906H445.043ZM436.994 100.756C436.994 104.641 438.568 108.525 441.768 110.379L440.32 112.156C438.149 110.861 436.651 108.563 435.877 105.809C435.052 108.779 433.503 111.306 431.281 112.689L429.809 110.887C433.033 108.932 434.684 104.793 434.684 100.756V98.9277H430.494V96.9727H440.904V98.9277H436.994V100.756ZM462.087 108.703C467.013 108.703 470.111 110.252 470.136 112.918C470.111 115.559 467.013 117.133 462.087 117.107C457.212 117.133 454.089 115.559 454.089 112.918C454.089 110.252 457.212 108.703 462.087 108.703ZM462.087 110.531C458.634 110.531 456.476 111.42 456.501 112.918C456.476 114.391 458.634 115.254 462.087 115.254C465.566 115.254 467.724 114.391 467.749 112.918C467.724 111.42 465.566 110.531 462.087 110.531ZM469.958 95.5254V97.4297C469.958 99.2578 469.958 101.137 469.323 103.473L466.962 103.219C467.571 100.896 467.571 99.2197 467.571 97.4551H454.267V95.5254H469.958ZM472.548 104.869V106.824H451.855V104.869H460.157V100.604H462.519V104.869H472.548Z" fill="white"/>
<defs>
<clipPath id="clip0_714_9">
<rect width="98" height="92" fill="white" transform="translate(13 16)"/>
</clipPath>
</defs>
</svg>
