<svg width="614" height="124" viewBox="0 0 614 124" fill="none" xmlns="http://www.w3.org/2000/svg">
<path d="M6.34773 77.168C4.1762 77.8255 3.95356 77.8329 3.89674 77.8329H3.89453L48.5837 109.924C48.5837 109.924 60.9879 108.242 73.9049 92.1924C60.0486 106.343 50.3118 107.017 48.5837 107.017C48.4014 107.017 48.3085 107.009 48.3085 107.009L6.34773 77.168Z" fill="white"/>
<path d="M6.34734 84.5859C4.49935 85 3.55903 85 3.50221 85H3.5L48.4996 117.5C48.4996 117.5 58.5363 115.287 70.6181 100.459C57.5778 112.785 48.3073 114.428 48.3073 114.428L6.34734 84.5859Z" fill="white"/>
<path d="M28.5102 49.6911C15.4331 62.637 6.70786 62.7275 6.46806 62.7275C6.46437 62.7275 6.46289 62.7275 6.46289 62.7275L49.5946 93.4019C49.5946 93.4019 49.6256 93.4034 49.6869 93.4034C50.9398 93.4034 64.8418 92.7592 84.3376 65.0935C91.3783 55.103 101.549 48.8609 109.822 48.8609C111.296 48.8609 112.708 49.0588 114.034 49.4695L85.2681 29.0117" stroke="white" stroke-width="2" stroke-miterlimit="10"/>
<path d="M6.39655 70.082C4.22503 70.7395 4.00239 70.7469 3.94557 70.7469H3.94336L48.9919 102.495C48.9919 102.495 65.3134 102.463 85.2681 71.4756C65.5724 98.87 50.8026 99.9314 48.6325 99.9314C48.4503 99.9314 48.3573 99.924 48.3573 99.924L6.39655 70.082Z" fill="white"/>
<path d="M55.9337 55.8489C59.3784 51.1186 59.9996 44.7825 56.2439 40.0963L55.8873 39.6707L55.5103 39.2616C55.2606 39.0261 54.8318 38.5773 54.5805 38.3328C53.3694 37.0472 52.4191 35.5447 51.8057 33.9195C49.7181 28.5774 51.7735 21.9347 56.9712 19L57.1864 19.2146C54.4289 23.135 53.4236 28.2102 55.4412 32.5718C55.9729 33.7325 56.7018 34.817 57.5845 35.7645C57.8673 36.0614 58.2223 36.4092 58.5019 36.7039C59.6917 37.9985 60.6358 39.5077 61.2279 41.1321C62.9126 45.6299 61.8013 50.9406 58.2757 54.3322C57.6112 54.9769 56.8793 55.5438 56.0852 56L55.9337 55.8489Z" fill="white"/>
<path d="M43.4852 71.853C46.6167 67.2505 47.1815 61.0857 43.7672 56.5261L43.443 56.1121L43.1003 55.714C42.8733 55.4848 42.4834 55.0482 42.255 54.8103C41.154 53.5594 40.2901 52.0975 39.7325 50.5163C37.8347 45.3185 39.7032 38.8554 44.4283 36L44.624 36.2088C42.1172 40.0233 41.2033 44.9613 43.0375 49.205C43.5209 50.3344 44.1834 51.3895 44.986 52.3114C45.243 52.6003 45.5657 52.9387 45.8199 53.2254C46.9016 54.485 47.7598 55.9534 48.2981 57.5339C49.8296 61.9101 48.8193 67.0773 45.6143 70.3773C45.0102 71.0045 44.3448 71.5561 43.623 72L43.4852 71.853Z" fill="white"/>
<path d="M68.9337 40.853C72.3784 36.2505 72.9996 30.0857 69.2439 25.5261L68.8873 25.1121L68.5103 24.714C68.2606 24.4848 67.8318 24.0482 67.5805 23.8103C66.3694 22.5594 65.4191 21.0975 64.8057 19.5163C62.7181 14.3185 64.7735 7.85538 69.9712 5L70.1864 5.20884C67.4289 9.02328 66.4236 13.9613 68.4412 18.205C68.9729 19.3344 69.7018 20.3895 70.5845 21.3114C70.8673 21.6003 71.2223 21.9387 71.5019 22.2254C72.6917 23.485 73.6358 24.9534 74.2279 26.5339C75.9126 30.9101 74.8013 36.0773 71.2757 39.3773C70.6112 40.0045 69.8793 40.5561 69.0852 41L68.9337 40.853Z" fill="white"/>
<path d="M185.484 22.4492V26.4629C187.667 26.3311 189.879 26.126 191.959 25.8184L192.252 28.543C186.334 29.6855 180.006 29.7441 175.348 29.7441L174.908 26.7266C176.915 26.7119 179.273 26.6973 181.764 26.6094V22.4492H185.484ZM190.992 11.1699V14.1875H185.543C185.792 16.7656 187.799 19.1826 191.812 20.1641L190.113 23.0645C186.993 22.2734 184.84 20.5449 183.639 18.3184C182.452 20.6475 180.328 22.4639 177.193 23.2695L175.436 20.457C179.464 19.3877 181.412 16.8828 181.676 14.1875H176.285V11.1699H181.764V8.26953H185.484V11.1699H190.992ZM197.203 8.03516V34.7539H193.482V8.03516H197.203ZM221.791 10.3496V12.8691C221.791 16.209 221.791 19.959 220.707 25.6133L216.957 25.2324C217.968 20.1934 218.012 16.4434 218.041 13.3086H202.338V10.3496H221.791ZM224.135 28.3965V31.4434H199.819V28.3965H208.52V19.2266H212.241V28.3965H224.135ZM233.489 9.82227C237.708 9.79297 240.872 12.5469 240.872 16.3555C240.872 20.1934 237.708 22.918 233.489 22.918C229.27 22.918 226.077 20.1934 226.077 16.3555C226.077 12.5469 229.27 9.79297 233.489 9.82227ZM233.489 13.0449C231.38 13.0449 229.768 14.2754 229.798 16.3555C229.768 18.4648 231.38 19.666 233.489 19.666C235.598 19.666 237.21 18.4648 237.239 16.3555C237.21 14.2754 235.628 13.0449 233.489 13.0449ZM247.259 8.03516V34.7539H243.538V8.03516H247.259ZM224.964 26.2578C229.71 26.2871 236.302 26.1992 242.014 25.4082L242.307 28.1035C236.389 29.2461 230.061 29.3047 225.403 29.3047L224.964 26.2578ZM280.293 28.543V31.5898H255.888V28.543H266.171V23.6211H258.466V9.73438H262.216V13.8652H273.847V9.73438H277.568V23.6211H269.892V28.543H280.293ZM262.216 20.6328H273.847V16.8535H262.216V20.6328ZM305.232 21.7754V24.7637H280.916V21.7754H291.17V19.6367C286.365 19.2412 283.348 17.249 283.348 14.1582C283.348 10.8184 287.186 8.70898 293.074 8.70898C298.904 8.70898 302.742 10.8184 302.771 14.1582C302.742 17.2637 299.695 19.2559 294.92 19.6367V21.7754H305.232ZM302.479 31.2383V34.2266H283.846V26.4336H287.596V31.2383H302.479ZM293.074 11.668C289.383 11.668 287.215 12.5762 287.244 14.1582C287.215 15.8867 289.383 16.707 293.074 16.707C296.766 16.707 298.904 15.8867 298.904 14.1582C298.904 12.5762 296.766 11.668 293.074 11.668ZM318.746 9.58789V17.9082H310.69V20.75C314.66 20.75 317.003 20.6182 319.713 20.1055L320.065 23.0938C316.959 23.6504 314.147 23.7383 308.991 23.7383H306.998V15.125H314.996V12.5176H306.94V9.58789H318.746ZM328.414 8.06445V24.4707H324.694V20.3691H320.27V17.4102H324.694V14.7148H320.27V11.7559H324.694V8.06445H328.414ZM328.414 25.6719V34.6953H324.694V28.6602H310.045V25.6719H328.414Z" fill="white"/>
<path d="M195.607 69.0977V71.0781H174.838V69.0977H195.607ZM193.195 65.1621V67.1172H177.428V59.2207H193.043V61.2012H179.814V65.1621H193.195ZM185.197 72.8555C190.098 72.8555 193.043 74.3535 193.043 76.9941C193.043 79.6348 190.098 81.1328 185.197 81.1074C180.271 81.1328 177.301 79.6348 177.301 76.9941C177.301 74.3535 180.271 72.8555 185.197 72.8555ZM185.197 74.709C181.719 74.7344 179.738 75.5469 179.738 76.9941C179.738 78.4414 181.719 79.2539 185.197 79.2539C188.625 79.2539 190.631 78.4414 190.631 76.9941C190.631 75.5469 188.625 74.7344 185.197 74.709ZM209.452 60.4648V62.4199H207.294V69.5547C208.373 69.4658 209.427 69.3643 210.443 69.25L210.595 71.0527C205.999 71.7891 200.718 71.8906 196.808 71.8906L196.529 69.9102L199.322 69.8848V62.4199H197.163V60.4648H209.452ZM214.404 58.4336V65.1621H217.704V67.1934H214.404V75.166H211.991V58.4336H214.404ZM215.368 78.7207V80.6758H199.982V73.5664H202.394V78.7207H215.368ZM201.657 69.8086C202.737 69.7959 203.828 69.7578 204.933 69.6816V62.4199H201.657V69.8086ZM231.633 62.0391C231.633 65.0352 233.715 67.8027 237.117 68.9199L235.822 70.8242C233.334 69.9482 231.468 68.1709 230.49 65.9238C229.487 68.4756 227.557 70.4688 224.904 71.459L223.609 69.5293C227.164 68.2598 229.221 65.2383 229.246 61.8359V59.6016H231.633V62.0391ZM241.662 58.4082V64.1211H244.963V66.1523H241.662V72.1445H239.25V58.4082H241.662ZM234.324 72.6777C238.996 72.6777 241.865 74.2266 241.865 76.8926C241.865 79.584 238.996 81.1328 234.324 81.1074C229.601 81.1328 226.681 79.584 226.681 76.8926C226.681 74.2266 229.601 72.6777 234.324 72.6777ZM234.324 74.582C231.023 74.582 229.068 75.4453 229.094 76.8926C229.068 78.3906 231.023 79.2031 234.324 79.2285C237.599 79.2031 239.504 78.3906 239.504 76.8926C239.504 75.4453 237.599 74.582 234.324 74.582ZM263.353 58.3828V64.9844H266.679V66.9902H263.353V74.8613H260.941V58.3828H263.353ZM256.65 60.3379V62.293H248.88V68.9199C253.311 68.9326 255.812 68.793 258.655 68.209L258.935 70.1641C255.862 70.7734 253.171 70.9258 248.296 70.9258H246.493V60.3379H256.65ZM264.317 78.7207V80.6758H248.931V73.1602H251.343V78.7207H264.317ZM280.049 79.2539C276.24 79.2539 273.523 77.1973 273.422 74.2012H276.265C276.367 75.8262 277.966 76.8418 280.023 76.8418C282.232 76.8418 283.857 75.623 283.857 73.8457C283.857 72.043 282.334 70.7227 279.718 70.7227H278.144V68.4375H279.718C281.8 68.4375 283.273 67.2695 283.273 65.5176C283.273 63.8418 282.029 62.6992 280.074 62.6992C278.22 62.6992 276.595 63.7148 276.519 65.3906H273.828C273.904 62.3945 276.672 60.3633 280.099 60.3633C283.705 60.3633 285.99 62.6484 285.965 65.3652C285.99 67.4473 284.695 68.9707 282.715 69.4531V69.5801C285.228 69.9355 286.675 71.6113 286.675 73.9473C286.675 77.0195 283.857 79.2539 280.049 79.2539ZM295.188 79H289.222V60.6172H295.366C300.774 60.6172 304.024 64.0703 304.024 69.7832C304.024 75.5215 300.774 79 295.188 79ZM292.015 76.5625H295.036C299.2 76.5625 301.257 74.125 301.257 69.7832C301.257 65.4668 299.2 63.0547 295.188 63.0547H292.015V76.5625ZM329.785 58.4082V70.6211H327.373V58.4082H329.785ZM317.267 71.7129V74.2773H327.398V71.7129H329.785V80.8789H314.906V71.7129H317.267ZM317.267 78.8984H327.398V76.1816H317.267V78.8984ZM317.445 59.4492C320.923 59.4492 323.488 61.6074 323.488 64.7305C323.488 67.8535 320.923 70.0117 317.445 69.9863C313.966 70.0117 311.376 67.8535 311.376 64.7305C311.376 61.6074 313.966 59.4492 317.445 59.4492ZM317.445 61.4805C315.287 61.4551 313.738 62.8008 313.738 64.7305C313.738 66.6855 315.287 68.0059 317.445 68.0059C319.578 68.0059 321.126 66.6855 321.126 64.7305C321.126 62.8008 319.578 61.4551 317.445 61.4805ZM339.415 65.3906C339.415 68.9707 341.065 72.627 344.214 74.3027L342.868 76.0801C340.672 74.9121 339.136 72.7285 338.323 70.1387C337.498 72.9189 335.974 75.3057 333.778 76.6133L332.356 74.7852C335.505 72.957 337.13 69.0723 337.155 65.3906V64.4766H333.042V62.4961H337.155V59.2207H339.415V62.4961H343.452V64.4766H339.415V65.3906ZM352.136 58.4082V81.1582H349.825V58.4082H352.136ZM347.514 58.8906V80.0156H345.229V69.2754H341.954V67.2695H345.229V58.8906H347.514ZM372.665 59.2461V60.5664C372.64 61.9629 372.64 63.9053 372.158 66.4062C373.008 66.3555 373.859 66.2793 374.697 66.2031L374.824 67.752C372.691 68.0312 370.456 68.209 368.273 68.3105V71.8145H365.886V68.4121C363.842 68.4883 361.874 68.501 360.097 68.5137L359.818 66.7617C362.814 66.749 366.292 66.7109 369.72 66.5586C369.898 65.7461 370.012 65.0098 370.101 64.3242L361.595 64.8828L361.214 63.1309L370.228 62.7246C370.266 62.1152 370.279 61.5566 370.279 61.0488H361.874V59.2461H372.665ZM378.785 58.4336V71.7637H376.372V70.6719H371.929V69.0977H376.372V58.4336H378.785ZM378.785 72.5254V77.4004H365.683V79.1777H379.47V80.9297H363.322V75.8008H376.398V74.2012H363.22V72.5254H378.785ZM393.798 60.0586V61.9883H385.292V64.502H393.163V66.4062H385.292V68.9961C389.849 69.0215 392.503 68.9453 395.575 68.4121L395.829 70.3672C392.528 70.9004 389.71 70.9766 384.733 70.9766H382.854V60.0586H393.798ZM400.424 58.4336V72.4238H398.012V58.4336H400.424ZM392.807 72.7285C397.581 72.7285 400.551 74.2773 400.551 76.918C400.551 79.584 397.581 81.1328 392.807 81.1074C387.983 81.1328 385.063 79.584 385.063 76.918C385.063 74.2773 387.983 72.7285 392.807 72.7285ZM392.807 74.6328C389.405 74.6328 387.475 75.4707 387.475 76.918C387.475 78.416 389.405 79.2539 392.807 79.2539C396.133 79.2539 398.139 78.416 398.139 76.918C398.139 75.4707 396.133 74.6328 392.807 74.6328ZM429.562 69.6562V71.6367H408.818V69.6562H417.984V67.4473H411.534V59.0176H413.921V61.3789H424.458V59.0176H426.87V67.4473H420.37V69.6562H429.562ZM419.177 73.1094C424.077 73.1094 427.023 74.5566 427.048 77.1211C427.023 79.7109 424.077 81.1328 419.177 81.1074C414.226 81.1328 411.306 79.7109 411.306 77.1211C411.306 74.5566 414.226 73.1094 419.177 73.1094ZM419.177 74.9629C415.698 74.9629 413.718 75.7246 413.718 77.1211C413.718 78.5176 415.698 79.2793 419.177 79.2539C422.605 79.2793 424.585 78.5176 424.585 77.1211C424.585 75.7246 422.605 74.9629 419.177 74.9629ZM413.921 65.543H424.458V63.2324H413.921V65.543ZM450.034 58.4082V81.1582H447.723V58.4082H450.034ZM445.413 58.8906V80.0156H443.127V68.4375H439.598V66.457H443.127V58.8906H445.413ZM437.364 64.7559C437.364 68.6406 438.938 72.5254 442.137 74.3789L440.69 76.1562C438.519 74.8613 437.021 72.5635 436.247 69.8086C435.421 72.7793 433.873 75.3057 431.651 76.6895L430.178 74.8867C433.403 72.9316 435.053 68.793 435.053 64.7559V62.9277H430.864V60.9727H441.274V62.9277H437.364V64.7559ZM473.019 76.4102V78.4414H452.199V76.4102H461.365V72.4238H454.738V65.1875H468.094V61.9883H454.687V60.0078H470.48V67.1172H457.125V70.4434H471.013V72.4238H463.752V76.4102H473.019ZM181.846 115H175.879V96.6172H182.023C187.432 96.6172 190.682 100.07 190.682 105.783C190.682 111.521 187.432 115 181.846 115ZM178.672 112.562H181.693C185.857 112.562 187.914 110.125 187.914 105.783C187.914 101.467 185.857 99.0547 181.846 99.0547H178.672V112.562ZM209.021 105.809C209.021 111.674 205.491 115.254 200.743 115.254C195.945 115.254 192.441 111.674 192.441 105.809C192.441 99.918 195.945 96.3633 200.743 96.3633C205.491 96.3633 209.021 99.918 209.021 105.809ZM206.253 105.809C206.253 101.34 203.892 98.9277 200.743 98.9277C197.57 98.9277 195.208 101.34 195.208 105.809C195.208 110.277 197.57 112.689 200.743 112.689C203.892 112.689 206.253 110.277 206.253 105.809ZM214.766 115L209.663 96.6172H212.608L216.188 110.836H216.34L220.073 96.6172H222.967L226.7 110.836H226.852L230.432 96.6172H233.377L228.274 115H225.456L221.596 101.264H221.444L217.585 115H214.766ZM249.711 96.6172V115H247.146L237.828 101.568H237.676V115H234.883V96.6172H237.472L246.791 110.074H246.969V96.6172H249.711ZM267.752 108.576C272.45 108.576 275.293 110.15 275.293 112.842C275.293 115.559 272.45 117.133 267.752 117.158C263.004 117.133 260.11 115.559 260.11 112.842C260.11 110.15 263.004 108.576 267.752 108.576ZM267.752 110.48C264.452 110.48 262.496 111.318 262.522 112.842C262.496 114.365 264.452 115.229 267.752 115.229C271.028 115.229 272.932 114.365 272.932 112.842C272.932 111.318 271.028 110.48 267.752 110.48ZM275.09 94.4082V99.9688H278.391V102.025H275.09V107.992H272.678V94.4082H275.09ZM260.465 95.8301V99.1055H266.432V95.8301H268.819V106.393H258.104V95.8301H260.465ZM260.465 104.463H266.432V101.01H260.465V104.463ZM286.32 96.0332C289.925 96.0078 292.49 98.2422 292.515 101.441C292.49 104.641 289.925 106.875 286.32 106.875C282.74 106.875 280.099 104.641 280.125 101.441C280.099 98.2422 282.74 96.0078 286.32 96.0332ZM286.32 98.1152C284.111 98.1152 282.486 99.4355 282.511 101.441C282.486 103.447 284.111 104.768 286.32 104.768C288.529 104.768 290.154 103.447 290.154 101.441C290.154 99.4355 288.529 98.1152 286.32 98.1152ZM297.72 94.4082V117.209H295.308V94.4082H297.72ZM279.033 110.303C283.172 110.303 288.91 110.252 293.886 109.541L294.064 111.293C288.91 112.283 283.4 112.309 279.338 112.309L279.033 110.303ZM316.422 108.703C321.348 108.703 324.446 110.252 324.471 112.918C324.446 115.559 321.348 117.133 316.422 117.107C311.547 117.133 308.424 115.559 308.424 112.918C308.424 110.252 311.547 108.703 316.422 108.703ZM316.422 110.531C312.969 110.531 310.811 111.42 310.836 112.918C310.811 114.391 312.969 115.254 316.422 115.254C319.901 115.254 322.059 114.391 322.084 112.918C322.059 111.42 319.901 110.531 316.422 110.531ZM324.293 95.5254V97.4297C324.293 99.2578 324.293 101.137 323.658 103.473L321.297 103.219C321.906 100.896 321.906 99.2197 321.906 97.4551H308.602V95.5254H324.293ZM326.883 104.869V106.824H306.19V104.869H314.492V100.604H316.854V104.869H326.883ZM345.73 94.4082V101.137H349.031V103.143H345.73V110.938H343.292V94.4082H345.73ZM339.56 96.1348C339.56 102.102 335.498 106.443 328.845 108.449L327.83 106.52C333.149 104.92 336.462 101.898 336.945 98.1406H328.794V96.1348H339.56ZM346.669 114.721V116.676H331.283V109.236H333.72V114.721H346.669ZM359.905 94.7891C365.034 94.7891 368.03 96.1602 368.03 98.6992C368.03 101.238 365.034 102.635 359.905 102.635C354.776 102.635 351.78 101.238 351.78 98.6992C351.78 96.1602 354.776 94.7891 359.905 94.7891ZM359.905 96.5664C356.274 96.5664 354.268 97.3535 354.294 98.6992C354.268 100.096 356.274 100.832 359.905 100.832C363.536 100.832 365.542 100.096 365.542 98.6992C365.542 97.3535 363.536 96.5664 359.905 96.5664ZM370.29 104.031V105.961H349.546V104.031H370.29ZM367.675 107.713V113.045H354.421V115.076H368.309V116.93H352.059V111.293H365.288V109.516H352.034V107.713H367.675ZM394.704 94.4336V101.188H397.954V103.168H394.704V109.744H392.292V94.4336H394.704ZM376.652 107.205C378.416 107.205 380.46 107.205 382.593 107.129V105.605C380.003 105.339 378.353 104.12 378.378 102.279C378.353 100.197 380.511 98.9023 383.786 98.9277C387.036 98.9023 389.195 100.197 389.195 102.279C389.195 104.107 387.57 105.326 385.005 105.605V107.053C387.036 106.951 389.093 106.786 390.997 106.52L391.201 108.246C386.3 109.109 380.917 109.135 376.906 109.135L376.652 107.205ZM394.704 110.811V117.158H392.292V112.689H379.495V110.811H394.704ZM390.363 96.3633V98.166H377.236V96.3633H382.593V94.2305H385.005V96.3633H390.363ZM383.786 100.578C381.831 100.553 380.663 101.188 380.663 102.279C380.663 103.346 381.831 104.031 383.786 104.031C385.716 104.031 386.884 103.346 386.884 102.279C386.884 101.188 385.716 100.553 383.786 100.578ZM406.442 98.5977C406.442 101.492 408.448 104.133 411.901 105.225L410.758 107.104C408.169 106.278 406.277 104.564 405.274 102.406C404.284 104.895 402.291 106.862 399.561 107.814L398.317 105.885C401.872 104.717 404.005 101.771 404.03 98.623V97.9883H399.028V96.0332H411.342V97.9883H406.442V98.5977ZM416.37 94.4082V100.045H419.671V102.025H416.37V108.068H413.958V94.4082H416.37ZM409.032 108.627C413.729 108.627 416.573 110.176 416.573 112.842C416.573 115.533 413.729 117.133 409.032 117.107C404.284 117.133 401.389 115.533 401.389 112.842C401.389 110.176 404.284 108.627 409.032 108.627ZM409.032 110.531C405.731 110.531 403.776 111.369 403.801 112.842C403.776 114.365 405.731 115.203 409.032 115.203C412.307 115.203 414.212 114.365 414.212 112.842C414.212 111.369 412.307 110.531 409.032 110.531ZM431.434 98.166V100.121H420.135V98.166H424.603V95.0684H426.99V98.166H431.434ZM425.797 101.492C428.691 101.492 430.723 103.65 430.748 106.723C430.723 109.82 428.691 112.004 425.797 112.004C422.953 112.004 420.846 109.82 420.871 106.723C420.846 103.65 422.953 101.492 425.797 101.492ZM425.797 103.498C424.146 103.498 423.004 104.844 423.004 106.723C423.004 108.652 424.146 109.947 425.797 109.947C427.422 109.947 428.615 108.652 428.615 106.723C428.615 104.844 427.422 103.498 425.797 103.498ZM439.66 94.4082V117.158H437.375V105.859H434.76V116.092H432.475V94.916H434.76V103.879H437.375V94.4082H439.66ZM468.264 112.334V114.34H447.444V112.334H456.61V107.662H449.831V95.957H452.243V99.8672H463.415V95.957H465.801V107.662H458.997V112.334H468.264ZM452.243 105.707H463.415V101.822H452.243V105.707ZM489.879 106.393V108.373H469.135V106.393H478.301V104.184C474.035 103.942 471.369 102.292 471.369 99.6133C471.369 96.7949 474.543 95.0684 479.494 95.043C484.42 95.0684 487.619 96.7949 487.619 99.6133C487.619 102.292 484.927 103.942 480.687 104.184V106.393H489.879ZM487.543 114.721V116.676H471.75V110.074H474.187V114.721H487.543ZM479.494 96.998C476.015 96.998 473.832 97.9883 473.857 99.6133C473.832 101.34 476.015 102.279 479.494 102.279C482.972 102.279 485.131 101.34 485.131 99.6133C485.131 97.9883 482.972 96.998 479.494 96.998ZM498.899 97.8105C498.899 101.01 500.956 103.854 504.409 104.971L503.089 106.85C500.588 105.948 498.747 104.196 497.757 101.924C496.767 104.526 494.786 106.545 492.044 107.535L490.749 105.605C494.38 104.361 496.487 101.34 496.513 97.9121V95.6777H498.899V97.8105ZM509.792 94.4082V107.84H507.38V101.01H502.581V99.0293H507.38V94.4082H509.792ZM502.175 108.475C506.948 108.475 509.868 110.049 509.868 112.816C509.868 115.559 506.948 117.133 502.175 117.107C497.401 117.133 494.456 115.559 494.481 112.816C494.456 110.049 497.401 108.475 502.175 108.475ZM502.175 110.354C498.849 110.354 496.868 111.242 496.868 112.816C496.868 114.34 498.849 115.203 502.175 115.203C505.501 115.203 507.481 114.34 507.481 112.816C507.481 111.242 505.501 110.354 502.175 110.354ZM535.959 94.4082V100.146H539.259V102.102H535.959V107.916H533.546V94.4082H535.959ZM529.712 96.0332C529.712 101.924 525.726 106.164 519.048 108.094L518.058 106.139C523.378 104.628 526.666 101.67 527.097 97.9883H519.074V96.0332H529.712ZM528.697 108.17C533.293 108.17 536.212 109.871 536.212 112.639C536.212 115.432 533.293 117.133 528.697 117.133C524.127 117.133 521.13 115.432 521.156 112.639C521.13 109.871 524.127 108.17 528.697 108.17ZM528.697 110.074C525.523 110.074 523.517 111.039 523.543 112.639C523.517 114.238 525.523 115.229 528.697 115.229C531.845 115.229 533.851 114.238 533.851 112.639C533.851 111.039 531.845 110.074 528.697 110.074ZM557.599 94.4082V103.93H561.026V105.961H557.599V117.158H555.186V94.4082H557.599ZM539.495 110.963C541.285 110.963 543.367 110.963 545.538 110.887V108.576C542.974 108.221 541.298 106.672 541.323 104.463C541.298 101.898 543.507 100.197 546.757 100.197C549.981 100.197 552.216 101.898 552.241 104.463C552.216 106.672 550.515 108.233 547.95 108.602V110.785C549.969 110.709 552 110.544 553.891 110.277L554.044 112.055C549.118 112.943 543.786 112.969 539.876 112.969L539.495 110.963ZM553.561 97.0996V99.0293H539.927V97.0996H545.538V94.459H547.95V97.0996H553.561ZM546.757 102.076C544.852 102.076 543.583 103.016 543.583 104.463C543.583 105.91 544.852 106.799 546.757 106.799C548.661 106.799 549.931 105.91 549.931 104.463C549.931 103.016 548.661 102.076 546.757 102.076Z" fill="white"/>
</svg>
