<svg width="614" height="124" viewBox="0 0 614 124" fill="none" xmlns="http://www.w3.org/2000/svg">
<g clip-path="url(#clip0_714_7)">
<path d="M77.9963 82.4023H101.549L118 102.036H5.69336L22.1438 82.4023H45.3917" stroke="white" stroke-width="2" stroke-miterlimit="10"/>
<path d="M26.2207 89.0156H28.8786" stroke="white" stroke-width="2" stroke-linecap="square" stroke-linejoin="round"/>
<path d="M39.5195 89.0156H42.1775" stroke="white" stroke-width="2" stroke-linecap="square" stroke-linejoin="round"/>
<path d="M81.2012 89.0156H83.8591" stroke="white" stroke-width="2" stroke-linecap="square" stroke-linejoin="round"/>
<path d="M95.3984 89.0156H98.0564" stroke="white" stroke-width="2" stroke-linecap="square" stroke-linejoin="round"/>
<path d="M19.1621 97.2383H21.82" stroke="white" stroke-width="2" stroke-linecap="square" stroke-linejoin="round"/>
<path d="M32.4531 97.2383H35.1111" stroke="white" stroke-width="2" stroke-linecap="square" stroke-linejoin="round"/>
<path d="M46.6484 97.2383H49.3064" stroke="white" stroke-width="2" stroke-linecap="square" stroke-linejoin="round"/>
<path d="M75.043 97.2383H77.7009" stroke="white" stroke-width="2" stroke-linecap="square" stroke-linejoin="round"/>
<path d="M90.1367 97.2383H92.7946" stroke="white" stroke-width="2" stroke-linecap="square" stroke-linejoin="round"/>
<path d="M22.2098 54.2661L62.1756 89.9074H60.6908L98.2892 53.0103L101.176 55.6972L62.1756 91.3093L61.4072 92.0103L60.6804 91.319C60.8362 91.1341 21.348 54.4122 22.189 54.2661H22.2098Z" fill="white"/>
<path d="M99.6251 70.9709L98.521 52.8372L101.204 55.3982L82.2067 54.3245L82.1758 53.8419C84.4666 53.438 102.401 50.3255 104.176 50.0103C103.866 51.6158 100.595 68.9122 100.182 71.0103L99.6354 70.9807L99.6251 70.9709Z" fill="white"/>
<path d="M61.5 70C52.8369 69.9423 45.3078 62.7899 45.0054 54.6136C44.824 46.9997 49.2387 40.3376 52.7916 33.9782C55.3013 29.8252 57.9924 25.8164 60.8499 21.8941L61.5 21L62.1501 21.8941C65.0227 25.8164 67.6987 29.8396 70.2084 33.9782C73.7613 40.352 78.176 47.0141 77.9946 54.6136C77.6922 62.7899 70.1631 69.9423 61.5 70ZM61.5 65.6739C68.122 65.9335 74.0335 60.6124 74.5929 54.354C75.0313 47.5621 71.176 41.1307 68.1825 35.0309C65.9298 30.849 63.4654 25.9944 60.8499 22H62.1501C59.5346 25.9944 57.0702 30.849 54.8175 35.0309C51.824 41.1307 47.9838 47.5765 48.4071 54.354C48.9665 60.6124 54.878 65.9335 61.5 65.6739Z" fill="white"/>
</g>
<path d="M182.818 9.11914C186.715 9.11914 189.527 11.3164 189.527 14.5391C189.527 17.1465 187.608 19.1387 184.752 19.7539V21.6875C186.832 21.5703 188.927 21.3799 190.875 21.1016L191.168 23.8262C185.689 24.793 179.566 24.9102 175.113 24.9102L174.732 21.9512C176.578 21.9512 178.731 21.9365 181.002 21.8633V19.7832C178.058 19.1973 176.08 17.1904 176.109 14.5391C176.08 11.3164 178.893 9.11914 182.818 9.11914ZM182.818 11.9316C180.914 11.9609 179.566 12.8691 179.596 14.5391C179.566 16.1504 180.914 17.1172 182.818 17.1172C184.723 17.1172 186.012 16.1504 186.012 14.5391C186.012 12.8691 184.723 11.9609 182.818 11.9316ZM196.119 8.06445V16.4434H199.518V19.5488H196.119V28.3965H192.369V8.06445H196.119ZM197.027 31.209V34.1973H178.248V26.6094H181.998V31.209H197.027ZM204.711 9.58789V13.3672H209.955V9.58789H213.647V11.9609H218.569V8.03516H222.289V23.9434H218.569V20.457H213.647V22.7129H200.961V9.58789H204.711ZM204.711 19.6953H209.955V16.2383H204.711V19.6953ZM222.289 25.0859V34.6953H218.569V28.0742H203.979V25.0859H222.289ZM213.647 17.4395H218.569V14.9492H213.647V17.4395ZM243.282 24.3535C248.82 24.3535 252.277 26.2578 252.277 29.5098C252.277 32.8203 248.82 34.7246 243.282 34.7246C237.628 34.7246 234.142 32.8203 234.142 29.5098C234.142 26.2578 237.628 24.3535 243.282 24.3535ZM243.282 27.2539C239.767 27.2539 237.862 27.9863 237.892 29.5098C237.862 31.0332 239.767 31.8242 243.282 31.8242C246.739 31.8242 248.585 31.0332 248.585 29.5098C248.585 27.9863 246.739 27.2539 243.282 27.2539ZM252.013 8.03516V14.2168H255.616V17.3516H252.013V23.7676H248.263V8.03516H252.013ZM235.372 9.70508V13.0742H240.821V9.70508H244.571V22.2441H231.652V9.70508H235.372ZM235.372 19.2852H240.821V15.9746H235.372V19.2852ZM270.039 10.1152C270.039 13.25 273.232 16.7363 279.355 17.498L277.89 20.5156C273.232 19.8418 269.819 17.6885 268.076 14.8027C266.318 17.6885 262.934 19.8418 258.32 20.5156L256.826 17.498C262.89 16.7363 266.113 13.25 266.113 10.1152V8.82617H270.039V10.1152ZM280.205 22.5371V25.584H269.834V34.6953H266.142V25.584H255.888V22.5371H280.205Z" fill="white"/>
<path d="M190.707 60.6172V79H188.143L178.824 65.5684H178.672V79H175.879V60.6172H178.469L187.787 74.0742H187.965V60.6172H190.707ZM195.259 79H192.288L198.89 60.6172H202.115L208.741 79H205.771L204.095 74.1504H196.935L195.259 79ZM197.747 71.8145H203.282L200.566 63.9688H200.439L197.747 71.8145ZM207.174 63.0293V60.6172H221.419V63.0293H215.706V79H212.913V63.0293H207.174ZM235.289 60.6172H238.082V72.7031C238.082 76.5625 235.187 79.3047 230.795 79.3047C226.351 79.3047 223.482 76.5625 223.482 72.7031V60.6172H226.275V72.4746C226.275 74.9629 228.002 76.7656 230.795 76.7656C233.562 76.7656 235.289 74.9629 235.289 72.4746V60.6172ZM241.06 79V60.6172H247.61C251.876 60.6172 253.984 63.0039 253.984 66.3809C253.984 68.8564 252.866 70.7354 250.632 71.5605L254.694 79H251.521L247.788 72.0684H247.61H243.853V79H241.06ZM243.853 69.6562H247.331C250.048 69.6562 251.165 68.4629 251.165 66.3809C251.165 64.2988 250.048 63.0039 247.331 63.0039H243.853V69.6562ZM257.875 79H254.905L261.506 60.6172H264.731L271.358 79H268.387L266.711 74.1504H259.551L257.875 79ZM260.364 71.8145H265.899L263.182 63.9688H263.055L260.364 71.8145ZM272.914 79V60.6172H275.707V76.5879H284.009V79H272.914ZM290.752 63.0293V60.6172H304.996V63.0293H299.283V79H296.49V63.0293H290.752ZM322.244 69.8086C322.244 75.6738 318.714 79.2539 313.966 79.2539C309.167 79.2539 305.664 75.6738 305.664 69.8086C305.664 63.918 309.167 60.3633 313.966 60.3633C318.714 60.3633 322.244 63.918 322.244 69.8086ZM319.476 69.8086C319.476 65.3398 317.115 62.9277 313.966 62.9277C310.792 62.9277 308.431 65.3398 308.431 69.8086C308.431 74.2773 310.792 76.6895 313.966 76.6895C317.115 76.6895 319.476 74.2773 319.476 69.8086ZM336.419 60.6172H339.212V72.7031C339.212 76.5625 336.317 79.3047 331.925 79.3047C327.481 79.3047 324.612 76.5625 324.612 72.7031V60.6172H327.405V72.4746C327.405 74.9629 329.132 76.7656 331.925 76.7656C334.692 76.7656 336.419 74.9629 336.419 72.4746V60.6172ZM354.631 66.6094C354.174 64.248 352.219 62.9277 349.883 62.9277C346.709 62.9277 344.348 65.3652 344.348 69.8086C344.348 74.2773 346.734 76.6895 349.883 76.6895C352.193 76.6895 354.149 75.3945 354.631 73.0586L357.449 73.084C356.865 76.7148 353.895 79.2539 349.857 79.2539C345.059 79.2539 341.58 75.6738 341.58 69.8086C341.58 63.918 345.084 60.3633 349.857 60.3633C353.742 60.3633 356.815 62.6484 357.449 66.6094H354.631ZM359.691 79V60.6172H362.484V68.5898H371.624V60.6172H374.417V79H371.624V70.9766H362.484V79H359.691ZM383.768 60.0332C387.374 60.0078 389.938 62.2422 389.964 65.4414C389.938 68.6406 387.374 70.875 383.768 70.875C380.188 70.875 377.548 68.6406 377.573 65.4414C377.548 62.2422 380.188 60.0078 383.768 60.0332ZM383.768 62.1152C381.559 62.1152 379.934 63.4355 379.96 65.4414C379.934 67.4473 381.559 68.7676 383.768 68.7676C385.977 68.7676 387.602 67.4473 387.602 65.4414C387.602 63.4355 385.977 62.1152 383.768 62.1152ZM395.169 58.4082V81.209H392.756V58.4082H395.169ZM376.481 74.3027C380.62 74.3027 386.358 74.252 391.335 73.541L391.512 75.293C386.358 76.2832 380.848 76.3086 376.786 76.3086L376.481 74.3027ZM410.519 59.4238C413.845 59.4238 416.181 61.252 416.206 63.9688C416.181 66.2793 414.429 67.9805 411.788 68.3867V70.3926C413.807 70.291 415.825 70.1133 417.704 69.834L417.882 71.6113C413.109 72.4746 407.751 72.5508 403.841 72.5508L403.587 70.5957C405.288 70.6084 407.281 70.5957 409.376 70.5195V68.4121C406.659 68.0312 404.831 66.3174 404.857 63.9688C404.831 61.252 407.193 59.4238 410.519 59.4238ZM410.519 61.2773C408.513 61.2773 407.091 62.3184 407.116 63.9688C407.091 65.5684 408.513 66.6348 410.519 66.6348C412.55 66.6348 413.921 65.5684 413.921 63.9688C413.921 62.3184 412.55 61.2773 410.519 61.2773ZM421.513 58.4336V65.9492H424.763V67.9805H421.513V75.8262H419.101V58.4336H421.513ZM422.325 78.6953V80.6758H406.812V74.3027H409.224V78.6953H422.325ZM428.807 59.7539V63.334H434.495V59.7539H436.881V61.9629H441.858V58.4082H444.27V71.9414H441.858V68.5645H436.881V70.7227H426.395V59.7539H428.807ZM428.807 68.7676H434.495V65.2383H428.807V68.7676ZM444.27 73.084V81.1582H441.858V75.0137H428.858V73.084H444.27ZM436.881 66.6094H441.858V63.918H436.881V66.6094ZM463.099 72.5762C467.796 72.5762 470.64 74.1504 470.64 76.8418C470.64 79.5586 467.796 81.1328 463.099 81.1582C458.351 81.1328 455.456 79.5586 455.456 76.8418C455.456 74.1504 458.351 72.5762 463.099 72.5762ZM463.099 74.4805C459.798 74.4805 457.843 75.3184 457.868 76.8418C457.843 78.3652 459.798 79.2285 463.099 79.2285C466.374 79.2285 468.278 78.3652 468.278 76.8418C468.278 75.3184 466.374 74.4805 463.099 74.4805ZM470.437 58.4082V63.9688H473.737V66.0254H470.437V71.9922H468.024V58.4082H470.437ZM455.812 59.8301V63.1055H461.778V59.8301H464.165V70.3926H453.45V59.8301H455.812ZM455.812 68.4629H461.778V65.0098H455.812V68.4629ZM485.907 60.4141C485.881 63.4355 489.588 66.2793 494.057 66.8633L493.117 68.8438C489.398 68.2471 486.122 66.3174 484.662 63.6387C483.164 66.3301 479.902 68.2471 476.207 68.8438L475.242 66.8633C479.711 66.2793 483.367 63.4609 483.393 60.4141V59.1699H485.907V60.4141ZM494.996 71.0781V73.0586H485.754V81.1582H483.393V73.0586H474.252V71.0781H494.996ZM520.427 58.4082V81.1582H517.989V58.4082H520.427ZM513.647 60.8457C513.647 67.498 510.804 73.2871 503.009 77.0195L501.739 75.0645C507.795 72.1826 510.74 68.082 511.21 62.7754H502.831V60.8457H513.647ZM541.584 64.5527V66.5078H525.969V58.8145H528.356V64.5527H541.584ZM543.971 68.9199V70.9004H523.201V68.9199H543.971ZM533.561 72.7539C538.461 72.7539 541.406 74.252 541.406 76.8926C541.406 79.5586 538.461 81.0566 533.561 81.0566C528.635 81.0566 525.664 79.5586 525.664 76.8926C525.664 74.252 528.635 72.7539 533.561 72.7539ZM533.561 74.6328C530.082 74.6582 528.102 75.4199 528.102 76.8926C528.102 78.3398 530.082 79.2031 533.561 79.2031C536.988 79.2031 538.994 78.3398 538.994 76.8926C538.994 75.4199 536.988 74.6582 533.561 74.6328ZM563.732 58.4082V81.209H561.32V58.4082H563.732ZM551.57 60.1094C554.947 60.1094 557.435 63.207 557.435 68.082C557.435 72.9824 554.947 76.0801 551.57 76.0801C548.142 76.0801 545.679 72.9824 545.679 68.082C545.679 63.207 548.142 60.1094 551.57 60.1094ZM551.57 62.2676C549.462 62.2676 548.015 64.502 548.015 68.082C548.015 71.6875 549.462 73.9219 551.57 73.9219C553.652 73.9219 555.099 71.6875 555.099 68.082C555.099 64.502 553.652 62.2676 551.57 62.2676ZM195.607 103.727V105.656H174.838V103.727H195.607ZM193.145 100.146V102.076H177.555V95.0684H192.916V97.0234H179.967V100.146H193.145ZM192.967 107.459V112.969H179.713V115H193.602V116.904H177.352V111.191H190.58V109.312H177.326V107.459H192.967ZM202.699 96.1094C205.783 96.1094 208.043 98.7246 208.411 102.939H213.109V94.4082H215.495V117.209H213.109V104.895H208.437C208.17 109.325 205.86 112.08 202.699 112.08C199.296 112.08 196.909 108.982 196.935 104.082C196.909 99.207 199.296 96.1094 202.699 96.1094ZM202.699 98.2676C200.642 98.2676 199.22 100.502 199.22 104.082C199.22 107.688 200.642 109.922 202.699 109.922C204.755 109.922 206.177 107.688 206.177 104.082C206.177 100.502 204.755 98.2676 202.699 98.2676ZM236.094 94.4082V101.137H239.395V103.143H236.094V110.938H233.657V94.4082H236.094ZM229.924 96.1348C229.924 102.102 225.862 106.443 219.21 108.449L218.194 106.52C223.513 104.92 226.827 101.898 227.309 98.1406H219.159V96.1348H229.924ZM237.034 114.721V116.676H221.647V109.236H224.085V114.721H237.034ZM263.886 96.5918V98.8262C263.886 101.645 263.886 104.793 263.023 109.439L260.585 109.186C261.474 104.793 261.474 101.568 261.474 98.8262V98.5469H247.661V96.5918H263.886ZM266.222 112.08V114.086H245.478V112.08H253.374V104.057H255.761V112.08H266.222ZM273.338 96.1094C276.423 96.1094 278.683 98.7246 279.051 102.939H283.748V94.4082H286.135V117.209H283.748V104.895H279.077C278.81 109.325 276.499 112.08 273.338 112.08C269.936 112.08 267.549 108.982 267.575 104.082C267.549 99.207 269.936 96.1094 273.338 96.1094ZM273.338 98.2676C271.282 98.2676 269.86 100.502 269.86 104.082C269.86 107.688 271.282 109.922 273.338 109.922C275.395 109.922 276.817 107.688 276.817 104.082C276.817 100.502 275.395 98.2676 273.338 98.2676ZM298.685 96.0332V97.9883H292.109V100.527H298.431V102.381H292.109V105.148C295.156 105.123 297.162 105.009 299.498 104.564L299.726 106.545C297.06 107.053 294.902 107.154 291.271 107.129H289.799V96.0332H298.685ZM308.257 94.4336V108.246H305.972V102.178H303.179V108.068H300.92V94.8398H303.179V100.223H305.972V94.4336H308.257ZM308.257 109.338V117.158H305.871V111.293H292.795V109.338H308.257ZM322.102 97.6328C322.102 101.34 326.063 104.844 330.431 105.631L329.313 107.637C325.683 106.85 322.331 104.463 320.858 101.264C319.36 104.438 316.021 106.824 312.378 107.637L311.311 105.631C315.628 104.818 319.563 101.34 319.563 97.6328V95.9062H322.102V97.6328ZM331.37 112.156V114.162H310.55V112.156H331.37ZM358.628 112.283V114.264H337.808V112.283H346.923V106.875H349.31V112.283H358.628ZM349.361 97.582C349.361 101.188 353.322 104.564 357.714 105.301L356.673 107.281C352.992 106.545 349.602 104.272 348.091 101.137C346.593 104.26 343.242 106.57 339.585 107.281L338.519 105.301C342.886 104.564 346.822 101.188 346.822 97.582V95.8555H349.361V97.582ZM379.151 94.4082V117.158H376.841V105.479H374.124V116.041H371.839V94.8398H374.124V103.447H376.841V94.4082H379.151ZM366.405 100.426C366.405 104.514 367.954 108.221 371.255 109.922L369.833 111.775C367.598 110.569 366.1 108.449 365.288 105.809C364.513 108.805 363.003 111.191 360.692 112.562L359.194 110.734C362.52 108.855 364.069 104.945 364.069 100.426V98.9531H359.804V96.998H370.366V98.9531H366.405V100.426ZM394.654 100.197C394.628 104.234 396.964 108.348 400.367 109.998L398.869 111.928C396.393 110.646 394.476 108.094 393.486 105.047C392.457 108.297 390.464 111.014 387.874 112.359L386.376 110.404C389.88 108.729 392.242 104.361 392.242 100.197V96.3125H394.654V100.197ZM404.48 94.4082V103.473H408.136V105.529H404.48V117.158H402.068V94.4082H404.48ZM429.192 105.504V107.459H408.448V105.504H413.424V102.432C411.673 101.721 410.682 100.578 410.682 99.0801C410.682 96.3887 413.805 94.8145 418.807 94.8145C423.784 94.8145 426.932 96.3887 426.932 99.0801C426.932 100.578 425.929 101.733 424.165 102.432V105.504H429.192ZM418.807 109.008C423.708 109.008 426.653 110.455 426.653 113.045C426.653 115.686 423.708 117.107 418.807 117.107C413.856 117.107 410.911 115.686 410.911 113.045C410.911 110.455 413.856 109.008 418.807 109.008ZM418.807 110.861C415.329 110.861 413.348 111.648 413.348 113.045C413.348 114.467 415.329 115.279 418.807 115.254C422.235 115.279 424.241 114.467 424.241 113.045C424.241 111.648 422.235 110.861 418.807 110.861ZM418.807 96.668C415.278 96.668 413.145 97.5566 413.171 99.0801C413.145 100.604 415.278 101.467 418.807 101.467C422.337 101.467 424.444 100.604 424.444 99.0801C424.444 97.5566 422.337 96.668 418.807 96.668ZM415.862 105.504H421.778V103.066C420.889 103.219 419.886 103.295 418.807 103.295C417.741 103.295 416.751 103.219 415.862 103.092V105.504Z" fill="white"/>
<defs>
<clipPath id="clip0_714_7">
<rect width="124" height="82" fill="white" transform="translate(0 21)"/>
</clipPath>
</defs>
</svg>
