<svg width="32" height="32" viewBox="0 0 32 32" fill="none" xmlns="http://www.w3.org/2000/svg">
<path d="M0 9.37276H7.64878L13.069 14.787L10.4882 10.4882L14.787 13.069L9.37276 7.64878V0L16 6.62754L22.6272 0V7.64878L17.213 13.069L21.5118 10.4882L18.931 14.787L24.3512 9.37276H32L25.3726 16.0001L32 22.6272H24.3512L18.931 17.213L21.5118 21.5118L17.213 18.931L22.6272 24.3512V32L16.0001 25.3723L9.37276 32V24.3512L14.787 18.931L10.4882 21.5118L13.069 17.213L7.64878 22.6272H0L6.62768 16.0001L0 9.37276Z" fill="white"/>
</svg>
