<svg width="86" height="34" viewBox="0 0 86 34" fill="none" xmlns="http://www.w3.org/2000/svg">
<path d="M1.42969 26V9.03125H8.08594C11.9531 9.03125 14.1562 11.3984 14.1562 14.75C14.1562 18.1484 11.9062 20.4688 7.99219 20.4688H4.94531V26H1.42969ZM4.94531 17.6328H7.42969C9.51562 17.6328 10.5234 16.4609 10.5234 14.75C10.5234 13.0625 9.51562 11.9141 7.42969 11.9141H4.94531V17.6328ZM15.9028 26V9.03125H19.4184V23.0938H26.7309V26H15.9028ZM31.8056 26H28.0088L33.8916 9.03125H38.415L44.2744 26H40.5009L39.2353 22.0859H33.0947L31.8056 26ZM33.9853 19.3438H38.3447L36.2119 12.8516H36.0947L33.9853 19.3438ZM42.9506 9.03125H46.9116L50.8256 16.3438H50.9897L54.8803 9.03125H58.8413L52.6538 19.9531V26H49.1381V19.9531L42.9506 9.03125Z" fill="white"/>
<path d="M84.6879 16.1583C85.3013 16.5518 85.3013 17.4482 84.6879 17.8417L74.0399 24.6724C73.3744 25.0993 72.5 24.6214 72.5 23.8307L72.5 10.1693C72.5 9.37859 73.3744 8.90067 74.0399 9.32762L84.6879 16.1583Z" fill="white"/>
</svg>
