<svg width="107" height="34" viewBox="0 0 107 34" fill="none" xmlns="http://www.w3.org/2000/svg">
<path d="M1.42969 26V9.03125H8.08594C11.9531 9.03125 14.1562 11.3984 14.1562 14.75C14.1562 18.1484 11.9062 20.4688 7.99219 20.4688H4.94531V26H1.42969ZM4.94531 17.6328H7.42969C9.51562 17.6328 10.5234 16.4609 10.5234 14.75C10.5234 13.0625 9.51562 11.9141 7.42969 11.9141H4.94531V17.6328ZM16.77 26H12.9731L18.8559 9.03125H23.3794L29.2388 26H25.4653L24.1997 22.0859H18.0591L16.77 26ZM18.9497 19.3438H23.3091L21.1763 12.8516H21.0591L18.9497 19.3438ZM41.1806 9.03125H44.7197V20.0469C44.7197 23.7734 41.9072 26.2344 37.6884 26.2344C33.4697 26.2344 30.6806 23.7734 30.6806 20.0469V9.03125H34.1963V19.7656C34.1963 21.7109 35.5791 23.1406 37.6884 23.1406C39.8213 23.1406 41.1806 21.7109 41.1806 19.7656V9.03125ZM56.31 13.8828C56.1694 12.5469 55.0913 11.75 53.3803 11.75C51.5991 11.75 50.6147 12.5703 50.5913 13.6953C50.5678 14.9141 51.8569 15.4766 53.31 15.8047L54.8334 16.1797C57.7397 16.8359 59.9194 18.3125 59.9194 21.1484C59.9194 24.2656 57.4819 26.2344 53.3569 26.2344C49.2553 26.2344 46.6303 24.3359 46.5366 20.7031H49.9584C50.0756 22.4141 51.435 23.2812 53.31 23.2812C55.1616 23.2812 56.3569 22.4141 56.3569 21.1484C56.3569 20 55.3022 19.4609 53.4506 18.9922L51.5991 18.5469C48.7397 17.8438 46.9819 16.4141 46.9819 13.9297C46.9819 10.8359 49.7006 8.79688 53.4038 8.79688C57.1538 8.79688 59.6381 10.8828 59.685 13.8828H56.31ZM61.7363 26V9.03125H73.1269V11.9375H65.2519V16.0625H72.5409V18.9688H65.2519V23.0938H73.1503V26H61.7363Z" fill="white"/>
<rect x="89" y="10" width="4" height="16" fill="white"/>
<rect x="97" y="10" width="4" height="16" fill="white"/>
</svg>
