<svg width="240" height="168" viewBox="0 0 240 168" fill="none" xmlns="http://www.w3.org/2000/svg">
<path d="M109.853 76.0752V74.8743C107.07 74.8954 103.897 74.8954 101.114 74.8731V76.0764C103.897 76.0542 107.07 76.0535 109.853 76.0752Z" fill="white"/>
<path d="M100.833 70.2508C100.943 73.8391 100.943 77.662 100.833 81.2509C101.362 81.1876 102.287 81.1876 102.817 81.2509C102.707 77.6626 102.707 73.8396 102.817 70.2508C102.287 70.3141 101.362 70.3141 100.833 70.2508Z" fill="white"/>
<path d="M108.378 70.2508C108.488 73.8391 108.488 77.662 108.378 81.2509C108.907 81.1876 109.832 81.1876 110.362 81.2509C110.252 77.6626 110.252 73.8396 110.362 70.2508C109.832 70.3141 108.907 70.3141 108.378 70.2508Z" fill="white"/>
<path d="M97.2296 70.2508C94.4283 70.2623 91.1912 70.2623 88.3906 70.2508C88.4179 70.5741 88.4149 71.2772 88.3906 71.6004C91.1856 71.4349 94.4346 71.4349 97.2296 71.6004C97.2053 71.2766 97.2022 70.5741 97.2296 70.2508Z" fill="white"/>
<path d="M93.7781 71.1787H91.8462C91.9295 74.4929 91.9208 77.9692 91.8207 81.2498C92.3498 81.1866 93.2751 81.1866 93.8043 81.2498C93.7042 77.9692 93.6948 74.4929 93.7781 71.1787Z" fill="white"/>
<path d="M114.462 70.2508C114.572 73.8396 114.572 77.662 114.462 81.2509C114.991 81.1876 116.412 80.6477 116.407 80.4617C116.317 77.1961 116.318 73.9288 116.41 70.6638C116.414 70.5259 114.991 70.3141 114.462 70.2508Z" fill="white"/>
<path d="M120.718 70.2521C117.936 70.2731 117.244 70.2731 114.462 70.2508L115.809 71.4915C117.399 71.4782 119.136 71.5192 120.723 71.6137C120.695 71.2862 120.694 70.5801 120.718 70.2521Z" fill="white"/>
<path d="M120.718 81.2483C117.936 81.2272 117.244 81.2272 114.462 81.2495L115.809 80.0089C117.399 80.0222 119.136 79.9812 120.723 79.8867C120.695 80.2142 120.694 80.9203 120.718 81.2483Z" fill="white"/>
<path d="M116.015 74.8989V76.0546C117.411 76.0546 118.953 76.0467 120.347 76.1292C120.325 75.8204 120.326 75.133 120.351 74.8242C118.958 74.9067 117.411 74.8989 116.015 74.8989Z" fill="white"/>
<path d="M164.579 70.2494C164.269 70.2868 163.614 70.2868 163.302 70.2494L163.351 78.1289L155.758 70.043H155.153C155.063 73.692 155.159 77.6016 155.048 81.25C155.423 81.2193 156.142 81.2193 156.518 81.25C156.434 78.5286 156.415 76.1871 156.459 73.465L163.943 81.3445H164.579C164.467 77.6901 164.467 73.9033 164.579 70.2494Z" fill="white"/>
<path d="M138.321 76.0752V74.8743C135.538 74.8954 132.365 74.8954 129.582 74.8731V76.0764C132.365 76.0542 135.538 76.0535 138.321 76.0752Z" fill="white"/>
<path d="M129.301 70.2508C129.411 73.8391 129.411 77.662 129.301 81.2509C129.83 81.1876 130.755 81.1876 131.284 81.2509C131.175 77.6626 131.175 73.8396 131.284 70.2508C130.755 70.3141 129.83 70.3141 129.301 70.2508Z" fill="white"/>
<path d="M136.846 70.2508C136.956 73.8391 136.956 77.662 136.846 81.2509C137.375 81.1876 138.3 81.1876 138.829 81.2509C138.719 77.6626 138.719 73.8396 138.829 70.2508C138.3 70.3141 137.375 70.3141 136.846 70.2508Z" fill="white"/>
<path d="M146.487 72.5826C147.132 74.2554 149.543 79.6453 150.191 81.25C150.721 81.1868 151.694 81.1868 152.223 81.25L147.261 70.043H146.818C145.317 73.4265 143.224 77.9194 141.566 81.25C141.929 81.2205 142.685 81.2205 143.048 81.25C143.74 79.6392 146.091 74.513 146.77 72.8817" fill="white"/>
<path d="M173.835 69.9283C170.148 69.9283 167.992 72.1898 167.992 75.7497C167.992 79.3097 170.148 81.5712 173.835 81.5712C177.52 81.5712 179.677 79.3097 179.677 75.7497C179.677 72.1898 177.52 69.9283 173.835 69.9283ZM173.835 80.6147C171.663 80.6147 169.932 79.4174 169.932 75.7497C169.932 72.0821 171.663 70.8848 173.835 70.8848C176.006 70.8848 177.737 72.0821 177.737 75.7497C177.737 79.4174 176.006 80.6147 173.835 80.6147Z" fill="white"/>
<path d="M184.898 75.9266L189.788 81.2508C190.393 81.1785 191.395 81.1785 192 81.2508L185.935 74.8364" fill="white"/>
<path d="M184.355 77.0986C185.421 76.0657 190.053 71.3067 191.08 70.2508C190.687 70.2828 189.901 70.2828 189.507 70.2508L184.256 75.5534" fill="white"/>
<path d="M182.807 70.2508C182.917 73.8391 182.917 77.662 182.807 81.2509C183.336 81.1876 184.261 81.1876 184.79 81.2509C184.68 77.6626 184.68 73.8396 184.79 70.2508C184.261 70.3141 183.336 70.3141 182.807 70.2508Z" fill="white"/>
<path d="M97.7592 92.5742V91.3733C94.976 91.3944 91.8036 91.3944 89.0204 91.3721V92.5754C91.8036 92.5531 94.976 92.5525 97.7592 92.5742Z" fill="white"/>
<path d="M88.7391 86.7499C88.8492 90.338 88.8492 94.161 88.7391 97.7498C89.2683 97.6866 90.1936 97.6866 90.7227 97.7498C90.6126 94.1616 90.6126 90.3387 90.7227 86.7499C90.1936 86.813 89.2683 86.813 88.7391 86.7499Z" fill="white"/>
<path d="M96.2841 86.7499C96.3941 90.338 96.3941 94.161 96.2841 97.7498C96.8132 97.6866 97.7385 97.6866 98.2676 97.7498C98.1576 94.1616 98.1576 90.3387 98.2676 86.7499C97.7385 86.813 96.8132 86.813 96.2841 86.7499Z" fill="white"/>
<path d="M124.623 86.7499C124.734 90.338 124.734 94.161 124.623 97.7498C125.153 97.6866 126.078 97.6866 126.607 97.7498C126.497 94.1616 126.497 90.3387 126.607 86.7499C126.078 86.813 125.153 86.813 124.623 86.7499Z" fill="white"/>
<path d="M145.068 89.0816C145.713 90.7544 148.124 96.1442 148.773 97.749C149.302 97.6858 150.275 97.6858 150.804 97.749L145.843 86.5419H145.4C143.899 89.9255 141.805 94.4184 140.147 97.749C140.511 97.7195 141.267 97.7195 141.63 97.749C142.321 96.1382 144.673 91.012 145.351 89.3807" fill="white"/>
<path d="M102.368 86.7499C102.478 90.338 102.478 94.161 102.368 97.7498C102.897 97.6866 104.318 97.1467 104.313 96.9606C104.223 93.6951 104.224 90.4283 104.317 87.1628C104.32 87.0249 102.897 86.813 102.368 86.7499Z" fill="white"/>
<path d="M108.624 86.751C105.842 86.7721 105.15 86.7721 102.368 86.7499L103.715 87.9904C105.305 87.9772 107.042 88.0181 108.629 88.1126C108.601 87.7852 108.6 87.0791 108.624 86.751Z" fill="white"/>
<path d="M108.624 97.7473C105.842 97.7263 105.15 97.7263 102.368 97.7485L103.715 96.5079C105.305 96.5211 107.042 96.4802 108.629 96.3857C108.601 96.7132 108.6 97.4192 108.624 97.7473Z" fill="white"/>
<path d="M103.921 91.3978V92.5536C105.317 92.5536 106.859 92.5458 108.253 92.6282C108.231 92.3194 108.232 91.632 108.257 91.3232C106.864 91.4057 105.317 91.3978 103.921 91.3978Z" fill="white"/>
<path d="M166.922 86.7499C167.032 90.338 167.032 94.161 166.922 97.7498C167.451 97.6866 168.872 97.1467 168.867 96.9606C168.777 93.6951 168.779 90.4283 168.87 87.1628C168.874 87.0249 167.451 86.813 166.922 86.7499Z" fill="white"/>
<path d="M173.179 86.751C170.397 86.7721 169.705 86.7721 166.922 86.7499L168.269 87.9904C169.859 87.9772 171.596 88.0181 173.183 88.1126C173.154 87.7852 173.154 87.0791 173.179 86.751Z" fill="white"/>
<path d="M173.179 97.7473C170.397 97.7263 169.705 97.7263 166.922 97.7485L168.269 96.5079C169.859 96.5211 171.596 96.4802 173.183 96.3857C173.154 96.7132 173.154 97.4192 173.179 97.7473Z" fill="white"/>
<path d="M168.475 91.3978V92.5536C169.871 92.5536 171.413 92.5458 172.807 92.6282C172.785 92.3194 172.787 91.632 172.811 91.3232C171.418 91.4057 169.871 91.3978 168.475 91.3978Z" fill="white"/>
<path d="M114.7 92.2233L119.091 97.7497C119.709 97.6757 120.676 97.6757 121.293 97.7497L116.639 92.0722L116.021 92.1059" fill="white"/>
<path d="M116.478 86.7499C115.217 86.7559 114.176 86.7577 112.915 86.7559C113.126 86.9539 112.972 87.1194 112.977 87.2994L114.282 92.7783C119.253 92.7783 120.291 90.9888 120.291 89.4213C120.291 88.8067 120.158 86.7499 116.478 86.7499ZM114.592 91.6298L113.652 87.7503L113.862 87.8129C115.683 87.7984 114.086 87.7876 115.907 87.7942C118.191 87.7942 118.367 89.1305 118.367 89.5121C118.367 90.7209 117.47 92.0127 114.592 91.6298Z" fill="white"/>
<path d="M112.915 86.7559C113.025 90.3441 113.025 94.1608 112.915 97.7489C113.444 97.6858 114.369 97.6858 114.898 97.7489C114.791 94.2444 114.789 90.5226 114.891 87.0073L112.915 86.7544L112.915 86.7559Z" fill="white"/>
<path d="M161.593 96.0157C160.881 96.8849 159.851 97.1143 158.696 97.1143C156.524 97.1143 154.793 95.917 154.793 92.2493C154.793 88.5817 156.524 87.3844 158.696 87.3844C160.39 87.3844 161.352 87.8341 162.102 88.9055H162.67C162.76 88.4138 162.888 87.9484 163.052 87.5108C161.874 86.7277 160.489 86.4273 158.696 86.4273C155.009 86.4273 152.853 88.6888 152.853 92.2487C152.853 95.8086 155.009 98.0701 158.696 98.0701C160.596 98.0701 162.391 97.656 163.113 97.2943C163.113 96.0157 163.13 93.8018 163.174 92.5004C162.559 92.5684 161.938 92.5684 161.324 92.5004C161.36 93.5712 161.374 95.6516 161.379 97.0649" fill="white"/>
<path d="M139.088 86.7499C136.286 86.7613 133.049 86.7613 130.249 86.7499C130.276 87.0731 130.273 87.7762 130.249 88.0994C133.044 87.9339 136.292 87.9339 139.088 88.0994C139.063 87.7755 139.06 87.0731 139.088 86.7499Z" fill="white"/>
<path d="M135.636 87.6776H133.704C133.788 90.992 133.778 94.4682 133.679 97.7488C134.208 97.6856 135.133 97.6856 135.662 97.7488C135.562 94.4682 135.553 90.992 135.636 87.6776Z" fill="white"/>
<path d="M48 66C48.092 77.93 48.092 90.0694 48 102L49.7647 101.204C49.6789 89.6998 49.6789 78.373 49.7647 66.8692L48 66Z" fill="white"/>
<path d="M75.8908 66C75.7988 77.93 75.7988 90.0694 75.8908 102L74.1261 101.204C74.212 89.6998 74.212 78.373 74.1261 66.8692L75.8908 66Z" fill="white"/>
<path d="M67.0734 66.214C66.9833 77.887 66.9814 89.3757 67.0679 101.055C67.0697 101.313 65.3094 101.203 65.3094 101.203C65.3952 89.699 65.3952 78.3721 65.3094 66.8683L67.0734 66.214Z" fill="white"/>
<path d="M58.4224 66.214C58.3316 77.9555 58.3304 89.5147 58.4181 101.261C58.4194 101.45 56.6578 101.203 56.6578 101.203C56.7435 89.699 56.7435 78.3721 56.6578 66.8683L58.4224 66.214Z" fill="white"/>
<path d="M75.2376 67.5723C66.3246 67.5253 57.8656 67.5247 48.9526 67.5711L48 66C57.2413 66.05 66.6496 66.05 75.8908 66L75.2376 67.5723Z" fill="white"/>
<path d="M75.2376 100.427C66.3246 100.474 57.8656 100.475 48.9526 100.428L48 102C57.2413 101.95 66.6496 101.95 75.8908 102L75.2376 100.427Z" fill="white"/>
<path d="M75.233 72.886C69.2189 72.9179 63.4119 72.9282 57.5321 72.9173V74.4246C63.4249 74.4144 69.3377 74.4246 75.1883 74.4547C75.4208 74.4559 75.233 72.886 75.233 72.886Z" fill="white"/>
<path d="M66.2216 86.6888C60.4886 86.6991 54.8171 86.6888 48.9497 86.6581C48.9497 86.6581 48.5847 88.2262 48.8789 88.225C54.6262 88.1961 60.4339 88.1859 66.2216 88.1955V86.6888Z" fill="white"/>
<path d="M75.233 93.5411C69.2189 93.573 63.4119 93.5832 57.5321 93.5724V95.0797C63.4088 95.0695 69.3066 95.0797 75.1416 95.1098C75.3897 95.111 75.233 93.5411 75.233 93.5411Z" fill="white"/>
</svg>
