<svg width="200" height="140" viewBox="0 0 200 140" fill="none" xmlns="http://www.w3.org/2000/svg">
<g clip-path="url(#clip0_506_1167)">
<mask id="mask0_506_1167" style="mask-type:luminance" maskUnits="userSpaceOnUse" x="35" y="52" width="132" height="36">
<path d="M167 52H35V88H167V52Z" fill="white"/>
</mask>
<g mask="url(#mask0_506_1167)">
<path d="M40.6229 83.6974H40.6147C40.4805 83.9403 40.7245 84.4639 41.1963 84.9078C41.1963 84.9078 41.8307 85.4732 41.8063 85.691C41.8063 85.691 42.4367 85.0376 42.4448 84.7026C42.3838 84.6523 42.3269 84.5937 42.2699 84.5434C41.6558 83.9822 41.2532 83.6094 40.9035 83.6094C40.8059 83.6136 40.7123 83.6471 40.6269 83.6974H40.6229Z" fill="white"/>
<path d="M40.1208 84.7072C40.5478 85.1973 41.0887 85.5742 41.6906 85.8004C41.6906 85.8004 41.8085 85.7208 41.1253 84.992C40.6413 84.4726 39.4254 83.4004 41.8329 82.504C42.2396 82.3323 42.569 82.0098 42.752 81.5993C42.2152 81.147 40.8772 80.7533 38.8316 80.9585C36.607 81.1763 35.5253 80.125 35.5253 80.125C35.7937 81.503 37.7824 82.2318 37.7824 82.2318C36.0987 82.102 34.9844 83.5637 34.9844 83.5637C35.936 82.7763 39.401 83.836 40.1086 84.7114L40.1208 84.7072Z" fill="white"/>
<path d="M61.6232 84.9114C62.099 84.4674 62.3471 83.9439 62.2088 83.7051H62.2007C62.1194 83.6465 62.0217 83.6172 61.9242 83.6172C61.5703 83.6172 61.1677 83.9899 60.5577 84.5512C60.5007 84.6015 60.4398 84.6559 60.3828 84.7104C60.3909 85.0413 61.0213 85.6989 61.0213 85.6989C60.9969 85.4769 61.6313 84.9114 61.6313 84.9114H61.6232Z" fill="white"/>
<path d="M60.986 82.5046C63.3976 83.401 62.1776 84.4732 61.6936 84.9925C61.0144 85.7214 61.1283 85.8009 61.1283 85.8009C61.7302 85.579 62.2711 85.202 62.6981 84.7078C63.4139 83.8323 66.8747 82.7769 67.8223 83.5559C67.8223 83.5559 66.7121 82.0941 65.0244 82.224C65.0244 82.224 67.0171 81.4994 67.2814 80.1172C67.2814 80.1172 66.1956 81.1685 63.9751 80.9507C61.9335 80.7496 60.5996 81.1433 60.0547 81.5915C60.2336 82.0062 60.5671 82.3328 60.9738 82.5046H60.986Z" fill="white"/>
<path d="M41.3964 66.8434C41.3964 79.4633 51.4537 83.9366 51.4537 83.9366C51.4537 83.9366 61.5109 79.4633 61.5109 66.8434L61.6614 61.2309C61.6614 61.2309 59.9493 60.2424 56.0533 59.7523C56.3461 59.1366 56.6836 58.546 57.0578 57.9848C57.1595 58.0141 57.2693 57.9764 57.3343 57.8926C57.375 57.8089 57.3668 57.7042 57.31 57.6288C57.7125 57.0549 58.2209 56.5607 58.8025 56.1837V54.4664L57.4604 55.5513L57.3953 55.9408C57.0334 55.2329 55.8133 55.3125 55.6059 56.0539C55.3944 56.7827 56.1997 56.967 56.1997 56.967C55.3782 56.2214 56.3705 55.5471 56.9683 56.0832C57.3791 56.4518 57.0944 57.0843 56.9277 57.3733C56.8219 57.3398 56.708 57.3733 56.6348 57.4612C56.5901 57.5659 56.6104 57.6874 56.6918 57.767C56.4518 58.0518 56.1061 58.2151 55.7401 58.211C55.0406 58.211 54.4753 57.6288 54.4713 56.9125C54.1012 57.1094 53.1902 57.478 52.4501 56.8748H52.4541C52.6534 56.6319 52.629 56.2717 52.3972 56.0665C52.3321 56.0078 52.2508 55.9659 52.1654 55.945C52.0474 55.9157 51.9254 55.8905 51.8035 55.878C51.7384 55.6099 51.6977 55.3335 51.6855 55.0528C51.7099 54.8225 51.8563 54.6298 52.0678 54.5502C52.8079 54.2486 53.5278 55.2246 52.5111 55.6476C52.5111 55.6476 53.3244 55.7439 53.3611 54.99C53.3977 54.2403 52.3362 53.7586 51.7506 54.2403C51.8278 53.8633 52.0312 53.5282 52.324 53.2937L51.4496 52.0078L50.5794 53.3021C50.8721 53.5408 51.0755 53.8759 51.1528 54.2486C50.5712 53.767 49.5097 54.2486 49.5422 54.9984C49.5788 55.7607 50.3923 55.656 50.3923 55.656C49.3796 55.2329 50.0994 54.257 50.8355 54.5586C51.047 54.634 51.1975 54.8308 51.2178 55.0612C51.2056 55.3377 51.169 55.6141 51.0998 55.8863C50.9779 55.8989 50.8559 55.9199 50.7379 55.9534C50.441 56.0288 50.258 56.3345 50.3312 56.6403C50.3516 56.7282 50.3923 56.812 50.4532 56.879H50.4573C49.7172 57.4905 48.8062 57.1178 48.4361 56.9209C48.4361 57.6413 47.8667 58.2235 47.1673 58.2193C46.8053 58.2193 46.4555 58.056 46.2197 57.7754C46.2969 57.6958 46.3214 57.5743 46.2766 57.4696C46.2075 57.3816 46.0895 57.3439 45.9838 57.3816C45.817 57.0968 45.5324 56.4644 45.9432 56.0916C46.5409 55.5596 47.5333 56.2298 46.7118 56.9754C46.7118 56.9754 47.5129 56.7952 47.3055 56.0623C47.094 55.3209 45.8781 55.2371 45.5161 55.9492L45.4511 55.5596L44.109 54.4748V56.1963C44.6946 56.5733 45.1989 57.0633 45.6015 57.6413C45.5486 57.7167 45.5364 57.8172 45.5771 57.9052C45.6422 57.9932 45.752 58.0267 45.8536 57.9973C46.2318 58.5586 46.5653 59.1492 46.8582 59.7649C42.9621 60.2591 41.25 61.2434 41.25 61.2434L41.3964 66.8434ZM52.7998 58.1062C52.9991 58.1062 53.1577 58.2696 53.1577 58.4748C53.1577 58.6801 52.9991 58.8434 52.7998 58.8434C52.6006 58.8434 52.442 58.6801 52.442 58.4748C52.442 58.2738 52.6006 58.1062 52.7998 58.1062ZM51.4578 57.9513C51.7343 57.9513 51.962 58.1816 51.962 58.4706C51.962 58.7596 51.7384 58.99 51.4578 58.99C51.1771 58.99 50.9535 58.7596 50.9535 58.4706C50.9535 58.1858 51.173 57.9555 51.4455 57.9513C51.4455 57.9513 51.4496 57.9513 51.4537 57.9513H51.4578ZM50.1116 58.1062C50.3109 58.1062 50.4695 58.2696 50.4695 58.4748C50.4695 58.6801 50.3109 58.8434 50.1116 58.8434C49.9123 58.8434 49.7538 58.6801 49.7538 58.4748C49.7538 58.2738 49.9123 58.1104 50.1075 58.1062H50.1116ZM51.4578 60.4602C56.704 60.4602 59.6117 61.4026 60.6976 61.855L60.5634 66.835V66.8518C60.5634 71.8277 58.961 76.0623 55.7971 79.4591C54.5323 80.8246 53.0682 81.9722 51.4537 82.8643C49.8189 81.9597 48.3304 80.7911 47.0534 79.4047C43.9301 76.0204 42.344 71.8025 42.344 66.8602L42.2098 61.8717C43.3119 61.4152 46.2482 60.4685 51.4537 60.4685L51.4578 60.4602Z" fill="white"/>
<mask id="mask1_506_1167" style="mask-type:luminance" maskUnits="userSpaceOnUse" x="41" y="52" width="21" height="32">
<path d="M41.3964 66.8434C41.3964 79.4633 51.4537 83.9366 51.4537 83.9366C51.4537 83.9366 61.5109 79.4633 61.5109 66.8434L61.6614 61.2309C61.6614 61.2309 59.9493 60.2424 56.0533 59.7523C56.3461 59.1366 56.6836 58.546 57.0578 57.9848C57.1595 58.0141 57.2693 57.9764 57.3343 57.8926C57.375 57.8089 57.3668 57.7042 57.31 57.6288C57.7125 57.0549 58.2209 56.5607 58.8025 56.1837V54.4664L57.4604 55.5513L57.3953 55.9408C57.0334 55.2329 55.8133 55.3125 55.6059 56.0539C55.3944 56.7827 56.1997 56.967 56.1997 56.967C55.3782 56.2214 56.3705 55.5471 56.9683 56.0832C57.3791 56.4518 57.0944 57.0843 56.9277 57.3733C56.8219 57.3398 56.708 57.3733 56.6348 57.4612C56.5901 57.5659 56.6104 57.6874 56.6918 57.767C56.4518 58.0518 56.1061 58.2151 55.7401 58.211C55.0406 58.211 54.4753 57.6288 54.4713 56.9125C54.1012 57.1094 53.1902 57.478 52.4501 56.8748H52.4541C52.6534 56.6319 52.629 56.2717 52.3972 56.0665C52.3321 56.0078 52.2508 55.9659 52.1654 55.945C52.0474 55.9157 51.9254 55.8905 51.8035 55.878C51.7384 55.6099 51.6977 55.3335 51.6855 55.0528C51.7099 54.8225 51.8563 54.6298 52.0678 54.5502C52.8079 54.2486 53.5278 55.2246 52.5111 55.6476C52.5111 55.6476 53.3244 55.7439 53.3611 54.99C53.3977 54.2403 52.3362 53.7586 51.7506 54.2403C51.8278 53.8633 52.0312 53.5282 52.324 53.2937L51.4496 52.0078L50.5794 53.3021C50.8721 53.5408 51.0755 53.8759 51.1528 54.2486C50.5712 53.767 49.5097 54.2486 49.5422 54.9984C49.5788 55.7607 50.3923 55.656 50.3923 55.656C49.3796 55.2329 50.0994 54.257 50.8355 54.5586C51.047 54.634 51.1975 54.8308 51.2178 55.0612C51.2056 55.3377 51.169 55.6141 51.0998 55.8863C50.9779 55.8989 50.8559 55.9199 50.7379 55.9534C50.441 56.0288 50.258 56.3345 50.3312 56.6403C50.3516 56.7282 50.3923 56.812 50.4532 56.879H50.4573C49.7172 57.4905 48.8062 57.1178 48.4361 56.9209C48.4361 57.6413 47.8667 58.2235 47.1673 58.2193C46.8053 58.2193 46.4555 58.056 46.2197 57.7754C46.2969 57.6958 46.3214 57.5743 46.2766 57.4696C46.2075 57.3816 46.0895 57.3439 45.9838 57.3816C45.817 57.0968 45.5324 56.4644 45.9432 56.0916C46.5409 55.5596 47.5333 56.2298 46.7118 56.9754C46.7118 56.9754 47.5129 56.7952 47.3055 56.0623C47.094 55.3209 45.8781 55.2371 45.5161 55.9492L45.4511 55.5596L44.109 54.4748V56.1963C44.6946 56.5733 45.1989 57.0633 45.6015 57.6413C45.5486 57.7167 45.5364 57.8172 45.5771 57.9052C45.6422 57.9932 45.752 58.0267 45.8536 57.9973C46.2318 58.5586 46.5653 59.1492 46.8582 59.7649C42.9621 60.2591 41.25 61.2434 41.25 61.2434L41.3964 66.8434ZM52.7998 58.1062C52.9991 58.1062 53.1577 58.2696 53.1577 58.4748C53.1577 58.6801 52.9991 58.8434 52.7998 58.8434C52.6006 58.8434 52.442 58.6801 52.442 58.4748C52.442 58.2738 52.6006 58.1062 52.7998 58.1062ZM51.4578 57.9513C51.7343 57.9513 51.962 58.1816 51.962 58.4706C51.962 58.7596 51.7384 58.99 51.4578 58.99C51.1771 58.99 50.9535 58.7596 50.9535 58.4706C50.9535 58.1858 51.173 57.9555 51.4455 57.9513C51.4455 57.9513 51.4496 57.9513 51.4537 57.9513H51.4578ZM50.1116 58.1062C50.3109 58.1062 50.4695 58.2696 50.4695 58.4748C50.4695 58.6801 50.3109 58.8434 50.1116 58.8434C49.9123 58.8434 49.7538 58.6801 49.7538 58.4748C49.7538 58.2738 49.9123 58.1104 50.1075 58.1062H50.1116Z" fill="white"/>
</mask>
<g mask="url(#mask1_506_1167)">
<path d="M56.6288 76.642C56.7345 76.642 56.759 76.3405 56.7224 76.219C56.6858 76.0933 56.1571 74.2797 56.0147 74.0536C55.8723 73.8273 55.4657 73.5426 55.3925 73.1488C55.3153 72.7551 55.1607 71.8546 55.1607 71.8546C55.1607 71.8546 55.8357 72.0808 56.1977 72.2232C56.5597 72.3614 57.2104 72.4242 57.5804 71.9216C57.9465 71.419 57.8122 70.5645 57.4381 70.108C57.0681 69.6472 56.4255 69.6054 56.2953 70.108C56.1652 70.6106 56.6207 71.0881 57.003 70.5688C57.2632 70.7656 57.3771 71.109 57.2958 71.4274C57.1453 71.9677 56.7386 72.0892 55.4006 71.4232C54.0627 70.753 51.6795 69.6682 51.0857 69.3164C50.492 68.9645 50.3984 68.776 50.3984 68.776H50.3943C50.4107 68.7384 50.435 68.6839 50.4635 68.6211C50.5245 68.4996 50.5936 68.3823 50.675 68.2735C50.675 68.2735 49.7233 68.3363 49.9673 67.0504C49.9673 67.0504 49.947 67.6116 50.2439 67.8839C50.5408 68.1562 51.1427 67.997 51.3216 68.0975C51.3785 68.1352 51.4314 68.1813 51.4721 68.2357C51.5494 68.3321 51.6022 68.4284 51.6673 68.4159C51.9276 68.2483 52.1228 67.997 52.2244 67.6996L52.1187 67.6829C52.1553 67.5949 52.1797 67.5028 52.1837 67.4064C52.0984 67.5363 51.9642 67.6284 51.8137 67.6535C51.5371 67.7164 51.3094 67.3562 51.3053 67.2179C51.346 67.0881 51.4111 66.9667 51.5005 66.8661C51.6673 66.6483 51.8991 66.4095 52.0292 66.4012C52.2488 66.3802 52.3261 66.6985 52.3261 66.6985C52.3912 66.5645 52.4237 66.418 52.4196 66.2672C52.4196 66.2672 52.5538 66.2211 52.5538 66.1624C52.5538 66.041 52.5213 65.9195 52.4644 65.8148C52.3993 65.752 52.5823 65.4714 52.3586 65.4629C52.1228 65.4755 51.8869 65.5049 51.655 65.5551C51.655 65.5551 51.6388 65.3122 51.3338 65.329C50.9637 65.3876 50.5977 65.4755 50.2357 65.5887L49.8901 65.6849C49.8901 65.6849 49.882 65.6849 49.882 65.6807C49.7274 65.6556 49.5688 65.664 49.4183 65.7059C49.1824 65.7729 48.971 65.907 48.8083 66.0954C48.8408 66.1541 48.8856 66.2043 48.9384 66.2462C49.0035 66.2965 49.0808 66.33 49.1581 66.3509C49.3533 66.3802 49.5525 66.3384 49.7274 66.2378C49.6013 66.1331 49.4508 66.0745 49.2882 66.0703C49.2434 66.0661 49.1987 66.0661 49.154 66.0661C49.154 66.0661 49.2028 66.0577 49.2841 66.0451C49.5037 66.0284 49.7274 66.0829 49.9186 66.2002C49.6868 66.4389 49.3492 66.5352 49.0319 66.4473C48.9913 66.4389 48.9506 66.4263 48.9099 66.4095C48.9059 66.4095 48.9059 66.4054 48.9018 66.4054C48.9018 66.4054 47.9055 66.8158 47.267 68.3698C47.0189 69.1195 46.9132 69.9154 46.9538 70.7069C46.9945 71.4315 47.3361 72.286 47.5109 72.7677C47.6655 73.1531 47.7509 73.5635 47.7672 73.9782C47.7875 74.4096 47.8932 74.8452 47.6167 75.0294C47.572 75.0587 47.5273 75.0881 47.4866 75.1216L56.6328 76.6379L56.6288 76.642ZM51.4232 65.6305C51.2321 65.7478 51.0735 65.9111 50.9556 66.108C50.9677 65.9991 50.9881 65.8902 51.0166 65.7855C50.923 65.7604 50.8214 65.7687 50.7359 65.8106C50.9271 65.6473 51.1793 65.5844 51.4232 65.6305ZM50.3822 73.4965C50.4757 73.1111 50.8092 72.8347 51.1955 72.8221C51.6469 72.8138 52.0821 72.8221 52.0821 72.8221L51.2606 73.0148C51.2606 73.0148 51.1386 73.6473 51.6266 73.9321C52.1146 74.2211 52.6311 74.2295 52.7043 74.3426C52.7735 74.4556 52.1512 75.3017 52.0333 75.3478C51.9194 75.3938 51.5046 75.1928 51.3379 75.3226C51.2606 75.3938 51.2159 75.4943 51.2159 75.6033L49.5851 75.4023C49.7396 75.0462 50.2642 73.8065 50.3741 73.5007L50.3822 73.4965ZM48.1698 72.4829L49.2516 73.0692C49.2516 73.0692 48.8693 74.5645 48.849 74.6609C48.8246 74.753 48.5928 74.9373 48.5033 74.9834C48.4219 75.0462 48.3894 75.1593 48.426 75.2598L48.304 75.2431C48.304 75.2431 48.3365 75.2138 48.3487 75.197C48.4138 75.0127 48.487 74.8326 48.5724 74.6567C48.6294 74.5519 48.8612 73.0525 48.8612 73.0525L48.1698 72.4871V72.4829ZM53.3591 75.8713L52.7653 75.8001C53.0419 75.4525 53.7373 74.5813 53.7698 74.5059C53.8105 74.4096 53.8105 74.3007 53.4811 74.0452C53.1557 73.798 53.0297 73.6221 53.3957 73.4629C53.3957 73.4629 54.2823 74.3216 54.6727 74.485C55.0671 74.6441 55.2908 74.5101 55.421 74.7865C55.5511 75.063 55.7667 75.7541 55.5714 75.8881C55.3762 76.0221 55.0143 75.7834 54.8353 76.0598C54.6645 76.3279 54.6849 76.3949 54.6849 76.3949L53.3509 75.8713H53.3591Z" fill="white"/>
<path d="M61.9923 81.7529L39.3359 81.221L42.0729 79.3696L45.5541 79.1811L49.7389 79.466L45.9039 78.6869L46.6888 77.0283L48.8279 77.2209L47.1077 76.3456L46.5017 74.6953L49.0842 75.1644L50.2229 75.3571L53.0697 75.8387L53.1591 75.8555L57.4456 76.6011L56.7908 77.8995L52.7606 77.5728L56.7908 78.1801L60.1378 79.4618V80.5047H50.6336C50.6336 80.5047 55.0868 81.2335 57.9905 81.4262C60.8942 81.6147 61.9923 81.7487 61.9923 81.7487V81.7529Z" fill="white"/>
<path d="M46.2188 81.0078L55.5806 81.5188L57.7889 84.635H46.2188V81.0078Z" fill="white"/>
<path d="M55.2976 67.2031L55.444 67.4795L55.7125 67.6304L55.444 67.7811L55.2976 68.0575L55.1512 67.7811L54.8828 67.6304L55.1512 67.4795L55.2976 67.2031Z" fill="white"/>
<path d="M55.4304 62.2422L55.5808 62.527L55.6459 62.6485L56.0404 62.8705L55.6459 63.0924L55.4304 63.4987L55.2148 63.0924L54.8203 62.8705L55.2148 62.6485L55.4304 62.2422Z" fill="white"/>
<path d="M45.236 63.3828L45.3906 63.676L45.6753 63.8352L45.3906 63.9943L45.236 64.2875L45.0815 63.9943L44.7969 63.8352L45.0815 63.676L45.236 63.3828Z" fill="white"/>
<path d="M53.7173 63.6562L53.8433 63.895L54.0752 64.0249L53.8433 64.1547L53.7173 64.3935L53.5912 64.1547L53.3594 64.0249L53.5912 63.895L53.7173 63.6562Z" fill="white"/>
<path d="M58.5681 65.3505C58.1655 66.1673 57.1935 66.4898 56.4045 66.0709C56.3517 66.0416 56.2988 66.0123 56.25 65.9788C57.0065 66.272 57.897 65.9913 58.2712 65.2332C58.6494 64.4751 58.381 63.5034 57.7059 63.0469C58.5396 63.3735 58.9585 64.3285 58.6413 65.1871C58.6209 65.2458 58.5966 65.3003 58.5681 65.3547V65.3505Z" fill="white"/>
</g>
<path d="M57.6212 83.9962L57.6741 83.9543C57.6741 83.9543 57.6619 83.9417 57.6538 83.9375L57.6172 83.9836C57.6172 83.9836 57.6172 83.9878 57.6172 83.9919L57.6212 83.9962Z" fill="white"/>
<path d="M46.3466 84.9688L46.3548 84.8516L46.2734 84.9312L46.3466 84.9688Z" fill="white"/>
<path d="M54.3215 85.4426C54.2524 85.3923 54.1751 85.3672 54.0938 85.3672C54.0612 85.3672 54.0287 85.3672 53.9962 85.3797C53.9312 85.3965 53.8457 85.43 53.7928 85.5138C53.736 85.6059 53.7278 85.7358 53.7644 85.9075C53.8294 86.1839 54.0287 86.4311 54.3337 86.3514C54.4517 86.3221 54.6306 86.2133 54.5371 85.807C54.5005 85.6436 54.4232 85.5138 54.3175 85.4384L54.3215 85.4426Z" fill="white"/>
<path d="M55.6219 84.8865C55.6219 84.8865 55.6057 84.8907 55.6016 84.8949L55.748 85.2845C55.748 85.2845 55.7805 85.2719 55.8009 85.2677C55.8537 85.2468 55.8578 85.2426 55.8618 85.2341C55.8984 85.1797 55.8984 85.1127 55.87 85.029C55.8009 84.8446 55.6748 84.8698 55.626 84.8865H55.6219Z" fill="white"/>
<path d="M60.9411 82.6012C59.9407 82.2117 59.717 80.9551 59.717 80.9551C59.717 80.9551 59.2005 80.4944 58.4237 81.328C57.6469 82.1614 54.9872 84.4316 51.4043 84.4567C47.8215 84.4316 45.1618 82.1656 44.3891 81.328C43.6163 80.4902 43.0958 80.9594 43.0958 80.9594C43.0958 80.9594 42.8762 82.2201 41.8717 82.6054C40.8753 82.9908 40.5703 83.5981 40.5703 83.5981C41.3959 83.1164 42.0832 84.5615 44.3768 86.1405C47.1504 88.0421 51.4043 87.9918 51.4043 87.9918C51.4043 87.9918 55.6623 88.0504 58.4318 86.1363C60.7255 84.5615 61.4169 83.1123 62.2384 83.5939C62.2384 83.5939 61.9334 82.9865 60.937 82.597L60.9411 82.6012ZM45.2187 85.1688L45.1699 85.1813C45.1699 85.1813 45.1537 85.1813 45.1455 85.1813C45.113 85.1813 45.0805 85.1688 45.0479 85.1478C45.0113 85.1227 44.7957 84.9593 44.7388 84.9133C44.6331 84.8295 44.6656 84.7499 44.6859 84.7206C44.7022 84.6996 44.7225 84.6787 44.7551 84.6703L44.9625 84.2557L44.4664 84.5363C44.3768 84.5866 44.3118 84.6243 44.2427 84.574C44.1735 84.5237 44.1816 84.4358 44.1898 84.3562C44.2223 84.0672 44.2386 83.9206 44.2467 83.8829C44.2467 83.8703 44.2549 83.841 44.2589 83.795L44.0149 84.0755C44.0149 84.0755 44.0027 84.0923 43.9946 84.0965C43.9986 84.1007 44.0027 84.1049 44.0068 84.1091C44.0393 84.13 44.0597 84.1635 44.0637 84.1971L44.0718 84.2389L44.0231 84.3185L43.9702 84.3352C43.9132 84.3437 43.8726 84.3143 43.8563 84.3018C43.8156 84.2725 43.7791 84.2431 43.7465 84.218C43.7262 84.2013 43.7099 84.1887 43.7018 84.1845C43.6896 84.1761 43.6693 84.1635 43.6448 84.1468C43.6123 84.1259 43.5757 84.1049 43.5472 84.084C43.4699 84.0295 43.4699 83.9499 43.5065 83.8996L43.531 83.8662L43.5797 83.8536C43.6163 83.8452 43.6489 83.8536 43.6814 83.8787C43.6855 83.8787 43.6896 83.8871 43.6977 83.8913C43.7059 83.8871 43.718 83.8745 43.7343 83.8536L44.5436 82.9782C44.5965 82.9196 44.6737 82.907 44.7307 82.9447C44.8039 82.995 44.7917 83.0787 44.7876 83.1248L44.6616 84.0462L45.4587 83.5897C45.5441 83.5394 45.6051 83.5646 45.6294 83.5897C45.6864 83.6274 45.7026 83.7112 45.666 83.7908L45.1821 84.8211C45.1496 84.8881 45.1455 84.9091 45.1455 84.9174C45.1739 84.9468 45.1903 84.9593 45.1984 84.9677C45.2309 84.9886 45.2512 85.0222 45.2553 85.0557L45.2635 85.0976L45.2146 85.1771L45.2187 85.1688ZM46.8617 85.9478L46.8414 85.9856L46.7926 86.0064C46.7926 86.0064 46.7682 86.0107 46.756 86.0107C46.7194 86.0107 46.6828 85.9939 46.6421 85.973C46.5851 85.9437 46.4631 85.8808 46.3249 85.8054C46.2151 85.7426 46.2192 85.6756 46.2395 85.6295C46.2517 85.6044 46.272 85.5834 46.2964 85.5708L46.3167 85.2903L46.028 85.1437L45.8735 85.2818C45.8735 85.2818 45.8653 85.2903 45.8572 85.2944L45.8776 85.307L45.9263 85.4033L45.8776 85.5122L45.7799 85.529L45.7352 85.5122C45.7067 85.4996 45.6742 85.4788 45.6417 85.462C45.6092 85.4452 45.5807 85.4285 45.5562 85.4159L45.5237 85.4033C45.483 85.3866 45.4221 85.3573 45.361 85.3279C45.3489 85.3196 45.3041 85.2986 45.2878 85.2484L45.2757 85.2064L45.296 85.1562C45.3082 85.1269 45.3326 85.1059 45.3651 85.0934L45.4057 85.0808L45.5115 85.1227C45.5115 85.1227 45.5319 85.1269 45.6051 85.064L46.5323 84.2515C46.5648 84.2222 46.6421 84.1552 46.7234 84.1971C46.8048 84.2389 46.8048 84.3227 46.8048 84.3688C46.8048 84.4274 46.7885 84.6536 46.7763 84.9049C46.7641 85.1604 46.7479 85.4452 46.7397 85.596C46.7356 85.7259 46.756 85.7552 46.756 85.7552C46.7722 85.7678 46.7845 85.7761 46.8007 85.7803C46.8739 85.818 46.8861 85.8934 46.8617 85.9478ZM49.0822 85.2818C49.066 85.3405 49.0009 85.3866 48.9195 85.3573C48.9073 85.3573 48.9032 85.353 48.8992 85.353C48.8992 85.3573 48.8911 85.374 48.8829 85.4033L48.5209 86.4965C48.5007 86.5593 48.4681 86.5887 48.4396 86.6012L48.403 86.6222L48.3461 86.6096C48.2973 86.5929 48.2566 86.5552 48.2282 86.4965C48.1509 86.3583 48.0004 86.0693 47.8743 85.8264C47.8134 85.7091 47.7564 85.5918 47.7076 85.4913L47.5775 85.9562C47.5612 86.0149 47.5571 86.0442 47.5571 86.0609C47.5653 86.0651 47.5816 86.0735 47.5978 86.0776C47.6791 86.1028 47.7076 86.1824 47.6872 86.2368L47.6751 86.2787L47.6304 86.308C47.5856 86.3332 47.545 86.3206 47.5124 86.308C47.4352 86.2829 47.3741 86.2578 47.3294 86.241L47.2602 86.2159C47.2236 86.2075 47.1586 86.1866 47.0935 86.1656C47.0732 86.1573 47.0244 86.1447 47 86.0944L46.9797 86.0568L47.004 85.9604L47.0488 85.9311C47.0813 85.9144 47.1179 85.9101 47.1504 85.9227C47.1627 85.9227 47.1708 85.9311 47.183 85.9311C47.1952 85.8976 47.2155 85.8431 47.2236 85.8138L47.5612 84.7834C47.5937 84.6745 47.6751 84.6452 47.7361 84.6662C47.7971 84.6871 47.8255 84.7415 47.85 84.7918L47.8703 84.8379C47.9232 84.9426 48.0695 85.2484 48.22 85.5332C48.2607 85.6127 48.3176 85.7259 48.3664 85.8305L48.5209 85.2944C48.5373 85.2358 48.5373 85.219 48.5373 85.219C48.5373 85.2274 48.5047 85.219 48.4925 85.2107C48.4437 85.1939 48.4193 85.1646 48.4071 85.1437L48.3868 85.1059L48.399 85.0515C48.4071 85.0264 48.4477 84.9384 48.5739 84.9803C48.6348 85.0012 48.6918 85.0222 48.7365 85.0389L48.826 85.0683C48.8585 85.0766 48.9114 85.0934 48.9724 85.1144C49.1026 85.1562 49.0781 85.2567 49.0741 85.2735L49.0822 85.2818ZM50.8756 85.5457C50.8675 85.6044 50.8147 85.663 50.7292 85.6505C50.7211 85.6505 50.713 85.6505 50.7089 85.6505C50.7089 85.6505 50.7089 85.6505 50.7089 85.6546C50.7008 85.7091 50.6886 85.7635 50.6561 86.0316L50.6317 86.2242C50.6032 86.4463 50.5422 86.6892 50.3388 86.819C50.2169 86.8986 50.0949 86.9195 49.9932 86.9195C49.9484 86.9195 49.9037 86.9154 49.8671 86.9112C49.7817 86.8986 49.5499 86.8651 49.4035 86.6934C49.2814 86.551 49.2448 86.3667 49.2774 86.107L49.3384 85.642C49.3547 85.5374 49.3587 85.5039 49.3587 85.462C49.3506 85.4536 49.3344 85.4494 49.3099 85.4452C49.2246 85.4327 49.188 85.3656 49.1961 85.307C49.1961 85.2861 49.2205 85.1939 49.3465 85.2023C49.4076 85.2106 49.4767 85.2232 49.5296 85.2316L49.6841 85.2525C49.741 85.261 49.8142 85.2693 49.859 85.2735C49.8752 85.2735 49.9281 85.2818 49.9606 85.3279L49.9851 85.3615V85.4159C49.9728 85.4745 49.924 85.529 49.8346 85.5206C49.8265 85.5206 49.8183 85.5206 49.8142 85.5206V85.529C49.802 85.5834 49.7939 85.6337 49.7573 85.9059L49.7248 86.1615C49.6922 86.4169 49.7329 86.4839 49.7776 86.5342C49.8265 86.5845 49.8834 86.6012 49.9362 86.6096C49.9769 86.6138 50.0542 86.618 50.1192 86.5678C50.1965 86.5091 50.2209 86.3834 50.2453 86.2117L50.2738 85.9813C50.3104 85.7133 50.3144 85.6588 50.3185 85.6044C50.3104 85.596 50.2941 85.5918 50.2779 85.5918C50.2372 85.5876 50.2047 85.5708 50.1843 85.5415L50.1599 85.5081V85.4536C50.1599 85.4536 50.1884 85.3405 50.3104 85.3489C50.3836 85.3615 50.469 85.374 50.5097 85.3824L50.5666 85.3908C50.6154 85.3949 50.6967 85.4075 50.7496 85.4159C50.8797 85.4368 50.8716 85.5415 50.8716 85.5541L50.8756 85.5457ZM52.8644 86.3793C52.7993 86.3834 52.7383 86.3332 52.7342 86.2578C52.6976 86.2452 52.6 86.2494 52.5268 86.2578V86.3164C52.5431 86.4546 52.5594 86.6054 52.5756 86.685C52.5756 86.685 52.5756 86.6892 52.5756 86.6934C52.6 86.6934 52.6244 86.6934 52.6407 86.6934C52.6773 86.685 52.7139 86.7017 52.7423 86.7227L52.7749 86.752L52.7871 86.8483L52.7586 86.8902C52.722 86.9321 52.6732 86.9363 52.6529 86.9405C52.5837 86.9488 52.5065 86.9531 52.4455 86.9573C52.4089 86.9573 52.3764 86.9573 52.356 86.9614C52.3357 86.9614 52.2991 86.9698 52.2625 86.974C52.2136 86.9824 52.1608 86.9866 52.1242 86.9908C52.1161 86.9908 52.112 86.9908 52.1039 86.9908C51.9859 86.9908 51.9737 86.8902 51.9737 86.8819C51.9696 86.819 52.0103 86.752 52.0916 86.7436C52.0998 86.7436 52.1039 86.7436 52.108 86.7436C52.108 86.7436 52.108 86.7353 52.108 86.731C52.108 86.6598 52.0998 86.5258 52.0835 86.3541L52.055 86.0316C52.0307 85.7593 52.0266 85.7049 52.0184 85.6505C52.0103 85.6505 51.99 85.6505 51.9656 85.6505C51.9249 85.6505 51.8924 85.642 51.8639 85.6211L51.8314 85.5918L51.8192 85.4955L51.8477 85.4536C51.8802 85.4117 51.933 85.4075 51.9575 85.4033C52.0103 85.3991 52.0714 85.3949 52.1242 85.3908L52.3316 85.374C52.478 85.3615 52.7057 85.3405 52.7383 85.3363C52.7627 85.3363 52.783 85.3279 52.7952 85.3237C52.7952 85.3237 52.8155 85.307 52.844 85.307L52.9417 85.2986L52.966 85.4159C52.966 85.4159 52.966 85.4494 52.966 85.4662C52.966 85.4788 52.966 85.4913 52.9619 85.5164C52.9619 85.5248 52.9619 85.5541 52.9619 85.5834C52.9619 85.6169 52.9619 85.6505 52.9619 85.6588C52.9538 85.7886 52.8685 85.8012 52.8521 85.8012H52.8115L52.7627 85.7719C52.7423 85.7552 52.722 85.7259 52.718 85.6756C52.722 85.663 52.7139 85.6546 52.6854 85.6588L52.4699 85.6756L52.4943 85.9478L52.661 85.9311C52.6935 85.9311 52.7139 85.9269 52.7383 85.9227C52.7668 85.9018 52.7912 85.8683 52.844 85.8598L52.9498 85.8473L52.9701 85.973C52.9701 85.973 52.9701 85.9981 52.9701 86.0274V86.1028C52.9701 86.1363 52.9701 86.2117 52.9701 86.2242C52.9782 86.3248 52.9213 86.3751 52.8603 86.3834L52.8644 86.3793ZM54.8897 86.2787C54.7717 86.4756 54.5765 86.6096 54.3284 86.6724C54.239 86.6934 54.1576 86.7059 54.0804 86.7059C53.6533 86.7059 53.3889 86.4044 53.3117 86.0776C53.2182 85.6798 53.4174 85.2064 53.9787 85.0683C54.4829 84.9468 54.8815 85.1646 54.9872 85.6337C55.0401 85.8641 55.0076 86.0944 54.8937 86.2829L54.8897 86.2787ZM56.9068 85.7593L56.7442 85.8264C56.6343 85.8683 56.5692 85.8808 56.496 85.8724C56.3822 85.8598 56.2723 85.7929 56.1259 85.6966C56.069 85.6588 56.0039 85.6169 55.9552 85.5834C55.9348 85.5708 55.9186 85.5583 55.9064 85.55L55.8575 85.5667C55.9023 85.6881 55.947 85.7971 55.9755 85.8557C55.9755 85.8557 55.9755 85.8598 55.9755 85.8641C55.9958 85.8598 56.0161 85.8515 56.0324 85.8431L56.0731 85.8264L56.13 85.8431C56.1585 85.8557 56.1829 85.8808 56.191 85.9101C56.2114 85.9646 56.191 86.04 56.1056 86.0776C56.0365 86.107 55.943 86.1363 55.886 86.1615L55.8372 86.1782C55.8372 86.1782 55.8006 86.1949 55.7681 86.2075C55.7234 86.2285 55.6704 86.2494 55.6298 86.2661C55.6095 86.2746 55.5891 86.2787 55.5688 86.2787C55.5525 86.2787 55.5322 86.2787 55.52 86.2661L55.4793 86.2494L55.4427 86.1615L55.459 86.1112C55.4671 86.0902 55.4916 86.0568 55.5363 86.04C55.5444 86.04 55.5484 86.0358 55.5525 86.0316C55.5525 86.0316 55.5525 86.0232 55.5525 86.019C55.5363 85.952 55.4875 85.818 55.4305 85.6672L55.3045 85.3322C55.2191 85.1018 55.1987 85.0515 55.1784 85.0012C55.1621 85.0012 55.1459 85.0096 55.1296 85.018C55.0808 85.0347 55.0482 85.0264 55.0238 85.018L54.9831 85.0012L54.9588 84.951C54.9506 84.93 54.9263 84.8421 55.0442 84.7876C55.1052 84.7625 55.1702 84.7374 55.2191 84.7206L55.3939 84.6536C55.455 84.6284 55.5241 84.5991 55.5566 84.5866C55.6704 84.5405 55.8209 84.4944 55.9673 84.5279C56.069 84.553 56.1951 84.641 56.248 84.7793C56.3008 84.9174 56.2846 85.0599 56.191 85.2484C56.374 85.3573 56.5205 85.4452 56.6424 85.4996C56.7401 85.5457 56.7807 85.5374 56.8051 85.5332L56.8336 85.5248C56.8987 85.4996 56.9719 85.529 56.9922 85.5918C57.0085 85.6379 57.0085 85.7174 56.9068 85.7593ZM57.956 85.1604C57.9479 85.1855 57.9276 85.219 57.8829 85.2442C57.8178 85.2777 57.7527 85.307 57.6998 85.3322C57.6632 85.3489 57.6347 85.3656 57.6144 85.374C57.5981 85.3824 57.5697 85.3991 57.5371 85.4159C57.4924 85.441 57.4395 85.4703 57.4029 85.4913C57.3785 85.5039 57.3542 85.5081 57.3297 85.5081C57.281 85.5081 57.2444 85.4788 57.224 85.441C57.1955 85.3866 57.2078 85.3112 57.285 85.2693C57.2931 85.2693 57.2972 85.2651 57.3012 85.261V85.2525C57.2769 85.1813 57.2037 85.0389 57.1427 84.9133L56.8661 84.3478L56.7157 84.4316C56.6506 84.4693 56.6343 84.4818 56.6343 84.4861C56.6343 84.507 56.6343 84.5196 56.6343 84.5237C56.6506 84.6117 56.5977 84.6494 56.5733 84.662C56.5205 84.6871 56.4473 84.6787 56.4066 84.5991C56.3862 84.5572 56.3374 84.3688 56.3374 84.352C56.3089 84.2515 56.3781 84.2054 56.3944 84.2013L56.4513 84.1845C56.4513 84.1845 56.4716 84.1845 56.4879 84.1761C56.5326 84.1594 56.5937 84.13 56.6424 84.1049L57.3094 83.7572C57.3542 83.7321 57.3867 83.7154 57.4029 83.6986L57.4558 83.6609C57.4558 83.6609 57.5615 83.6148 57.6226 83.7363C57.6307 83.7531 57.6469 83.7908 57.6673 83.8326C57.6876 83.8745 57.708 83.9164 57.7161 83.9374C57.7608 84.0588 57.6795 84.1091 57.6713 84.1133C57.6469 84.1259 57.5656 84.1552 57.5046 84.0504C57.5046 84.0421 57.4721 84.0337 57.3867 84.0798L57.2687 84.1384L57.5453 84.7038C57.5981 84.8128 57.6754 84.9677 57.7201 85.0389C57.7201 85.0389 57.7201 85.0389 57.7201 85.0432C57.7405 85.0347 57.7649 85.0264 57.7771 85.018C57.8097 85.0012 57.8463 84.9971 57.8788 85.0096L57.9194 85.0222L57.9642 85.1059L57.952 85.1562L57.956 85.1604ZM59.0744 84.5363C59.0134 84.574 58.9484 84.6117 58.8954 84.641C58.8629 84.662 58.8345 84.6745 58.8182 84.6871C58.802 84.6955 58.7775 84.7164 58.745 84.7374C58.7003 84.7667 58.6515 84.8002 58.6149 84.8211C58.5904 84.8379 58.562 84.8462 58.5376 84.8462C58.5295 84.8462 58.5172 84.8462 58.5091 84.8462L58.4685 84.8337L58.4156 84.7541L58.4237 84.6996C58.4278 84.6745 58.444 84.641 58.4888 84.6159C58.4929 84.6159 58.501 84.6076 58.5051 84.6076C58.4644 84.5196 58.3952 84.3981 58.318 84.2683L58.1472 83.975C58.017 83.7531 57.9926 83.7112 57.9642 83.6609C57.9642 83.6609 57.956 83.6609 57.9398 83.6735C57.8625 83.7196 57.7933 83.686 57.7649 83.6358L57.7446 83.5981L57.7527 83.5479C57.7649 83.5018 57.8015 83.4725 57.834 83.4557C57.8625 83.4389 57.9113 83.4096 57.956 83.3845L58.0455 83.3301C58.0658 83.3175 58.1065 83.2923 58.1472 83.263L58.2448 83.2002C58.3383 83.1416 58.3993 83.1876 58.4237 83.2253C58.4563 83.2798 58.4522 83.3552 58.379 83.4054C58.3708 83.4054 58.3667 83.4138 58.3627 83.418C58.3952 83.485 58.4278 83.5394 58.5538 83.7531L58.7165 84.0295C58.802 84.172 58.8711 84.2976 58.9158 84.3562C58.9361 84.3478 58.9605 84.3352 58.9768 84.3227C59.0093 84.3018 59.0459 84.2976 59.0785 84.3059L59.1191 84.3143L59.1517 84.3604C59.1842 84.4149 59.172 84.4944 59.0947 84.5405L59.0744 84.5363Z" fill="white"/>
<path d="M75.3229 68.5333H75.4043C75.9573 67.9134 78.3324 65.4171 78.8041 64.8474C79.2596 64.2946 79.6175 63.8757 79.6175 63.5909C79.6175 63.4067 79.5525 63.2894 79.3898 63.2558C79.2434 63.2223 79.1783 63.1889 79.1783 63.0883C79.1783 62.9711 79.2596 62.9375 79.4386 62.9375C79.7802 62.9375 80.6749 62.9878 81.1141 62.9878C81.6184 62.9878 82.5131 62.9375 83.0174 62.9375C83.18 62.9375 83.2939 62.9711 83.2939 63.0883C83.2939 63.2056 83.2126 63.2391 83.0499 63.2391C82.8222 63.2391 82.4155 63.3061 82.1064 63.4234C81.6021 63.6245 81.049 63.9762 80.3496 64.6799C79.8453 65.1825 77.3889 67.6956 76.8358 68.2988C77.4214 69.0862 80.6098 72.6213 81.2442 73.2412C81.96 73.9449 82.692 74.6988 83.5705 75.0506C84.0585 75.2517 84.3838 75.3019 84.579 75.3019C84.6929 75.3019 84.7906 75.3354 84.7906 75.436C84.7906 75.5532 84.7092 75.6035 84.4001 75.6035H82.9848C82.4968 75.6035 82.204 75.6034 81.8624 75.57C80.984 75.4862 80.5447 75.1176 79.8453 74.481C79.1295 73.8276 75.9248 69.9574 75.5832 69.4716L75.4043 69.2202H75.3229V70.7448C75.3229 72.2862 75.3229 73.6098 75.3717 74.3302C75.4043 74.7993 75.5507 75.1679 75.9573 75.2349C76.1851 75.2684 76.543 75.3019 76.7544 75.3019C76.8846 75.3019 76.9659 75.3522 76.9659 75.436C76.9659 75.5532 76.8358 75.6035 76.6569 75.6035C75.7459 75.6035 74.7211 75.5532 74.3143 75.5532C73.9402 75.5532 72.9153 75.6035 72.2647 75.6035C72.0532 75.6035 71.9393 75.5532 71.9393 75.436C71.9393 75.3522 72.0044 75.3019 72.1996 75.3019C72.4436 75.3019 72.6388 75.2684 72.7852 75.2349C73.1105 75.1679 73.1919 74.7993 73.257 74.3134C73.3383 73.6098 73.3383 72.2862 73.3383 70.7448V67.7961C73.3383 65.2496 73.3383 64.7805 73.3058 64.2443C73.2733 63.6747 73.1431 63.4067 72.6063 63.2894C72.4762 63.2558 72.1996 63.2391 71.9718 63.2391C71.7929 63.2391 71.6953 63.2056 71.6953 63.0883C71.6953 62.9711 71.8092 62.9375 72.0532 62.9375C72.9153 62.9375 73.9402 62.9878 74.3306 62.9878C74.7211 62.9878 75.7459 62.9375 76.2989 62.9375C76.5267 62.9375 76.6406 62.9711 76.6406 63.0883C76.6406 63.2056 76.543 63.2391 76.4128 63.2391C76.2502 63.2391 76.1525 63.2558 75.9573 63.2894C75.5182 63.3731 75.388 63.6579 75.3554 64.2443C75.3229 64.7805 75.3229 65.2496 75.3229 67.7961V68.5333Z" fill="white"/>
<path d="M84.7534 69.7377C84.7534 67.8278 84.7534 67.4759 84.7289 67.0739C84.7046 66.6466 84.5826 66.433 84.3141 66.3702C84.18 66.3325 84.0214 66.3199 83.8749 66.3199C83.753 66.3199 83.6797 66.2948 83.6797 66.1943C83.6797 66.1189 83.7773 66.0938 83.9725 66.0938C84.4362 66.0938 85.2048 66.1315 85.5586 66.1315C85.8636 66.1315 86.5834 66.0938 87.047 66.0938C87.2057 66.0938 87.3033 66.1189 87.3033 66.1943C87.3033 66.2948 87.2301 66.3199 87.1081 66.3199C86.9861 66.3199 86.8884 66.3325 86.742 66.3576C86.4127 66.4204 86.315 66.634 86.2906 67.0739C86.2663 67.4759 86.2663 67.8278 86.2663 69.7377V71.9492C86.2663 73.1681 86.2663 74.1608 86.315 74.7011C86.3516 75.0403 86.437 75.2666 86.8031 75.3168C86.9739 75.3419 87.2423 75.3671 87.4252 75.3671C87.5595 75.3671 87.6205 75.4047 87.6205 75.4676C87.6205 75.5556 87.5229 75.5932 87.3886 75.5932C86.5834 75.5932 85.8148 75.5556 85.4854 75.5556C85.2048 75.5556 84.4362 75.5932 83.9482 75.5932C83.7896 75.5932 83.7041 75.5556 83.7041 75.4676C83.7041 75.4047 83.753 75.3671 83.8993 75.3671C84.0823 75.3671 84.2287 75.3419 84.3385 75.3168C84.5826 75.2666 84.6557 75.0529 84.6923 74.6885C84.7534 74.1608 84.7534 73.1681 84.7534 71.9492V69.7377Z" fill="white"/>
<path d="M90.6497 73.887C90.6742 74.8671 90.8328 75.1938 91.0768 75.2818C91.2842 75.3571 91.516 75.3697 91.7112 75.3697C91.8454 75.3697 91.9186 75.3949 91.9186 75.4703C91.9186 75.5708 91.8088 75.5959 91.638 75.5959C90.8449 75.5959 90.3569 75.5582 90.1251 75.5582C90.0153 75.5582 89.4419 75.5959 88.8075 75.5959C88.6489 75.5959 88.5391 75.5834 88.5391 75.4703C88.5391 75.3949 88.6123 75.3697 88.7343 75.3697C88.8929 75.3697 89.1125 75.3572 89.2833 75.3069C89.6005 75.2064 89.6493 74.842 89.6615 73.7488L89.7713 66.3101C89.7713 66.0587 89.8079 65.8828 89.9299 65.8828C90.0642 65.8828 90.174 66.0462 90.3813 66.2723C90.5277 66.4357 92.3822 68.4839 94.1635 70.3058C94.9931 71.1603 96.6402 72.9697 96.8476 73.1708H96.9086L96.7866 67.5289C96.7744 66.7624 96.6646 66.5237 96.3718 66.398C96.1888 66.3226 95.896 66.3226 95.7252 66.3226C95.5788 66.3226 95.53 66.2849 95.53 66.2095C95.53 66.109 95.6641 66.0964 95.8472 66.0964C96.4816 66.0964 97.0672 66.1342 97.3235 66.1342C97.4576 66.1342 97.9212 66.0964 98.5191 66.0964C98.6777 66.0964 98.7997 66.109 98.7997 66.2095C98.7997 66.2849 98.7265 66.3226 98.5801 66.3226C98.4581 66.3226 98.3605 66.3226 98.214 66.3603C97.8724 66.4608 97.7749 66.7247 97.7626 67.4284L97.6285 75.3571C97.6285 75.6336 97.5796 75.7467 97.4699 75.7467C97.3356 75.7467 97.1892 75.6085 97.055 75.4703C96.2864 74.7163 94.7247 73.0703 93.4559 71.776C92.126 70.419 90.7717 68.8483 90.5522 68.6095H90.5156L90.6497 73.887Z" fill="white"/>
<path d="M108.493 74.7475C108.493 75.0868 108.481 75.1119 108.335 75.1999C107.542 75.6271 106.346 75.7653 105.394 75.7653C102.405 75.7653 99.7578 74.3077 99.7578 70.8397C99.7578 68.8292 100.77 67.4219 101.881 66.7308C103.052 66.002 104.138 65.9141 105.163 65.9141C106.004 65.9141 107.078 66.0648 107.322 66.1151C107.578 66.1653 108.005 66.2407 108.286 66.2533C108.432 66.2659 108.457 66.3161 108.457 66.4041C108.457 66.5423 108.372 66.8941 108.372 68.4648C108.372 68.6658 108.335 68.7287 108.237 68.7287C108.152 68.7287 108.127 68.6658 108.115 68.5653C108.079 68.2763 108.018 67.8743 107.701 67.5224C107.335 67.1203 106.358 66.5423 104.98 66.5423C104.309 66.5423 103.418 66.5926 102.564 67.3214C101.881 67.9119 101.442 68.8543 101.442 70.3999C101.442 73.1015 103.113 75.1245 105.687 75.1245C106.004 75.1245 106.432 75.1245 106.724 74.9863C106.907 74.8983 106.956 74.735 106.956 74.5214V73.3402C106.956 72.7119 106.956 72.2344 106.944 71.8575C106.932 71.4303 106.822 71.2292 106.42 71.1413C106.321 71.1161 106.114 71.1035 105.943 71.1035C105.834 71.1035 105.76 71.0784 105.76 71.003C105.76 70.9025 105.846 70.8774 106.017 70.8774C106.651 70.8774 107.42 70.9151 107.786 70.9151C108.152 70.9151 108.81 70.8774 109.213 70.8774C109.372 70.8774 109.457 70.9025 109.457 71.003C109.457 71.0784 109.384 71.1035 109.299 71.1035C109.201 71.1035 109.116 71.1161 108.969 71.1413C108.639 71.204 108.518 71.4177 108.505 71.8575C108.493 72.2344 108.493 72.7371 108.493 73.3653V74.7475Z" fill="white"/>
<path d="M110.362 65.5767C110.239 65.451 110.227 65.4133 110.227 65.3505C110.227 65.3128 110.3 65.25 110.362 65.25C110.605 65.25 111.142 65.4133 111.374 65.4887C111.679 65.5767 111.728 65.6646 111.728 65.8531C111.728 66.6196 110.935 67.9641 110.386 68.5421C110.312 68.6175 110.263 68.6426 110.191 68.6426C110.154 68.6426 110.117 68.6175 110.117 68.5673C110.117 68.5421 110.129 68.5044 110.178 68.4039C110.398 67.9641 110.654 67.2227 110.654 66.4437C110.654 66.029 110.471 65.6898 110.362 65.5767Z" fill="white"/>
<path d="M112.67 75.4387C112.474 75.3507 112.438 75.2879 112.438 75.0114C112.438 74.3203 112.486 73.5664 112.499 73.3653C112.511 73.1768 112.548 73.0386 112.645 73.0386C112.755 73.0386 112.767 73.1517 112.767 73.2522C112.767 73.4156 112.816 73.6795 112.877 73.8931C113.145 74.8229 113.865 75.1622 114.621 75.1622C115.72 75.1622 116.256 74.3957 116.256 73.7297C116.256 73.1141 116.073 72.536 115.061 71.7193L114.5 71.2669C113.157 70.1863 112.694 69.3067 112.694 68.2889C112.694 66.9067 113.817 65.9141 115.512 65.9141C116.305 65.9141 116.818 66.0397 117.135 66.1276C117.245 66.1527 117.305 66.1905 117.305 66.2785C117.305 66.4418 117.257 66.8061 117.257 67.7863C117.257 68.0627 117.221 68.1633 117.122 68.1633C117.038 68.1633 117.001 68.0879 117.001 67.937C117.001 67.824 116.939 67.4344 116.684 67.1078C116.501 66.869 116.147 66.492 115.354 66.492C114.451 66.492 113.902 67.0324 113.902 67.7863C113.902 68.3643 114.183 68.8041 115.195 69.5957L115.537 69.8596C117.013 71.003 117.538 71.87 117.538 73.0637C117.538 73.7926 117.269 74.6596 116.39 75.2502C115.781 75.6523 115.098 75.7653 114.451 75.7653C113.743 75.7653 113.194 75.6774 112.67 75.4387Z" fill="white"/>
<path d="M123.49 69.7377C123.49 67.8278 123.49 67.4759 123.465 67.0739C123.441 66.6466 123.344 66.4455 122.941 66.3576C122.844 66.3325 122.636 66.3199 122.465 66.3199C122.331 66.3199 122.258 66.2948 122.258 66.2069C122.258 66.1189 122.343 66.0938 122.526 66.0938C123.173 66.0938 123.941 66.1315 124.197 66.1315C124.613 66.1315 125.54 66.0938 125.918 66.0938C126.686 66.0938 127.504 66.1691 128.163 66.634C128.504 66.8728 128.992 67.5137 128.992 68.3556C128.992 69.2854 128.614 70.1398 127.382 71.1702C128.467 72.5775 129.31 73.6959 130.03 74.4749C130.713 75.2037 131.213 75.2917 131.396 75.3293C131.53 75.3545 131.64 75.3671 131.737 75.3671C131.835 75.3671 131.884 75.4047 131.884 75.4676C131.884 75.5681 131.799 75.5932 131.652 75.5932H130.493C129.81 75.5932 129.505 75.5304 129.187 75.3545C128.663 75.0655 128.199 74.4749 127.516 73.5074C127.028 72.8162 126.467 71.9618 126.308 71.7733C126.248 71.6979 126.174 71.6853 126.089 71.6853L125.027 71.6602C124.966 71.6602 124.93 71.6853 124.93 71.7608V71.9367C124.93 73.1053 124.93 74.0979 124.991 74.6257C125.027 74.9901 125.1 75.2666 125.466 75.3168C125.649 75.3419 125.918 75.3671 126.064 75.3671C126.162 75.3671 126.211 75.4047 126.211 75.4676C126.211 75.5556 126.125 75.5932 125.966 75.5932C125.259 75.5932 124.356 75.5556 124.173 75.5556C123.941 75.5556 123.173 75.5932 122.685 75.5932C122.526 75.5932 122.441 75.5556 122.441 75.4676C122.441 75.4047 122.49 75.3671 122.636 75.3671C122.819 75.3671 122.965 75.3419 123.075 75.3168C123.319 75.2666 123.38 74.9901 123.429 74.6257C123.49 74.0979 123.49 73.1053 123.49 71.9492V69.7377ZM124.93 70.7304C124.93 70.8686 124.954 70.9189 125.039 70.9566C125.296 71.0445 125.662 71.0822 125.966 71.0822C126.455 71.0822 126.614 71.0319 126.833 70.8686C127.199 70.5922 127.552 70.0142 127.552 68.9838C127.552 67.1995 126.406 66.6843 125.686 66.6843C125.381 66.6843 125.162 66.6969 125.039 66.7346C124.954 66.7598 124.93 66.81 124.93 66.9105V70.7304Z" fill="white"/>
<path d="M131.008 70.8397C131.008 68.691 132.386 65.9141 136.046 65.9141C139.084 65.9141 140.975 67.736 140.975 70.6135C140.975 73.491 139.023 75.7653 135.924 75.7653C132.423 75.7653 131.008 73.0637 131.008 70.8397ZM139.267 71.0784C139.267 68.2638 137.694 66.5172 135.693 66.5172C134.29 66.5172 132.691 67.3214 132.691 70.4501C132.691 73.0637 134.095 75.137 136.437 75.137C137.291 75.137 139.267 74.7099 139.267 71.0784Z" fill="white"/>
<path d="M143.451 74.3957C142.255 73.3151 141.938 71.9078 141.938 70.6889C141.938 69.8345 142.194 68.3517 143.365 67.246C144.244 66.4166 145.403 65.9141 147.221 65.9141C147.977 65.9141 148.428 65.9643 148.99 66.0397C149.453 66.1025 149.843 66.2156 150.209 66.2533C150.344 66.2659 150.392 66.3287 150.392 66.4041C150.392 66.5046 150.356 66.6554 150.332 67.0952C150.308 67.5099 150.32 68.2009 150.295 68.4523C150.283 68.6407 150.258 68.7413 150.149 68.7413C150.051 68.7413 150.026 68.6407 150.026 68.4648C150.014 68.0753 149.856 67.6355 149.551 67.3088C149.148 66.869 148.197 66.5297 147.074 66.5297C146.013 66.5297 145.318 66.8061 144.781 67.3088C143.89 68.1507 143.658 69.3444 143.658 70.5632C143.658 73.5538 145.866 75.0365 147.501 75.0365C148.587 75.0365 149.246 74.9109 149.734 74.3329C149.941 74.0941 150.1 73.7297 150.149 73.5036C150.185 73.3025 150.209 73.2522 150.308 73.2522C150.392 73.2522 150.417 73.3402 150.417 73.4407C150.417 73.5915 150.271 74.6847 150.149 75.1119C150.088 75.3255 150.039 75.3884 149.831 75.4763C149.343 75.6774 148.416 75.7653 147.636 75.7653C145.964 75.7653 144.561 75.3884 143.451 74.3957Z" fill="white"/>
<path d="M154.862 68.5333H154.943C155.496 67.9134 157.871 65.4171 158.343 64.8474C158.798 64.2946 159.157 63.8757 159.157 63.5909C159.157 63.4067 159.091 63.2894 158.928 63.2558C158.782 63.2223 158.717 63.1889 158.717 63.0883C158.717 62.9711 158.798 62.9375 158.977 62.9375C159.319 62.9375 160.214 62.9878 160.653 62.9878C161.157 62.9878 162.052 62.9375 162.556 62.9375C162.719 62.9375 162.833 62.9711 162.833 63.0883C162.833 63.2056 162.751 63.2391 162.589 63.2391C162.361 63.2391 161.954 63.3061 161.645 63.4234C161.141 63.6245 160.588 63.9762 159.889 64.6799C159.384 65.1825 156.928 67.6956 156.374 68.2988C156.96 69.0862 160.149 72.6213 160.783 73.2412C161.499 73.9449 162.231 74.6988 163.11 75.0506C163.597 75.2517 163.923 75.3019 164.118 75.3019C164.232 75.3019 164.329 75.3354 164.329 75.436C164.329 75.5532 164.248 75.6035 163.939 75.6035H162.524C162.036 75.6035 161.742 75.6034 161.401 75.57C160.523 75.4862 160.084 75.1176 159.384 74.481C158.668 73.8276 155.464 69.9574 155.122 69.4716L154.943 69.2202H154.862V70.7448C154.862 72.2862 154.862 73.6098 154.91 74.3302C154.943 74.7993 155.089 75.1679 155.496 75.2349C155.724 75.2684 156.082 75.3019 156.293 75.3019C156.423 75.3019 156.505 75.3522 156.505 75.436C156.505 75.5532 156.374 75.6035 156.196 75.6035C155.285 75.6035 154.26 75.5532 153.853 75.5532C153.479 75.5532 152.454 75.6035 151.803 75.6035C151.592 75.6035 151.478 75.5532 151.478 75.436C151.478 75.3522 151.543 75.3019 151.738 75.3019C151.983 75.3019 152.178 75.2684 152.324 75.2349C152.65 75.1679 152.731 74.7993 152.796 74.3134C152.877 73.6098 152.877 72.2862 152.877 70.7448V67.7961C152.877 65.2496 152.877 64.7805 152.845 64.2443C152.812 63.6747 152.682 63.4067 152.145 63.2894C152.015 63.2558 151.738 63.2391 151.511 63.2391C151.332 63.2391 151.234 63.2056 151.234 63.0883C151.234 62.9711 151.348 62.9375 151.592 62.9375C152.454 62.9375 153.479 62.9878 153.87 62.9878C154.26 62.9878 155.285 62.9375 155.838 62.9375C156.066 62.9375 156.179 62.9711 156.179 63.0883C156.179 63.2056 156.082 63.2391 155.952 63.2391C155.789 63.2391 155.691 63.2558 155.496 63.2894C155.057 63.3731 154.927 63.6579 154.894 64.2443C154.862 64.7805 154.862 65.2496 154.862 67.7961V68.5333Z" fill="white"/>
<path d="M90.0126 80.4573L89.9883 80.4698C89.8419 80.3316 89.671 80.2227 89.4677 80.1389C89.2644 80.0552 89.0407 80.0174 88.8007 80.0174C88.5608 80.0174 88.3534 80.0552 88.1582 80.1306C87.9629 80.2059 87.7962 80.3149 87.6579 80.4573C87.5197 80.5997 87.4099 80.7756 87.3326 80.985C87.2554 81.1944 87.2147 81.429 87.2147 81.6971C87.2147 81.9902 87.2513 82.2625 87.3245 82.5138C87.3977 82.7651 87.5074 82.9871 87.6539 83.1714C87.8003 83.3557 87.9833 83.5023 88.2029 83.607C88.4225 83.7117 88.6787 83.7662 88.9716 83.7662C89.0773 83.7662 89.183 83.7536 89.2887 83.7326C89.3945 83.7117 89.4962 83.674 89.5937 83.6321C89.6914 83.5861 89.7808 83.5316 89.8703 83.4688C89.9557 83.406 90.033 83.3306 90.1062 83.251L90.1387 83.2719L89.9151 83.8541C89.7768 83.9086 89.6222 83.9504 89.4555 83.9797C89.2887 84.0091 89.118 84.0258 88.9471 84.0258C88.6055 84.0258 88.2924 83.9756 88.0077 83.8709C87.723 83.7704 87.479 83.6238 87.2756 83.4353C87.0723 83.2468 86.9097 83.0248 86.7958 82.7609C86.6819 82.4971 86.625 82.208 86.625 81.8856C86.625 81.7054 86.6494 81.5253 86.6941 81.3494C86.7388 81.1735 86.8039 81.0059 86.8934 80.8468C86.9788 80.6876 87.0886 80.541 87.2147 80.4112C87.3407 80.2771 87.4872 80.1641 87.6539 80.0678C87.8165 79.9714 87.9995 79.896 88.1948 79.8415C88.3941 79.7871 88.6055 79.7578 88.8373 79.7578C89.1952 79.7578 89.5287 79.8122 89.8337 79.9254L90.0208 80.453L90.0126 80.4573Z" fill="white" stroke="white" stroke-width="0.5" stroke-miterlimit="10"/>
<path d="M94.1684 79.7584C94.4775 79.7584 94.7622 79.8087 95.0265 79.9134C95.2868 80.0181 95.5145 80.1647 95.7057 80.349C95.8968 80.5375 96.0473 80.7636 96.153 81.0275C96.2587 81.2914 96.3157 81.5804 96.3157 81.8987C96.3157 82.0788 96.2953 82.2589 96.2547 82.4349C96.214 82.6108 96.153 82.7783 96.0757 82.9333C95.9984 83.0883 95.9009 83.2349 95.787 83.3689C95.6732 83.5029 95.543 83.616 95.3925 83.7123C95.2461 83.8086 95.0834 83.884 94.9045 83.9385C94.7256 83.993 94.5344 84.0181 94.327 84.0181C94.0179 84.0181 93.7333 83.9678 93.4689 83.8631C93.2086 83.7626 92.9809 83.616 92.7898 83.4275C92.5986 83.239 92.4481 83.0171 92.3424 82.7532C92.2366 82.4893 92.1797 82.2003 92.1797 81.8777C92.1797 81.6977 92.2 81.5176 92.2407 81.3416C92.2814 81.1657 92.3424 80.9982 92.4197 80.839C92.4969 80.6799 92.5946 80.5333 92.7084 80.4034C92.8223 80.2694 92.9524 80.1563 93.0988 80.06C93.2452 79.9636 93.4079 79.8882 93.5869 79.8338C93.7658 79.7794 93.9569 79.75 94.1643 79.75L94.1684 79.7584ZM94.327 83.7626C94.5344 83.7626 94.7215 83.7249 94.8923 83.6495C95.0631 83.5741 95.2095 83.461 95.3315 83.3186C95.4535 83.1762 95.5511 82.9961 95.6202 82.7867C95.6894 82.5772 95.7219 82.3427 95.7219 82.0747C95.7219 81.7814 95.6894 81.5092 95.6243 81.2579C95.5593 81.0065 95.4616 80.7887 95.3315 80.6045C95.2013 80.4202 95.0387 80.2778 94.8476 80.1731C94.6524 80.0684 94.4287 80.0181 94.1724 80.0181C93.9651 80.0181 93.778 80.0558 93.6071 80.1312C93.4364 80.2066 93.29 80.3155 93.168 80.4579C93.046 80.6003 92.9484 80.7762 92.8792 80.9857C92.81 81.195 92.7775 81.4296 92.7775 81.6977C92.7775 81.9909 92.81 82.2631 92.8751 82.5144C92.9402 82.7657 93.0378 82.9877 93.168 83.172C93.2981 83.3563 93.4608 83.5029 93.656 83.6076C93.8512 83.7123 94.0749 83.7668 94.3351 83.7668L94.327 83.7626Z" fill="white" stroke="white" stroke-width="0.5" stroke-miterlimit="10"/>
<path d="M101.5 80.9511C101.5 80.7879 101.5 80.6454 101.496 80.524C101.496 80.4025 101.488 80.2977 101.48 80.2098C101.471 80.1218 101.463 80.0465 101.455 79.9879C101.447 79.9292 101.435 79.8789 101.423 79.837V79.8245H101.919V79.837C101.907 79.8789 101.898 79.925 101.886 79.9879C101.878 80.0465 101.866 80.1218 101.862 80.2098C101.854 80.2977 101.85 80.4025 101.846 80.524C101.842 80.6454 101.837 80.7879 101.837 80.9511V82.4967C101.837 82.769 101.801 83.0035 101.724 83.1962C101.646 83.3888 101.541 83.548 101.406 83.6695C101.272 83.791 101.11 83.8831 100.918 83.9376C100.731 83.992 100.524 84.0213 100.3 84.0213C100.077 84.0213 99.8651 83.9962 99.6739 83.9417C99.4787 83.8873 99.312 83.8035 99.1696 83.682C99.0273 83.5606 98.9134 83.4098 98.8321 83.2171C98.7507 83.0286 98.7101 82.7941 98.7101 82.5218V80.947C98.7101 80.7836 98.7101 80.6413 98.706 80.5198C98.706 80.3983 98.6979 80.2936 98.6898 80.2057C98.6816 80.1177 98.6735 80.0423 98.6654 79.9836C98.6572 79.925 98.645 79.8747 98.6328 79.8328V79.8203H99.2998V79.8328C99.2875 79.8747 99.2794 79.9208 99.2673 79.9836C99.2591 80.0423 99.2469 80.1177 99.2428 80.2057C99.2347 80.2936 99.2307 80.3983 99.2266 80.5198C99.2266 80.6413 99.2225 80.7836 99.2225 80.947V82.5512C99.2225 82.7774 99.255 82.9659 99.3201 83.1124C99.3852 83.259 99.4746 83.3763 99.5804 83.4642C99.6861 83.5522 99.8081 83.6109 99.9464 83.6444C100.085 83.6779 100.223 83.6946 100.365 83.6946C100.508 83.6946 100.646 83.6779 100.784 83.6444C100.922 83.6109 101.044 83.548 101.15 83.4642C101.256 83.3763 101.341 83.259 101.41 83.1124C101.476 82.9659 101.508 82.7774 101.508 82.5512V80.947L101.5 80.9511Z" fill="white" stroke="white" stroke-width="0.5" stroke-miterlimit="10"/>
<path d="M104.55 79.8245L107.413 82.9617V80.947C107.413 80.7837 107.413 80.6413 107.409 80.5198C107.409 80.3983 107.401 80.2936 107.392 80.2057C107.385 80.1177 107.376 80.0423 107.368 79.9837C107.36 79.9251 107.348 79.8748 107.336 79.8329V79.8203H107.832V79.8329C107.82 79.8748 107.811 79.9208 107.799 79.9837C107.791 80.0423 107.783 80.1177 107.775 80.2057C107.767 80.2936 107.763 80.3983 107.758 80.5198C107.758 80.6413 107.755 80.7837 107.755 80.947V83.9879H107.657L104.794 80.8507V82.8109C104.794 82.9743 104.794 83.1167 104.798 83.234C104.798 83.3554 104.806 83.4601 104.814 83.5481C104.822 83.636 104.83 83.7072 104.839 83.7701C104.847 83.8287 104.859 83.879 104.871 83.9209V83.9335H104.375V83.9209C104.387 83.879 104.395 83.8329 104.408 83.7701C104.42 83.7072 104.428 83.636 104.432 83.5481C104.44 83.4601 104.444 83.3554 104.448 83.234C104.448 83.1125 104.452 82.9701 104.452 82.8109V80.947C104.452 80.7837 104.452 80.6413 104.448 80.5198C104.448 80.3983 104.44 80.2936 104.432 80.2057C104.424 80.1177 104.416 80.0423 104.408 79.9837C104.399 79.9251 104.387 79.8748 104.375 79.8329V79.8203H104.554L104.55 79.8245Z" fill="white" stroke="white" stroke-width="0.5" stroke-miterlimit="10"/>
<path d="M111.355 80.0812C111.135 80.0812 110.939 80.0895 110.76 80.1105C110.586 80.1314 110.431 80.1524 110.305 80.1733C110.158 80.2026 110.024 80.2319 109.906 80.2696L109.987 79.8047C110.008 79.8047 110.045 79.8047 110.089 79.8089C110.134 79.8089 110.183 79.8089 110.24 79.8131C110.293 79.8131 110.353 79.8131 110.411 79.8131C110.471 79.8131 110.529 79.8131 110.582 79.8131C110.635 79.8131 110.683 79.8131 110.724 79.8131C110.765 79.8131 110.797 79.8131 110.813 79.8131H112.4C112.4 79.8131 112.448 79.8131 112.489 79.8131C112.53 79.8131 112.578 79.8131 112.631 79.8131C112.684 79.8131 112.741 79.8131 112.802 79.8131C112.863 79.8131 112.92 79.8131 112.973 79.8131C113.026 79.8131 113.079 79.8131 113.123 79.8089C113.168 79.8089 113.201 79.8089 113.225 79.8047L113.306 80.2696C113.189 80.2361 113.055 80.2026 112.908 80.1733C112.782 80.1524 112.627 80.1272 112.453 80.1105C112.277 80.0895 112.078 80.0812 111.858 80.0812V82.8162C111.858 82.9796 111.858 83.122 111.867 83.2392C111.871 83.3607 111.875 83.4655 111.883 83.5534C111.891 83.6414 111.899 83.7126 111.907 83.7754C111.916 83.8382 111.928 83.8843 111.94 83.9262V83.9387H111.277V83.9262C111.289 83.8843 111.297 83.8382 111.309 83.7754C111.318 83.7167 111.326 83.6414 111.334 83.5534C111.342 83.4655 111.346 83.3607 111.35 83.2392C111.35 83.1178 111.355 82.9754 111.355 82.8162V80.0812Z" fill="white" stroke="white" stroke-width="0.5" stroke-miterlimit="10"/>
<path d="M116.008 82.8173C116.008 82.9807 116.008 83.1231 116.016 83.2404C116.02 83.3618 116.024 83.4665 116.032 83.5545C116.04 83.6424 116.049 83.7136 116.056 83.7765C116.065 83.8394 116.077 83.8854 116.089 83.9273V83.9399H115.422V83.9273C115.434 83.8854 115.442 83.8394 115.454 83.7765C115.463 83.7178 115.475 83.6424 115.479 83.5545C115.487 83.4665 115.491 83.3618 115.495 83.2404C115.5 83.1189 115.503 82.9765 115.503 82.8131V80.9493C115.503 80.7859 115.503 80.6435 115.495 80.522C115.491 80.4006 115.487 80.2959 115.479 80.2079C115.471 80.12 115.463 80.0445 115.454 79.9859C115.447 79.9273 115.434 79.877 115.422 79.8351V79.8225L115.54 79.8351C115.577 79.8351 115.613 79.8393 115.658 79.8435C115.702 79.8435 115.748 79.8435 115.792 79.8435C115.866 79.8435 115.963 79.8351 116.085 79.8142C116.207 79.7974 116.366 79.7891 116.557 79.7891C116.735 79.7891 116.899 79.8142 117.049 79.8644C117.199 79.9147 117.329 79.9859 117.443 80.0822C117.553 80.1786 117.642 80.2959 117.703 80.4341C117.765 80.5723 117.797 80.7315 117.797 80.9032C117.797 81.0414 117.781 81.1671 117.744 81.2844C117.712 81.4016 117.663 81.5063 117.598 81.6027C117.536 81.699 117.459 81.7827 117.374 81.8582C117.289 81.9293 117.191 81.9922 117.081 82.0424L118.057 83.454C118.106 83.5251 118.151 83.5838 118.191 83.6383C118.232 83.6885 118.273 83.7346 118.309 83.7723C118.346 83.81 118.383 83.8394 118.419 83.8645C118.456 83.8896 118.492 83.9063 118.529 83.9189V83.9314H117.724C117.719 83.8938 117.7 83.8477 117.671 83.7848C117.638 83.7262 117.606 83.6634 117.565 83.6048L116.581 82.1765C116.54 82.1765 116.496 82.1849 116.455 82.1849C116.415 82.1849 116.369 82.189 116.325 82.189C116.272 82.189 116.219 82.189 116.167 82.1849C116.114 82.1849 116.061 82.1723 116.008 82.1639V82.809V82.8173ZM116.008 81.9503C116.056 81.9629 116.109 81.9712 116.162 81.9754C116.215 81.9797 116.264 81.9838 116.313 81.9838C116.451 81.9838 116.577 81.9629 116.695 81.921C116.809 81.8791 116.906 81.8121 116.988 81.7241C117.069 81.6362 117.13 81.5273 117.175 81.3974C117.219 81.2676 117.24 81.1126 117.24 80.9367C117.24 80.7943 117.224 80.6644 117.191 80.5471C117.159 80.4299 117.114 80.3335 117.049 80.2498C116.988 80.1702 116.906 80.1074 116.813 80.0613C116.719 80.0152 116.61 79.9943 116.484 79.9943C116.357 79.9943 116.256 80.0027 116.179 80.0152C116.101 80.0278 116.044 80.0445 116.008 80.0571V81.9545V81.9503Z" fill="white" stroke="white" stroke-width="0.5" stroke-miterlimit="10"/>
<path d="M121.996 81.9642V82.8145C121.996 82.9778 121.996 83.1203 122 83.2375C122 83.359 122.008 83.4637 122.016 83.5517C122.025 83.6397 122.032 83.7109 122.041 83.7737C122.049 83.8365 122.061 83.8826 122.073 83.9244V83.937H121.406V83.9244C121.419 83.8826 121.426 83.8365 121.439 83.7737C121.447 83.715 121.459 83.6397 121.463 83.5517C121.471 83.4637 121.475 83.359 121.479 83.2375C121.484 83.1161 121.488 82.9737 121.488 82.8145V82.0229L120.243 80.2805C120.203 80.2218 120.157 80.1674 120.117 80.1171C120.076 80.0669 120.036 80.025 119.999 79.9872C119.962 79.9496 119.93 79.9203 119.897 79.8952C119.869 79.87 119.844 79.8533 119.828 79.8407V79.8281H120.67C120.67 79.87 120.687 79.9454 120.723 80.0459C120.759 80.1464 120.824 80.2637 120.918 80.3977L121.829 81.6836L122.72 80.3391C122.752 80.293 122.781 80.2428 122.813 80.1925C122.846 80.1423 122.875 80.0962 122.899 80.0501C122.923 80.004 122.947 79.9621 122.959 79.9245C122.972 79.8867 122.984 79.8533 122.984 79.8281H123.525V79.8407C123.484 79.8784 123.431 79.9286 123.362 80.004C123.293 80.0752 123.22 80.1716 123.139 80.2889L121.984 81.9684L121.996 81.9642Z" fill="white" stroke="white" stroke-width="0.5" stroke-miterlimit="10"/>
<path d="M132.263 80.4573L132.238 80.4698C132.092 80.3316 131.921 80.2227 131.718 80.1389C131.515 80.0552 131.291 80.0174 131.051 80.0174C130.811 80.0174 130.604 80.0552 130.408 80.1306C130.213 80.2059 130.046 80.3149 129.908 80.4573C129.769 80.5996 129.66 80.7756 129.583 80.985C129.505 81.1944 129.465 81.429 129.465 81.6971C129.465 81.9902 129.502 82.2625 129.574 82.5138C129.648 82.7651 129.757 82.9871 129.904 83.1714C130.051 83.3557 130.234 83.5023 130.453 83.607C130.672 83.7117 130.929 83.7661 131.221 83.7661C131.327 83.7661 131.433 83.7536 131.539 83.7326C131.645 83.7117 131.746 83.674 131.844 83.6321C131.941 83.5861 132.031 83.5316 132.121 83.4688C132.206 83.406 132.283 83.3305 132.356 83.251L132.389 83.2719L132.165 83.8541C132.027 83.9085 131.872 83.9504 131.705 83.9797C131.539 84.0091 131.368 84.0258 131.197 84.0258C130.855 84.0258 130.542 83.9756 130.258 83.8709C129.973 83.7704 129.729 83.6238 129.526 83.4353C129.322 83.2468 129.16 83.0248 129.046 82.7609C128.932 82.4971 128.875 82.208 128.875 81.8856C128.875 81.7054 128.9 81.5253 128.944 81.3494C128.989 81.1735 129.054 81.0059 129.143 80.8468C129.229 80.6876 129.338 80.541 129.465 80.4112C129.591 80.2771 129.737 80.164 129.904 80.0677C130.07 79.9714 130.25 79.896 130.445 79.8415C130.644 79.7871 130.855 79.7578 131.087 79.7578C131.445 79.7578 131.779 79.8122 132.084 79.9254L132.271 80.453L132.263 80.4573Z" fill="white" stroke="white" stroke-width="0.5" stroke-miterlimit="10"/>
<path d="M135.183 83.6774C135.403 83.6774 135.602 83.669 135.785 83.6481C135.968 83.6271 136.131 83.6062 136.265 83.5811C136.424 83.5559 136.57 83.5224 136.7 83.4847L136.619 83.9496C136.599 83.9496 136.562 83.9496 136.517 83.9454C136.472 83.9454 136.424 83.9454 136.366 83.9413C136.314 83.9413 136.253 83.9413 136.196 83.9413C136.135 83.9413 136.078 83.9413 136.025 83.9413C135.972 83.9413 135.923 83.9413 135.882 83.9413C135.842 83.9413 135.81 83.9413 135.793 83.9413H134.594V83.9287C134.606 83.8868 134.614 83.8408 134.626 83.7779C134.634 83.7193 134.647 83.6438 134.65 83.5559C134.659 83.4679 134.663 83.3633 134.667 83.2418C134.667 83.1203 134.671 82.9779 134.671 82.8187V80.9549C134.671 80.7915 134.671 80.6491 134.667 80.5276C134.667 80.4061 134.659 80.3015 134.65 80.2135C134.643 80.1256 134.634 80.0502 134.626 79.9915C134.618 79.9329 134.606 79.8826 134.594 79.8407V79.8281H135.261V79.8407C135.249 79.8826 135.24 79.9287 135.228 79.9915C135.215 80.0543 135.208 80.1256 135.203 80.2135C135.196 80.3015 135.191 80.4061 135.187 80.5276C135.183 80.6491 135.179 80.7915 135.179 80.9549V83.6857L135.183 83.6774Z" fill="white" stroke="white" stroke-width="0.5" stroke-miterlimit="10"/>
<path d="M141.773 80.9511C141.773 80.7879 141.773 80.6454 141.77 80.524C141.77 80.4025 141.761 80.2977 141.753 80.2098C141.745 80.1218 141.737 80.0465 141.729 79.9879C141.72 79.9292 141.708 79.8789 141.696 79.837V79.8245H142.192V79.837C142.18 79.8789 142.172 79.925 142.16 79.9879C142.148 80.0506 142.139 80.1218 142.136 80.2098C142.127 80.2977 142.123 80.4025 142.12 80.524C142.115 80.6454 142.111 80.7879 142.111 80.9511V82.4967C142.111 82.769 142.074 83.0035 141.997 83.1962C141.92 83.3888 141.814 83.548 141.68 83.6695C141.546 83.791 141.383 83.8831 141.192 83.9376C141.005 83.992 140.798 84.0213 140.574 84.0213C140.35 84.0213 140.138 83.9962 139.948 83.9417C139.752 83.8873 139.585 83.8035 139.443 83.682C139.301 83.5606 139.187 83.4098 139.105 83.2171C139.024 83.0286 138.984 82.7941 138.984 82.5218V80.947C138.984 80.7836 138.984 80.6413 138.98 80.5198C138.98 80.3983 138.971 80.2936 138.963 80.2057C138.955 80.1177 138.947 80.0423 138.939 79.9836C138.931 79.925 138.918 79.8747 138.906 79.8328V79.8203H139.573V79.8328C139.561 79.8747 139.553 79.9208 139.541 79.9836C139.529 80.0465 139.52 80.1177 139.517 80.2057C139.508 80.2936 139.504 80.3983 139.5 80.5198C139.5 80.6413 139.496 80.7836 139.496 80.947V82.5512C139.496 82.7774 139.529 82.9659 139.594 83.1124C139.659 83.259 139.744 83.3763 139.854 83.4642C139.96 83.5522 140.082 83.6109 140.22 83.6444C140.358 83.6779 140.497 83.6946 140.639 83.6946C140.781 83.6946 140.919 83.6779 141.058 83.6444C141.196 83.6109 141.318 83.548 141.424 83.4642C141.53 83.3763 141.615 83.259 141.684 83.1124C141.749 82.9659 141.782 82.7774 141.782 82.5512V80.947L141.773 80.9511Z" fill="white" stroke="white" stroke-width="0.5" stroke-miterlimit="10"/>
<path d="M144.749 80.9499C144.749 80.7865 144.749 80.6441 144.745 80.5226C144.745 80.4012 144.737 80.2965 144.729 80.2085C144.721 80.1205 144.713 80.0451 144.704 79.9865C144.697 79.9278 144.684 79.8776 144.672 79.8357V79.8232C144.709 79.8232 144.749 79.8232 144.79 79.8232C144.827 79.8232 144.863 79.8232 144.908 79.8232H145.042C145.107 79.8232 145.2 79.8148 145.315 79.8022C145.429 79.7897 145.575 79.7812 145.754 79.7812C145.92 79.7812 146.075 79.8022 146.213 79.8483C146.355 79.8944 146.478 79.9572 146.579 80.041C146.681 80.1247 146.762 80.2295 146.819 80.3509C146.876 80.4766 146.909 80.6148 146.909 80.7697C146.909 80.8996 146.892 81.0211 146.856 81.1216C146.819 81.2263 146.77 81.3143 146.705 81.3938C146.64 81.4692 146.563 81.5363 146.473 81.5865C146.384 81.6368 146.286 81.6787 146.177 81.7121C146.335 81.7373 146.478 81.7792 146.608 81.8378C146.738 81.8965 146.848 81.9677 146.941 82.0556C147.034 82.1436 147.108 82.2483 147.157 82.3614C147.21 82.4787 147.234 82.6085 147.234 82.7509C147.234 83.153 147.104 83.4545 146.848 83.6556C146.591 83.8567 146.205 83.9572 145.693 83.9572C145.636 83.9572 145.571 83.9572 145.498 83.9488C145.424 83.9446 145.347 83.9404 145.27 83.932C145.193 83.9237 145.119 83.9195 145.042 83.9153C144.969 83.9111 144.904 83.9069 144.847 83.9069H144.664V83.8943C144.676 83.8525 144.684 83.8064 144.697 83.7436C144.709 83.6808 144.716 83.6096 144.721 83.5216C144.729 83.4336 144.733 83.3289 144.737 83.2074C144.737 83.086 144.741 82.9436 144.741 82.7844V80.9205L144.749 80.9499ZM145.253 81.687C145.306 81.6912 145.351 81.6954 145.392 81.6954C145.432 81.6954 145.477 81.6954 145.522 81.6954C145.648 81.6954 145.762 81.6787 145.867 81.6409C145.973 81.6033 146.059 81.5488 146.132 81.4734C146.205 81.398 146.262 81.3059 146.302 81.1928C146.343 81.0797 146.364 80.9499 146.364 80.8033C146.364 80.6776 146.348 80.5645 146.319 80.464C146.29 80.3634 146.246 80.2755 146.189 80.2043C146.132 80.1331 146.059 80.0787 145.973 80.041C145.888 80.0032 145.79 79.9823 145.681 79.9823C145.612 79.9823 145.55 79.9823 145.498 79.9907C145.445 79.9991 145.4 80.0032 145.364 80.0116C145.323 80.02 145.286 80.0284 145.253 80.041V81.6828V81.687ZM145.766 81.9006C145.64 81.9006 145.534 81.9048 145.449 81.9132C145.364 81.9216 145.299 81.9341 145.249 81.9425V82.8096C145.249 83.0315 145.249 83.2158 145.262 83.3624C145.27 83.5091 145.278 83.6263 145.294 83.7184C145.364 83.7269 145.436 83.7352 145.506 83.7436C145.575 83.752 145.632 83.7562 145.677 83.7562C146.022 83.7562 146.278 83.6765 146.437 83.5174C146.596 83.3582 146.677 83.1153 146.677 82.7844C146.677 82.6546 146.656 82.5373 146.62 82.4284C146.583 82.3195 146.526 82.2274 146.449 82.1477C146.376 82.0682 146.278 82.0095 146.165 81.9677C146.05 81.9258 145.916 81.9048 145.766 81.9048V81.9006Z" fill="white" stroke="white" stroke-width="0.5" stroke-miterlimit="10"/>
</g>
</g>
<defs>
<clipPath id="clip0_506_1167">
<rect width="130" height="36" fill="white" transform="translate(35 52)"/>
</clipPath>
</defs>
</svg>
