<svg width="170" height="136" viewBox="0 0 170 136" fill="none" xmlns="http://www.w3.org/2000/svg">
<g clip-path="url(#clip0_783_1972)">
<path d="M62.8237 68.8458C63.6675 68.8458 64.1939 68.374 64.1939 67.7169V67.6967C64.1939 66.9554 63.6573 66.5611 62.8237 66.5611H61.5278V68.8458H62.8237ZM60.4141 65.5502H62.9149C64.3964 65.5502 65.3279 66.3893 65.3279 67.6698V67.6866C65.3279 69.1086 64.1838 69.8499 62.7866 69.8499H61.5278V71.8852H60.4141V65.5469V65.5502Z" fill="white"/>
<path d="M71.4961 68.6986C72.2926 68.6986 72.8022 68.2774 72.8022 67.6338V67.6203C72.8022 66.9363 72.3094 66.569 71.486 66.569H69.8626V68.6986H71.4961ZM68.7456 65.5547H71.5771C72.3736 65.5547 72.9945 65.7906 73.4063 66.1882C73.7404 66.5319 73.9328 67.0036 73.9328 67.5563V67.5765C73.9328 68.6177 73.3084 69.2445 72.4174 69.4972L74.1319 71.8964H72.819L71.2599 69.6893H69.8593V71.8964H68.7422V65.5581L68.7456 65.5547Z" fill="white"/>
<path d="M77.4805 69.204V65.5547H78.5942V69.1569C78.5942 70.3363 79.205 70.9664 80.2006 70.9664C81.1962 70.9664 81.797 70.37 81.797 69.204V65.5547H82.9107V69.1468C82.9107 71.0405 81.8408 71.9941 80.1804 71.9941C78.5199 71.9941 77.4805 71.0405 77.4805 69.204Z" fill="white"/>
<path d="M86.1953 68.7442V68.724C86.1953 66.9516 87.5554 65.4453 89.469 65.4453C90.5759 65.4453 91.2543 65.7553 91.909 66.3079L91.1969 67.1504C90.7075 66.7359 90.2351 66.4731 89.4217 66.4731C88.2506 66.4731 87.3664 67.4941 87.3664 68.7072V68.7274C87.3664 70.0348 88.227 70.9918 89.5229 70.9918C90.1203 70.9918 90.667 70.7997 91.0585 70.5133V69.3305H89.4352V68.3601H92.1385V71.0221C91.5108 71.5545 90.613 72.0061 89.4892 72.0061C87.5014 72.0061 86.1953 70.5975 86.1953 68.7476" fill="white"/>
<path d="M96.8085 65.5547H95.6914V71.893H96.8085V65.5547Z" fill="white"/>
<path d="M105.725 68.7442V68.724C105.725 67.4941 104.827 66.4697 103.569 66.4697C102.31 66.4697 101.426 67.4739 101.426 68.7038V68.724C101.426 69.9539 102.323 70.9817 103.582 70.9817C104.841 70.9817 105.725 69.9742 105.725 68.7442ZM100.258 68.7442V68.724C100.258 66.9381 101.635 65.4453 103.582 65.4453C105.529 65.4453 106.896 66.9246 106.896 68.7038V68.724C106.896 70.5066 105.519 71.9993 103.569 71.9993C101.618 71.9993 100.261 70.5268 100.261 68.7409" fill="white"/>
<path d="M56.6095 52.6136C56.6095 56.1585 54.4327 57.1795 50.8857 57.1795C47.3387 57.1795 45.1282 56.0473 45.1282 52.4822V38.6328H41.1289V49.6954C41.1289 55.2723 44.902 58.1567 50.8182 58.1567C56.7344 58.1567 60.6088 55.2756 60.6088 49.5303V38.6328H56.6095V52.6136Z" fill="white"/>
<path d="M128.831 38.6328H124.828V57.8602H128.831V38.6328Z" fill="white"/>
<path d="M109.321 38.6328L109.804 40.1357L105.967 50.2481L102.227 38.6328H98.2245L98.7105 40.1391L91.9844 57.8635H93.223L99.2775 41.9081L104.421 57.8635H108.42L106.537 52.0205L110.374 41.9081L115.514 57.8635H119.513L113.317 38.6328H109.321Z" fill="white"/>
<path d="M80.6582 38.6328L81.1475 40.1391L77.3103 50.2481L73.5675 38.6328H69.5683L70.0543 40.1357L63.3281 57.8635H64.5701L70.6246 41.9048L75.7646 57.8635H79.7605L77.8773 52.0205L81.7179 41.9081L86.8579 57.8635H90.8571L84.6608 38.6328H80.6582Z" fill="white"/>
<path d="M28.7085 46.1613C24.1794 45.265 23.0995 43.9306 23.0995 42.4143C23.0995 41.5617 23.0387 39.1457 28.371 39.1457C30.5343 39.1457 32.6639 40.0858 34.7901 41.4034L35.5967 40.4666C33.2005 38.866 30.4635 38 27.0211 38C22.3232 38 18.945 40.0926 18.945 43.4555V43.5128C18.945 47.1251 21.7799 48.2337 26.8152 49.2412C31.2059 50.0836 32.1543 52.0347 32.1543 53.4365C32.1543 58.2012 25.3708 58.0496 18.9213 54.0666L18 55.0337C20.8349 57.1364 24.8612 58.1742 27.8614 58.1742C32.8293 58.1742 36.3088 55.9873 36.3088 52.3177V52.2605C36.3088 49.0121 33.7067 47.1722 28.7052 46.1613" fill="white"/>
<path d="M151.998 38.6328H133.527V39.8425H140.591V57.8635H144.594V39.8425H151.998V38.6328Z" fill="white"/>
</g>
<path d="M19.2772 116.234V120.234H21.1991V121.875H19.2772V126.703H17.2772V116.234H19.2772ZM19.7928 128.594V130.188H10.0584V125.625H12.0428V128.594H19.7928ZM10.4022 117.234V119.297H13.3084V117.234H15.3084V124.438H8.41782V117.234H10.4022ZM10.4022 122.875H13.3084V120.828H10.4022V122.875ZM34.1997 127.188V128.859H21.1841V127.188H26.6528V124.625H22.2622V123.062H24.1684V119H22.1997V117.406H33.1059V119H31.1059V123.062H33.0434V124.625H28.6372V127.188H34.1997ZM26.1684 123.062H29.1372V119H26.1684V123.062ZM49.6384 116.219V126.859H47.7478V116.219H49.6384ZM46.7634 116.438V126.438H44.8728V121.094H43.1384V119.469H44.8728V116.438H46.7634ZM49.9978 128.594V130.188H39.9978V125.609H41.9978V128.594H49.9978ZM41.9041 119.031C41.9041 120.672 42.6072 122.297 44.4353 123.141L43.3259 124.672C42.1853 124.133 41.4197 123.242 40.9509 122.156C40.4509 123.391 39.5994 124.43 38.3416 125.016L37.2478 123.5C39.1853 122.562 39.9666 120.719 39.9666 119.031V117.172H41.9041V119.031ZM62.2016 123.562V125.141H52.1391V117.266H62.0922V118.875H54.1703V120.375H61.7641V121.938H54.1703V123.562H62.2016ZM63.6234 127.156V128.781H50.6078V127.156H63.6234ZM70.7803 116.875V120.734H66.3272V121.781C68.5303 121.773 70.0459 121.719 71.7803 121.438L71.9209 122.953C69.9209 123.281 68.2178 123.312 65.5147 123.312H64.3584V119.344H68.8116V118.359H64.3272V116.875H70.7803ZM75.7803 124.188V127.938H68.2022V128.797H76.2022V130.344H66.2178V126.516H73.8116V125.656H66.2022V124.188H75.7803ZM75.7803 116.219V123.641H73.7959V120.406H71.5147V118.812H73.7959V116.219H75.7803ZM91.8909 116.875V118.469H90.0159V121.703H91.7659V123.266H81.2816V121.703H83.0472V118.469H81.2034V116.875H91.8909ZM93.0316 124.469V126.094H87.5003V130.422H85.5159V126.094H80.0159V124.469H93.0316ZM85.0472 121.703H88.0472V118.469H85.0472V121.703ZM106.235 127.188V128.812H93.2197V127.188H106.235ZM104.735 117.172V121.906H96.7197V123.531H105.063V125.094H94.7197V120.312H102.767V118.766H94.7041V117.172H104.735ZM111.923 120.094C111.923 122.391 113.095 124.844 115.486 125.844L114.408 127.406C112.728 126.695 111.572 125.281 110.939 123.547C110.291 125.43 109.111 126.992 107.439 127.766L106.298 126.188C108.658 125.141 109.877 122.5 109.877 120.094V119.219H106.861V117.594H114.892V119.219H111.923V120.094ZM118.314 116.219V130.438H116.298V116.219H118.314ZM126.08 116.953C129.143 116.953 131.424 118.5 131.44 120.844C131.424 122.984 129.619 124.43 127.065 124.719V127.141H132.612V128.781H119.596V127.141H125.08V124.703C122.533 124.43 120.737 122.977 120.737 120.844C120.737 118.5 123.018 116.953 126.08 116.953ZM126.08 118.547C124.096 118.547 122.705 119.422 122.705 120.844C122.705 122.344 124.096 123.188 126.08 123.188C128.08 123.188 129.455 122.344 129.471 120.844C129.455 119.422 128.08 118.547 126.08 118.547ZM148.113 116.219V130.438H146.097V122.734H144.222V121.031H146.097V116.219H148.113ZM139.457 119.812C139.441 121.43 139.582 123.289 140.472 124.75C141.316 123.297 141.441 121.438 141.457 119.812V117.344H143.347V119.812C143.347 122.047 143.613 124.516 145.457 125.922L144.222 127.344C143.285 126.633 142.714 125.562 142.378 124.328C142.027 125.609 141.433 126.727 140.457 127.453C139.48 126.742 138.886 125.641 138.535 124.375C138.207 125.562 137.668 126.578 136.816 127.266L135.472 125.922C137.3 124.469 137.582 122.031 137.582 119.812V117.344H139.457V119.812ZM160.926 116.219V125.688H158.926V116.219H160.926ZM156.692 117.359V123.891H149.738V117.359H156.692ZM151.707 118.938V122.312H154.707V118.938H151.707ZM157.129 125.25C157.113 126.844 158.598 128.391 161.645 128.812L160.879 130.391C158.559 130.031 156.91 129.016 156.067 127.625C155.215 129.008 153.574 130.016 151.301 130.391L150.52 128.812C153.52 128.406 155.035 126.844 155.035 125.25V124.938H157.129V125.25Z" fill="white" fill-opacity="0.8"/>
<defs>
<clipPath id="clip0_783_1972">
<rect width="134" height="34" fill="white" transform="translate(18 38)"/>
</clipPath>
</defs>
</svg>
