<svg width="200" height="140" viewBox="0 0 200 140" fill="none" xmlns="http://www.w3.org/2000/svg">
<path d="M36.7904 62.515C36.3104 62.035 35.7604 61.625 35.1553 61.295C34.5503 60.965 33.9203 60.665 33.2853 60.4C32.6453 60.14 32.0202 59.88 31.4102 59.635C30.8002 59.385 30.2502 59.105 29.7652 58.79C29.2851 58.48 28.8901 58.11 28.6001 57.69C28.3101 57.27 28.1601 56.745 28.1601 56.135C28.1601 55.36 28.2501 54.795 28.4401 54.41C28.6251 54.035 28.8501 53.745 29.1051 53.545C29.3551 53.37 29.7002 53.24 30.1602 53.155C30.6152 53.07 31.1452 53.025 31.7402 53.025C32.5002 53.025 33.3353 53.13 34.2153 53.335C35.0453 53.53 35.8604 53.765 36.6354 54.03L36.7254 54.06L37.3704 51.53L37.2804 51.51C36.5604 51.365 35.8254 51.245 35.1003 51.15C34.3353 51.05 33.5053 51 32.6353 51C31.5502 51 30.5702 51.175 29.7152 51.52C28.8651 51.875 28.1351 52.325 27.5501 52.865C26.9701 53.405 26.5151 54.02 26.205 54.69C25.895 55.36 25.74 56.03 25.74 56.69C25.74 57.645 25.885 58.47 26.175 59.13C26.465 59.79 26.8501 60.365 27.3301 60.835C27.8051 61.305 28.3551 61.705 28.9651 62.025C29.5702 62.34 30.2002 62.635 30.8252 62.895C31.4502 63.155 32.0802 63.415 32.6853 63.66C33.2953 63.91 33.8453 64.2 34.3303 64.525C34.8103 64.85 35.2053 65.25 35.4953 65.715C35.7854 66.18 35.9354 66.75 35.9354 67.42C35.9354 67.93 35.9004 68.37 35.8304 68.735C35.7604 69.1 35.6604 69.405 35.5404 69.645C35.4153 69.89 35.2753 70.085 35.1203 70.225C34.9603 70.37 34.7953 70.49 34.6253 70.59C34.3103 70.775 33.9053 70.935 33.4153 71.06C32.9253 71.19 32.3352 71.25 31.6552 71.25C31.1552 71.25 30.6352 71.18 30.1052 71.045C29.5752 70.91 29.0551 70.74 28.5601 70.545C28.0651 70.345 27.5901 70.13 27.1551 69.895C26.7651 69.69 26.425 69.49 26.14 69.3L26.05 69.24L25 71.75L25.07 71.79C25.89 72.245 26.7801 72.615 27.7151 72.89C28.6801 73.17 29.7902 73.315 31.0202 73.315C32.1902 73.315 33.2403 73.12 34.1503 72.74C35.0553 72.36 35.8354 71.855 36.4654 71.235C37.0904 70.615 37.5754 69.905 37.8954 69.125C38.2204 68.345 38.3854 67.535 38.3854 66.72C38.3854 65.765 38.2404 64.935 37.9504 64.26C37.6554 63.58 37.2704 62.995 36.7904 62.515Z" fill="white"/>
<path d="M58.0611 57.725C57.3461 56.95 56.446 56.345 55.376 55.93C54.311 55.52 53.0509 55.31 51.6309 55.31C50.2008 55.31 48.9458 55.52 47.9058 55.93C46.8607 56.345 45.9857 56.945 45.3057 57.725C44.6257 58.5 44.1206 59.455 43.8006 60.555C43.4806 61.65 43.3206 62.905 43.3206 64.275C43.3206 65.645 43.4806 66.905 43.7956 68.02C44.1106 69.14 44.6107 70.11 45.2757 70.91C45.9407 71.71 46.8107 72.335 47.8558 72.775C48.9008 73.21 50.1608 73.43 51.6009 73.43C53.0209 73.43 54.281 73.215 55.351 72.79C56.426 72.365 57.3311 71.75 58.0411 70.955C58.7511 70.165 59.2961 69.19 59.6562 68.065C60.0162 66.945 60.2012 65.67 60.2012 64.275C60.2012 62.905 60.0212 61.65 59.6662 60.555C59.3111 59.45 58.7711 58.5 58.0611 57.725ZM51.6009 71.88C50.5359 71.88 49.6408 71.69 48.9308 71.31C48.2258 70.93 47.6508 70.4 47.2307 69.735C46.8057 69.065 46.4957 68.255 46.3107 67.33C46.1257 66.4 46.0307 65.375 46.0307 64.28C46.0307 63.565 46.0557 62.87 46.1007 62.21C46.1457 61.55 46.2207 60.935 46.3207 60.375C46.4207 59.82 46.5557 59.33 46.7257 58.915C46.8907 58.51 47.0957 58.195 47.3357 57.99C47.7808 57.615 48.3908 57.325 49.1458 57.135C49.9108 56.945 50.7509 56.845 51.6359 56.845C52.6559 56.845 53.541 57.025 54.271 57.385C55.001 57.74 55.611 58.25 56.086 58.895C56.561 59.545 56.9161 60.335 57.1411 61.24C57.3661 62.15 57.4811 63.175 57.4811 64.28C57.4811 64.955 57.4561 65.64 57.4061 66.31C57.3561 66.975 57.2711 67.6 57.1611 68.17C57.0461 68.74 56.9061 69.245 56.7361 69.675C56.5711 70.095 56.366 70.41 56.126 70.605C55.571 71.085 54.931 71.42 54.221 71.605C53.5059 71.785 52.6259 71.88 51.6009 71.88Z" fill="white"/>
<path d="M78.7968 62.16C78.7968 62.48 78.8018 62.835 78.8068 63.215C78.8118 63.61 78.8168 64.025 78.8218 64.47C78.8268 64.915 78.8318 65.36 78.8318 65.785C78.8418 66.76 78.8568 67.805 78.8768 68.9L66.6414 55.45L66.6164 55.42H65.4463V73.225H67.1964V67.24C67.1964 67.135 67.1914 66.95 67.1864 66.675C67.1814 66.4 67.1764 66.075 67.1714 65.7C67.1664 65.325 67.1614 64.91 67.1564 64.46C67.1514 64.01 67.1414 63.55 67.1314 63.1C67.1114 62.15 67.0914 61.055 67.0664 59.76L79.3218 73.285L79.3468 73.315H80.5518V55.555H78.8018V62.16H78.7968Z" fill="white"/>
<path d="M101.838 60.55C101.483 59.45 100.943 58.495 100.228 57.72C99.5125 56.945 98.6124 56.34 97.5424 55.925C96.4774 55.515 95.2173 55.305 93.7973 55.305C92.3672 55.305 91.1122 55.515 90.0722 55.925C89.0271 56.34 88.1521 56.94 87.4721 57.72C86.7921 58.495 86.287 59.45 85.967 60.55C85.647 61.645 85.487 62.9 85.487 64.27C85.487 65.64 85.647 66.9 85.962 68.015C86.277 69.135 86.7771 70.105 87.4421 70.905C88.1071 71.705 88.9771 72.33 90.0222 72.77C91.0672 73.205 92.3272 73.425 93.7673 73.425C95.1873 73.425 96.4474 73.21 97.5174 72.785C98.5924 72.36 99.4975 71.745 100.208 70.95C100.918 70.16 101.463 69.185 101.823 68.06C102.183 66.94 102.368 65.665 102.368 64.27C102.368 62.9 102.188 61.65 101.838 60.55ZM99.6425 64.275C99.6425 64.955 99.6175 65.635 99.5675 66.305C99.5175 66.97 99.4325 67.595 99.3225 68.165C99.2075 68.735 99.0675 69.24 98.8975 69.67C98.7325 70.09 98.5275 70.405 98.2874 70.6C97.7324 71.08 97.0874 71.415 96.3824 71.6C95.6674 71.785 94.7873 71.88 93.7623 71.88C92.6973 71.88 91.8022 71.69 91.0922 71.31C90.3872 70.93 89.8122 70.4 89.3921 69.735C88.9671 69.065 88.6571 68.255 88.4721 67.33C88.2871 66.4 88.1921 65.37 88.1921 64.28C88.1921 63.57 88.2171 62.87 88.2621 62.21C88.3071 61.55 88.3821 60.935 88.4821 60.375C88.5821 59.82 88.7171 59.33 88.8871 58.915C89.0521 58.51 89.2571 58.195 89.4971 57.99C89.9422 57.615 90.5522 57.325 91.3072 57.135C92.0722 56.945 92.9123 56.845 93.7973 56.845C94.8173 56.845 95.7024 57.025 96.4324 57.385C97.1624 57.74 97.7724 58.25 98.2474 58.895C98.7225 59.545 99.0775 60.335 99.3025 61.24C99.5275 62.145 99.6425 63.17 99.6425 64.275Z" fill="white"/>
<path d="M121.023 73.375H129.033C129.033 71.035 128.973 70.915 126.523 70.915H121.023C116.173 70.915 115.753 66.46 115.753 63.045C115.753 59.64 115.643 58.105 116.293 57.22C116.963 56.31 118.108 56.385 120.623 56.385H126.213C128.488 56.385 128.538 56.135 128.543 53.795H121.028C114.618 53.795 112.573 56.735 112.573 63.04C112.568 69.355 115.253 73.375 121.023 73.375Z" fill="white"/>
<path d="M133.244 59.44C133.244 61.505 133.294 61.505 135.269 61.505H138.149C141.024 61.505 142.199 62.385 142.199 64.545V64.705H137.574C133.944 64.705 131.859 66.355 131.859 69.235C131.859 71.82 133.864 73.365 137.229 73.365C140.014 73.365 141.929 72.26 142.589 71.17L142.889 70.675V71.255C142.889 73.17 142.889 73.225 144.784 73.225V65.325C144.784 61.79 143.639 59.44 138.064 59.44H133.244ZM142.199 67.315C142.199 71.04 140.754 71.42 137.919 71.42C135.774 71.42 134.589 70.635 134.589 69.215C134.589 66.69 135.519 66.69 138.034 66.69H142.199V67.315Z" fill="white"/>
<path d="M148.759 55.415V71C148.759 73.325 148.759 73.37 151.374 73.375V58.34C151.369 56.13 151.369 55.415 148.759 55.415Z" fill="white"/>
<path d="M155.744 59.44V71C155.744 73.325 155.744 73.37 158.359 73.375V62.365C158.359 60.155 158.359 59.44 155.744 59.44Z" fill="white"/>
<path d="M170.5 59.355C167.38 59.355 166.45 60.955 166.24 61.445L166.095 61.79L165.945 61.45C165.32 60.025 164.135 59.36 162.205 59.36C159.254 59.36 158.259 60.705 157.969 61.285L157.664 61.9V61.215C157.664 59.58 157.664 59.535 155.739 59.535V71.01C155.739 73.335 155.739 73.38 158.354 73.385V65.04C158.354 61.575 158.409 61.51 161.255 61.51C163.82 61.51 164.04 63.335 164.04 65.04V71C164.04 73.325 164.04 73.37 166.71 73.375V65.04C166.71 61.575 166.765 61.51 169.55 61.51C172.115 61.51 172.33 63.335 172.33 65.04V71C172.33 73.325 172.33 73.37 175 73.375V65.21C175.005 61.105 173.66 59.355 170.5 59.355Z" fill="white"/>
<path d="M91.9822 86.67C91.9822 86.98 91.9472 87.26 91.8672 87.505C91.7922 87.75 91.6772 87.97 91.5272 88.16C91.3772 88.35 91.1872 88.515 90.9622 88.65C90.7372 88.785 90.4772 88.905 90.1772 89L89.9672 88.635C90.1322 88.54 90.2622 88.43 90.3672 88.315C90.4722 88.2 90.5522 88.075 90.6122 87.94C90.6722 87.805 90.7122 87.66 90.7322 87.505C90.7522 87.35 90.7622 87.185 90.7622 87.015V81.16H91.9772V86.67H91.9822Z" fill="white"/>
<path d="M97.8624 87.115H94.2723V81.16H97.7324L97.6724 81.765L95.4823 81.795V83.735L97.5424 83.76L97.4824 84.315L95.4823 84.36V86.49L97.9124 86.535L97.8624 87.115Z" fill="white"/>
<path d="M101.008 86.67C101.008 86.98 100.973 87.26 100.893 87.505C100.818 87.75 100.703 87.97 100.553 88.16C100.403 88.35 100.213 88.515 99.9875 88.65C99.7625 88.785 99.5025 88.905 99.2025 89L98.9925 88.635C99.1575 88.54 99.2875 88.43 99.3925 88.315C99.4975 88.2 99.5775 88.075 99.6375 87.94C99.6975 87.805 99.7375 87.66 99.7575 87.505C99.7775 87.35 99.7875 87.185 99.7875 87.015V81.16H101.003V86.67H101.008Z" fill="white"/>
<path d="M108.223 85.86C108.108 86.125 107.933 86.355 107.708 86.55C107.483 86.75 107.198 86.905 106.863 87.02C106.528 87.135 106.133 87.195 105.688 87.195C105.318 87.195 104.988 87.16 104.693 87.085C104.393 87.01 104.143 86.89 103.933 86.725C103.723 86.56 103.563 86.345 103.448 86.075C103.333 85.805 103.278 85.48 103.278 85.09V81.15H104.493V85.205C104.493 85.505 104.523 85.74 104.578 85.92C104.633 86.095 104.713 86.23 104.823 86.325C104.928 86.42 105.063 86.48 105.223 86.505C105.383 86.53 105.568 86.545 105.778 86.545C106.033 86.545 106.253 86.52 106.443 86.47C106.633 86.42 106.783 86.35 106.908 86.265C107.033 86.175 107.113 86.04 107.143 85.855C107.173 85.67 107.193 85.445 107.193 85.185V81.155H108.408V85.015C108.398 85.315 108.338 85.595 108.223 85.86Z" fill="white"/>
</svg>
