<svg width="200" height="140" viewBox="0 0 200 140" fill="none" xmlns="http://www.w3.org/2000/svg">
<path d="M88.2226 76.5259H75.4963V75.8974C76.0359 75.8974 76.4429 75.8594 76.7341 75.7919C77.0212 75.7161 77.2396 75.5937 77.381 75.4207C77.5267 75.2352 77.608 74.9948 77.6466 74.6743C77.6979 74.3579 77.7194 73.8982 77.7194 73.2823V63.0205C77.7194 62.3921 77.6595 61.9408 77.5438 61.6582C77.4367 61.3756 77.2353 61.1942 76.9355 61.1183C76.6399 61.0297 76.1602 60.9665 75.492 60.9454V60.3169H86.9633V63.8809H86.4963C86.4192 63.3579 86.2779 62.9277 86.0979 62.5566C85.9138 62.1812 85.661 61.8944 85.3783 61.6793C85.0828 61.4768 84.7144 61.3208 84.2817 61.228C83.8449 61.1267 83.3308 61.0803 82.7354 61.0803H80.0068V67.6137H83.1038C83.9305 67.6137 84.4531 67.4281 84.6544 67.057C84.8643 66.6857 85.0057 66.2008 85.0828 65.6061H85.5369V70.8908H85.0828C85.0828 70.3425 85.0357 69.9039 84.9371 69.6002C84.8343 69.2839 84.6886 69.0646 84.4916 68.9423C84.3031 68.8031 84.0676 68.7272 83.7763 68.6935C83.4978 68.6639 83.0738 68.6428 82.5169 68.6428H80.0025V72.5737C80.0025 73.527 80.0453 74.2188 80.1267 74.6405C80.2167 75.0538 80.4266 75.3533 80.765 75.5389C81.099 75.7118 81.6602 75.8004 82.4184 75.8004H83.8705C84.6844 75.7625 85.5968 75.6697 86.0594 75.5262C86.5306 75.387 86.8904 75.1128 87.1432 74.6995C87.3959 74.2904 87.5629 73.7379 87.64 72.9323H88.2183V76.5216L88.2226 76.5259Z" fill="white"/>
<path d="M90.1458 75.8974C90.8526 75.8974 91.3838 75.7877 91.7394 75.5473C92.0949 75.3154 92.2748 74.9104 92.2748 74.3284V62.6283C92.2748 62.1221 92.1891 61.751 92.0134 61.5106C91.8422 61.2744 91.6237 61.1183 91.3666 61.0635C91.1011 61.0044 90.7027 60.9622 90.1458 60.9454V60.3169H96.6825V60.9454C96.1256 60.958 95.7187 61.0002 95.4616 61.0635C95.2004 61.1183 94.9862 61.2744 94.8149 61.5106C94.6435 61.751 94.5536 62.1221 94.5536 62.6283V73.333C94.5536 73.8096 94.5964 74.1892 94.6778 74.4676C94.7549 74.7586 94.922 74.999 95.1747 75.1888C95.4232 75.3913 95.8001 75.5305 96.2884 75.6233C96.7767 75.7161 97.4321 75.7625 98.2546 75.7625C99.1755 75.7625 100.152 75.6781 100.658 75.5009C101.159 75.3279 101.531 75.0286 101.763 74.6194C101.998 74.2103 102.135 73.6662 102.187 72.9028H102.817V76.53H90.1458V75.8974Z" fill="white"/>
<path d="M116.601 60.317V60.9075C116.155 60.9201 115.813 61.0298 115.564 61.2322C115.316 61.4431 115.007 61.7806 114.656 62.2614L110.154 68.2295V74.2061C110.154 74.7165 110.248 75.0877 110.42 75.3406C110.591 75.5769 110.814 75.7245 111.067 75.7836C111.324 75.8384 111.735 75.8764 112.3 75.8891V76.5175H105.738V75.8891C106.509 75.8764 107.053 75.7793 107.383 75.5896C107.717 75.4082 107.875 74.9485 107.875 74.2061V68.626L102.984 61.9493C102.757 61.6245 102.568 61.3967 102.418 61.2744C102.264 61.1479 102.11 61.072 101.943 61.0424C101.776 61.0045 101.394 60.9623 100.803 60.9033V60.3128H106.916V60.9033C106.042 60.9033 105.605 61.0677 105.605 61.3841C105.605 61.6287 105.862 62.1137 106.389 62.8266L109.657 67.3902L112.733 63.2399C112.814 63.1302 112.93 62.9573 113.101 62.738C113.272 62.5102 113.397 62.2951 113.495 62.118C113.59 61.9282 113.637 61.7552 113.637 61.5992C113.637 61.2744 113.525 61.0762 113.307 61.0045C113.093 60.937 112.651 60.9033 111.979 60.9033V60.3128H116.605L116.601 60.317Z" fill="white"/>
<path d="M118.006 76.067L117.522 72.6716H118.083C118.318 73.6333 118.773 74.4346 119.454 75.1179C120.126 75.7886 120.94 76.126 121.887 76.126C122.516 76.126 123.082 75.991 123.587 75.7168C124.084 75.4596 124.487 75.0927 124.769 74.6033C125.061 74.131 125.211 73.5995 125.211 73.0048C125.211 72.0642 124.919 71.3388 124.358 70.8537C123.793 70.3602 122.902 69.8162 121.685 69.2004C120.465 68.5846 119.548 67.9393 118.927 67.294C118.323 66.6402 118.01 65.6996 118.01 64.4765C118.01 63.5022 118.241 62.6797 118.683 61.9964C119.128 61.3047 119.741 60.7859 120.516 60.4401C121.3 60.0816 122.191 59.9086 123.202 59.9086C123.497 59.9086 123.814 59.9255 124.144 59.9677C124.478 60.0183 124.821 60.0605 125.164 60.1322C125.515 60.1912 125.849 60.2503 126.175 60.3093L126.564 63.2407H126.007C125.883 62.4351 125.545 61.794 125.005 61.3469C124.465 60.8956 123.759 60.6636 122.872 60.6636C122.294 60.6636 121.78 60.7986 121.33 61.0517C120.884 61.3132 120.542 61.6717 120.31 62.1272C120.079 62.5743 119.968 63.0846 119.968 63.6414C119.968 64.5904 120.259 65.3116 120.841 65.7966C121.424 66.2859 122.354 66.8384 123.617 67.4668C124.889 68.0995 125.845 68.7322 126.483 69.3734C127.121 70.0186 127.442 70.9381 127.442 72.1486C127.442 72.8783 127.288 73.5279 126.971 74.1183C126.663 74.7046 126.239 75.198 125.695 75.6114C125.155 76.0247 124.534 76.3369 123.844 76.552C123.155 76.7671 122.444 76.8768 121.732 76.8768C120.43 76.8768 119.184 76.6068 118.01 76.0585L118.006 76.067Z" fill="white"/>
<path d="M136.4 60.3169V60.9454C135.843 60.958 135.427 61.0002 135.17 61.0635C134.909 61.1183 134.695 61.2744 134.523 61.5106C134.356 61.751 134.262 62.1221 134.262 62.6283V74.2229C134.262 74.7291 134.356 75.096 134.523 75.3491C134.699 75.5853 134.909 75.7329 135.17 75.7919C135.427 75.8468 135.843 75.8847 136.4 75.8974V76.5259H129.837V75.8974C130.612 75.8847 131.156 75.7919 131.482 75.5979C131.816 75.4166 131.979 74.9568 131.979 74.2229V62.6283C131.979 61.8902 131.812 61.4304 131.482 61.2491C131.161 61.0677 130.612 60.9665 129.837 60.9496V60.3211H136.4V60.3169Z" fill="white"/>
<path d="M144.825 62.6372L147.327 69.4742H142.499L144.774 62.6372H144.82M140.785 71.6505C140.293 73.0803 139.976 73.9365 139.83 74.2487C139.629 74.7127 139.449 75.05 139.282 75.2483C139.124 75.4507 138.922 75.5984 138.682 75.6869C138.447 75.784 138.066 75.8514 137.556 75.9105V76.5474H143.141V75.9105H142.611C142.26 75.8936 141.964 75.8725 141.758 75.8388C141.544 75.7966 141.364 75.6996 141.227 75.5562C141.09 75.4002 141.026 75.1598 141.026 74.8096C141.026 74.4849 141.068 74.1264 141.175 73.7299C141.278 73.3334 141.428 72.7894 141.651 72.0976L142.161 70.4653H147.673L148.847 73.8142C149.078 74.4469 149.194 74.894 149.194 75.1302C149.194 75.6532 148.766 75.9105 147.896 75.9105H147.48V76.5474H153.603V75.9105C152.711 75.9105 152.111 75.6954 151.786 75.2525C151.674 75.1134 151.537 74.8476 151.396 74.4764C151.246 74.0968 151.087 73.6624 150.912 73.1647C150.732 72.6712 150.582 72.2368 150.449 71.8741L145.977 59.6847H144.718L140.777 71.6505H140.785Z" fill="white"/>
<path d="M168.89 72.945V63.7376C168.89 63.0121 168.812 62.4512 168.663 62.0631C168.518 61.6709 168.243 61.3841 167.836 61.2196C167.425 61.0551 166.833 60.9581 166.042 60.9454V60.317H172V60.9454C171.601 60.9454 171.275 60.9665 171.027 61.0087C170.766 61.0593 170.552 61.1521 170.363 61.3039C170.184 61.4516 170.042 61.6962 169.947 62.0125C169.853 62.3289 169.811 62.7717 169.811 63.3327V76.7283H169.279L157.808 63.4297V72.0508C157.808 72.8691 157.839 73.5313 157.903 74.0205C157.962 74.5098 158.091 74.8937 158.28 75.172C158.459 75.442 158.738 75.636 159.084 75.7329C159.436 75.8468 159.95 75.8932 160.592 75.8932V76.5216H154.368V75.8932C154.977 75.8932 155.453 75.8426 155.786 75.7456C156.108 75.6528 156.378 75.387 156.588 74.9695C156.802 74.5519 156.896 73.8729 156.896 72.945V63.649C156.896 62.6705 156.665 61.983 156.224 61.5612C155.77 61.1521 155.037 60.9412 154.009 60.9412V60.3128H158.065L168.895 72.9407L168.89 72.945Z" fill="white"/>
<path d="M31.9154 56.4031C32.9134 56.2597 34.0443 56.2976 34.1942 56.2976C34.3998 56.2892 35.068 56.2723 32.575 57.757C32.8663 58.5288 33.6288 59.7984 33.6802 60.1822C33.7873 60.9752 32.9477 60.237 31.3285 59.0772C30.6046 59.9713 29.7693 61.0806 29.5808 61.1017C29.2895 61.1354 29.4994 59.5833 29.9878 58.2884C29.5594 58.1155 29.0668 57.9173 28.677 57.6979C27.6832 57.1496 27.4905 56.7152 30.1505 56.7152C30.4333 55.9434 30.656 54.6654 30.9601 54.5937C31.2514 54.5304 31.5298 55.1926 31.9196 56.3989L31.9154 56.4031Z" fill="white"/>
<path d="M69.0022 75.0158C69.8503 75.1001 70.7713 75.3617 70.8912 75.3912C71.0626 75.4249 71.6109 75.543 69.2678 76.2643C69.3449 76.9517 69.709 78.1453 69.6747 78.4701C69.5976 79.1407 69.0579 78.3689 67.9784 77.0951C67.1989 77.6814 66.2907 78.4237 66.1279 78.4027C65.8838 78.3731 66.3764 77.1458 67.0404 76.1799C66.7234 75.9479 66.3635 75.6948 66.0894 75.4333C65.3869 74.788 65.3184 74.3958 67.503 74.923C67.8885 74.3451 68.3382 73.3413 68.5953 73.3497C68.848 73.354 68.938 73.9529 69.0108 75.0158H69.0022Z" fill="white"/>
<path d="M65.8024 61.9878C66.3679 62.1017 66.9675 62.3463 67.0489 62.3717C67.1603 62.4096 67.5287 62.5277 65.8881 62.844C65.8881 63.3164 66.0466 64.1473 65.9995 64.3624C65.9009 64.8137 65.5969 64.2528 64.9543 63.3164C64.3846 63.6539 63.7164 64.0883 63.6049 64.063C63.4465 64.025 63.8663 63.2321 64.3846 62.6332C64.1876 62.456 63.9648 62.2536 63.7934 62.0595C63.3651 61.5703 63.348 61.3003 64.7872 61.8149C65.0914 61.4522 65.4683 60.8069 65.644 60.8322C65.811 60.8533 65.8325 61.2666 65.7981 61.9878H65.8024Z" fill="white"/>
<path d="M31.8683 62.3837C32.1381 62.1306 33.4832 62.6115 35.2394 63.0417C38.6405 63.8768 43.498 65.0029 47.8287 65.4373C52.639 65.9267 56.8626 65.9098 59.9939 65.8803C60.6108 65.8718 61.9257 65.7875 61.93 66.2219C61.9343 66.5002 61.3603 66.669 60.3537 66.8208C59.1329 67.0022 57.7922 67.1877 56.9226 67.3016C56.1987 67.3902 56.5157 67.5843 56.8755 67.6812C57.291 67.7993 57.8864 67.968 58.2933 68.103C58.6832 68.2338 58.8844 68.3013 58.8802 68.4869C58.8802 68.6513 58.6874 68.7526 58.3918 68.8665C58.1305 68.9677 57.9292 69.0562 57.9506 69.1321C57.9721 69.246 58.5418 69.3177 59.0901 69.4189C59.5784 69.5033 60.178 69.634 60.4436 69.7227C60.5807 69.7691 60.6707 69.8323 60.675 69.9208C60.6792 70.0179 60.585 70.1022 60.3237 70.1866C59.5269 70.4397 58.7602 70.5578 58.7688 70.7138C58.7774 70.8657 59.3556 70.9458 60.1181 71.0554C61.2704 71.22 63.8576 71.6207 64.4445 71.7219C64.6972 71.7683 64.7829 71.7978 64.77 71.8906C64.7572 71.9834 64.5429 72.0255 64.2731 72.0466C63.6906 72.1056 60.7863 72.1647 59.4542 72.1056C51.2983 71.7345 41.0521 69.6636 33.1062 64.7794C31.7398 63.9358 32.0182 63.4339 31.9497 63.1724C31.8683 62.8477 31.6798 62.5609 31.864 62.3879L31.8683 62.3837Z" fill="white"/>
<path d="M63.6136 84.2615C63.1767 83.2238 62.487 82.0049 61.6646 80.9421C60.6151 79.5797 59.7799 78.7994 58.3234 78.2807C55.2907 77.2009 49.1867 77.378 46.6808 76.9435C44.175 76.5134 41.6091 75.674 40.8252 73.2741C39.9771 70.6844 40.7096 66.4666 42.7614 63.3708C45.3444 59.4651 48.5698 59.7899 55.9332 59.6591C63.3009 59.5284 63.9434 55.0069 63.9434 55.0069C62.3156 54.9394 56.8414 54.5683 52.485 54.1254C48.133 53.6825 45.6956 54.505 43.6009 55.745C41.5063 56.9851 38.298 60.5828 37.1543 65.0579C34.6741 74.7672 38.6706 79.1917 43.5239 81.1782C46.9635 82.5912 52.3779 84.1138 59.0517 85.396C60.4352 85.6617 61.4504 85.8262 62.4313 85.9528C63.061 86.0371 64.4189 86.2227 63.605 84.2656L63.6136 84.2615Z" fill="white"/>
<path d="M40.7268 68.428C40.9795 67.1247 41.4292 65.7919 42.0632 64.5645C40.5125 64.2609 39.0004 63.9319 37.6212 63.6113C37.4498 64.0795 37.2913 64.5603 37.1671 65.058C37.0129 65.6485 36.8887 66.2137 36.7859 66.7662C38.0666 67.3778 39.3859 67.9304 40.731 68.428H40.7268Z" fill="white"/>
<path d="M42.0588 64.5645C42.2687 64.1469 42.5043 63.7504 42.7613 63.3666C45.3399 59.461 48.5697 59.7857 55.9331 59.655C63.3008 59.5242 63.9433 55.0028 63.9433 55.0028C62.3113 54.9353 56.8412 54.5641 52.4849 54.1212C48.1329 53.6784 45.6955 54.5008 43.6009 55.7409C41.7332 56.8459 38.9917 59.8152 37.6082 63.607C38.9917 63.9276 40.5038 64.2566 42.0545 64.5602L42.0588 64.5645Z" fill="white"/>
</svg>
