<svg width="170" height="188" viewBox="0 0 170 188" fill="none" xmlns="http://www.w3.org/2000/svg">
<path d="M101.884 20.5H91.6688V65.4708H101.884V20.5Z" fill="white"/>
<path d="M90.1091 20.5H79.8909V65.4708H90.1091V20.5Z" fill="#A6A6A6"/>
<path d="M78.3339 20.5H68.1157V65.4708H78.3339V20.5Z" fill="white"/>
<path d="M58.1753 76.2553C57.7934 74.813 56.7091 74.5124 55.8652 74.5124H54.69C53.8461 74.5124 52.7618 74.8156 52.3799 76.2553L48.8812 89.5H51.592L55.2776 75.5513L58.9659 89.5H61.6766L58.178 76.2553H58.1753Z" fill="white"/>
<path d="M42.0095 83.5408C44.0366 83.0055 45.3986 81.3575 45.3986 79.1189C45.3986 76.3713 43.3448 74.5124 40.5299 74.5124H34V89.5H36.6333V77.0226H40.4979C41.9187 77.0226 42.7653 77.8058 42.7653 79.1189C42.7653 80.432 41.9187 81.2178 40.4979 81.2178H37.0046L43.5371 89.5H46.7046L42.0068 83.5435L42.0095 83.5408Z" fill="white"/>
<path d="M103.337 74.5124H100.701V89.5H103.337V74.5124Z" fill="white"/>
<path d="M116.119 76.2553C115.737 74.813 114.653 74.5124 113.809 74.5124H112.634C111.79 74.5124 110.706 74.8156 110.324 76.2553L106.822 89.5H109.533L113.221 75.5513L116.91 89.5H119.618L116.119 76.2553Z" fill="white"/>
<path d="M65.1753 87.4354C65.1753 88.5718 66.11 89.5 67.2638 89.5H75.4255V86.9924H67.8113V83.0214H75.1744V80.6588H67.8113V77.0226H75.4255V74.5124H65.1753V87.4354Z" fill="white"/>
<path d="M133.367 74.5097V86.9898H132.811L128.792 76.2527C128.223 74.668 127.347 74.5097 126.5 74.5097H123.106V89.5H125.742V77.0226H126.297L130.317 87.7571C130.886 89.3444 131.762 89.5 132.606 89.5H136V74.5097H133.364H133.367Z" fill="white"/>
<path d="M92.6863 74.5124C91.8424 74.5124 90.9557 74.7392 90.4937 76.258L87.9618 84.0893L85.43 76.258C84.9706 74.7418 84.0786 74.5124 83.2373 74.5124H79.9069V89.5H82.5429V77.0226H83.0076L85.2617 83.997C85.3899 84.4189 85.8386 85.2073 86.7012 85.2073H89.2277C90.0904 85.2073 90.5364 84.4162 90.6646 83.997L92.9187 77.0226H93.3834V89.5H96.0194V74.5124H92.6863Z" fill="white"/>
<path d="M33.2153 116.219V130.438H31.2934V123.203H29.9966V129.812H28.1372V116.594H29.9966V121.609H31.2934V116.219H33.2153ZM27.1372 117.969C27.1216 121.938 25.9341 125.188 21.9341 127.516L20.7778 126.141C23.6762 124.438 24.9184 122.352 25.1997 119.562H21.4966V117.969H27.1372ZM47.1534 127.188V128.859H34.1378V127.188H39.6066V124.625H35.2159V123.062H37.1222V119H35.1534V117.406H46.0597V119H44.0597V123.062H45.9972V124.625H41.5909V127.188H47.1534ZM39.1222 123.062H42.0909V119H39.1222V123.062ZM56.1703 117.594V123.078H52.6859V125.625C54.0375 125.609 55.3266 125.555 56.7797 125.328L56.9203 126.922C55.0609 127.234 53.5297 127.281 51.7641 127.281H50.7797V121.484H54.2484V119.203H50.7641V117.594H56.1703ZM62.6703 116.219V130.438H60.7797V123.203H59.4047V129.75H57.5766V116.453H59.4047V121.594H60.7797V116.219H62.6703ZM71.1397 117.5V127.047H64.2647V117.5H71.1397ZM66.2647 119.062V125.469H69.2022V119.062H66.2647ZM75.4678 116.219V130.469H73.4522V116.219H75.4678ZM88.0309 116.219V120.297H89.9528V121.953H88.0309V126.578H86.0309V116.219H88.0309ZM88.5466 128.594V130.188H78.8122V125.484H80.7966V128.594H88.5466ZM80.7497 117.141C82.9216 117.141 84.6247 118.641 84.6247 120.75C84.6247 122.828 82.9216 124.359 80.7497 124.359C78.5622 124.359 76.8434 122.828 76.8434 120.75C76.8434 118.641 78.5622 117.141 80.7497 117.141ZM80.7497 118.875C79.6716 118.859 78.7966 119.562 78.8122 120.75C78.7966 121.906 79.6716 122.625 80.7497 122.625C81.8434 122.625 82.6716 121.906 82.6872 120.75C82.6716 119.562 81.8434 118.859 80.7497 118.875ZM106.001 127.188V128.859H92.9853V127.188H98.4541V124.625H94.0634V123.062H95.9697V119H94.0009V117.406H104.907V119H102.907V123.062H104.845V124.625H100.438V127.188H106.001ZM97.9697 123.062H100.938V119H97.9697V123.062ZM111.611 117.641V123.031H108.486V125.453C109.869 125.438 111.181 125.375 112.658 125.094L112.83 126.719C110.97 127.062 109.377 127.094 107.58 127.109H106.58V121.453H109.689V119.219H106.564V117.641H111.611ZM118.47 116.219V130.438H116.58V116.219H118.47ZM115.517 116.484V129.75H113.658V122.688H112.205V121.078H113.658V116.484H115.517ZM126.846 118.094C126.846 120.172 128.69 122.406 131.908 122.953L131.033 124.609C128.557 124.117 126.713 122.727 125.799 120.891C124.854 122.711 123.01 124.109 120.549 124.609L119.69 122.953C122.846 122.391 124.705 120.156 124.721 118.094V117.062H126.846V118.094ZM132.377 127.047V128.688H119.362V127.047H132.377ZM144.143 123.562V125.141H134.081V117.266H144.034V118.875H136.112V120.375H143.706V121.938H136.112V123.562H144.143ZM145.565 127.156V128.781H132.55V127.156H145.565ZM43.5366 143.594V149.078H40.0522V151.625C41.4038 151.609 42.6928 151.555 44.1459 151.328L44.2866 152.922C42.4272 153.234 40.8959 153.281 39.1303 153.281H38.1459V147.484H41.6147V145.203H38.1303V143.594H43.5366ZM50.0366 142.219V156.438H48.1459V149.203H46.7709V155.75H44.9428V142.453H46.7709V147.594H48.1459V142.219H50.0366ZM58.5059 143.5V153.047H51.6309V143.5H58.5059ZM53.6309 145.062V151.469H56.5684V145.062H53.6309ZM62.8341 142.219V156.469H60.8184V142.219H62.8341ZM75.3972 142.219V146.297H77.3191V147.953H75.3972V152.578H73.3972V142.219H75.3972ZM75.9128 154.594V156.188H66.1784V151.484H68.1628V154.594H75.9128ZM68.1159 143.141C70.2878 143.141 71.9909 144.641 71.9909 146.75C71.9909 148.828 70.2878 150.359 68.1159 150.359C65.9284 150.359 64.2097 148.828 64.2097 146.75C64.2097 144.641 65.9284 143.141 68.1159 143.141ZM68.1159 144.875C67.0378 144.859 66.1628 145.562 66.1784 146.75C66.1628 147.906 67.0378 148.625 68.1159 148.625C69.2097 148.625 70.0378 147.906 70.0534 146.75C70.0378 145.562 69.2097 144.859 68.1159 144.875ZM92.3984 142.234V152.969H90.3984V151.844H87.6797V150.484H90.3984V142.234H92.3984ZM92.7109 154.594V156.188H82.1172V151.938H84.1016V150.047C82.8281 150.102 81.6172 150.109 80.5391 150.109L80.3047 148.531C82.9141 148.516 86.4297 148.484 89.4297 148.109L89.5391 149.531C88.4141 149.719 87.25 149.852 86.1016 149.938V152.641H84.1016V154.594H92.7109ZM84.9297 142.719C86.9922 142.703 88.4766 143.75 88.4766 145.266C88.4766 146.781 86.9922 147.766 84.9297 147.766C82.8203 147.766 81.3516 146.781 81.3516 145.266C81.3516 143.75 82.8047 142.703 84.9297 142.719ZM84.9297 144.172C83.9141 144.172 83.2266 144.562 83.2422 145.266C83.2266 145.953 83.9141 146.328 84.9297 146.328C85.8828 146.328 86.5703 145.953 86.5859 145.266C86.5703 144.562 85.8828 144.172 84.9297 144.172ZM95.8209 143.5V146.797H97.7897V143.5H99.6022V147.406H101.024V142.453H102.899V155.812H101.024V149.031H99.6022V153.062H93.9459V143.5H95.8209ZM95.8209 151.438H97.7897V148.375H95.8209V151.438ZM105.868 142.219V156.438H103.962V142.219H105.868ZM110.775 142.641C112.931 142.641 114.572 143.984 114.572 145.891C114.572 147.766 112.931 149.125 110.775 149.125C108.572 149.125 106.947 147.766 106.947 145.891C106.947 143.984 108.572 142.641 110.775 142.641ZM110.775 144.266C109.681 144.266 108.868 144.859 108.884 145.891C108.868 146.906 109.681 147.516 110.775 147.516C111.853 147.516 112.65 146.906 112.65 145.891C112.65 144.859 111.853 144.266 110.775 144.266ZM118.634 142.219V149.344H116.634V142.219H118.634ZM118.634 149.938V153.797H111.072V154.719H119.025V156.281H109.118V152.344H116.65V151.469H109.087V149.938H118.634ZM131.838 142.219V156.469H129.853V142.219H131.838ZM127.432 143.406V148.891H122.744V151.5C124.908 151.492 126.752 151.367 128.838 151.031L129.01 152.641C126.666 153.047 124.557 153.141 121.963 153.141H120.682V147.312H125.4V145.016H120.666V143.406H127.432ZM41.4584 169.594V175.078H37.9741V177.625C39.3256 177.609 40.6147 177.555 42.0678 177.328L42.2084 178.922C40.3491 179.234 38.8178 179.281 37.0522 179.281H36.0678V173.484H39.5366V171.203H36.0522V169.594H41.4584ZM47.9584 168.219V182.438H46.0678V175.203H44.6928V181.75H42.8647V168.453H44.6928V173.594H46.0678V168.219H47.9584ZM56.4278 169.5V179.047H49.5528V169.5H56.4278ZM51.5528 171.062V177.469H54.4903V171.062H51.5528ZM60.7559 168.219V182.469H58.7403V168.219H60.7559ZM73.3191 168.219V172.297H75.2409V173.953H73.3191V178.578H71.3191V168.219H73.3191ZM73.8347 180.594V182.188H64.1003V177.484H66.0847V180.594H73.8347ZM66.0378 169.141C68.2097 169.141 69.9128 170.641 69.9128 172.75C69.9128 174.828 68.2097 176.359 66.0378 176.359C63.8503 176.359 62.1316 174.828 62.1316 172.75C62.1316 170.641 63.8503 169.141 66.0378 169.141ZM66.0378 170.875C64.9597 170.859 64.0847 171.562 64.1003 172.75C64.0847 173.906 64.9597 174.625 66.0378 174.625C67.1316 174.625 67.9597 173.906 67.9753 172.75C67.9597 171.562 67.1316 170.859 66.0378 170.875ZM84.9453 169.562V171.125H82.7578C82.8203 172.273 83.6797 173.43 85.3984 173.984L84.5547 175.438C83.2422 175.047 82.3438 174.258 81.8359 173.297C81.3125 174.352 80.4219 175.234 79.1172 175.688L78.2422 174.203C79.9297 173.57 80.8047 172.297 80.8672 171.125H78.6641V169.562H80.8672V168.266H82.7578V169.562H84.9453ZM90.4922 168.234V175.688H88.6016V172.75H87.4609V175.594H85.5859V168.484H87.4609V171.172H88.6016V168.234H90.4922ZM90.4922 176.203V179.922H82.7578V180.812H90.9766V182.281H80.7734V178.484H88.5234V177.703H80.7578V176.203H90.4922ZM103.383 168.219V182.469H101.399V168.219H103.383ZM98.9772 169.406V174.891H94.2897V177.5C96.4538 177.492 98.2975 177.367 100.383 177.031L100.555 178.641C98.2116 179.047 96.1022 179.141 93.5084 179.141H92.2272V173.312H96.9459V171.016H92.2116V169.406H98.9772ZM117.65 176.641V178.266H112.103V182.438H110.134V178.266H104.634V176.641H117.65ZM116.259 174.031V175.609H106.275V168.797H116.103V170.359H108.228V171.422H115.806V172.953H108.228V174.031H116.259ZM125.322 170.094C125.322 172.172 127.166 174.406 130.385 174.953L129.51 176.609C127.033 176.117 125.189 174.727 124.275 172.891C123.33 174.711 121.486 176.109 119.025 176.609L118.166 174.953C121.322 174.391 123.182 172.156 123.197 170.094V169.062H125.322V170.094ZM130.853 179.047V180.688H117.838V179.047H130.853Z" fill="white" fill-opacity="0.8"/>
</svg>
