<svg width="170" height="188" viewBox="0 0 170 188" fill="none" xmlns="http://www.w3.org/2000/svg">
<path d="M80.3668 38.4393C80.1472 38.0757 79.8766 37.7401 79.5668 37.4404C79.2531 37.1447 78.9041 36.885 78.5237 36.6693C78.1473 36.4575 77.7277 36.2897 77.2885 36.1738C76.4061 35.9421 75.3944 35.9421 74.5121 36.1738C74.069 36.2897 73.6533 36.4575 73.2768 36.6693C72.8964 36.881 72.5474 37.1407 72.2337 37.4404C71.92 37.7361 71.6533 38.0717 71.4337 38.4393C71.2141 38.8029 71.0416 39.1985 70.924 39.618C70.8024 40.0375 70.7436 40.481 70.7436 40.9365C70.7436 41.392 70.8063 41.8515 70.924 42.2791C71.0455 42.7066 71.2181 43.1101 71.4337 43.4857C71.6533 43.8573 71.9239 44.2009 72.2337 44.5086C72.5435 44.8163 72.8964 45.08 73.2768 45.2997C73.6533 45.5155 74.0729 45.6913 74.5121 45.8112C74.9552 45.931 75.4219 45.991 75.9003 45.991C76.3787 45.991 76.8493 45.931 77.2885 45.8112C77.7316 45.6913 78.1473 45.5195 78.5237 45.2997C78.9041 45.08 79.2531 44.8163 79.5668 44.5086C79.8805 44.2009 80.1472 43.8573 80.3668 43.4857C80.5864 43.1141 80.7589 42.7066 80.8766 42.2791C80.9982 41.8515 81.057 41.4 81.057 40.9405C81.057 40.481 80.9942 40.0415 80.8766 39.622C80.755 39.2065 80.5825 38.8069 80.3668 38.4433M78.8296 42.6986C78.6924 43.23 78.4884 43.6935 78.2218 44.0811C77.959 44.4646 77.6296 44.7643 77.2414 44.9801C76.8571 45.1958 76.4061 45.3037 75.9042 45.3037C75.4022 45.3037 74.9317 45.1958 74.5434 44.9801C74.1552 44.7643 73.8258 44.4646 73.5631 44.0811C73.3004 43.6935 73.0964 43.23 72.9631 42.6986C72.8259 42.1632 72.7592 41.5718 72.7592 40.9325C72.7592 40.2933 72.8259 39.7219 72.9631 39.2025C73.0964 38.683 73.3004 38.2315 73.5631 37.8599C73.8258 37.4884 74.1552 37.1967 74.5434 36.9929C74.9317 36.7891 75.3905 36.6852 75.9081 36.6852C76.4257 36.6852 76.861 36.7891 77.2453 36.9929C77.6336 37.1967 77.963 37.4924 78.2257 37.8599C78.4924 38.2355 78.6963 38.687 78.8335 39.2065C78.9747 39.7299 79.0453 40.3092 79.0453 40.9365C79.0453 41.5639 78.9747 42.1672 78.8335 42.7026" fill="white"/>
<path d="M67.5711 40.4731H63.1791V36.2218H61.4262V45.7672H63.1791V41.2922H67.5711V45.7672H69.324V36.2218H67.5711V40.4731Z" fill="white"/>
<path d="M89.4489 41.5239C89.2528 41.3201 89.0175 41.1483 88.7391 41.0165C88.543 40.9206 88.3274 40.8486 88.0999 40.7927C88.3234 40.6768 88.5195 40.557 88.6803 40.4411C88.9038 40.2813 89.0842 40.1095 89.2175 39.9297C89.3509 39.7459 89.4489 39.5461 89.5038 39.3343C89.5587 39.1265 89.5861 38.8868 89.5861 38.6231C89.5861 38.2675 89.4999 37.9319 89.3273 37.6362C89.1587 37.3405 88.9195 37.0848 88.6136 36.877C88.3117 36.6693 87.9509 36.5054 87.5313 36.3936C87.1156 36.2817 86.6529 36.2218 86.1627 36.2218H82.3628V45.7712H86.747C87.245 45.7712 87.6999 45.7033 88.1038 45.5714C88.5077 45.4396 88.8607 45.2518 89.1469 45.016C89.4371 44.7803 89.6646 44.4966 89.8214 44.177C89.9783 43.8573 90.0606 43.5057 90.0606 43.1381C90.0606 42.8145 90.0057 42.5108 89.9038 42.2431C89.7979 41.9754 89.645 41.7357 89.4489 41.5279M84.1196 37.0608H85.2843C85.7353 37.0608 86.1235 37.1008 86.4451 37.1847C86.7588 37.2646 87.0215 37.3845 87.2254 37.5323C87.4254 37.6801 87.5705 37.8559 87.6646 38.0637C87.7588 38.2715 87.8058 38.5072 87.8058 38.7629C87.8058 39.0027 87.7666 39.2264 87.6842 39.4262C87.6058 39.626 87.4882 39.8018 87.3352 39.9456C87.1823 40.0935 86.9902 40.2093 86.7627 40.2933C86.5353 40.3772 86.2686 40.4211 85.9784 40.4211H84.1236V37.0608H84.1196ZM88.0372 43.8693C87.9431 44.0731 87.794 44.2489 87.594 44.3927C87.3901 44.5406 87.1274 44.6564 86.8137 44.7403C86.496 44.8242 86.1117 44.8682 85.6765 44.8682H84.1157V41.2122H85.6294C86.1078 41.2122 86.5156 41.2642 86.8411 41.3681C87.1627 41.468 87.4254 41.6118 87.6254 41.7876C87.8215 41.9594 87.9666 42.1672 88.0489 42.4029C88.1352 42.6427 88.1823 42.9104 88.1823 43.1901C88.1823 43.4338 88.1352 43.6655 88.0372 43.8693Z" fill="white"/>
<path d="M94.8095 36.2218L90.394 45.7712H91.3978L92.8449 42.6546H96.6408L98.0408 45.7712H99.8447L95.5232 36.2218H94.8095ZM93.2135 41.8356L94.7546 38.5112L96.2565 41.8356H93.2135Z" fill="white"/>
<path d="M107.684 36.2178V42.9303L101.77 36.2178H100.754V45.7672H101.656V38.5192L107.876 45.7672H108.574V36.2178H107.684Z" fill="white"/>
<path d="M126.644 52.1242H122.66V73.3567H126.644V52.1242Z" fill="white"/>
<path d="M19.0275 70.4639C22.0901 72.8892 25.8743 74 29.7134 74C34.4819 74 38.7327 71.8264 38.7327 67.5152C38.7327 63.7234 36.3603 62.1171 33.2074 61.314C31.9918 61.0024 28.8664 60.5389 28.1919 60.395C25.8116 59.8836 24.3528 59.1964 24.3175 57.6181C24.2744 55.8481 26.5488 54.8851 28.9879 54.8851C30.4938 54.8851 31.7408 55.1848 32.9604 55.7242L34.9289 57.1546L35.3681 57.4023L37.7485 54.122H37.7289L37.7485 54.102C34.7838 52.0283 31.8702 51.4889 28.6272 51.4889C24.0116 51.4889 20.3098 54.122 20.3098 57.6261C20.3098 61.1302 22.0705 62.8244 26.8429 63.7753C28.1487 64.035 29.5918 64.2588 30.9212 64.5185C33.5407 65.0299 34.7329 65.7211 34.725 67.627C34.7133 69.8606 32.3525 70.6477 29.7134 70.6038C27.8272 70.5718 26.0704 70.2162 24.1763 69.2373L21.9881 67.1875L21.5489 66.9438L19.0627 70.376L19 70.4399C19 70.4399 19.0078 70.4439 19.0118 70.4479L19 70.4599H19.0275V70.4639Z" fill="white"/>
<path d="M67.3633 73.3567H71.2141V59.9036L77.5277 70.8675H78.7943L85.249 59.9036V73.3567H89.0999V52.1242H85.4843L78.2022 64.5425H78.1198L70.9789 52.1242H65.7398V52.4518L67.3633 55.2048V73.3567Z" fill="white"/>
<path d="M43.1012 66.0048C43.1012 70.8595 46.6188 74 52.2382 74C57.8577 74 61.4889 70.8595 61.4889 66.0048V52.1242H57.4812V66.0048C57.4812 68.7938 55.4185 70.5958 52.2382 70.5958C49.0579 70.5958 47.109 68.7898 47.109 66.0048V52.1242H41.4385V52.4478L43.1012 55.2687V66.0048Z" fill="white"/>
<path d="M138.122 73.3567H142.102V55.5244H149.851L151 52.1242H131.526L130.373 55.5244H138.122V73.3567Z" fill="white"/>
<path d="M95.1938 73.3567H99.0486V59.9036L105.358 70.8675H106.629L113.083 59.9036V73.3567H116.934V52.1242H113.319L106.037 64.5425H105.95L98.8094 52.1242H93.5743V52.4518L95.1938 55.2048V73.3567Z" fill="white"/>
<path d="M49.9431 121.25V123H55.4588V124.594H42.49V123H47.9744V121.25H49.9431ZM49.9744 116.922C49.9744 118.578 51.5681 120.156 54.7713 120.547L54.0056 122.094C51.6072 121.734 49.8416 120.727 48.9431 119.297C48.0291 120.727 46.2634 121.742 43.865 122.094L43.1619 120.547C46.3025 120.156 47.9431 118.531 47.9431 116.922V116.453H49.9744V116.922ZM48.9588 125.375C52.0525 125.375 53.8963 126.297 53.9119 127.922C53.8963 129.547 52.0525 130.438 48.9588 130.438C45.8338 130.438 43.9744 129.547 43.9744 127.922C43.9744 126.297 45.8338 125.375 48.9588 125.375ZM48.9588 126.891C46.9744 126.891 45.99 127.219 46.0056 127.922C45.99 128.625 46.9744 128.953 48.9588 128.953C50.8963 128.953 51.8963 128.625 51.9119 127.922C51.8963 127.219 50.8963 126.891 48.9588 126.891ZM63.7875 117.531V119.125H62.5219V125.328C63.1 125.281 63.6625 125.227 64.2094 125.156L64.3188 126.594C61.4125 127.109 58.1469 127.156 55.7094 127.172L55.4906 125.547L57.1156 125.531V119.125H55.85V117.531H63.7875ZM66.8969 116.219V121.625H68.9906V123.25H66.8969V130.438H64.8969V116.219H66.8969ZM59.0375 125.5L60.6 125.438V119.125H59.0375V125.5ZM84.3044 118.016V119.609H72.4762V118.016H77.3981V116.359H79.3669V118.016H84.3044ZM84.9294 127.391V128.984H71.9137V127.391H77.3981V125.75C74.9762 125.547 73.5075 124.547 73.5231 122.984C73.5075 121.266 75.3825 120.219 78.3825 120.234C81.3356 120.219 83.2262 121.266 83.2262 122.984C83.2262 124.547 81.7497 125.547 79.3669 125.75V127.391H84.9294ZM78.3825 121.781C76.5387 121.781 75.5544 122.172 75.57 122.984C75.5544 123.828 76.5387 124.203 78.3825 124.203C80.1794 124.203 81.1794 123.828 81.1794 122.984C81.1794 122.172 80.1794 121.781 78.3825 121.781ZM96.3831 116.234V120.234H98.305V121.875H96.3831V126.703H94.3831V116.234H96.3831ZM96.8988 128.594V130.188H87.1644V125.625H89.1488V128.594H96.8988ZM87.5081 117.234V119.297H90.4144V117.234H92.4144V124.438H85.5238V117.234H87.5081ZM87.5081 122.875H90.4144V120.828H87.5081V122.875ZM113.619 116.219V130.438H111.603V122.734H109.728V121.031H111.603V116.219H113.619ZM104.963 119.812C104.947 121.43 105.088 123.289 105.978 124.75C106.822 123.297 106.947 121.438 106.963 119.812V117.344H108.853V119.812C108.853 122.047 109.119 124.516 110.963 125.922L109.728 127.344C108.791 126.633 108.22 125.562 107.884 124.328C107.533 125.609 106.939 126.727 105.963 127.453C104.986 126.742 104.392 125.641 104.041 124.375C103.713 125.562 103.173 126.578 102.322 127.266L100.978 125.922C102.806 124.469 103.088 122.031 103.088 119.812V117.344H104.963V119.812ZM126.432 116.219V125.688H124.432V116.219H126.432ZM122.197 117.359V123.891H115.244V117.359H122.197ZM117.213 118.938V122.312H120.213V118.938H117.213ZM122.635 125.25C122.619 126.844 124.104 128.391 127.151 128.812L126.385 130.391C124.065 130.031 122.416 129.016 121.572 127.625C120.721 129.008 119.08 130.016 116.807 130.391L116.026 128.812C119.026 128.406 120.541 126.844 120.541 125.25V124.938H122.635V125.25ZM29.0825 148.953V150.547H16.1137V148.953H19.0356V147.25C17.9966 146.789 17.4106 146.086 17.4106 145.172C17.4106 143.453 19.4262 142.422 22.5981 142.422C25.7387 142.422 27.7544 143.453 27.77 145.172C27.7622 146.094 27.1528 146.812 26.0981 147.266V148.953H29.0825ZM22.5825 151.297C25.6606 151.297 27.52 152.203 27.5356 153.844C27.52 155.516 25.6606 156.422 22.5825 156.422C19.4575 156.422 17.5981 155.516 17.5981 153.844C17.5981 152.203 19.4575 151.297 22.5825 151.297ZM22.5825 152.797C20.6137 152.797 19.6137 153.141 19.6294 153.844C19.6137 154.578 20.6137 154.938 22.5825 154.938C24.5044 154.938 25.52 154.578 25.5356 153.844C25.52 153.141 24.5044 152.797 22.5825 152.797ZM22.5981 143.953C20.5825 143.953 19.4731 144.375 19.4887 145.172C19.4731 145.953 20.5825 146.344 22.5981 146.344C24.5825 146.344 25.7075 145.953 25.7075 145.172C25.7075 144.375 24.5825 143.953 22.5981 143.953ZM21.0512 148.953H24.1137V147.766C23.645 147.82 23.1372 147.844 22.5981 147.844C22.0434 147.844 21.5278 147.82 21.0512 147.75V148.953ZM34.5519 144.656C34.5362 146.469 35.5675 148.234 37.88 148.984L36.8331 150.547C35.2784 150.023 34.2081 149 33.5987 147.703C32.9581 149.133 31.8253 150.25 30.1769 150.812L29.0675 149.234C31.4894 148.484 32.5362 146.578 32.5519 144.641V143.094H34.5519V144.656ZM40.5831 142.219V146.328H42.505V148.016H40.5831V152.641H38.5831V142.219H40.5831ZM41.1144 154.594V156.188H31.3487V151.609H33.38V154.594H41.1144ZM57.9281 144.016V145.609H46.1V144.016H51.0219V142.359H52.9906V144.016H57.9281ZM58.5531 153.391V154.984H45.5375V153.391H51.0219V151.75C48.6 151.547 47.1312 150.547 47.1469 148.984C47.1312 147.266 49.0062 146.219 52.0062 146.234C54.9594 146.219 56.85 147.266 56.85 148.984C56.85 150.547 55.3734 151.547 52.9906 151.75V153.391H58.5531ZM52.0062 147.781C50.1625 147.781 49.1781 148.172 49.1937 148.984C49.1781 149.828 50.1625 150.203 52.0062 150.203C53.8031 150.203 54.8031 149.828 54.8031 148.984C54.8031 148.172 53.8031 147.781 52.0062 147.781ZM70.0069 142.234V146.234H71.9287V147.875H70.0069V152.703H68.0069V142.234H70.0069ZM70.5225 154.594V156.188H60.7881V151.625H62.7725V154.594H70.5225ZM61.1319 143.234V145.297H64.0381V143.234H66.0381V150.438H59.1475V143.234H61.1319ZM61.1319 148.875H64.0381V146.828H61.1319V148.875ZM84.195 142.219V156.438H82.1794V148.734H80.3044V147.031H82.1794V142.219H84.195ZM75.5387 145.812C75.5231 147.43 75.6637 149.289 76.5544 150.75C77.3981 149.297 77.5231 147.438 77.5387 145.812V143.344H79.4294V145.812C79.4294 148.047 79.695 150.516 81.5387 151.922L80.3044 153.344C79.3669 152.633 78.7966 151.562 78.4606 150.328C78.1091 151.609 77.5153 152.727 76.5387 153.453C75.5622 152.742 74.9684 151.641 74.6169 150.375C74.2887 151.562 73.7497 152.578 72.8981 153.266L71.5544 151.922C73.3825 150.469 73.6637 148.031 73.6637 145.812V143.344H75.5387V145.812ZM97.0081 142.219V151.688H95.0081V142.219H97.0081ZM92.7738 143.359V149.891H85.8206V143.359H92.7738ZM87.7894 144.938V148.312H90.7894V144.938H87.7894ZM93.2113 151.25C93.1956 152.844 94.68 154.391 97.7269 154.812L96.9613 156.391C94.6409 156.031 92.9925 155.016 92.1488 153.625C91.2972 155.008 89.6566 156.016 87.3831 156.391L86.6019 154.812C89.6019 154.406 91.1175 152.844 91.1175 151.25V150.938H93.2113V151.25ZM113.666 142.219V156.438H111.759V142.219H113.666ZM110.697 142.422V155.781H108.822V149.062H107.681C107.494 151.859 106.306 153.547 104.556 153.547C102.681 153.547 101.462 151.578 101.462 148.375C101.462 145.188 102.681 143.234 104.556 143.234C106.267 143.234 107.439 144.828 107.666 147.484H108.822V142.422H110.697ZM104.556 145.109C103.759 145.109 103.291 146.203 103.306 148.375C103.291 150.562 103.759 151.641 104.556 151.625C105.369 151.641 105.853 150.562 105.853 148.375C105.853 146.203 105.369 145.109 104.556 145.109ZM126.432 142.219V156.469H124.416V142.219H126.432ZM118.713 143.219C120.854 143.219 122.447 145.188 122.447 148.281C122.447 151.406 120.854 153.359 118.713 153.359C116.526 153.359 114.932 151.406 114.947 148.281C114.932 145.188 116.526 143.219 118.713 143.219ZM118.713 145.016C117.604 145.016 116.869 146.172 116.869 148.281C116.869 150.406 117.604 151.547 118.713 151.547C119.791 151.547 120.526 150.406 120.526 148.281C120.526 146.172 119.791 145.016 118.713 145.016ZM139.62 142.219V156.469H137.604V142.219H139.62ZM135.495 143.469V145.094H130.573V151.391C133.12 151.383 134.682 151.328 136.479 151L136.667 152.641C134.698 153.016 132.886 153.078 129.807 153.078H128.573V143.469H135.495ZM146.23 144.672C146.23 146.641 147.199 148.594 149.449 149.422L148.339 150.969C146.847 150.383 145.824 149.266 145.246 147.859C144.621 149.359 143.519 150.531 141.902 151.141L140.839 149.578C143.167 148.75 144.214 146.75 144.214 144.672V143.031H146.23V144.672ZM152.886 142.234V152.781H150.902V148.438H148.464V146.828H150.902V145.688H148.464V144.078H150.902V142.234H152.886ZM153.183 154.594V156.188H143.417V151.766H145.433V154.594H153.183ZM56.4044 170.016V171.609H44.5762V170.016H49.4981V168.359H51.4669V170.016H56.4044ZM57.0294 179.391V180.984H44.0137V179.391H49.4981V177.75C47.0762 177.547 45.6075 176.547 45.6231 174.984C45.6075 173.266 47.4825 172.219 50.4825 172.234C53.4356 172.219 55.3262 173.266 55.3262 174.984C55.3262 176.547 53.8497 177.547 51.4669 177.75V179.391H57.0294ZM50.4825 173.781C48.6387 173.781 47.6544 174.172 47.67 174.984C47.6544 175.828 48.6387 176.203 50.4825 176.203C52.2794 176.203 53.2794 175.828 53.2794 174.984C53.2794 174.172 52.2794 173.781 50.4825 173.781ZM68.4831 168.234V172.234H70.405V173.875H68.4831V178.703H66.4831V168.234H68.4831ZM68.9987 180.594V182.188H59.2644V177.625H61.2487V180.594H68.9987ZM59.6081 169.234V171.297H62.5144V169.234H64.5144V176.438H57.6237V169.234H59.6081ZM59.6081 174.875H62.5144V172.828H59.6081V174.875ZM82.6712 168.219V182.438H80.6556V174.734H78.7806V173.031H80.6556V168.219H82.6712ZM74.015 171.812C73.9994 173.43 74.14 175.289 75.0306 176.75C75.8744 175.297 75.9994 173.438 76.015 171.812V169.344H77.9056V171.812C77.9056 174.047 78.1712 176.516 80.015 177.922L78.7806 179.344C77.8431 178.633 77.2728 177.562 76.9369 176.328C76.5853 177.609 75.9916 178.727 75.015 179.453C74.0384 178.742 73.4447 177.641 73.0931 176.375C72.765 177.562 72.2259 178.578 71.3744 179.266L70.0306 177.922C71.8587 176.469 72.14 174.031 72.14 171.812V169.344H74.015V171.812ZM95.4844 168.219V177.688H93.4844V168.219H95.4844ZM91.25 169.359V175.891H84.2969V169.359H91.25ZM86.2656 170.938V174.312H89.2656V170.938H86.2656ZM91.6875 177.25C91.6719 178.844 93.1562 180.391 96.2031 180.812L95.4375 182.391C93.1172 182.031 91.4688 181.016 90.625 179.625C89.7734 181.008 88.1328 182.016 85.8594 182.391L85.0781 180.812C88.0781 180.406 89.5938 178.844 89.5938 177.25V176.938H91.6875V177.25ZM112.079 168.219V182.438H110.158V175.203H108.861V181.812H107.001V168.594H108.861V173.609H110.158V168.219H112.079ZM106.001 169.969C105.986 173.938 104.798 177.188 100.798 179.516L99.6419 178.141C102.54 176.438 103.783 174.352 104.064 171.562H100.361V169.969H106.001ZM125.971 175.094V176.672H113.002V175.094H118.471V173.984H114.658V168.625H116.627V169.859H122.33V168.625H124.314V173.984H120.471V175.094H125.971ZM119.471 177.359C122.549 177.359 124.424 178.266 124.424 179.906C124.424 181.547 122.549 182.438 119.471 182.438C116.346 182.438 114.502 181.547 114.502 179.906C114.502 178.266 116.346 177.359 119.471 177.359ZM119.471 178.875C117.502 178.875 116.486 179.188 116.502 179.906C116.486 180.609 117.502 180.938 119.471 180.938C121.393 180.938 122.393 180.609 122.408 179.906C122.393 179.188 121.393 178.875 119.471 178.875ZM116.627 172.438H122.33V171.344H116.627V172.438Z" fill="white" fill-opacity="0.8"/>
</svg>
