<svg width="174" height="188" viewBox="0 0 174 188" fill="none" xmlns="http://www.w3.org/2000/svg">
<path d="M139.028 51.9394L143.112 56.0784L145.223 53.9052L138.594 47.0761C138.619 46.9509 138.648 46.8225 138.673 46.7007C139.123 44.409 139.218 42.1337 139.174 41.0273H136.051C136.054 41.0504 136.219 43.2763 135.658 46.0257C134.976 49.3415 133.087 52.3642 129.555 54.3003L131.413 56.997C134.846 55.0082 136.596 52.6638 137.576 50.4083L139.035 51.9361L139.028 51.9394Z" fill="white"/>
<path d="M53.8269 66.1047V60.1811H50.6849V66.8324C50.6849 68.1528 51.7153 69.2196 52.9835 69.2196H68.2749V66.7468H54.4451C54.1027 66.7468 53.8237 66.457 53.8237 66.1014L53.8269 66.1047Z" fill="white"/>
<path d="M80.9728 66.1047V60.7672H77.8309V66.8357C77.8309 68.1561 78.8613 69.2229 80.1295 69.2229H95.4209V66.7501H81.5911C81.2487 66.7501 80.9697 66.4603 80.9697 66.1047H80.9728Z" fill="white"/>
<path d="M59.6289 47.3592H64.5274V49.9243H59.6289V52.463H64.5274V61.4751H67.7042V40H64.5274V44.8535H59.6289V47.3592Z" fill="white"/>
<path d="M94.6948 40H91.5212V61.4751H94.6948V50.0033H99.1209V47.4646H94.6948V40Z" fill="white"/>
<path d="M117.126 47.4646H112.361V50.0033H117.126V68.2746H120.268V40.5729H117.126V47.4646Z" fill="white"/>
<path d="M125.912 40H122.77V69.2295H125.912V40Z" fill="white"/>
<path d="M151.574 46.7501V40H148.432V57.0003H151.574V49.2888H156V46.7501H151.574Z" fill="white"/>
<path d="M28.6371 43.7998C22.7146 43.7998 18 48.7521 18 55.5186C18 63.2071 23.5643 67.4284 29.2078 67.4284C32.6668 67.4284 35.9039 66.3385 37.8348 64.5209V61.3961C34.5057 63.9447 31.8774 64.4024 29.2078 64.4024C24.7659 64.4024 21.3893 60.7705 21.3893 55.5976C21.3893 50.4248 24.8705 46.7303 28.6403 46.7303C32.41 46.7303 35.4347 49.2954 35.4347 53.8393H24.2554V56.4307H38.8176V54.8469C38.8176 48.166 34.6896 43.7998 28.6371 43.7998Z" fill="white"/>
<path d="M109.152 41.2183H106.055C106.121 45.0971 106.511 51.5838 99.5806 57.8499L101.708 60.2601C104.457 58.031 106.207 55.4034 107.32 52.8087L113.198 59.6806L115.291 57.7478L108.382 49.6707C109.358 45.8973 109.206 42.5914 109.152 41.2183Z" fill="white"/>
<path d="M60.523 56.3418V53.8986C59.6099 54.0237 58.4241 54.1324 57.0101 54.1883V43.8887H60.0823V41.3829H44.1029V43.8887H46.912V54.2344H43.8461V56.9509H53.2086C56.7469 56.9509 58.8046 56.7007 60.5262 56.3418H60.523ZM49.9969 43.8887H53.9251V54.2344H49.9969V43.8887Z" fill="white"/>
<path d="M85.4781 41.057H75.1518V43.5924H85.4781V41.057Z" fill="white"/>
<path d="M144.44 57.3592C140.572 57.3592 137.414 59.8683 137.414 63.678C137.414 67.4877 140.572 70 144.44 70C148.308 70 151.466 67.3955 151.466 63.678C151.466 59.9605 148.308 57.3592 144.44 57.3592ZM144.44 67.402C142.417 67.402 140.563 65.8709 140.563 63.678C140.563 61.485 142.417 59.9539 144.44 59.9539C146.463 59.9539 148.318 61.485 148.318 63.678C148.318 65.8709 146.463 67.402 144.44 67.402Z" fill="white"/>
<path d="M86.9968 52.1732C86.9968 50.4742 86.3183 49.0583 85.2182 48.0375H89.0545V45.5021H71.8544V48.0375H75.6908C74.5938 49.0583 73.9121 50.4742 73.9121 52.1732C73.9121 55.6371 76.8512 58.0606 80.4529 58.0606C84.0546 58.0606 86.9937 55.6371 86.9937 52.1732H86.9968ZM76.8448 52.1732C76.8448 50.1317 78.5728 48.706 80.456 48.706C82.3393 48.706 84.0673 50.1317 84.0673 52.1732C84.0673 54.2147 82.3393 55.6404 80.456 55.6404C78.5728 55.6404 76.8448 54.2147 76.8448 52.1732Z" fill="white"/>
<path d="M46.8728 121.25V123H52.3884V124.594H39.4197V123H44.9041V121.25H46.8728ZM46.9041 116.922C46.9041 118.578 48.4978 120.156 51.7009 120.547L50.9353 122.094C48.5369 121.734 46.7713 120.727 45.8728 119.297C44.9588 120.727 43.1931 121.742 40.7947 122.094L40.0916 120.547C43.2322 120.156 44.8728 118.531 44.8728 116.922V116.453H46.9041V116.922ZM45.8884 125.375C48.9822 125.375 50.8259 126.297 50.8416 127.922C50.8259 129.547 48.9822 130.438 45.8884 130.438C42.7634 130.438 40.9041 129.547 40.9041 127.922C40.9041 126.297 42.7634 125.375 45.8884 125.375ZM45.8884 126.891C43.9041 126.891 42.9197 127.219 42.9353 127.922C42.9197 128.625 43.9041 128.953 45.8884 128.953C47.8259 128.953 48.8259 128.625 48.8416 127.922C48.8259 127.219 47.8259 126.891 45.8884 126.891ZM60.7172 117.531V119.125H59.4516V125.328C60.0297 125.281 60.5922 125.227 61.1391 125.156L61.2484 126.594C58.3422 127.109 55.0766 127.156 52.6391 127.172L52.4203 125.547L54.0453 125.531V119.125H52.7797V117.531H60.7172ZM63.8266 116.219V121.625H65.9203V123.25H63.8266V130.438H61.8266V116.219H63.8266ZM55.9672 125.5L57.5297 125.438V119.125H55.9672V125.5ZM76.9528 117.531V119.125H75.6872V125.328C76.2653 125.281 76.8278 125.227 77.3747 125.156L77.4841 126.594C74.5778 127.109 71.3122 127.156 68.8747 127.172L68.6559 125.547L70.2809 125.531V119.125H69.0153V117.531H76.9528ZM80.0622 116.219V121.625H82.1559V123.25H80.0622V130.438H78.0622V116.219H80.0622ZM72.2028 125.5L73.7653 125.438V119.125H72.2028V125.5ZM93.6722 117.469V119.125C93.6722 121.188 93.6722 123.172 93.0159 126.25L91.0316 126.062C91.3128 124.875 91.4691 123.836 91.5784 122.875L83.3284 123.281L83.0784 121.688L91.6722 121.375C91.7113 120.602 91.7113 119.859 91.7191 119.125V119.062H83.5159V117.469H93.6722ZM95.0003 127.109V128.734H82.0316V127.109H95.0003ZM107.438 116.219V126.859H105.548V116.219H107.438ZM104.563 116.438V126.438H102.673V121.094H100.938V119.469H102.673V116.438H104.563ZM107.798 128.594V130.188H97.7978V125.609H99.7978V128.594H107.798ZM99.7041 119.031C99.7041 120.672 100.407 122.297 102.235 123.141L101.126 124.672C99.9853 124.133 99.2197 123.242 98.7509 122.156C98.2509 123.391 97.3994 124.43 96.1416 125.016L95.0478 123.5C96.9853 122.562 97.7666 120.719 97.7666 119.031V117.172H99.7041V119.031ZM120.002 123.562V125.141H109.939V117.266H119.892V118.875H111.97V120.375H119.564V121.938H111.97V123.562H120.002ZM121.423 127.156V128.781H108.408V127.156H121.423ZM128.58 116.875V120.734H124.127V121.781C126.33 121.773 127.846 121.719 129.58 121.438L129.721 122.953C127.721 123.281 126.018 123.312 123.315 123.312H122.158V119.344H126.612V118.359H122.127V116.875H128.58ZM133.58 124.188V127.938H126.002V128.797H134.002V130.344H124.018V126.516H131.612V125.656H124.002V124.188H133.58ZM133.58 116.219V123.641H131.596V120.406H129.315V118.812H131.596V116.219H133.58ZM4.98 155.172C2.38625 155.172 0.792503 153.484 0.792503 150.797C0.792503 148.172 2.40188 146.406 4.88625 146.406C7.12063 146.406 8.87063 147.812 8.87063 150.703V151.359H3.07375C3.07375 152.641 3.83938 153.438 5.02688 153.438C5.80813 153.438 6.37063 153.094 6.605 152.578H8.80813C8.48 154.141 7.07375 155.172 4.98 155.172ZM3.07375 149.906H6.68313C6.68313 148.875 5.96438 148.141 4.93313 148.141C3.87063 148.141 3.11282 148.93 3.07375 149.906ZM21.1838 142.219V152.688H19.1994V149.188H17.3869V147.547H19.1994V146.312H17.3869V144.719H19.1994V142.219H21.1838ZM17.1369 143.234V144.828H15.965V149.141C16.4416 149.109 16.9103 149.062 17.3556 149.016L17.4338 150.469C14.7775 150.906 11.6525 150.969 9.4025 150.969L9.19938 149.344L10.715 149.328V144.828H9.55875V143.234H17.1369ZM21.5275 154.594V156.188H11.7306V151.906H13.7306V154.594H21.5275ZM12.6369 149.297L14.0588 149.25V144.828H12.6369V149.297ZM33.6688 142.234V146.594H35.5906V148.219H33.6688V152.844H31.6688V142.234H33.6688ZM30.825 143.719V145.297H22.3875V143.719H25.6219V142.203H27.6063V143.719H30.825ZM26.6063 145.797C28.6688 145.797 30.1063 146.906 30.1063 148.547C30.1063 150.188 28.6688 151.266 26.6063 151.266C24.5281 151.266 23.075 150.188 23.075 148.547C23.075 146.906 24.5281 145.797 26.6063 145.797ZM26.6063 147.312C25.6531 147.328 25.0125 147.766 25.0281 148.547C25.0125 149.328 25.6531 149.75 26.6063 149.75C27.5594 149.75 28.2156 149.328 28.2156 148.547C28.2156 147.766 27.5594 147.328 26.6063 147.312ZM34.1844 154.594V156.188H24.45V152.031H26.4344V154.594H34.1844ZM40.1381 145.797C40.1381 148.094 40.7788 150.469 42.7163 151.719L41.6381 153.266C40.4116 152.523 39.6303 151.305 39.185 149.844C38.6694 151.453 37.8178 152.797 36.5288 153.578L35.31 152.109C37.4194 150.797 38.2006 148.297 38.2006 145.891V143.438H40.1381V145.797ZM47.9038 142.219V156.438H45.9975V142.219H47.9038ZM44.9194 142.422V155.781H43.06V148.641H41.2163V147.016H43.06V142.422H44.9194ZM53.9513 144.453C53.9513 146.172 54.9513 147.828 57.2013 148.531L56.1388 150.078C54.6309 149.578 53.5763 148.609 52.9669 147.359C52.3497 148.797 51.2481 149.922 49.6231 150.469L48.545 148.906C50.92 148.109 51.9356 146.219 51.9513 144.266V142.969H53.9513V144.453ZM60.045 142.219V145.547H61.9669V147.203H60.045V150.656H58.045V142.219H60.045ZM55.3888 150.938C58.3263 150.938 60.1856 151.953 60.1856 153.688C60.1856 155.438 58.3263 156.438 55.3888 156.438C52.3888 156.438 50.5138 155.438 50.5138 153.688C50.5138 151.953 52.3888 150.938 55.3888 150.938ZM55.3888 152.5C53.5138 152.5 52.4981 152.906 52.5138 153.688C52.4981 154.5 53.5138 154.875 55.3888 154.875C57.2325 154.875 58.2169 154.5 58.2169 153.688C58.2169 152.906 57.2325 152.5 55.3888 152.5ZM76.2806 142.219V145.562H78.2025V147.188H76.2806V150.469H74.2806V142.219H76.2806ZM72.3119 143.156C72.3275 146.953 69.9369 149.609 65.7025 150.781L64.9056 149.172C68.0384 148.336 69.8353 146.727 70.14 144.75H65.5775V143.156H72.3119ZM71.64 150.641C74.5306 150.641 76.4369 151.766 76.4369 153.547C76.4369 155.344 74.5306 156.453 71.64 156.453C68.7494 156.453 66.8119 155.344 66.8275 153.547C66.8119 151.766 68.7494 150.641 71.64 150.641ZM71.64 152.188C69.8431 152.188 68.7806 152.672 68.7963 153.547C68.7806 154.406 69.8431 154.906 71.64 154.891C73.4056 154.906 74.4681 154.406 74.4681 153.547C74.4681 152.672 73.4056 152.188 71.64 152.188ZM91.1875 148.938V150.5H78.1875V148.938H83.7188V147.719H79.7656V142.844H89.625V144.391H81.75V146.156H89.7031V147.719H85.6719V148.938H91.1875ZM84.6562 151.219C87.7344 151.219 89.5938 152.156 89.6094 153.844C89.5938 155.5 87.7344 156.453 84.6562 156.453C81.5469 156.453 79.6719 155.5 79.6719 153.844C79.6719 152.156 81.5469 151.219 84.6562 151.219ZM84.6562 152.734C82.6875 152.734 81.6875 153.109 81.7031 153.844C81.6875 154.594 82.6875 154.938 84.6562 154.938C86.5781 154.938 87.5938 154.594 87.6094 153.844C87.5938 153.109 86.5781 152.734 84.6562 152.734ZM107.439 153.125V154.781H94.4231V153.125H107.439ZM106.345 143.469V145.062H104.345V149.375H106.283V150.938H95.5013V149.375H97.4075V145.062H95.4388V143.469H106.345ZM99.4075 149.375H102.376V145.062H99.4075V149.375ZM113.049 143.641V149.031H109.924V151.453C111.307 151.438 112.619 151.375 114.096 151.094L114.268 152.719C112.408 153.062 110.814 153.094 109.018 153.109H108.018V147.453H111.127V145.219H108.002V143.641H113.049ZM119.908 142.219V156.438H118.018V142.219H119.908ZM116.955 142.484V155.75H115.096V148.688H113.643V147.078H115.096V142.484H116.955ZM128.284 144.094C128.284 146.172 130.128 148.406 133.346 148.953L132.471 150.609C129.995 150.117 128.151 148.727 127.237 146.891C126.292 148.711 124.448 150.109 121.987 150.609L121.128 148.953C124.284 148.391 126.143 146.156 126.159 144.094V143.062H128.284V144.094ZM133.815 153.047V154.688H120.799V153.047H133.815ZM142.003 143.391V145.016H136.738V147.359H141.409V148.922H136.738V151.609C138.917 151.594 140.659 151.516 142.644 151.203L142.831 152.812C140.597 153.141 138.55 153.203 135.988 153.203H134.769V143.391H142.003ZM145.941 142.219V156.438H143.925V142.219H145.941ZM152.691 146.094C152.691 148.391 153.863 150.844 156.254 151.844L155.176 153.406C153.496 152.695 152.34 151.281 151.707 149.547C151.058 151.43 149.879 152.992 148.207 153.766L147.066 152.188C149.426 151.141 150.644 148.5 150.644 146.094V145.219H147.629V143.594H155.66V145.219H152.691V146.094ZM159.082 142.219V156.438H157.066V142.219H159.082ZM172.411 142.234V152.969H170.411V151.844H167.692V150.484H170.411V142.234H172.411ZM172.723 154.594V156.188H162.129V151.938H164.114V150.047C162.84 150.102 161.629 150.109 160.551 150.109L160.317 148.531C162.926 148.516 166.442 148.484 169.442 148.109L169.551 149.531C168.426 149.719 167.262 149.852 166.114 149.938V152.641H164.114V154.594H172.723ZM164.942 142.719C167.004 142.703 168.489 143.75 168.489 145.266C168.489 146.781 167.004 147.766 164.942 147.766C162.832 147.766 161.364 146.781 161.364 145.266C161.364 143.75 162.817 142.703 164.942 142.719ZM164.942 144.172C163.926 144.172 163.239 144.562 163.254 145.266C163.239 145.953 163.926 146.328 164.942 146.328C165.895 146.328 166.582 145.953 166.598 145.266C166.582 144.562 165.895 144.172 164.942 144.172ZM11.5741 181.172C8.98032 181.172 7.38657 179.484 7.38657 176.797C7.38657 174.172 8.99594 172.406 11.4803 172.406C13.7147 172.406 15.4647 173.812 15.4647 176.703V177.359H9.66782C9.66782 178.641 10.4334 179.438 11.6209 179.438C12.4022 179.438 12.9647 179.094 13.1991 178.578H15.4022C15.0741 180.141 13.6678 181.172 11.5741 181.172ZM9.66782 175.906H13.2772C13.2772 174.875 12.5584 174.141 11.5272 174.141C10.4647 174.141 9.70688 174.93 9.66782 175.906ZM27.7778 168.219V178.688H25.7934V175.188H23.9809V173.547H25.7934V172.312H23.9809V170.719H25.7934V168.219H27.7778ZM23.7309 169.234V170.828H22.5591V175.141C23.0356 175.109 23.5044 175.062 23.9497 175.016L24.0278 176.469C21.3716 176.906 18.2466 176.969 15.9966 176.969L15.7934 175.344L17.3091 175.328V170.828H16.1528V169.234H23.7309ZM28.1216 180.594V182.188H18.3247V177.906H20.3247V180.594H28.1216ZM19.2309 175.297L20.6528 175.25V170.828H19.2309V175.297ZM40.2628 168.234V172.594H42.1847V174.219H40.2628V178.844H38.2628V168.234H40.2628ZM37.4191 169.719V171.297H28.9816V169.719H32.2159V168.203H34.2003V169.719H37.4191ZM33.2003 171.797C35.2628 171.797 36.7003 172.906 36.7003 174.547C36.7003 176.188 35.2628 177.266 33.2003 177.266C31.1222 177.266 29.6691 176.188 29.6691 174.547C29.6691 172.906 31.1222 171.797 33.2003 171.797ZM33.2003 173.312C32.2472 173.328 31.6066 173.766 31.6222 174.547C31.6066 175.328 32.2472 175.75 33.2003 175.75C34.1534 175.75 34.8097 175.328 34.8097 174.547C34.8097 173.766 34.1534 173.328 33.2003 173.312ZM40.7784 180.594V182.188H31.0441V178.031H33.0284V180.594H40.7784ZM46.7322 171.797C46.7322 174.094 47.3728 176.469 49.3103 177.719L48.2322 179.266C47.0056 178.523 46.2244 177.305 45.7791 175.844C45.2634 177.453 44.4119 178.797 43.1228 179.578L41.9041 178.109C44.0134 176.797 44.7947 174.297 44.7947 171.891V169.438H46.7322V171.797ZM54.4978 168.219V182.438H52.5916V168.219H54.4978ZM51.5134 168.422V181.781H49.6541V174.641H47.8103V173.016H49.6541V168.422H51.5134ZM60.5453 170.453C60.5453 172.172 61.5453 173.828 63.7953 174.531L62.7328 176.078C61.225 175.578 60.1703 174.609 59.5609 173.359C58.9438 174.797 57.8422 175.922 56.2172 176.469L55.1391 174.906C57.5141 174.109 58.5297 172.219 58.5453 170.266V168.969H60.5453V170.453ZM66.6391 168.219V171.547H68.5609V173.203H66.6391V176.656H64.6391V168.219H66.6391ZM61.9828 176.938C64.9203 176.938 66.7797 177.953 66.7797 179.688C66.7797 181.438 64.9203 182.438 61.9828 182.438C58.9828 182.438 57.1078 181.438 57.1078 179.688C57.1078 177.953 58.9828 176.938 61.9828 176.938ZM61.9828 178.5C60.1078 178.5 59.0922 178.906 59.1078 179.688C59.0922 180.5 60.1078 180.875 61.9828 180.875C63.8266 180.875 64.8109 180.5 64.8109 179.688C64.8109 178.906 63.8266 178.5 61.9828 178.5ZM83.3122 169.453V170.797C83.3122 172.578 83.3122 174.578 82.7341 177.594L80.7341 177.391C81.2731 174.703 81.2966 172.703 81.3122 171.031H72.9372V169.453H83.3122ZM84.5622 179.078V180.703H71.5934V179.078H76.2341V174.188H78.2184V179.078H84.5622ZM92.0159 169.156V170.766H87.5316V174.75C89.8284 174.734 91.1722 174.633 92.6409 174.328L92.8128 175.906C91.1253 176.297 89.6253 176.344 86.6722 176.344H85.5472V169.156H92.0159ZM96.7659 177.406V182.438H94.7816V179H87.0003V177.406H96.7659ZM96.7659 168.219V176.797H94.7816V173.375H91.3284V171.766H94.7816V168.219H96.7659ZM104.939 169.219C106.861 169.219 108.291 170.805 108.58 173.359H111.048V168.219H113.017V182.469H111.048V174.953H108.595C108.384 177.688 106.923 179.359 104.939 179.359C102.783 179.359 101.236 177.406 101.252 174.281C101.236 171.188 102.783 169.219 104.939 169.219ZM104.939 171.016C103.877 171.016 103.142 172.172 103.158 174.281C103.142 176.406 103.877 177.547 104.939 177.547C106.017 177.547 106.72 176.406 106.72 174.281C106.72 172.172 106.017 171.016 104.939 171.016ZM125.487 168.234V172.234H127.408V173.875H125.487V178.703H123.487V168.234H125.487ZM126.002 180.594V182.188H116.268V177.625H118.252V180.594H126.002ZM116.612 169.234V171.297H119.518V169.234H121.518V176.438H114.627V169.234H116.612ZM116.612 174.875H119.518V172.828H116.612V174.875ZM140.409 179.094V180.719H127.393V179.094H140.409ZM130.768 169.125V171.484H136.972V169.125H138.956V176.719H128.768V169.125H130.768ZM130.768 175.156H136.972V173.031H130.768V175.156ZM152.472 168.219V177.922H150.488V168.219H152.472ZM147.91 169.094V173.469H143.285V174.859C145.824 174.844 147.449 174.75 149.285 174.438L149.503 176.016C147.441 176.391 145.597 176.469 142.582 176.469H141.332V171.969H145.925V170.688H141.316V169.094H147.91ZM148.691 177.453C148.675 178.984 150.16 180.484 153.207 180.859L152.488 182.391C150.152 182.055 148.48 181.094 147.644 179.75C146.777 181.102 145.121 182.07 142.816 182.391L142.066 180.859C145.097 180.484 146.597 178.984 146.597 177.453V177.203H148.691V177.453ZM159.285 172.094C159.285 174.391 160.457 176.844 162.848 177.844L161.77 179.406C160.09 178.695 158.934 177.281 158.301 175.547C157.652 177.43 156.473 178.992 154.801 179.766L153.66 178.188C156.02 177.141 157.238 174.5 157.238 172.094V171.219H154.223V169.594H162.254V171.219H159.285V172.094ZM165.676 168.219V182.438H163.66V168.219H165.676Z" fill="white" fill-opacity="0.8"/>
</svg>
