<svg width="170" height="188" viewBox="0 0 170 188" fill="none" xmlns="http://www.w3.org/2000/svg">
<path d="M139.05 54.9981C139.041 49.5434 134.669 45.1198 129.309 45.1461C123.946 45.1725 119.588 49.6312 119.614 55.0655C119.64 60.4587 124.004 64.8647 129.332 64.8765C134.695 64.8882 139.062 60.4529 139.053 55.001M143.997 54.9952C144.009 63.1978 137.439 69.8771 129.355 69.8859C121.276 69.8947 114.684 63.2154 114.678 55.0245C114.672 46.8248 121.242 40.1455 129.329 40.1337C137.408 40.1191 143.988 46.7837 144 54.9952" fill="white"/>
<path d="M105.321 50.2347C105.298 52.9533 103.381 54.922 100.72 54.9366C98.5987 54.9454 96.4773 54.9366 94.2635 54.9366V45.4479C94.506 45.4274 94.7484 45.3893 94.988 45.3893C96.9131 45.3864 98.8383 45.3776 100.766 45.3981C103.448 45.4274 105.341 47.4487 105.318 50.2347M110.023 47.1997C108.888 43.3503 105.433 40.4325 100.662 40.5439C97.1209 40.6318 93.5795 40.5644 90.0351 40.5644C89.735 40.5644 89.4377 40.5644 89.1433 40.5644V69.3908H94.2289V59.785C96.1685 59.785 98.0042 59.8142 99.837 59.7703C100.152 59.7703 100.382 59.7703 100.556 59.7762L101.243 61.1735C101.981 62.6998 102.781 64.1968 103.468 65.7407L104.634 68.2073C105.304 69.2063 106.288 69.3938 108.025 69.4875C109.191 69.4582 109.812 69.4582 110.952 69.4582C110.014 67.5101 109.16 65.7319 108.305 63.9537C107.451 62.1813 106.6 60.4119 105.751 58.6571C105.869 58.5809 105.979 58.493 106.048 58.4491C109.913 56.085 111.246 51.3802 110.014 47.1997" fill="white"/>
<path d="M83.261 50.6449C82.8916 46.8248 79.9533 42.9402 76.1636 41.3143C72.8502 39.8906 69.4011 39.6181 65.926 40.5234C58.3668 42.492 53.8757 50.4632 55.7461 58.4667C57.6279 66.5375 65.0197 71.3214 73.0234 69.6779C78.008 68.6555 81.3792 65.7934 82.9608 60.8484C83.0619 60.5349 83.1282 60.2097 83.235 59.8055C81.5466 59.8055 79.9908 59.826 78.4351 59.7937C78.4207 59.7937 78.4063 59.7937 78.3918 59.7937L77.7049 59.785C77.7049 59.785 77.526 60.3591 77.1969 61.0154C76.6399 62.0641 75.8461 62.9254 74.8157 63.5728C71.3493 65.7465 66.4167 65.146 63.6314 62.1403C61.0337 59.3426 60.3439 55.9912 61.1088 52.2971C61.9112 48.4213 64.9764 45.4596 68.5236 45.0758C72.4288 44.654 75.8231 46.0514 77.4307 49.4115C77.4451 49.4408 77.4596 49.4701 77.4711 49.4994C77.5577 49.684 77.6356 49.8773 77.7107 50.0736C77.8319 50.4017 77.8925 50.6302 77.8925 50.6302H79.1509C80.519 50.6449 81.8871 50.639 83.261 50.639" fill="white"/>
<path d="M43.8026 59.7469H35.3314C36.7341 55.6075 38.1051 51.5442 39.5627 47.2349C41.0173 51.5266 42.3941 55.5869 43.8026 59.7469ZM52.9233 68.9866C49.4713 59.7205 46.0135 50.4544 42.5702 41.1825L42.5442 41.121C42.5442 41.121 42.5413 41.1093 42.5384 41.1034L42.3133 40.5527L41.9179 40.5585C41.9179 40.5585 41.9179 40.5585 41.915 40.5585C40.5555 40.5849 39.0085 40.6054 37.649 40.5497C37.6144 40.5497 37.5827 40.5497 37.548 40.5497L36.7918 40.5468L36.3675 41.6805C33.0368 50.68 29.68 59.6736 26.3262 68.6731C26.2309 68.9016 26.153 69.0686 26 69.4612C27.2094 69.4612 28.4591 69.4641 29.6165 69.4582H29.6136L31.7206 69.4612L33.6082 64.604C33.6082 64.604 33.6169 64.604 33.6227 64.604C37.1959 64.6274 41.9842 64.6274 45.5921 64.604L46.357 66.6752C46.4378 66.8978 46.5186 67.1205 46.6023 67.3431L47.3758 69.4348L49.4338 69.4612V69.4553C50.6085 69.4641 51.864 69.4553 53.0964 69.4553C53.007 69.2121 52.9608 69.0891 52.9204 68.9836" fill="white"/>
<path d="M28.0597 117.219C30.2316 117.219 31.7941 119.188 31.8097 122.281C31.7941 125.406 30.2316 127.359 28.0597 127.359C25.8878 127.359 24.2941 125.406 24.3097 122.281C24.2941 119.188 25.8878 117.219 28.0597 117.219ZM28.0597 119.016C26.9659 119.016 26.2316 120.172 26.2316 122.281C26.2316 124.406 26.9659 125.547 28.0597 125.547C29.1691 125.547 29.8878 124.406 29.9034 122.281C29.8878 120.172 29.1691 119.016 28.0597 119.016ZM35.4503 116.219V121.578H37.5441V123.234H35.4503V130.438H33.4503V116.219H35.4503ZM49.0603 117.469V119.125C49.0603 121.188 49.0603 123.172 48.4041 126.25L46.4197 126.062C46.7009 124.875 46.8572 123.836 46.9666 122.875L38.7166 123.281L38.4666 121.688L47.0603 121.375C47.0994 120.602 47.0994 119.859 47.1072 119.125V119.062H38.9041V117.469H49.0603ZM50.3884 127.109V128.734H37.4197V127.109H50.3884ZM63.6234 127.219V128.859H50.6078V127.219H56.0922V125.078H52.1078V120.297H60.1547V118.734H52.0922V117.141H62.1234V121.859H54.1078V123.453H62.4516V125.078H58.0766V127.219H63.6234ZM72.2184 119.438C72.2184 122.109 73.2966 124.703 75.6716 125.734L74.4528 127.328C72.8747 126.555 71.82 125.141 71.2341 123.391C70.6091 125.25 69.5153 126.773 67.8903 127.578L66.6403 125.953C69.0778 124.859 70.1872 122.109 70.2028 119.438V117.312H72.2184V119.438ZM78.8434 116.219V130.469H76.8747V122.297H74.0778V120.688H76.8747V116.219H78.8434ZM86.5159 116.344C89.7816 116.344 91.6722 117.203 91.6878 118.781C91.6722 120.344 89.7816 121.203 86.5159 121.203C83.2347 121.203 81.3284 120.344 81.3284 118.781C81.3284 117.203 83.2347 116.344 86.5159 116.344ZM86.5159 117.812C84.4222 117.812 83.4066 118.125 83.4222 118.781C83.4066 119.469 84.4222 119.75 86.5159 119.75C88.6253 119.75 89.6253 119.469 89.6253 118.781C89.6253 118.125 88.6253 117.812 86.5159 117.812ZM93.0003 121.844V123.406H87.5003V124.359H91.4222V127.984H83.5003V128.844H91.7972V130.344H81.5472V126.594H89.4534V125.812H81.5316V124.359H85.5003V123.406H80.0316V121.844H93.0003ZM106.235 127.188V128.859H93.2197V127.188H98.6884V124.625H94.2978V123.062H96.2041V119H94.2353V117.406H105.142V119H103.142V123.062H105.079V124.625H100.673V127.188H106.235ZM98.2041 123.062H101.173V119H98.2041V123.062ZM111.845 117.641V123.031H108.72V125.453C110.103 125.438 111.416 125.375 112.892 125.094L113.064 126.719C111.205 127.062 109.611 127.094 107.814 127.109H106.814V121.453H109.923V119.219H106.798V117.641H111.845ZM118.705 116.219V130.438H116.814V116.219H118.705ZM115.752 116.484V129.75H113.892V122.688H112.439V121.078H113.892V116.484H115.752ZM127.08 118.094C127.08 120.172 128.924 122.406 132.143 122.953L131.268 124.609C128.791 124.117 126.947 122.727 126.033 120.891C125.088 122.711 123.244 124.109 120.783 124.609L119.924 122.953C123.08 122.391 124.94 120.156 124.955 118.094V117.062H127.08V118.094ZM132.612 127.047V128.688H119.596V127.047H132.612ZM144.378 123.562V125.141H134.315V117.266H144.268V118.875H136.347V120.375H143.94V121.938H136.347V123.562H144.378ZM145.8 127.156V128.781H132.784V127.156H145.8ZM42.7716 143.219C44.9434 143.219 46.5059 145.188 46.5216 148.281C46.5059 151.406 44.9434 153.359 42.7716 153.359C40.5997 153.359 39.0059 151.406 39.0216 148.281C39.0059 145.188 40.5997 143.219 42.7716 143.219ZM42.7716 145.016C41.6778 145.016 40.9434 146.172 40.9434 148.281C40.9434 150.406 41.6778 151.547 42.7716 151.547C43.8809 151.547 44.5997 150.406 44.6153 148.281C44.5997 146.172 43.8809 145.016 42.7716 145.016ZM50.1622 142.219V147.578H52.2559V149.234H50.1622V156.438H48.1622V142.219H50.1622ZM63.7722 143.469V145.125C63.7722 147.188 63.7722 149.172 63.1159 152.25L61.1316 152.062C61.4128 150.875 61.5691 149.836 61.6784 148.875L53.4284 149.281L53.1784 147.688L61.7722 147.375C61.8113 146.602 61.8113 145.859 61.8191 145.125V145.062H53.6159V143.469H63.7722ZM65.1003 153.109V154.734H52.1316V153.109H65.1003ZM78.3353 153.219V154.859H65.3197V153.219H70.8041V151.078H66.8197V146.297H74.8666V144.734H66.8041V143.141H76.8353V147.859H68.8197V149.453H77.1634V151.078H72.7884V153.219H78.3353ZM93.4772 142.219V156.469H91.4928V142.219H93.4772ZM89.0709 143.406V148.891H84.3834V151.5C86.5475 151.492 88.3913 151.367 90.4772 151.031L90.6491 152.641C88.3053 153.047 86.1959 153.141 83.6022 153.141H82.3209V147.312H87.0397V145.016H82.3053V143.406H89.0709ZM106.743 142.219V156.469H104.775V148.844H102.134V153.094H95.2747V143.312H97.2591V146.766H100.181V143.312H102.134V147.234H104.775V142.219H106.743ZM97.2591 151.5H100.181V148.328H97.2591V151.5ZM116.041 143.531V145.125H114.775V151.328C115.353 151.281 115.916 151.227 116.463 151.156L116.572 152.594C113.666 153.109 110.4 153.156 107.963 153.172L107.744 151.547L109.369 151.531V145.125H108.103V143.531H116.041ZM119.15 142.219V147.625H121.244V149.25H119.15V156.438H117.15V142.219H119.15ZM111.291 151.5L112.853 151.438V145.125H111.291V151.5ZM132.76 143.469V145.125C132.76 147.188 132.76 149.172 132.104 152.25L130.12 152.062C130.401 150.875 130.557 149.836 130.667 148.875L122.417 149.281L122.167 147.688L130.76 147.375C130.799 146.602 130.799 145.859 130.807 145.125V145.062H122.604V143.469H132.76ZM134.088 153.109V154.734H121.12V153.109H134.088ZM49.3656 169.219C51.5375 169.219 53.1 171.188 53.1156 174.281C53.1 177.406 51.5375 179.359 49.3656 179.359C47.1938 179.359 45.6 177.406 45.6156 174.281C45.6 171.188 47.1938 169.219 49.3656 169.219ZM49.3656 171.016C48.2719 171.016 47.5375 172.172 47.5375 174.281C47.5375 176.406 48.2719 177.547 49.3656 177.547C50.475 177.547 51.1938 176.406 51.2094 174.281C51.1938 172.172 50.475 171.016 49.3656 171.016ZM56.7563 168.219V173.578H58.85V175.234H56.7563V182.438H54.7563V168.219H56.7563ZM70.3662 169.469V171.125C70.3662 173.188 70.3662 175.172 69.71 178.25L67.7256 178.062C68.0069 176.875 68.1631 175.836 68.2725 174.875L60.0225 175.281L59.7725 173.688L68.3662 173.375C68.4053 172.602 68.4053 171.859 68.4131 171.125V171.062H60.21V169.469H70.3662ZM71.6944 179.109V180.734H58.7256V179.109H71.6944ZM84.9294 179.219V180.859H71.9137V179.219H77.3981V177.078H73.4137V172.297H81.4606V170.734H73.3981V169.141H83.4294V173.859H75.4137V175.453H83.7575V177.078H79.3825V179.219H84.9294ZM100.071 168.219V182.469H98.0869V168.219H100.071ZM95.665 169.406V174.891H90.9775V177.5C93.1416 177.492 94.9853 177.367 97.0713 177.031L97.2431 178.641C94.8994 179.047 92.79 179.141 90.1963 179.141H88.915V173.312H93.6338V171.016H88.8994V169.406H95.665ZM113.338 168.219V182.469H111.369V174.844H108.728V179.094H101.869V169.312H103.853V172.766H106.775V169.312H108.728V173.234H111.369V168.219H113.338ZM103.853 177.5H106.775V174.328H103.853V177.5ZM127.526 176.266V177.875H124.588V182.438H122.588V177.875H119.479V182.438H117.432V177.875H114.51V176.266H127.526ZM118.01 168.75V170.328H123.979V168.75H125.979V174.922H116.041V168.75H118.01ZM118.01 173.344H123.979V171.891H118.01V173.344Z" fill="white" fill-opacity="0.8"/>
</svg>
