<svg width="170" height="136" viewBox="0 0 170 136" fill="none" xmlns="http://www.w3.org/2000/svg">
<path d="M95.4973 27.5214V49.9848H90.828V19H79.1764V49.9848H74.5071V27.5214H71.4768V63.5409H74.5071V51.9362H79.1764V69.1394H82.2067V51.9362H87.802V69.1394H90.8323V51.9362H95.5016V63.5409H98.5319V27.5214H95.4973ZM82.2023 20.9515H87.7977V42.0055H82.2023V20.9515ZM82.2023 43.9613H87.7977V49.9848H82.2023V43.9613Z" fill="white"/>
<path d="M120.661 89.5733V86.6721H124.744V85.3495H120.661V81.1213H125.796V79.816H118.622V90.8786H126V89.5733H120.661Z" fill="white"/>
<path d="M90.3845 86.6721H94.4712V85.3495H90.3845V81.1213H95.519V79.816H88.3455V90.8786H95.7233V89.5733H90.3845V86.6721Z" fill="white"/>
<path d="M105.784 83.3416C105.784 82.4309 105.362 81.3121 104.423 80.6269C103.666 80.0762 102.501 79.816 100.967 79.816H97.8971V90.8829H99.9362V86.8716H101.61C101.662 86.8716 101.714 86.8716 101.762 86.8716L104.279 90.8829H106.527L103.697 86.529C105.232 85.9306 105.775 84.6383 105.775 83.346L105.784 83.3416ZM101.162 85.562H99.9405V81.1213H101.162C102.871 81.1213 103.845 82.0146 103.845 83.3416C103.845 84.6686 102.871 85.562 101.162 85.562Z" fill="white"/>
<path d="M116.205 83.3416C116.205 82.4309 115.783 81.3121 114.844 80.6269C114.088 80.0762 112.922 79.816 111.388 79.816H108.318V90.8829H110.357V86.8716H112.031C112.083 86.8716 112.136 86.8716 112.183 86.8716L114.701 90.8829H116.948L114.118 86.529C115.653 85.9306 116.196 84.6383 116.196 83.346L116.205 83.3416ZM111.579 85.562H110.357V81.1213H111.579C113.288 81.1213 114.261 82.0146 114.261 83.3416C114.261 84.6686 113.288 85.562 111.579 85.562Z" fill="white"/>
<path d="M77.5895 81.1213H81.1632V90.8786H83.2023V81.1213H86.7934V79.816H77.5895V81.1213Z" fill="white"/>
<path d="M74.0071 86.3902C74.0071 88.5802 73.1506 89.7641 71.3116 89.7641C69.4726 89.7641 68.69 88.5802 68.69 86.3902V79.8117H66.6466V86.3816C66.6466 89.183 68.2987 91 71.3116 91C74.3245 91 76.0505 89.1786 76.0505 86.3816V79.8117H74.0071V86.3902Z" fill="white"/>
<path d="M59.7687 79.816L54.9212 90.8829H56.5037L57.5906 88.3417H62.7121L63.8033 90.8829H65.9119L61.0513 79.816H59.7687ZM58.1601 87.0147L60.147 82.3659L62.1425 87.0147H58.1558H58.1601Z" fill="white"/>
<path d="M51.4518 84.3694H46.039V79.816H44V90.8786H46.039V85.692H51.4518V90.8786H53.4951V79.816H51.4518V84.3694Z" fill="white"/>
<path d="M43.9041 116.953C46.9666 116.953 49.2478 118.5 49.2634 120.844C49.2478 122.984 47.4431 124.43 44.8884 124.719V127.141H50.4353V128.781H37.4197V127.141H42.9041V124.703C40.3572 124.43 38.5603 122.977 38.5603 120.844C38.5603 118.5 40.8416 116.953 43.9041 116.953ZM43.9041 118.547C41.9197 118.547 40.5291 119.422 40.5291 120.844C40.5291 122.344 41.9197 123.188 43.9041 123.188C45.9041 123.188 47.2791 122.344 47.2947 120.844C47.2791 119.422 45.9041 118.547 43.9041 118.547ZM58.6234 117.391V119.016H53.3578V121.359H58.0297V122.922H53.3578V125.609C55.5375 125.594 57.2797 125.516 59.2641 125.203L59.4516 126.812C57.2172 127.141 55.1703 127.203 52.6078 127.203H51.3891V117.391H58.6234ZM62.5609 116.219V130.438H60.5453V116.219H62.5609ZM76.1241 116.219V130.438H74.2178V116.219H76.1241ZM73.1553 116.422V129.781H71.2803V123.062H70.1397C69.9522 125.859 68.7647 127.547 67.0147 127.547C65.1397 127.547 63.9209 125.578 63.9209 122.375C63.9209 119.188 65.1397 117.234 67.0147 117.234C68.7256 117.234 69.8975 118.828 70.1241 121.484H71.2803V116.422H73.1553ZM67.0147 119.109C66.2178 119.109 65.7491 120.203 65.7647 122.375C65.7491 124.562 66.2178 125.641 67.0147 125.625C67.8272 125.641 68.3116 124.562 68.3116 122.375C68.3116 120.203 67.8272 119.109 67.0147 119.109ZM89.9997 127.188V128.812H76.9841V127.188H89.9997ZM88.4997 117.172V121.906H80.4841V123.531H88.8278V125.094H78.4841V120.312H86.5309V118.766H78.4684V117.172H88.4997ZM105.126 116.234V126.609H103.126V116.234H105.126ZM105.501 128.594V130.188H95.5947V125.609H97.6103V128.594H105.501ZM98.6728 118.391C98.6572 120.266 99.6572 122.109 102.001 122.859L100.985 124.422C99.3838 123.891 98.2744 122.828 97.6416 121.469C97.0088 122.93 95.8681 124.102 94.2041 124.672L93.1728 123.094C95.5634 122.297 96.5947 120.312 96.5947 118.391V117.016H98.6728V118.391ZM117.689 116.234V120.234H119.611V121.875H117.689V126.703H115.689V116.234H117.689ZM118.205 128.594V130.188H108.47V125.625H110.455V128.594H118.205ZM108.814 117.234V119.297H111.72V117.234H113.72V124.438H106.83V117.234H108.814ZM108.814 122.875H111.72V120.828H108.814V122.875ZM132.612 127.188V128.859H119.596V127.188H125.065V124.625H120.674V123.062H122.58V119H120.612V117.406H131.518V119H129.518V123.062H131.455V124.625H127.049V127.188H132.612ZM124.58 123.062H127.549V119H124.58V123.062Z" fill="white" fill-opacity="0.8"/>
</svg>
