<svg width="286" height="200" viewBox="0 0 286 200" fill="none" xmlns="http://www.w3.org/2000/svg">
<path d="M131.223 106.526H118.496V105.897C119.036 105.897 119.443 105.859 119.734 105.792C120.021 105.716 120.24 105.594 120.381 105.421C120.527 105.235 120.608 104.995 120.647 104.674C120.698 104.358 120.719 103.898 120.719 103.282V93.0205C120.719 92.3921 120.659 91.9408 120.544 91.6582C120.437 91.3756 120.235 91.1942 119.935 91.1183C119.64 91.0297 119.16 90.9665 118.492 90.9454V90.3169H129.963V93.8809H129.496C129.419 93.3579 129.278 92.9277 129.098 92.5566C128.914 92.1812 128.661 91.8944 128.378 91.6793C128.083 91.4768 127.714 91.3208 127.282 91.228C126.845 91.1267 126.331 91.0803 125.735 91.0803H123.007V97.6137H126.104C126.931 97.6137 127.453 97.4281 127.654 97.057C127.864 96.6857 128.006 96.2008 128.083 95.6061H128.537V100.891H128.083C128.083 100.343 128.036 99.9039 127.937 99.6002C127.834 99.2839 127.689 99.0646 127.492 98.9423C127.303 98.8031 127.068 98.7272 126.776 98.6935C126.498 98.6639 126.074 98.6428 125.517 98.6428H123.002V102.574C123.002 103.527 123.045 104.219 123.127 104.64C123.217 105.054 123.427 105.353 123.765 105.539C124.099 105.712 124.66 105.8 125.418 105.8H126.871C127.684 105.762 128.597 105.67 129.059 105.526C129.531 105.387 129.89 105.113 130.143 104.7C130.396 104.29 130.563 103.738 130.64 102.932H131.218V106.522L131.223 106.526Z" fill="white"/>
<path d="M133.146 105.897C133.853 105.897 134.384 105.788 134.739 105.547C135.095 105.315 135.275 104.91 135.275 104.328V92.6283C135.275 92.1221 135.189 91.751 135.013 91.5106C134.842 91.2744 134.624 91.1183 134.367 91.0635C134.101 91.0044 133.703 90.9622 133.146 90.9454V90.3169H139.682V90.9454C139.126 90.958 138.719 91.0002 138.462 91.0635C138.2 91.1183 137.986 91.2744 137.815 91.5106C137.644 91.751 137.554 92.1221 137.554 92.6283V103.333C137.554 103.81 137.596 104.189 137.678 104.468C137.755 104.759 137.922 104.999 138.175 105.189C138.423 105.391 138.8 105.53 139.288 105.623C139.777 105.716 140.432 105.762 141.255 105.762C142.175 105.762 143.152 105.678 143.658 105.501C144.159 105.328 144.531 105.029 144.763 104.619C144.998 104.21 145.135 103.666 145.187 102.903H145.817V106.53H133.146V105.897Z" fill="white"/>
<path d="M159.601 90.317V90.9075C159.155 90.9201 158.813 91.0298 158.564 91.2322C158.316 91.4431 158.007 91.7806 157.656 92.2614L153.154 98.2295V104.206C153.154 104.717 153.248 105.088 153.42 105.341C153.591 105.577 153.814 105.724 154.067 105.784C154.324 105.838 154.735 105.876 155.3 105.889V106.517H148.738V105.889C149.509 105.876 150.053 105.779 150.383 105.59C150.717 105.408 150.875 104.948 150.875 104.206V98.626L145.984 91.9493C145.757 91.6245 145.568 91.3967 145.418 91.2744C145.264 91.1479 145.11 91.072 144.943 91.0424C144.776 91.0045 144.394 90.9623 143.803 90.9033V90.3128H149.916V90.9033C149.042 90.9033 148.605 91.0677 148.605 91.3841C148.605 91.6287 148.862 92.1137 149.389 92.8266L152.657 97.3902L155.733 93.2399C155.814 93.1302 155.93 92.9573 156.101 92.738C156.272 92.5102 156.397 92.2951 156.495 92.118C156.59 91.9282 156.637 91.7552 156.637 91.5992C156.637 91.2744 156.525 91.0762 156.307 91.0045C156.093 90.937 155.651 90.9033 154.979 90.9033V90.3128H159.605L159.601 90.317Z" fill="white"/>
<path d="M161.006 106.067L160.522 102.672H161.083C161.318 103.633 161.773 104.435 162.454 105.118C163.126 105.789 163.94 106.126 164.887 106.126C165.516 106.126 166.082 105.991 166.587 105.717C167.084 105.46 167.487 105.093 167.769 104.603C168.061 104.131 168.211 103.6 168.211 103.005C168.211 102.064 167.919 101.339 167.358 100.854C166.793 100.36 165.902 99.8162 164.685 99.2004C163.465 98.5846 162.548 97.9393 161.927 97.294C161.323 96.6402 161.01 95.6996 161.01 94.4765C161.01 93.5022 161.241 92.6797 161.683 91.9964C162.128 91.3047 162.741 90.7859 163.516 90.4401C164.3 90.0816 165.191 89.9086 166.202 89.9086C166.497 89.9086 166.814 89.9255 167.144 89.9677C167.478 90.0183 167.821 90.0605 168.164 90.1322C168.515 90.1912 168.849 90.2503 169.175 90.3093L169.564 93.2407H169.007C168.883 92.4351 168.545 91.794 168.005 91.3469C167.465 90.8956 166.759 90.6636 165.872 90.6636C165.294 90.6636 164.78 90.7986 164.33 91.0517C163.884 91.3132 163.542 91.6717 163.31 92.1272C163.079 92.5743 162.968 93.0846 162.968 93.6414C162.968 94.5904 163.259 95.3116 163.841 95.7966C164.424 96.2859 165.354 96.8384 166.617 97.4668C167.889 98.0995 168.845 98.7322 169.483 99.3734C170.121 100.019 170.442 100.938 170.442 102.149C170.442 102.878 170.288 103.528 169.971 104.118C169.663 104.705 169.239 105.198 168.695 105.611C168.155 106.025 167.534 106.337 166.844 106.552C166.155 106.767 165.444 106.877 164.732 106.877C163.43 106.877 162.184 106.607 161.01 106.059L161.006 106.067Z" fill="white"/>
<path d="M179.4 90.3169V90.9454C178.843 90.958 178.427 91.0002 178.17 91.0635C177.909 91.1183 177.695 91.2744 177.523 91.5106C177.356 91.751 177.262 92.1221 177.262 92.6283V104.223C177.262 104.729 177.356 105.096 177.523 105.349C177.699 105.585 177.909 105.733 178.17 105.792C178.427 105.847 178.843 105.885 179.4 105.897V106.526H172.837V105.897C173.612 105.885 174.156 105.792 174.482 105.598C174.816 105.417 174.979 104.957 174.979 104.223V92.6283C174.979 91.8902 174.812 91.4304 174.482 91.2491C174.161 91.0677 173.612 90.9665 172.837 90.9496V90.3211H179.4V90.3169Z" fill="white"/>
<path d="M187.825 92.6372L190.327 99.4742H185.499L187.774 92.6372H187.82M183.785 101.651C183.293 103.08 182.976 103.937 182.83 104.249C182.629 104.713 182.449 105.05 182.282 105.248C182.124 105.451 181.922 105.598 181.682 105.687C181.447 105.784 181.066 105.851 180.556 105.91V106.547H186.141V105.91H185.611C185.26 105.894 184.964 105.873 184.758 105.839C184.544 105.797 184.364 105.7 184.227 105.556C184.09 105.4 184.026 105.16 184.026 104.81C184.026 104.485 184.068 104.126 184.175 103.73C184.278 103.333 184.428 102.789 184.651 102.098L185.161 100.465H190.673L191.847 103.814C192.078 104.447 192.194 104.894 192.194 105.13C192.194 105.653 191.766 105.91 190.896 105.91H190.48V106.547H196.603V105.91C195.711 105.91 195.111 105.695 194.786 105.253C194.674 105.113 194.537 104.848 194.396 104.476C194.246 104.097 194.087 103.662 193.912 103.165C193.732 102.671 193.582 102.237 193.449 101.874L188.977 89.6847H187.718L183.777 101.651H183.785Z" fill="white"/>
<path d="M211.89 102.945V93.7376C211.89 93.0121 211.812 92.4512 211.663 92.0631C211.518 91.6709 211.243 91.3841 210.836 91.2196C210.425 91.0551 209.833 90.9581 209.042 90.9454V90.317H215V90.9454C214.601 90.9454 214.275 90.9665 214.027 91.0087C213.766 91.0593 213.552 91.1521 213.363 91.3039C213.184 91.4516 213.042 91.6962 212.947 92.0125C212.853 92.3289 212.811 92.7717 212.811 93.3327V106.728H212.279L200.808 93.4297V102.051C200.808 102.869 200.839 103.531 200.903 104.02C200.962 104.51 201.091 104.894 201.28 105.172C201.459 105.442 201.738 105.636 202.084 105.733C202.436 105.847 202.95 105.893 203.592 105.893V106.522H197.368V105.893C197.977 105.893 198.453 105.843 198.786 105.746C199.108 105.653 199.378 105.387 199.588 104.969C199.802 104.552 199.896 103.873 199.896 102.945V93.649C199.896 92.6705 199.665 91.983 199.224 91.5612C198.77 91.1521 198.037 90.9412 197.009 90.9412V90.3128H201.065L211.895 102.941L211.89 102.945Z" fill="white"/>
<path d="M74.9154 86.4031C75.9134 86.2597 77.0443 86.2976 77.1942 86.2976C77.3998 86.2892 78.068 86.2723 75.575 87.757C75.8663 88.5288 76.6288 89.7984 76.6802 90.1822C76.7873 90.9752 75.9477 90.237 74.3285 89.0772C73.6046 89.9713 72.7693 91.0806 72.5808 91.1017C72.2895 91.1354 72.4994 89.5833 72.9878 88.2884C72.5594 88.1155 72.0668 87.9173 71.677 87.6979C70.6832 87.1496 70.4905 86.7152 73.1505 86.7152C73.4333 85.9434 73.656 84.6654 73.9601 84.5937C74.2514 84.5304 74.5298 85.1926 74.9196 86.3989L74.9154 86.4031Z" fill="white"/>
<path d="M112.002 105.016C112.85 105.1 113.771 105.362 113.891 105.391C114.063 105.425 114.611 105.543 112.268 106.264C112.345 106.952 112.709 108.145 112.675 108.47C112.598 109.141 112.058 108.369 110.978 107.095C110.199 107.681 109.291 108.424 109.128 108.403C108.884 108.373 109.376 107.146 110.04 106.18C109.723 105.948 109.364 105.695 109.089 105.433C108.387 104.788 108.318 104.396 110.503 104.923C110.889 104.345 111.338 103.341 111.595 103.35C111.848 103.354 111.938 103.953 112.011 105.016H112.002Z" fill="white"/>
<path d="M108.802 91.9878C109.368 92.1017 109.967 92.3463 110.049 92.3717C110.16 92.4096 110.529 92.5277 108.888 92.844C108.888 93.3164 109.047 94.1473 108.999 94.3624C108.901 94.8137 108.597 94.2528 107.954 93.3164C107.385 93.6539 106.716 94.0883 106.605 94.063C106.446 94.025 106.866 93.2321 107.385 92.6332C107.188 92.456 106.965 92.2536 106.793 92.0595C106.365 91.5703 106.348 91.3003 107.787 91.8149C108.091 91.4522 108.468 90.8069 108.644 90.8322C108.811 90.8533 108.832 91.2666 108.798 91.9878H108.802Z" fill="white"/>
<path d="M74.8683 92.3837C75.1381 92.1306 76.4832 92.6115 78.2394 93.0417C81.6405 93.8768 86.498 95.0029 90.8287 95.4373C95.639 95.9267 99.8626 95.9098 102.994 95.8803C103.611 95.8718 104.926 95.7875 104.93 96.2219C104.934 96.5002 104.36 96.669 103.354 96.8208C102.133 97.0022 100.792 97.1877 99.9226 97.3016C99.1987 97.3902 99.5157 97.5843 99.8755 97.6812C100.291 97.7993 100.886 97.968 101.293 98.103C101.683 98.2338 101.884 98.3013 101.88 98.4869C101.88 98.6513 101.687 98.7526 101.392 98.8665C101.131 98.9677 100.929 99.0562 100.951 99.1321C100.972 99.246 101.542 99.3177 102.09 99.4189C102.578 99.5033 103.178 99.634 103.444 99.7227C103.581 99.7691 103.671 99.8323 103.675 99.9208C103.679 100.018 103.585 100.102 103.324 100.187C102.527 100.44 101.76 100.558 101.769 100.714C101.777 100.866 102.356 100.946 103.118 101.055C104.27 101.22 106.858 101.621 107.444 101.722C107.697 101.768 107.783 101.798 107.77 101.891C107.757 101.983 107.543 102.026 107.273 102.047C106.691 102.106 103.786 102.165 102.454 102.106C94.2983 101.734 84.0521 99.6636 76.1062 94.7794C74.7398 93.9358 75.0182 93.4339 74.9497 93.1724C74.8683 92.8477 74.6798 92.5609 74.864 92.3879L74.8683 92.3837Z" fill="white"/>
<path d="M106.614 114.261C106.177 113.224 105.487 112.005 104.665 110.942C103.615 109.58 102.78 108.799 101.323 108.281C98.2907 107.201 92.1867 107.378 89.6808 106.944C87.175 106.513 84.6091 105.674 83.8252 103.274C82.9771 100.684 83.7096 96.4666 85.7614 93.3708C88.3444 89.4651 91.5698 89.7899 98.9332 89.6591C106.301 89.5284 106.943 85.0069 106.943 85.0069C105.316 84.9394 99.8414 84.5683 95.485 84.1254C91.133 83.6825 88.6956 84.505 86.6009 85.745C84.5063 86.9851 81.298 90.5828 80.1543 95.0579C77.6741 104.767 81.6706 109.192 86.5239 111.178C89.9635 112.591 95.3779 114.114 102.052 115.396C103.435 115.662 104.45 115.826 105.431 115.953C106.061 116.037 107.419 116.223 106.605 114.266L106.614 114.261Z" fill="white"/>
<path d="M83.7268 98.428C83.9795 97.1247 84.4292 95.7919 85.0632 94.5645C83.5125 94.2609 82.0004 93.9319 80.6212 93.6113C80.4498 94.0795 80.2913 94.5603 80.1671 95.058C80.0129 95.6485 79.8887 96.2137 79.7859 96.7662C81.0666 97.3778 82.3859 97.9304 83.731 98.428H83.7268Z" fill="white"/>
<path d="M85.0588 94.5645C85.2687 94.1469 85.5043 93.7504 85.7613 93.3666C88.3399 89.461 91.5697 89.7857 98.9331 89.655C106.301 89.5242 106.943 85.0028 106.943 85.0028C105.311 84.9353 99.8412 84.5641 95.4849 84.1212C91.1329 83.6784 88.6955 84.5008 86.6009 85.7409C84.7332 86.8459 81.9917 89.8152 80.6082 93.607C81.9917 93.9276 83.5038 94.2566 85.0545 94.5602L85.0588 94.5645Z" fill="white"/>
</svg>
