<svg width="278" height="180" viewBox="0 0 278 180" fill="none" xmlns="http://www.w3.org/2000/svg">
<path d="M166.644 33.5H149.918V107.148H166.644V33.5Z" fill="white"/>
<path d="M147.365 33.5H130.635V107.148H147.365V33.5Z" fill="#A6A6A6"/>
<path d="M128.086 33.5H111.356V107.148H128.086V33.5Z" fill="white"/>
<path d="M95.0812 124.809C94.4559 122.447 92.6806 121.955 91.2988 121.955H89.3749C87.9931 121.955 86.2178 122.452 85.5925 124.809L79.8644 146.5H84.3026L90.3368 123.656L96.3755 146.5H100.814L95.0855 124.809H95.0812Z" fill="white"/>
<path d="M68.6136 136.741C71.9324 135.864 74.1624 133.165 74.1624 129.499C74.1624 124.999 70.7999 121.955 66.1911 121.955H55.5V146.5H59.8114V126.066H66.1386C68.4649 126.066 69.851 127.349 69.851 129.499C69.851 131.65 68.4649 132.936 66.1386 132.936H60.4192L71.1147 146.5H76.3007L68.6092 136.745L68.6136 136.741Z" fill="white"/>
<path d="M169.023 121.955H164.707V146.5H169.023V121.955Z" fill="white"/>
<path d="M189.95 124.809C189.325 122.447 187.549 121.955 186.168 121.955H184.244C182.862 121.955 181.087 122.452 180.461 124.809L174.729 146.5H179.167L185.206 123.656L191.244 146.5H195.678L189.95 124.809Z" fill="white"/>
<path d="M106.542 143.119C106.542 144.98 108.072 146.5 109.961 146.5H123.324V142.393H110.858V135.89H122.913V132.021H110.858V126.066H123.324V121.955H106.542V143.119Z" fill="white"/>
<path d="M218.189 121.951V142.389H217.279L210.698 124.805C209.767 122.21 208.333 121.951 206.947 121.951H201.389V146.5H205.705V126.066H206.614L213.195 143.646C214.126 146.245 215.561 146.5 216.942 146.5H222.5V121.951H218.184H218.189Z" fill="white"/>
<path d="M151.584 121.955C150.203 121.955 148.751 122.326 147.995 124.814L143.849 137.639L139.704 124.814C138.952 122.331 137.491 121.955 136.114 121.955H130.661V146.5H134.977V126.066H135.738L139.429 137.488C139.638 138.179 140.373 139.47 141.785 139.47H145.922C147.334 139.47 148.064 138.174 148.274 137.488L151.965 126.066H152.726V146.5H157.042V121.955H151.584Z" fill="white"/>
</svg>
