<svg width="278" height="180" viewBox="0 0 278 180" fill="none" xmlns="http://www.w3.org/2000/svg">
<path d="M224.14 84.9903L230.822 91.7632L234.277 88.207L223.429 77.0321C223.471 76.8274 223.517 76.6173 223.559 76.4179C224.296 72.6678 224.451 68.9446 224.379 67.1342H219.268C219.273 67.1719 219.543 70.8143 218.625 75.3133C217.509 80.7391 214.417 85.6854 208.638 88.8536L211.678 93.2665C217.297 90.012 220.161 86.1757 221.764 82.4849L224.15 84.985L224.14 84.9903Z" fill="white"/>
<path d="M84.7195 108.17V98.4767H79.5781V109.361C79.5781 111.521 81.2642 113.267 83.3395 113.267H108.362V109.221H85.7312C85.1709 109.221 84.7143 108.746 84.7143 108.165L84.7195 108.17Z" fill="white"/>
<path d="M129.14 108.17V99.4358H123.999V109.366C123.999 111.527 125.685 113.272 127.76 113.272H152.782V109.226H130.152C129.592 109.226 129.135 108.752 129.135 108.17H129.14Z" fill="white"/>
<path d="M94.2138 77.4955H102.229V81.6928H94.2138V85.8471H102.229V100.594H107.428V65.4531H102.229V73.3952H94.2138V77.4955Z" fill="white"/>
<path d="M151.594 65.4531H146.401V100.594H151.594V81.8221H158.837V77.6679H151.594V65.4531Z" fill="white"/>
<path d="M188.3 77.6679H180.503V81.8221H188.3V111.721H193.442V66.3907H188.3V77.6679Z" fill="white"/>
<path d="M202.677 65.4531H197.535V113.283H202.677V65.4531Z" fill="white"/>
<path d="M244.669 76.4987V65.4531H239.528V93.2718H244.669V80.6529H251.912V76.4987H244.669Z" fill="white"/>
<path d="M43.4999 71.671C33.8085 71.671 26.0938 79.7747 26.0938 90.8472C26.0938 103.428 35.1989 110.336 44.4338 110.336C50.094 110.336 55.3911 108.552 58.5506 105.578V100.465C53.1031 104.635 48.8022 105.384 44.4338 105.384C37.1652 105.384 31.6399 99.4412 31.6399 90.9765C31.6399 82.5118 37.3364 76.4664 43.5051 76.4664C49.6738 76.4664 54.6232 80.6637 54.6232 88.0993H36.3299V92.3397H60.159V89.748C60.159 78.8156 53.404 71.671 43.4999 71.671Z" fill="white"/>
<path d="M175.252 67.4467H170.183C170.292 73.7939 170.931 84.4084 159.589 94.662L163.071 98.6061C167.569 94.9583 170.432 90.6586 172.253 86.4128L181.872 97.6578L185.296 94.4949L173.992 81.278C175.589 75.1032 175.34 69.6936 175.252 67.4467Z" fill="white"/>
<path d="M95.6768 92.1942V88.1963C94.1826 88.401 92.2423 88.5788 89.9284 88.6704V71.8165H94.9557V67.7161H68.8076V71.8165H73.4042V88.7458H68.3873V93.191H83.7078C89.4978 93.191 92.8649 92.7815 95.682 92.1942H95.6768ZM78.4523 71.8165H84.8803V88.7458H78.4523V71.8165Z" fill="white"/>
<path d="M136.513 67.1827H119.615V71.3315H136.513V67.1827Z" fill="white"/>
<path d="M232.996 93.8591C226.667 93.8591 221.499 97.9649 221.499 104.199C221.499 110.433 226.667 114.544 232.996 114.544C239.326 114.544 244.493 110.282 244.493 104.199C244.493 98.1157 239.326 93.8591 232.996 93.8591ZM232.996 110.293C229.686 110.293 226.651 107.787 226.651 104.199C226.651 100.61 229.686 98.105 232.996 98.105C236.306 98.105 239.341 100.61 239.341 104.199C239.341 107.787 236.306 110.293 232.996 110.293Z" fill="white"/>
<path d="M138.998 85.3729C138.998 82.5926 137.887 80.2758 136.087 78.6055H142.365V74.4566H114.219V78.6055H120.497C118.702 80.2758 117.586 82.5926 117.586 85.3729C117.586 91.0412 122.396 95.0068 128.289 95.0068C134.183 95.0068 138.992 91.0412 138.992 85.3729H138.998ZM122.385 85.3729C122.385 82.0323 125.213 79.6992 128.295 79.6992C131.376 79.6992 134.204 82.0323 134.204 85.3729C134.204 88.7135 131.376 91.0466 128.295 91.0466C125.213 91.0466 122.385 88.7135 122.385 85.3729Z" fill="white"/>
</svg>
