<svg width="286" height="200" viewBox="0 0 286 200" fill="none" xmlns="http://www.w3.org/2000/svg">
<path d="M79.7904 92.515C79.3104 92.035 78.7604 91.625 78.1553 91.295C77.5503 90.965 76.9203 90.665 76.2853 90.4C75.6453 90.14 75.0202 89.88 74.4102 89.635C73.8002 89.385 73.2502 89.105 72.7652 88.79C72.2851 88.48 71.8901 88.11 71.6001 87.69C71.3101 87.27 71.1601 86.745 71.1601 86.135C71.1601 85.36 71.2501 84.795 71.4401 84.41C71.6251 84.035 71.8501 83.745 72.1051 83.545C72.3551 83.37 72.7002 83.24 73.1602 83.155C73.6152 83.07 74.1452 83.025 74.7402 83.025C75.5002 83.025 76.3353 83.13 77.2153 83.335C78.0453 83.53 78.8604 83.765 79.6354 84.03L79.7254 84.06L80.3704 81.53L80.2804 81.51C79.5604 81.365 78.8254 81.245 78.1003 81.15C77.3353 81.05 76.5053 81 75.6353 81C74.5502 81 73.5702 81.175 72.7152 81.52C71.8651 81.875 71.1351 82.325 70.5501 82.865C69.9701 83.405 69.5151 84.02 69.205 84.69C68.895 85.36 68.74 86.03 68.74 86.69C68.74 87.645 68.885 88.47 69.175 89.13C69.465 89.79 69.8501 90.365 70.3301 90.835C70.8051 91.305 71.3551 91.705 71.9651 92.025C72.5702 92.34 73.2002 92.635 73.8252 92.895C74.4502 93.155 75.0802 93.415 75.6853 93.66C76.2953 93.91 76.8453 94.2 77.3303 94.525C77.8103 94.85 78.2053 95.25 78.4953 95.715C78.7854 96.18 78.9354 96.75 78.9354 97.42C78.9354 97.93 78.9004 98.37 78.8304 98.735C78.7604 99.1 78.6604 99.405 78.5404 99.645C78.4153 99.89 78.2753 100.085 78.1203 100.225C77.9603 100.37 77.7953 100.49 77.6253 100.59C77.3103 100.775 76.9053 100.935 76.4153 101.06C75.9253 101.19 75.3352 101.25 74.6552 101.25C74.1552 101.25 73.6352 101.18 73.1052 101.045C72.5752 100.91 72.0551 100.74 71.5601 100.545C71.0651 100.345 70.5901 100.13 70.1551 99.895C69.7651 99.69 69.425 99.49 69.14 99.3L69.05 99.24L68 101.75L68.07 101.79C68.89 102.245 69.7801 102.615 70.7151 102.89C71.6801 103.17 72.7902 103.315 74.0202 103.315C75.1902 103.315 76.2403 103.12 77.1503 102.74C78.0553 102.36 78.8354 101.855 79.4654 101.235C80.0904 100.615 80.5754 99.905 80.8954 99.125C81.2204 98.345 81.3854 97.535 81.3854 96.72C81.3854 95.765 81.2404 94.935 80.9504 94.26C80.6554 93.58 80.2704 92.995 79.7904 92.515Z" fill="white"/>
<path d="M101.061 87.725C100.346 86.95 99.446 86.345 98.376 85.93C97.311 85.52 96.0509 85.31 94.6309 85.31C93.2008 85.31 91.9458 85.52 90.9058 85.93C89.8607 86.345 88.9857 86.945 88.3057 87.725C87.6257 88.5 87.1206 89.455 86.8006 90.555C86.4806 91.65 86.3206 92.905 86.3206 94.275C86.3206 95.645 86.4806 96.905 86.7956 98.02C87.1106 99.14 87.6107 100.11 88.2757 100.91C88.9407 101.71 89.8107 102.335 90.8558 102.775C91.9008 103.21 93.1608 103.43 94.6009 103.43C96.0209 103.43 97.281 103.215 98.351 102.79C99.426 102.365 100.331 101.75 101.041 100.955C101.751 100.165 102.296 99.19 102.656 98.065C103.016 96.945 103.201 95.67 103.201 94.275C103.201 92.905 103.021 91.65 102.666 90.555C102.311 89.45 101.771 88.5 101.061 87.725ZM94.6009 101.88C93.5359 101.88 92.6408 101.69 91.9308 101.31C91.2258 100.93 90.6508 100.4 90.2307 99.735C89.8057 99.065 89.4957 98.255 89.3107 97.33C89.1257 96.4 89.0307 95.375 89.0307 94.28C89.0307 93.565 89.0557 92.87 89.1007 92.21C89.1457 91.55 89.2207 90.935 89.3207 90.375C89.4207 89.82 89.5557 89.33 89.7257 88.915C89.8907 88.51 90.0957 88.195 90.3357 87.99C90.7808 87.615 91.3908 87.325 92.1458 87.135C92.9108 86.945 93.7509 86.845 94.6359 86.845C95.6559 86.845 96.541 87.025 97.271 87.385C98.001 87.74 98.611 88.25 99.086 88.895C99.561 89.545 99.9161 90.335 100.141 91.24C100.366 92.15 100.481 93.175 100.481 94.28C100.481 94.955 100.456 95.64 100.406 96.31C100.356 96.975 100.271 97.6 100.161 98.17C100.046 98.74 99.9061 99.245 99.7361 99.675C99.5711 100.095 99.366 100.41 99.126 100.605C98.571 101.085 97.931 101.42 97.221 101.605C96.5059 101.785 95.6259 101.88 94.6009 101.88Z" fill="white"/>
<path d="M121.797 92.16C121.797 92.48 121.802 92.835 121.807 93.215C121.812 93.61 121.817 94.025 121.822 94.47C121.827 94.915 121.832 95.36 121.832 95.785C121.842 96.76 121.857 97.805 121.877 98.9L109.641 85.45L109.616 85.42H108.446V103.225H110.196V97.24C110.196 97.135 110.191 96.95 110.186 96.675C110.181 96.4 110.176 96.075 110.171 95.7C110.166 95.325 110.161 94.91 110.156 94.46C110.151 94.01 110.141 93.55 110.131 93.1C110.111 92.15 110.091 91.055 110.066 89.76L122.322 103.285L122.347 103.315H123.552V85.555H121.802V92.16H121.797Z" fill="white"/>
<path d="M144.838 90.55C144.483 89.45 143.943 88.495 143.228 87.72C142.512 86.945 141.612 86.34 140.542 85.925C139.477 85.515 138.217 85.305 136.797 85.305C135.367 85.305 134.112 85.515 133.072 85.925C132.027 86.34 131.152 86.94 130.472 87.72C129.792 88.495 129.287 89.45 128.967 90.55C128.647 91.645 128.487 92.9 128.487 94.27C128.487 95.64 128.647 96.9 128.962 98.015C129.277 99.135 129.777 100.105 130.442 100.905C131.107 101.705 131.977 102.33 133.022 102.77C134.067 103.205 135.327 103.425 136.767 103.425C138.187 103.425 139.447 103.21 140.517 102.785C141.592 102.36 142.497 101.745 143.208 100.95C143.918 100.16 144.463 99.185 144.823 98.06C145.183 96.94 145.368 95.665 145.368 94.27C145.368 92.9 145.188 91.65 144.838 90.55ZM142.642 94.275C142.642 94.955 142.617 95.635 142.567 96.305C142.517 96.97 142.432 97.595 142.322 98.165C142.207 98.735 142.067 99.24 141.897 99.67C141.732 100.09 141.527 100.405 141.287 100.6C140.732 101.08 140.087 101.415 139.382 101.6C138.667 101.785 137.787 101.88 136.762 101.88C135.697 101.88 134.802 101.69 134.092 101.31C133.387 100.93 132.812 100.4 132.392 99.735C131.967 99.065 131.657 98.255 131.472 97.33C131.287 96.4 131.192 95.37 131.192 94.28C131.192 93.57 131.217 92.87 131.262 92.21C131.307 91.55 131.382 90.935 131.482 90.375C131.582 89.82 131.717 89.33 131.887 88.915C132.052 88.51 132.257 88.195 132.497 87.99C132.942 87.615 133.552 87.325 134.307 87.135C135.072 86.945 135.912 86.845 136.797 86.845C137.817 86.845 138.702 87.025 139.432 87.385C140.162 87.74 140.772 88.25 141.247 88.895C141.722 89.545 142.077 90.335 142.302 91.24C142.527 92.145 142.642 93.17 142.642 94.275Z" fill="white"/>
<path d="M164.023 103.375H172.033C172.033 101.035 171.973 100.915 169.523 100.915H164.023C159.173 100.915 158.753 96.46 158.753 93.045C158.753 89.64 158.643 88.105 159.293 87.22C159.963 86.31 161.108 86.385 163.623 86.385H169.213C171.488 86.385 171.538 86.135 171.543 83.795H164.028C157.618 83.795 155.573 86.735 155.573 93.04C155.568 99.355 158.253 103.375 164.023 103.375Z" fill="white"/>
<path d="M176.244 89.44C176.244 91.505 176.294 91.505 178.269 91.505H181.149C184.024 91.505 185.199 92.385 185.199 94.545V94.705H180.574C176.944 94.705 174.859 96.355 174.859 99.235C174.859 101.82 176.864 103.365 180.229 103.365C183.014 103.365 184.929 102.26 185.589 101.17L185.889 100.675V101.255C185.889 103.17 185.889 103.225 187.784 103.225V95.325C187.784 91.79 186.639 89.44 181.064 89.44H176.244ZM185.199 97.315C185.199 101.04 183.754 101.42 180.919 101.42C178.774 101.42 177.589 100.635 177.589 99.215C177.589 96.69 178.519 96.69 181.034 96.69H185.199V97.315Z" fill="white"/>
<path d="M191.759 85.415V101C191.759 103.325 191.759 103.37 194.374 103.375V88.34C194.369 86.13 194.369 85.415 191.759 85.415Z" fill="white"/>
<path d="M198.744 89.44V101C198.744 103.325 198.744 103.37 201.359 103.375V92.365C201.359 90.155 201.359 89.44 198.744 89.44Z" fill="white"/>
<path d="M213.5 89.355C210.38 89.355 209.45 90.955 209.24 91.445L209.095 91.79L208.945 91.45C208.32 90.025 207.135 89.36 205.205 89.36C202.254 89.36 201.259 90.705 200.969 91.285L200.664 91.9V91.215C200.664 89.58 200.664 89.535 198.739 89.535V101.01C198.739 103.335 198.739 103.38 201.354 103.385V95.04C201.354 91.575 201.409 91.51 204.255 91.51C206.82 91.51 207.04 93.335 207.04 95.04V101C207.04 103.325 207.04 103.37 209.71 103.375V95.04C209.71 91.575 209.765 91.51 212.55 91.51C215.115 91.51 215.33 93.335 215.33 95.04V101C215.33 103.325 215.33 103.37 218 103.375V95.21C218.005 91.105 216.66 89.355 213.5 89.355Z" fill="white"/>
<path d="M134.982 116.67C134.982 116.98 134.947 117.26 134.867 117.505C134.792 117.75 134.677 117.97 134.527 118.16C134.377 118.35 134.187 118.515 133.962 118.65C133.737 118.785 133.477 118.905 133.177 119L132.967 118.635C133.132 118.54 133.262 118.43 133.367 118.315C133.472 118.2 133.552 118.075 133.612 117.94C133.672 117.805 133.712 117.66 133.732 117.505C133.752 117.35 133.762 117.185 133.762 117.015V111.16H134.977V116.67H134.982Z" fill="white"/>
<path d="M140.862 117.115H137.272V111.16H140.732L140.672 111.765L138.482 111.795V113.735L140.542 113.76L140.482 114.315L138.482 114.36V116.49L140.912 116.535L140.862 117.115Z" fill="white"/>
<path d="M144.008 116.67C144.008 116.98 143.973 117.26 143.893 117.505C143.818 117.75 143.703 117.97 143.553 118.16C143.403 118.35 143.213 118.515 142.987 118.65C142.762 118.785 142.502 118.905 142.202 119L141.992 118.635C142.157 118.54 142.287 118.43 142.392 118.315C142.497 118.2 142.577 118.075 142.637 117.94C142.697 117.805 142.737 117.66 142.757 117.505C142.777 117.35 142.787 117.185 142.787 117.015V111.16H144.003V116.67H144.008Z" fill="white"/>
<path d="M151.223 115.86C151.108 116.125 150.933 116.355 150.708 116.55C150.483 116.75 150.198 116.905 149.863 117.02C149.528 117.135 149.133 117.195 148.688 117.195C148.318 117.195 147.988 117.16 147.693 117.085C147.393 117.01 147.143 116.89 146.933 116.725C146.723 116.56 146.563 116.345 146.448 116.075C146.333 115.805 146.278 115.48 146.278 115.09V111.15H147.493V115.205C147.493 115.505 147.523 115.74 147.578 115.92C147.633 116.095 147.713 116.23 147.823 116.325C147.928 116.42 148.063 116.48 148.223 116.505C148.383 116.53 148.568 116.545 148.778 116.545C149.033 116.545 149.253 116.52 149.443 116.47C149.633 116.42 149.783 116.35 149.908 116.265C150.033 116.175 150.113 116.04 150.143 115.855C150.173 115.67 150.193 115.445 150.193 115.185V111.155H151.408V115.015C151.398 115.315 151.338 115.595 151.223 115.86Z" fill="white"/>
</svg>
