<svg width="286" height="200" viewBox="0 0 286 200" fill="none" xmlns="http://www.w3.org/2000/svg">
<path d="M121.773 110.81C121.883 110.81 122.049 110.81 122.215 110.756C122.381 110.756 122.548 110.756 122.714 110.702C122.88 110.702 123.101 110.702 123.267 110.702C123.433 110.702 123.655 110.702 123.765 110.702C124.208 110.702 124.651 110.756 125.038 110.863C125.426 110.971 125.758 111.132 126.035 111.347C126.311 111.561 126.533 111.83 126.699 112.152C126.865 112.474 126.92 112.903 126.92 113.387C126.92 113.87 126.865 114.299 126.754 114.675C126.644 115.051 126.422 115.373 126.201 115.641C125.924 115.91 125.592 116.124 125.204 116.285C124.817 116.446 124.319 116.5 123.71 116.5C123.544 116.5 123.378 116.5 123.212 116.5C123.046 116.5 122.88 116.5 122.714 116.5C122.548 116.5 122.381 116.5 122.215 116.446C122.049 116.446 121.939 116.393 121.773 116.393C121.773 116.339 121.773 110.81 121.773 110.81ZM122.99 115.802C123.046 115.802 123.101 115.802 123.101 115.802C123.156 115.802 123.212 115.802 123.267 115.802C123.322 115.802 123.378 115.802 123.433 115.802C123.488 115.802 123.544 115.802 123.544 115.802C123.876 115.802 124.208 115.802 124.429 115.748C124.651 115.695 124.872 115.641 125.038 115.534C125.149 115.48 125.204 115.373 125.315 115.319C125.426 115.265 125.481 115.104 125.537 114.943C125.592 114.782 125.647 114.567 125.647 114.353C125.647 114.138 125.703 113.816 125.703 113.44C125.703 113.011 125.647 112.635 125.537 112.367C125.426 112.098 125.26 111.883 125.094 111.722C124.928 111.561 124.651 111.454 124.429 111.4C124.153 111.347 123.876 111.293 123.599 111.293C123.544 111.293 123.488 111.293 123.433 111.293C123.378 111.293 123.322 111.293 123.267 111.293C123.212 111.293 123.156 111.293 123.101 111.293C123.046 111.293 122.99 111.293 122.99 111.293C122.99 111.347 122.99 115.802 122.99 115.802Z" fill="white"/>
<path d="M132.511 116.393H129.024V110.756H132.4L132.345 111.347H130.241V113.172H132.234L132.179 113.709L130.241 113.762V115.748L132.622 115.802L132.511 116.393Z" fill="white"/>
<path d="M134.393 116.393V110.756H135.555V115.748H137.769L137.714 116.339H134.393V116.393Z" fill="white"/>
<path d="M143.47 113.762L143.637 113.709C143.803 113.655 143.913 113.655 144.079 113.601C144.19 113.548 144.356 113.494 144.411 113.387C144.522 113.279 144.578 113.172 144.633 113.011C144.688 112.85 144.688 112.635 144.688 112.367C144.688 112.206 144.688 111.991 144.633 111.883C144.578 111.776 144.522 111.615 144.411 111.561C144.301 111.454 144.245 111.4 144.079 111.347C143.913 111.293 143.803 111.293 143.692 111.293C143.581 111.293 143.36 111.293 143.194 111.347V116.393H142.031V110.81C142.142 110.81 142.308 110.81 142.419 110.81C142.585 110.81 142.696 110.81 142.862 110.81C143.028 110.81 143.194 110.81 143.304 110.81C143.415 110.81 143.637 110.81 143.747 110.81C144.079 110.81 144.411 110.863 144.688 110.917C144.965 110.971 145.186 111.078 145.352 111.239C145.519 111.347 145.629 111.561 145.74 111.722C145.795 111.937 145.851 112.152 145.851 112.367C145.851 112.635 145.795 112.85 145.74 113.118C145.629 113.333 145.519 113.548 145.297 113.709C145.076 113.87 144.854 114.031 144.578 114.138C144.301 114.245 143.913 114.299 143.526 114.299H143.581L143.47 113.762Z" fill="white"/>
<path d="M149.006 116.393H147.843V110.756H149.006V116.393Z" fill="white"/>
<path d="M155.925 116.393L151.829 112.474C151.829 112.796 151.829 113.118 151.829 113.387C151.829 113.494 151.829 113.601 151.829 113.762C151.829 113.87 151.829 113.977 151.829 114.084C151.829 114.192 151.829 114.245 151.829 114.353C151.829 114.406 151.829 114.46 151.829 114.514V116.393H151.164V110.702H151.663L155.759 114.621C155.759 114.299 155.759 114.031 155.759 113.762C155.759 113.655 155.759 113.548 155.759 113.44C155.759 113.333 155.759 113.225 155.759 113.118C155.759 113.011 155.759 112.903 155.759 112.85C155.759 112.742 155.759 112.689 155.759 112.635V110.756H156.423V116.393H155.925Z" fill="white"/>
<path d="M164.283 113.548C164.283 113.977 164.227 114.406 164.117 114.729C164.006 115.104 163.785 115.373 163.563 115.641C163.342 115.91 163.01 116.071 162.678 116.232C162.29 116.339 161.903 116.446 161.404 116.446C160.906 116.446 160.463 116.393 160.131 116.232C159.799 116.071 159.467 115.91 159.246 115.641C159.024 115.373 158.858 115.104 158.748 114.729C158.637 114.353 158.582 113.977 158.582 113.548C158.582 113.118 158.637 112.742 158.748 112.367C158.858 111.991 159.024 111.722 159.246 111.454C159.467 111.186 159.744 111.025 160.131 110.863C160.519 110.702 160.906 110.649 161.404 110.649C161.903 110.649 162.29 110.702 162.678 110.863C163.065 110.971 163.342 111.186 163.563 111.454C163.785 111.722 164.006 111.991 164.117 112.367C164.227 112.742 164.283 113.118 164.283 113.548ZM163.01 113.548C163.01 113.225 162.954 112.903 162.899 112.635C162.844 112.367 162.733 112.152 162.622 111.937C162.512 111.776 162.29 111.615 162.124 111.508C161.958 111.4 161.681 111.347 161.349 111.347C161.072 111.347 160.851 111.347 160.63 111.4C160.408 111.454 160.242 111.508 160.131 111.615C160.021 111.722 159.91 111.937 159.855 112.259C159.799 112.581 159.744 113.011 159.744 113.548C159.744 113.87 159.799 114.192 159.799 114.46C159.799 114.729 159.91 114.943 160.076 115.158C160.242 115.373 160.353 115.534 160.574 115.587C160.796 115.695 161.017 115.748 161.349 115.748C161.681 115.748 161.903 115.695 162.124 115.641C162.345 115.587 162.512 115.534 162.622 115.426C162.678 115.373 162.733 115.319 162.788 115.212C162.844 115.104 162.899 114.943 162.899 114.782C162.899 114.621 162.954 114.406 162.954 114.192C163.01 114.031 163.01 113.762 163.01 113.548Z" fill="white"/>
<path d="M157.253 91.2163C156.257 91.8604 155.814 92.0752 153.877 92.0752H148.563V88.908C148.563 86.9755 148.563 86.0092 148.618 85.5798H149.006C151.829 85.5798 154.818 85.6871 155.703 85.7945H155.759L157.53 84.0767L156.976 83.4862L156.866 83.5936C155.925 84.184 155.482 84.2914 153.711 84.2914H144.633V85.3113L146.072 85.365C146.238 85.8482 146.293 87.6196 146.293 90.7868V93.9003C146.293 97.2822 146.238 100.933 146.127 101.469L144.578 101.523V102.543H150.611V101.469L148.729 101.416C148.618 100.933 148.508 98.0874 148.508 94.3834V93.5245H150.777C151.718 93.5245 155.205 93.6319 155.814 93.6856H155.925L157.862 91.8604L157.308 91.2699L157.253 91.2163Z" fill="white"/>
<path d="M172.309 99.8052C171.146 100.664 169.929 101.255 167.825 101.255C166.386 101.255 164.67 101.094 164.061 100.933C164.006 100.342 163.951 98.7316 163.951 95.8328V95.296H166.275C167.272 95.296 168.711 95.4034 169.264 95.4571L169.375 95.4034L171.423 93.9003L171.479 93.8466L170.98 93.2025L170.925 93.2561C169.984 93.7929 169.486 93.9003 167.549 93.9003H163.895V91.7531C163.895 89.8206 163.895 88.8543 163.951 88.4248H164.892C167.549 88.4248 168.656 88.5322 169.541 88.6396H169.597L171.368 86.9218L170.814 86.3313L170.759 86.385C169.873 86.9755 169.486 87.0828 167.604 87.0828H159.965V88.1564L161.404 88.2101C161.571 88.6933 161.626 90.4647 161.626 93.6319V96.2623C161.626 100.181 161.46 101.201 161.404 101.416L159.965 101.469V102.489H167.659C168.545 102.489 169.707 102.543 170.316 102.543H170.371L170.427 102.489L172.752 100.396L172.807 100.342L172.253 99.7515L172.309 99.8052Z" fill="white"/>
<path d="M187.807 99.8052C186.645 100.664 185.427 101.255 183.324 101.255C181.885 101.255 180.169 101.094 179.56 100.933C179.505 100.342 179.449 98.7316 179.449 95.8328V93.4172C179.449 90.4647 179.505 88.7469 179.671 88.2638L181.497 88.2101H181.608V87.1902H175.575V88.1564L177.124 88.2101C177.18 88.4248 177.29 89.3374 177.29 92.8804V96.2086C177.29 100.127 177.124 101.147 177.069 101.362L175.63 101.416V102.436H183.545C184.431 102.436 185.593 102.489 186.202 102.489H186.257L186.313 102.436L188.471 100.235L187.918 99.6442L187.807 99.8052Z" fill="white"/>
<path d="M189.745 88.1564L191.405 88.2101C191.46 88.5322 191.571 89.6595 191.571 93.3635V96.7454C191.571 100.288 191.46 101.201 191.405 101.416L189.745 101.469V102.489H195.612V101.469L193.951 101.416C193.896 101.094 193.785 99.9663 193.785 96.2623V92.934C193.785 89.3911 193.896 88.4785 193.951 88.2638L195.612 88.2101V87.1902H189.745V88.1564Z" fill="white"/>
<path d="M210.612 99.0537C209.561 100.235 207.789 101.04 206.184 101.04C202.309 101.04 200.317 98.9463 200.317 94.8666V94.115C200.317 91.0015 200.815 89.7669 202.365 88.908C203.029 88.5322 203.859 88.3712 205.077 88.3712C207.346 88.3712 208.62 89.069 209.062 89.4448L209.616 91.1626H210.723L210.502 87.888L210.446 87.8344C209.727 87.5123 208.177 86.9755 206.073 86.9755C203.915 86.9755 202.752 87.4049 201.701 87.9954C199.099 89.4985 198.103 91.4847 198.103 95.4034C198.103 100.074 200.538 102.65 204.911 102.65C207.623 102.65 209.948 101.523 211.332 99.7515L211.387 99.6979L210.889 99.0537H210.612Z" fill="white"/>
<path d="M225.502 99.7515L225.446 99.8052C224.284 100.664 223.066 101.255 221.018 101.255C219.635 101.255 217.863 101.094 217.254 100.933C217.199 100.342 217.144 98.7316 217.144 95.8328V95.296H219.469C220.465 95.296 221.904 95.4034 222.458 95.4571L222.568 95.4034L224.616 93.9003L224.672 93.8466L224.173 93.2025L224.118 93.2561C223.177 93.7929 222.679 93.9003 220.742 93.9003H217.144V91.7531C217.144 89.8206 217.144 88.8543 217.199 88.4248H218.14C220.797 88.4248 221.904 88.5322 222.79 88.6396L224.561 86.9218L224.007 86.3313L223.952 86.385C223.066 86.9755 222.679 87.0828 220.797 87.0828H213.158V88.1564L214.598 88.2101C214.764 88.6933 214.819 90.4647 214.819 93.6319V96.2623C214.819 100.181 214.653 101.201 214.598 101.416L213.158 101.469V102.489H220.852C221.738 102.489 222.9 102.543 223.509 102.543H223.565L223.62 102.489L225.945 100.396L226 100.342L225.502 99.7515Z" fill="white"/>
<path d="M71.5132 92.2362C71.0704 91.8067 70.5168 91.3773 69.908 91.1089C69.2991 90.7868 68.6902 90.5184 68.0814 90.25C67.4725 89.9816 66.8636 89.7669 66.2548 89.4985C65.6459 89.2301 65.0924 88.9617 64.6495 88.6933C64.2067 88.3712 63.8193 88.0491 63.4872 87.6733C63.2104 87.2975 63.0443 86.7607 63.0443 86.2239C63.0443 85.4724 63.1551 84.9356 63.3211 84.6135C63.4872 84.2377 63.7086 83.9693 63.9853 83.8083C64.2067 83.6472 64.5942 83.5399 65.037 83.4325C65.4798 83.3252 65.978 83.3252 66.5869 83.3252C67.3064 83.3252 68.1367 83.4325 69.0223 83.6472C69.8526 83.8083 70.6275 84.0767 71.4025 84.2914L71.5132 84.3451L72.122 81.9831H72.0113C71.2918 81.8758 70.5722 81.7147 69.908 81.661C69.133 81.5537 68.3581 81.5 67.5278 81.5C66.4762 81.5 65.5352 81.661 64.7049 81.9831C63.8746 82.3052 63.0443 82.5736 62.4908 83.1104C61.9373 83.5936 61.4945 84.184 61.1624 84.8282C60.8856 85.4724 60.7196 86.1166 60.7196 86.7071C60.7196 87.6196 60.8856 88.3712 61.1624 89.0153C61.4391 89.6595 61.8266 90.1963 62.2694 90.6258C62.7122 91.0552 63.2658 91.431 63.8746 91.7531C64.4835 92.0752 65.0924 92.3436 65.7012 92.5583C66.3101 92.8267 66.919 93.0414 67.5278 93.3098C68.1367 93.5782 68.6902 93.8466 69.133 94.115C69.6312 94.4371 69.9633 94.8129 70.2401 95.2423C70.5168 95.6718 70.6829 96.2086 70.6829 96.8528C70.6829 97.3359 70.6275 97.7653 70.5722 98.0874C70.5168 98.4095 70.4061 98.7316 70.2954 98.9463C70.1847 99.161 70.0187 99.3758 69.908 99.4831C69.7419 99.5905 69.5759 99.7515 69.4098 99.8052C69.133 99.9663 68.6902 100.127 68.2474 100.235C67.7493 100.342 67.1957 100.396 66.5315 100.396C66.0333 100.396 65.5352 100.342 65.037 100.181C64.4281 100.127 63.93 99.9663 63.4872 99.8052C62.989 99.6442 62.5462 99.4294 62.1034 99.161C61.7159 99 61.3838 98.7853 61.107 98.6242L60.9963 98.5706L60 100.933L60.0554 100.986C60.8856 101.416 61.7159 101.791 62.6569 102.006C63.5979 102.275 64.7049 102.436 65.8673 102.436C67.0297 102.436 68.026 102.275 68.9116 101.899C69.7973 101.523 70.5722 101.04 71.1811 100.449C71.7899 99.8589 72.2881 99.2147 72.5649 98.4632C72.8416 97.7117 73.063 96.9601 73.063 96.2086C73.063 95.296 72.897 94.5445 72.6202 93.9003C72.3434 93.2025 71.956 92.6656 71.5132 92.2362Z" fill="white"/>
<path d="M92.2147 87.6733C91.4952 86.9218 90.6649 86.385 89.6132 85.9555C88.5615 85.5798 87.3438 85.365 85.96 85.365C84.5762 85.365 83.3585 85.5798 82.3068 85.9555C81.3104 86.3313 80.4248 86.9218 79.7606 87.6733C79.0964 88.4248 78.5982 89.2837 78.2661 90.3574C77.934 91.3773 77.8233 92.5583 77.8233 93.9003C77.8233 95.2423 77.9893 96.3696 78.2661 97.4433C78.5982 98.5169 79.041 99.4294 79.7052 100.181C80.3695 100.933 81.1997 101.523 82.1961 101.952C83.1924 102.382 84.4655 102.597 85.8493 102.597C87.2331 102.597 88.4508 102.382 89.5025 102.006C90.5542 101.63 91.4398 101.04 92.104 100.288C92.7683 99.5368 93.3218 98.6242 93.6539 97.5506C93.986 96.477 94.2074 95.296 94.2074 93.954C94.2074 92.6656 94.0414 91.4847 93.7092 90.411C93.4325 89.3374 92.9343 88.4248 92.2147 87.6733ZM85.9046 101.04C84.853 101.04 83.9673 100.879 83.3031 100.503C82.6389 100.127 82.0854 99.6442 81.6425 99C81.1997 98.3558 80.923 97.6043 80.7569 96.7454C80.5909 95.8865 80.4802 94.8666 80.4802 93.8466C80.4802 93.1488 80.4802 92.5046 80.5355 91.9141C80.5909 91.2699 80.6462 90.7331 80.7569 90.1963C80.8676 89.6595 80.9783 89.2301 81.1444 88.8006C81.3104 88.4248 81.5318 88.1028 81.7533 87.9417C82.1961 87.566 82.7496 87.2975 83.5245 87.1365C84.2441 86.9755 85.0744 86.8681 85.96 86.8681C86.9563 86.8681 87.8419 87.0291 88.5062 87.3512C89.1704 87.6733 89.8346 88.1564 90.2774 88.8006C90.7202 89.3911 91.1077 90.1426 91.3291 91.0015C91.5505 91.8604 91.6612 92.8267 91.6612 93.9003C91.6612 94.5445 91.6612 95.1887 91.6059 95.8328C91.5505 96.477 91.4952 97.0675 91.3845 97.6043C91.2738 98.1411 91.1077 98.6242 90.9417 99.0537C90.7756 99.4294 90.5542 99.7515 90.3328 99.9126C89.7793 100.342 89.1704 100.664 88.5062 100.879C87.7866 100.986 86.901 101.04 85.9046 101.04Z" fill="white"/>
<path d="M112.418 91.8604C112.418 92.1825 112.418 92.5046 112.418 92.8804C112.418 93.2561 112.418 93.6319 112.418 94.0613C112.418 94.4908 112.418 94.9202 112.418 95.296C112.418 96.2086 112.473 97.2285 112.473 98.2485L100.573 85.5261L100.518 85.4724H99.3551V102.328H101.071V96.6917C101.071 96.5844 101.071 96.4233 101.071 96.1549C101.071 95.8865 101.071 95.6181 101.071 95.2423C101.071 94.8666 101.071 94.4908 101.071 94.0613C101.071 93.6319 101.071 93.2025 101.071 92.773C101.071 91.8604 101.016 90.8405 101.016 89.6058L112.972 102.382H114.189V85.6334H112.473L112.418 91.8604Z" fill="white"/>
<path d="M134.891 90.3574C134.559 89.3374 134.005 88.4248 133.341 87.6733C132.622 86.9218 131.736 86.385 130.74 85.9555C129.743 85.5261 128.47 85.365 127.086 85.365C125.703 85.365 124.485 85.5798 123.433 85.9555C122.437 86.3313 121.551 86.9218 120.887 87.6733C120.223 88.4248 119.725 89.2837 119.392 90.3574C119.06 91.3773 118.95 92.5583 118.95 93.9003C118.95 95.1887 119.116 96.3696 119.392 97.4433C119.725 98.5169 120.167 99.4294 120.832 100.181C121.496 100.933 122.326 101.523 123.378 101.952C124.374 102.382 125.647 102.597 127.031 102.597C128.415 102.597 129.633 102.382 130.684 102.006C131.736 101.63 132.622 101.04 133.286 100.288C133.95 99.5368 134.504 98.6242 134.891 97.5506C135.223 96.477 135.444 95.296 135.444 93.954C135.389 92.5583 135.223 91.3773 134.891 90.3574ZM132.732 93.9003C132.732 94.5445 132.677 95.1887 132.677 95.8328C132.677 96.477 132.566 97.0675 132.455 97.6043C132.345 98.1411 132.234 98.6242 132.013 99.0537C131.847 99.4294 131.681 99.7515 131.404 99.9126C130.85 100.342 130.241 100.664 129.577 100.879C128.913 101.04 128.027 101.147 127.031 101.147C125.979 101.147 125.149 100.986 124.429 100.61C123.765 100.235 123.212 99.7515 122.769 99.1074C122.326 98.4632 122.049 97.7117 121.883 96.8528C121.717 95.9939 121.607 94.9739 121.607 93.954C121.607 93.3098 121.607 92.612 121.662 92.0215C121.717 91.3773 121.773 90.8405 121.883 90.3037C121.994 89.7669 122.105 89.3374 122.271 88.908C122.437 88.5322 122.658 88.2101 122.88 88.0491C123.322 87.6733 123.876 87.4049 124.651 87.2439C125.37 87.0828 126.201 86.9755 127.086 86.9755C128.083 86.9755 128.968 87.1365 129.633 87.4586C130.297 87.7807 130.961 88.2638 131.404 88.908C131.847 89.4985 132.234 90.25 132.455 91.1089C132.622 91.8604 132.732 92.8267 132.732 93.9003Z" fill="white"/>
</svg>
