<svg width="278" height="180" viewBox="0 0 278 180" fill="none" xmlns="http://www.w3.org/2000/svg">
<path d="M156.175 45.0378V81.7961H148.534V31.0938H129.468V81.7961H121.827V45.0378H116.868V103.979H121.827V84.9894H129.468V113.14H134.426V84.9894H143.582V113.14H148.541V84.9894H156.182V103.979H161.14V45.0378H156.175ZM134.419 34.287H143.575V68.7391H134.419V34.287ZM134.419 71.9395H143.575V81.7961H134.419V71.9395Z" fill="white"/>
<path d="M197.352 146.577V141.83H204.032V139.666H197.352V132.747H205.754V130.611H194.015V148.713H206.088V146.577H197.352Z" fill="white"/>
<path d="M147.808 141.83H154.496V139.666H147.808V132.747H156.21V130.611H144.472V148.713H156.544V146.577H147.808V141.83Z" fill="white"/>
<path d="M173.007 136.38C173.007 134.89 172.317 133.059 170.78 131.938C169.542 131.037 167.636 130.611 165.124 130.611H160.102V148.72H163.438V142.156H166.177C166.263 142.156 166.348 142.156 166.426 142.156L170.545 148.72H174.223L169.592 141.596C172.103 140.616 172.993 138.502 172.993 136.387L173.007 136.38ZM165.444 140.013H163.445V132.747H165.444C168.24 132.747 169.834 134.209 169.834 136.38C169.834 138.551 168.24 140.013 165.444 140.013Z" fill="white"/>
<path d="M190.06 136.38C190.06 134.89 189.37 133.059 187.833 131.938C186.595 131.037 184.688 130.611 182.177 130.611H177.154V148.72H180.491V142.156H183.23C183.315 142.156 183.401 142.156 183.479 142.156L187.598 148.72H191.276L186.645 141.596C189.156 140.616 190.045 138.502 190.045 136.387L190.06 136.38ZM182.49 140.013H180.491V132.747H182.49C185.286 132.747 186.88 134.209 186.88 136.38C186.88 138.551 185.286 140.013 182.49 140.013Z" fill="white"/>
<path d="M126.871 132.747H132.719V148.713H136.055V132.747H141.932V130.611H126.871V132.747Z" fill="white"/>
<path d="M121.009 141.369C121.009 144.952 119.607 146.89 116.598 146.89C113.589 146.89 112.308 144.952 112.308 141.369V130.604H108.964V141.354C108.964 145.939 111.668 148.912 116.598 148.912C121.528 148.912 124.352 145.932 124.352 141.354V130.604H121.009V141.369Z" fill="white"/>
<path d="M97.7096 130.611L89.7772 148.72H92.3668L94.1454 144.562H102.526L104.312 148.72H107.762L99.8083 130.611H97.7096ZM95.0774 142.391L98.3286 134.783L101.594 142.391H95.0702H95.0774Z" fill="white"/>
<path d="M84.1001 138.062H75.2428V130.611H71.9062V148.713H75.2428V140.226H84.1001V148.713H87.4438V130.611H84.1001V138.062Z" fill="white"/>
</svg>
