<svg width="286" height="200" viewBox="0 0 286 200" fill="none" xmlns="http://www.w3.org/2000/svg">
<path d="M101.858 93.6897C101.459 92.6209 100.916 90.7034 100.885 88.7406C100.845 86.4318 101.601 84.8784 102.246 83.9986C102.442 83.724 102.482 83.7395 102.664 83.9623C103.586 85.0804 104.301 86.9785 104.331 88.7807C104.368 90.5931 103.759 92.3591 102.613 93.7597C102.22 94.2352 102.069 94.2715 101.858 93.6897ZM102.629 100.45C103.047 101.518 103.535 103.107 103.565 104.793C103.605 107.294 102.709 109.276 102.059 109.991L101.969 109.986C101.047 108.741 100.114 107.019 100.085 105.117C100.05 103.001 100.971 101.549 101.877 100.314C102.215 99.8529 102.416 99.8996 102.629 100.45ZM105.53 95.01C105.962 94.0175 106.805 92.9241 108.205 91.9731C110.335 90.5155 112.608 90.1307 113.625 90.2836L113.736 90.4546C113.337 91.8979 112.249 93.5019 110.658 94.458C109.081 95.4103 107.801 95.8495 105.862 95.7187C105.354 95.6837 105.329 95.4751 105.53 95.01ZM98.8105 98.9628C98.3115 100.015 97.7376 100.871 96.4829 101.796C94.5279 103.245 92.1551 103.482 91.0977 103.416C90.9365 103.405 90.9119 103.36 90.9558 103.203C91.3555 101.782 92.5136 100.076 94.0752 99.1093C95.3648 98.3189 96.1605 98.1026 98.4378 98.249C98.9408 98.2788 99.0916 98.3863 98.8105 98.9615M98.8402 95.6785C97.8575 95.5412 96.0547 94.8739 94.7755 94.0978C92.7509 92.8696 92.1603 92.2827 91.2485 90.5971C91.1286 90.3743 91.1531 90.3082 91.3749 90.2577C92.8102 89.9286 95.0012 90.2525 96.5835 91.184C97.4604 91.6997 98.7448 93.1378 99.218 95.076C99.3341 95.5463 99.3741 95.7536 98.8402 95.6785ZM105.546 98.284C106.709 98.3656 108.416 98.867 109.75 99.6055C111.923 100.819 113.263 102.642 113.63 103.593L113.59 103.694C112.159 104.083 110.044 103.795 108.391 102.879C106.215 101.665 105.414 99.7221 105.208 98.8255C105.122 98.4563 105.111 98.2542 105.545 98.284" fill="white"/>
<path d="M91.9991 95.5308C94.4363 96.9482 97.2631 97.0855 98.9808 96.9987C99.9428 96.9534 99.5353 96.7202 99.0568 96.645C93.1893 95.6889 90.1563 92.7375 88.6642 88.9569C92.6232 88.0111 95.2836 88.5423 97.7776 90.7189C98.0097 90.921 98.2612 90.9716 97.9388 90.5311C97.0013 89.2562 95.6666 88.1018 93.6059 87.4838C91.1841 86.7609 88.7609 86.8826 86.0155 87.4138C87.1374 90.5971 88.2812 93.3749 91.9991 95.5308ZM112.507 98.1635C110.074 96.7564 107.243 96.6139 105.53 96.6994C104.567 96.7461 104.976 96.9793 105.453 97.0596C111.318 98.0106 114.351 100.962 115.842 104.743C111.883 105.688 109.226 105.157 106.734 102.981C106.501 102.778 106.245 102.728 106.567 103.168C107.509 104.443 108.845 105.603 110.9 106.214C113.327 106.94 115.75 106.817 118.496 106.286C117.374 103.102 116.229 100.325 112.507 98.1622" fill="white"/>
<path d="M104.125 96.7863C104.125 94.6615 105.429 92.3074 107.796 90.6878C110.24 89.0178 113.157 88.5773 115.856 88.9776C114.688 92.8943 112.904 94.9387 109.776 96.0219C109.489 96.1229 109.318 96.3159 109.857 96.2551C111.66 96.0717 113.348 95.2818 114.648 94.0136C116.537 92.2166 117.629 89.9545 118.511 87.445C115.625 86.9267 111.937 86.3411 108.285 88.4659C104.452 90.6982 103.274 94.1756 103.147 96.4325H101.368C101.343 95.1421 101.182 94.2106 100.769 92.9253C100.357 91.6388 99.6965 89.9494 99.6965 88.2482C99.7119 85.4096 100.698 83.0606 102.265 81.0771C105.061 84.0531 105.933 86.6235 105.298 89.8833C105.243 90.1916 105.324 90.4352 105.545 89.9351C106.175 88.4763 106.501 86.7453 106.004 84.64C105.398 82.1097 104.014 80.0445 102.265 78C100.185 80.4902 98.2612 82.8637 98.2612 87.2674C98.2612 88.8001 98.6996 90.4805 99.3083 92.0702C99.837 93.4669 100.386 94.2663 100.386 96.9132C100.386 99.0432 99.0775 101.392 96.7098 103.012C94.2661 104.682 91.3491 105.122 88.6552 104.722C89.8235 100.805 91.607 98.7607 94.7291 97.6776C95.0218 97.5766 95.1933 97.3796 94.6543 97.4392C92.8494 97.6277 91.1601 98.4208 89.8584 99.691C87.9756 101.483 86.8769 103.746 86 106.256C88.886 106.771 92.5742 107.353 96.2262 105.228C100.054 103.001 101.237 99.5239 101.364 97.2669H103.137C103.167 98.5574 103.328 99.4889 103.742 100.774C104.154 102.061 104.815 103.75 104.815 105.451C104.799 108.29 103.808 110.634 102.241 112.622C99.4501 109.652 98.5784 107.071 99.2077 103.816C99.2683 103.513 99.1819 103.264 98.9666 103.764C98.336 105.223 98.0046 106.959 98.5075 109.06C99.1123 111.595 100.493 113.655 102.241 115.699C104.326 113.209 106.245 110.836 106.245 106.432C106.245 104.899 105.806 103.219 105.203 101.629C104.669 100.233 104.125 99.4332 104.125 96.7863ZM133.568 92.1104H132.359C130.823 92.1104 129.447 92.3825 128.45 92.8437V86.0224L125.266 86.8878C124.652 87.0498 124.138 87.7274 124.138 88.3493V106.462H128.45V97.3926C128.45 94.8985 129.497 94.059 132.359 94.059H133.568C136.293 94.0888 137.29 95.4712 137.29 99.2609V106.463H141.602V99.2609C141.602 93.7351 138.661 92.1402 133.568 92.1091M160.171 106.73H161.249C162.674 106.73 164.291 106.406 165.126 106.028V106.463C165.071 109.171 164.048 110.739 160.734 110.739H157.637L158.039 112.229C158.12 112.527 158.443 112.744 158.715 112.744H160.734C165.988 112.744 169.464 111.12 169.464 106.326V98.1777C169.464 93.4669 166.18 91.7606 161.249 91.7606H160.171C155.077 91.7606 152.005 93.3853 152.005 98.1777V100.395C152.005 104.727 154.78 106.73 160.171 106.73ZM156.316 98.179C156.316 95.3896 156.961 93.7092 160.171 93.7092H161.249C164.209 93.7092 165.152 95.4712 165.152 98.179V101.751C165.152 103.806 163.993 104.783 161.273 104.783H160.171C157.661 104.783 156.316 103.264 156.316 100.395V98.179ZM144.645 94.4386V106.462H148.956V92.1104L145.778 92.9759C145.159 93.1378 144.645 93.8206 144.645 94.4386ZM146.02 90.8394H147.581C148.499 90.8394 149.279 90.0802 149.279 89.1344V88.2379C149.271 87.7882 149.09 87.3591 148.773 87.0411C148.456 86.723 148.029 86.5408 147.582 86.5328H146.02C145.079 86.5328 144.323 87.3231 144.323 88.2391V89.1331C144.323 90.0802 145.077 90.8394 146.02 90.8394ZM181.916 92.1104H180.702C179.167 92.1104 177.796 92.3825 176.794 92.8437V86.0224L173.614 86.8878C172.995 87.0498 172.486 87.7274 172.486 88.3493V106.462H176.793V97.3926C176.793 94.8985 177.847 94.059 180.702 94.059H181.916C184.637 94.0888 185.634 95.4712 185.634 99.2609V106.463H189.945V99.2609C189.945 93.7351 187.009 92.1402 181.916 92.1091M192.424 88.0772V90.0802L195.689 89.2148V106.463H200V86.0172L192.424 88.0772ZM148.317 117.101V116.342C148.317 114.85 147.814 114.004 144.871 114.004H144.115C141.481 114.004 140.947 114.566 140.947 116.115V121.914H142.852V116.114C142.852 115.046 143.048 114.763 144.115 114.763H144.871C145.965 114.763 146.444 115.325 146.444 116.342V117.101C146.444 118.144 145.769 118.564 144.313 118.564H143.975C143.753 118.564 143.698 118.731 143.833 118.902L146.161 121.914H148.348L146.192 119.125C147.339 118.989 148.317 118.366 148.317 117.101ZM166.537 115.522H165.867C163.509 115.522 162.784 116.312 162.784 118.083V119.44C162.784 121.211 163.509 122 165.867 122H166.537C168.894 122 169.626 121.21 169.626 119.44V118.083C169.626 116.311 168.894 115.522 166.537 115.522ZM168.054 119.44C168.054 120.537 167.747 121.328 166.537 121.328H165.867C164.658 121.328 164.356 120.537 164.356 119.44V118.083C164.356 116.985 164.658 116.201 165.868 116.201H166.538C167.747 116.201 168.054 116.985 168.054 118.083V119.44ZM151.43 120.593V118.958H154.487V118.254H151.431V116.337H154.487L154.74 116.17L154.876 115.609H150.393C150.029 115.609 149.864 115.861 149.864 116.145V120.537C149.864 121.464 150.534 121.914 151.601 121.914H154.567L154.82 121.777L154.962 121.211H152.045C151.683 121.211 151.43 120.983 151.43 120.593ZM177.413 116.311H179.433V121.914H181.029V116.311H182.797L183.05 116.145L183.185 115.609H177.413V116.311ZM176.768 118.057V117.441C176.768 116.114 176.209 115.523 174.053 115.523H173.489C171.474 115.523 170.94 115.942 170.94 117.268V121.914H172.512V117.268C172.512 116.452 172.623 116.225 173.489 116.225H174.053C174.919 116.225 175.2 116.621 175.2 117.441V118.057C175.2 118.902 174.668 119.268 173.685 119.268H173.352C173.156 119.268 173.101 119.384 173.181 119.465L175.06 121.913H176.909L175.257 119.773C176.209 119.606 176.768 119.045 176.768 118.057ZM158.916 116.227C159.727 116.227 160.483 116.393 160.85 116.793L161.637 116.311C161.046 115.75 159.978 115.522 158.916 115.522C157.541 115.522 155.914 115.942 155.888 117.213C155.888 118.169 156.754 118.848 158.609 119.384C159.53 119.632 160.094 120.027 160.094 120.476C160.094 120.872 159.592 121.296 158.633 121.296C157.682 121.296 156.871 121.068 156.557 120.593L155.747 120.982C156.25 121.746 157.595 122 158.633 122C160.512 122 161.635 121.352 161.635 120.224C161.635 118.984 160.316 118.453 158.885 118.057C157.822 117.774 157.43 117.324 157.43 116.985C157.43 116.621 157.933 116.225 158.916 116.225" fill="white"/>
<path d="M101.858 93.6897C101.459 92.6209 100.916 90.7034 100.885 88.7406C100.845 86.4318 101.601 84.8784 102.246 83.9986C102.442 83.724 102.482 83.7395 102.664 83.9623C103.586 85.0804 104.301 86.9785 104.331 88.7807C104.368 90.5931 103.759 92.3591 102.613 93.7597C102.22 94.2352 102.069 94.2715 101.858 93.6897ZM102.629 100.45C103.047 101.518 103.535 103.107 103.565 104.793C103.605 107.294 102.709 109.276 102.059 109.991L101.969 109.986C101.047 108.741 100.114 107.019 100.085 105.117C100.05 103.001 100.971 101.549 101.877 100.314C102.215 99.8529 102.416 99.8996 102.629 100.45ZM105.53 95.01C105.962 94.0175 106.805 92.9241 108.205 91.9731C110.335 90.5155 112.608 90.1307 113.625 90.2836L113.736 90.4546C113.337 91.8979 112.249 93.5019 110.658 94.458C109.081 95.4103 107.801 95.8495 105.862 95.7187C105.354 95.6837 105.329 95.4751 105.53 95.01ZM98.8105 98.9628C98.3115 100.015 97.7376 100.871 96.4829 101.796C94.5279 103.245 92.1551 103.482 91.0977 103.416C90.9365 103.405 90.9119 103.36 90.9558 103.203C91.3555 101.782 92.5136 100.076 94.0752 99.1093C95.3648 98.3189 96.1605 98.1026 98.4378 98.249C98.9408 98.2788 99.0916 98.3863 98.8105 98.9615M98.8402 95.6785C97.8575 95.5412 96.0547 94.8739 94.7755 94.0978C92.7509 92.8696 92.1603 92.2827 91.2485 90.5971C91.1286 90.3743 91.1531 90.3082 91.3749 90.2577C92.8102 89.9286 95.0012 90.2525 96.5835 91.184C97.4604 91.6997 98.7448 93.1378 99.218 95.076C99.3341 95.5463 99.3741 95.7536 98.8402 95.6785ZM105.546 98.284C106.709 98.3656 108.416 98.867 109.75 99.6055C111.923 100.819 113.263 102.642 113.63 103.593L113.59 103.694C112.159 104.083 110.044 103.795 108.391 102.879C106.215 101.665 105.414 99.7221 105.208 98.8255C105.122 98.4563 105.111 98.2542 105.545 98.284" fill="white"/>
<path d="M91.9991 95.5308C94.4363 96.9482 97.2631 97.0855 98.9808 96.9987C99.9428 96.9534 99.5353 96.7202 99.0568 96.645C93.1893 95.6889 90.1563 92.7375 88.6642 88.9569C92.6232 88.0111 95.2836 88.5423 97.7776 90.7189C98.0097 90.921 98.2612 90.9716 97.9388 90.5311C97.0013 89.2562 95.6666 88.1018 93.6059 87.4838C91.1841 86.7609 88.7609 86.8826 86.0155 87.4138C87.1374 90.5971 88.2812 93.3749 91.9991 95.5308ZM112.507 98.1635C110.074 96.7564 107.243 96.6139 105.53 96.6994C104.567 96.7461 104.976 96.9793 105.453 97.0596C111.318 98.0106 114.351 100.962 115.842 104.743C111.883 105.688 109.226 105.157 106.734 102.981C106.501 102.778 106.245 102.728 106.567 103.168C107.509 104.443 108.845 105.603 110.9 106.214C113.327 106.94 115.75 106.817 118.496 106.286C117.374 103.102 116.229 100.325 112.507 98.1622" fill="white"/>
<path d="M104.125 96.7863C104.125 94.6615 105.429 92.3074 107.796 90.6878C110.24 89.0178 113.157 88.5773 115.856 88.9776C114.688 92.8943 112.904 94.9387 109.776 96.0219C109.489 96.1229 109.318 96.3159 109.857 96.2551C111.66 96.0717 113.348 95.2818 114.648 94.0136C116.537 92.2166 117.629 89.9545 118.511 87.445C115.625 86.9267 111.937 86.3411 108.285 88.4659C104.452 90.6982 103.274 94.1756 103.147 96.4325H101.368C101.343 95.1421 101.182 94.2106 100.769 92.9253C100.357 91.6388 99.6965 89.9494 99.6965 88.2482C99.7119 85.4096 100.698 83.0606 102.265 81.0771C105.061 84.0531 105.933 86.6235 105.298 89.8833C105.243 90.1916 105.324 90.4352 105.545 89.9351C106.175 88.4763 106.501 86.7453 106.004 84.64C105.398 82.1097 104.014 80.0445 102.265 78C100.185 80.4902 98.2612 82.8637 98.2612 87.2674C98.2612 88.8001 98.6996 90.4805 99.3083 92.0702C99.837 93.4669 100.386 94.2663 100.386 96.9132C100.386 99.0432 99.0775 101.392 96.7098 103.012C94.2661 104.682 91.3491 105.122 88.6552 104.722C89.8235 100.805 91.607 98.7607 94.7291 97.6776C95.0218 97.5766 95.1933 97.3796 94.6543 97.4392C92.8494 97.6277 91.1601 98.4208 89.8584 99.691C87.9756 101.483 86.8769 103.746 86 106.256C88.886 106.771 92.5742 107.353 96.2262 105.228C100.054 103.001 101.237 99.5239 101.364 97.2669H103.137C103.167 98.5574 103.328 99.4889 103.742 100.774C104.154 102.061 104.815 103.75 104.815 105.451C104.799 108.29 103.808 110.634 102.241 112.622C99.4501 109.652 98.5784 107.071 99.2077 103.816C99.2683 103.513 99.1819 103.264 98.9666 103.764C98.336 105.223 98.0046 106.959 98.5075 109.06C99.1123 111.595 100.493 113.655 102.241 115.699C104.326 113.209 106.245 110.836 106.245 106.432C106.245 104.899 105.806 103.219 105.203 101.629C104.669 100.233 104.125 99.4332 104.125 96.7863ZM133.568 92.1104H132.359C130.823 92.1104 129.447 92.3825 128.45 92.8437V86.0224L125.266 86.8878C124.652 87.0498 124.138 87.7274 124.138 88.3493V106.462H128.45V97.3926C128.45 94.8985 129.497 94.059 132.359 94.059H133.568C136.293 94.0888 137.29 95.4712 137.29 99.2609V106.463H141.602V99.2609C141.602 93.7351 138.661 92.1402 133.568 92.1091M160.171 106.73H161.249C162.674 106.73 164.291 106.406 165.126 106.028V106.463C165.071 109.171 164.048 110.739 160.734 110.739H157.637L158.039 112.229C158.12 112.527 158.443 112.744 158.715 112.744H160.734C165.988 112.744 169.464 111.12 169.464 106.326V98.1777C169.464 93.4669 166.18 91.7606 161.249 91.7606H160.171C155.077 91.7606 152.005 93.3853 152.005 98.1777V100.395C152.005 104.727 154.78 106.73 160.171 106.73ZM156.316 98.179C156.316 95.3896 156.961 93.7092 160.171 93.7092H161.249C164.209 93.7092 165.152 95.4712 165.152 98.179V101.751C165.152 103.806 163.993 104.783 161.273 104.783H160.171C157.661 104.783 156.316 103.264 156.316 100.395V98.179ZM144.645 94.4386V106.462H148.956V92.1104L145.778 92.9759C145.159 93.1378 144.645 93.8206 144.645 94.4386ZM146.02 90.8394H147.581C148.499 90.8394 149.279 90.0802 149.279 89.1344V88.2379C149.271 87.7882 149.09 87.3591 148.773 87.0411C148.456 86.723 148.029 86.5408 147.582 86.5328H146.02C145.079 86.5328 144.323 87.3231 144.323 88.2391V89.1331C144.323 90.0802 145.077 90.8394 146.02 90.8394ZM181.916 92.1104H180.702C179.167 92.1104 177.796 92.3825 176.794 92.8437V86.0224L173.614 86.8878C172.995 87.0498 172.486 87.7274 172.486 88.3493V106.462H176.793V97.3926C176.793 94.8985 177.847 94.059 180.702 94.059H181.916C184.637 94.0888 185.634 95.4712 185.634 99.2609V106.463H189.945V99.2609C189.945 93.7351 187.009 92.1402 181.916 92.1091M192.424 88.0772V90.0802L195.689 89.2148V106.463H200V86.0172L192.424 88.0772ZM148.317 117.101V116.342C148.317 114.85 147.814 114.004 144.871 114.004H144.115C141.481 114.004 140.947 114.566 140.947 116.115V121.914H142.852V116.114C142.852 115.046 143.048 114.763 144.115 114.763H144.871C145.965 114.763 146.444 115.325 146.444 116.342V117.101C146.444 118.144 145.769 118.564 144.313 118.564H143.975C143.753 118.564 143.698 118.731 143.833 118.902L146.161 121.914H148.348L146.192 119.125C147.339 118.989 148.317 118.366 148.317 117.101ZM166.537 115.522H165.867C163.509 115.522 162.784 116.312 162.784 118.083V119.44C162.784 121.211 163.509 122 165.867 122H166.537C168.894 122 169.626 121.21 169.626 119.44V118.083C169.626 116.311 168.894 115.522 166.537 115.522ZM168.054 119.44C168.054 120.537 167.747 121.328 166.537 121.328H165.867C164.658 121.328 164.356 120.537 164.356 119.44V118.083C164.356 116.985 164.658 116.201 165.868 116.201H166.538C167.747 116.201 168.054 116.985 168.054 118.083V119.44ZM151.43 120.593V118.958H154.487V118.254H151.431V116.337H154.487L154.74 116.17L154.876 115.609H150.393C150.029 115.609 149.864 115.861 149.864 116.145V120.537C149.864 121.464 150.534 121.914 151.601 121.914H154.567L154.82 121.777L154.962 121.211H152.045C151.683 121.211 151.43 120.983 151.43 120.593ZM177.413 116.311H179.433V121.914H181.029V116.311H182.797L183.05 116.145L183.185 115.609H177.413V116.311ZM176.768 118.057V117.441C176.768 116.114 176.209 115.523 174.053 115.523H173.489C171.474 115.523 170.94 115.942 170.94 117.268V121.914H172.512V117.268C172.512 116.452 172.623 116.225 173.489 116.225H174.053C174.919 116.225 175.2 116.621 175.2 117.441V118.057C175.2 118.902 174.668 119.268 173.685 119.268H173.352C173.156 119.268 173.101 119.384 173.181 119.465L175.06 121.913H176.909L175.257 119.773C176.209 119.606 176.768 119.045 176.768 118.057ZM158.916 116.227C159.727 116.227 160.483 116.393 160.85 116.793L161.637 116.311C161.046 115.75 159.978 115.522 158.916 115.522C157.541 115.522 155.914 115.942 155.888 117.213C155.888 118.169 156.754 118.848 158.609 119.384C159.53 119.632 160.094 120.027 160.094 120.476C160.094 120.872 159.592 121.296 158.633 121.296C157.682 121.296 156.871 121.068 156.557 120.593L155.747 120.982C156.25 121.746 157.595 122 158.633 122C160.512 122 161.635 121.352 161.635 120.224C161.635 118.984 160.316 118.453 158.885 118.057C157.822 117.774 157.43 117.324 157.43 116.985C157.43 116.621 157.933 116.225 158.916 116.225" fill="white"/>
</svg>
